<svg id="Layer_1" data-name="Layer 1" xmlns="http://www.w3.org/2000/svg" viewBox="0 0 546 137"><path d="M254.39,29.21l-1,4.36Q249,51.77,244.64,70c-.12.5-.29,1-.45,1.48a2.6,2.6,0,0,1-2.6,1.9c-.87,0-1.73,0-2.6,0-1.32,0-2.65,0-4,0a2.92,2.92,0,0,1-3.09-2.13c-.59-1.77-1.16-3.56-1.7-5.35Q223.38,43.45,216.57,21q-.36-1.2-.6-2.43a3,3,0,0,1,0-1.11,1,1,0,0,1,.8-.82,5,5,0,0,1,.94-.11h5.8c.35,0,.69.06,1,.07a2.44,2.44,0,0,1,2.35,1.72c.36,1,.68,2,.94,3.05L238,61.07a2,2,0,0,0,.34.76c.07-.23.16-.46.21-.7L248,20.85c.2-.84.44-1.67.7-2.49a2.42,2.42,0,0,1,2.18-1.71,16,16,0,0,1,2.07-.11c1.68,0,3.35,0,5,.05a2.7,2.7,0,0,1,2.72,2.23c.4,1.47.74,3,1.09,4.44q4.51,19.18,9,38.36c.06.24.14.48.28.92.14-.45.23-.71.29-1q4.14-16,8.27-32c.82-3.18,1.63-6.36,2.46-9.54a15,15,0,0,1,.71-1.94,2.38,2.38,0,0,1,2.08-1.48,14.13,14.13,0,0,1,1.46-.11c1.7,0,3.41,0,5.11,0,1.89,0,2.17.78,2,2.31a8.61,8.61,0,0,1-.33,1.42q-7.77,24.92-15.56,49.83a17.24,17.24,0,0,1-.64,1.69,2.56,2.56,0,0,1-2.2,1.58,8.21,8.21,0,0,1-1.21.09q-2.59,0-5.19,0-.34,0-.69,0a2.8,2.8,0,0,1-3-2.46c-.45-1.67-.82-3.36-1.23-5q-4.32-18-8.66-36c0-.22-.13-.43-.2-.65Z"/><path d="M251.89,130.08c-2.93-.08-5.49-.11-8-.24-1.9-.09-3.79-.28-5.68-.48-3-.33-6.06-.62-9.07-1.1-3.35-.54-6.69-1.19-10-1.94a138.25,138.25,0,0,1-33.78-12.5A138.16,138.16,0,0,1,160.9,97.54c-1.4-1.17-2.76-2.37-4.13-3.57a5,5,0,0,1-.72-.74,1.49,1.49,0,0,1,1.67-2.41,7.45,7.45,0,0,1,1.24.6q5.88,3.4,12,6.31a188.11,188.11,0,0,0,25.09,9.84c4.35,1.35,8.73,2.57,13.16,3.62,4.62,1.09,9.27,2,14,2.76,2.65.41,5.29.82,7.94,1.16,1.94.25,3.89.4,5.84.56,2.58.2,5.17.37,7.75.52,1.5.09,3,.13,4.49.17,2,.06,4.09.14,6.14.13s4.15-.06,6.22-.16c2.58-.13,5.17-.28,7.75-.52,2.83-.27,5.67-.58,8.48-1,3.95-.58,7.91-1.2,11.83-1.93a175.58,175.58,0,0,0,19.18-4.77,185.91,185.91,0,0,0,17.88-6.46,4.46,4.46,0,0,1,2.1-.38,2.43,2.43,0,0,1,2.2,1.43,2.4,2.4,0,0,1-.32,2.61,5,5,0,0,1-1,.94A94.58,94.58,0,0,1,318,113.65a134.65,134.65,0,0,1-30.83,11.83,137.32,137.32,0,0,1-13.61,2.78c-3,.45-5.94.75-8.91,1.1-2.66.31-5.33.48-8,.53C254.93,129.92,253.23,130,251.89,130.08Z"/><path d="M199.86,66,199,67a23.19,23.19,0,0,1-12.57,7.31,22.76,22.76,0,0,1-12.54-.57c-5.81-2.09-9.14-6.32-10.15-12.36a19.42,19.42,0,0,1,.55-9.15,16.51,16.51,0,0,1,8.2-9.64A22.47,22.47,0,0,1,181,40a48.44,48.44,0,0,1,14.61.94c.91.18,1.8.39,2.71.58a6.32,6.32,0,0,0,.73.09c0-.06.07-.09.07-.11.05-3.48.29-7-.63-10.4a14.9,14.9,0,0,0-.49-1.47,7.89,7.89,0,0,0-4.75-4.73,20.34,20.34,0,0,0-6.78-1.16,34,34,0,0,0-11.7,1.95c-1.15.38-2.27.84-3.41,1.25a20.55,20.55,0,0,1-2.38.76c-1.05.22-1.51-.15-1.7-1.19a1.86,1.86,0,0,1,0-.34c0-1.5,0-3,.06-4.49a2.21,2.21,0,0,1,1.19-2,25.13,25.13,0,0,1,2.93-1.48A41.83,41.83,0,0,1,189.17,15a32.31,32.31,0,0,1,8.68,1.38,15.62,15.62,0,0,1,10.84,11.46,31.56,31.56,0,0,1,1,8.38c0,6.49,0,13,0,19.46a43.29,43.29,0,0,0,.41,5.08,16.61,16.61,0,0,0,1.7,4.79c.25.54.54,1.07.82,1.61a2.12,2.12,0,0,1-.65,3c-1.48,1.09-3,2.11-4.6,3.07a2.34,2.34,0,0,1-3.25-.62,29.58,29.58,0,0,1-2.38-3.18c-.56-.86-1-1.82-1.48-2.73C200.17,66.57,200,66.35,199.86,66Zm-.51-17.16c-.3-.1-.54-.19-.79-.25a48.29,48.29,0,0,0-13.13-1.22,15.29,15.29,0,0,0-5.13,1.05,8.45,8.45,0,0,0-5.48,6.61,13.76,13.76,0,0,0,0,4.39,7.7,7.7,0,0,0,6.65,6.85,18.52,18.52,0,0,0,8.36-.76,14.09,14.09,0,0,0,6.38-3.95A10.18,10.18,0,0,0,198.73,57a24.38,24.38,0,0,0,.61-5C199.37,51,199.35,49.93,199.35,48.88Z"/><path d="M321.11,23.41a23.07,23.07,0,0,0-6.25.82,13.91,13.91,0,0,0-2.15.89c-4.14,2.11-4.45,8.38-.82,10.92a16.29,16.29,0,0,0,3.31,1.85c2.3.9,4.66,1.65,7,2.43s4.67,1.48,7,2.28a20,20,0,0,1,5.14,2.63,13.84,13.84,0,0,1,6,11.22c.36,8.08-4.59,13.71-10.71,16.32a29.33,29.33,0,0,1-10.93,2.32A42.6,42.6,0,0,1,303,72.48a21.18,21.18,0,0,1-3.17-1.56,3.24,3.24,0,0,1-1.61-3c0-1.18,0-2.37,0-3.55a3.32,3.32,0,0,1,.1-.77,1.16,1.16,0,0,1,1.32-1,6.67,6.67,0,0,1,1.91.46A43.44,43.44,0,0,0,308,65.34a36.19,36.19,0,0,0,12.44.93,14.31,14.31,0,0,0,5.67-1.71A6.9,6.9,0,0,0,329.59,60a6.55,6.55,0,0,0-3.1-7.5A25.39,25.39,0,0,0,321,50.18c-3.16-1-6.33-1.94-9.48-3a20.2,20.2,0,0,1-7-3.68,15.21,15.21,0,0,1-5.68-12.79,14.63,14.63,0,0,1,5.73-11A21.13,21.13,0,0,1,315,15.25a35.3,35.3,0,0,1,12.55.43,30.61,30.61,0,0,1,5.71,1.66,14.94,14.94,0,0,1,2.41,1.34,3.15,3.15,0,0,1,1.48,2.78v3.46a3.05,3.05,0,0,1-.06.6,1.32,1.32,0,0,1-1.68,1.17,7.87,7.87,0,0,1-1.72-.56,27.84,27.84,0,0,0-8-2.32C324.15,23.62,322.63,23.54,321.11,23.41Z"/><path d="M334.86,86.82a39.41,39.41,0,0,1,9.5,1.16c.61.16,1.2.41,1.8.61a2.85,2.85,0,0,1,2,2.85,28.66,28.66,0,0,1-.39,6.8,47.38,47.38,0,0,1-4.93,14.14,31.34,31.34,0,0,1-6.74,8.69,3.84,3.84,0,0,1-1.75,1.07.87.87,0,0,1-1.08-.47,1.26,1.26,0,0,1-.09-.74,6.67,6.67,0,0,1,.39-1.14A131.61,131.61,0,0,0,338,107.35c.55-1.93,1-3.9,1.38-5.88a10.11,10.11,0,0,0,.1-3.6,3.08,3.08,0,0,0-1.9-2.58,12.87,12.87,0,0,0-3.07-.85,44.41,44.41,0,0,0-5.76-.34c-2.41,0-4.83.25-7.23.45s-5,.48-7.47.72a4,4,0,0,1-.69,0,.88.88,0,0,1-.83-1.27,2.8,2.8,0,0,1,1.16-1.36A27.48,27.48,0,0,1,320,89.4,37.13,37.13,0,0,1,329,87.28C331,87.09,332.91,87,334.86,86.82Z"/></svg>