<svg id="Layer_1" data-name="Layer 1" xmlns="http://www.w3.org/2000/svg" viewBox="0 0 240 240"><path d="M160.63,193.45c.05-1.13.12-2.06.12-3,.06-6.25-.14-12.51.21-18.74a16.6,16.6,0,0,1,15.95-15.3c11-.19,22.05-.12,33.07,0,2,0,2.45-.59,2.44-2.5q-.09-41.13,0-82.25c0-5.26-2-8.33-6.14-9.41a10,10,0,0,0-2.39-.23q-15.23,0-30.45,0h-2.27V52.76h4.61c9.54,0,19.09,0,28.63,0a16.82,16.82,0,0,1,17.06,16.15c.32,7.18.13,14.38.13,21.57,0,23.32-.06,46.64.07,70a11.27,11.27,0,0,1-4.83,10c-13.8,10.26-27.53,20.62-41.36,30.83a8.08,8.08,0,0,1-4.51,1.35q-64.83.1-129.66,0c-10.25,0-17.6-7.49-17.63-18-.06-22.18,0-44.36,0-66.54q0-23.69,0-47.38c0-9.37,5.56-16.1,14.55-17.8a5.62,5.62,0,0,1,1-.15c11.55,0,23.11,0,34.82,0V62H41.77c-5.72,0-8.92,3.17-8.94,9,0,11.62,0,23.25,0,34.88q0,38.81,0,77.61a15.63,15.63,0,0,0,.49,4.38c1.06,3.61,4.17,5.56,8.61,5.56q26.12,0,52.23,0h66.46Zm46.8-27.76c-1.11-.06-1.63-.12-2.15-.12q-13.31,0-26.61,0c-5.41,0-8.64,3.18-8.7,8.63s0,10.75,0,16.12a13.6,13.6,0,0,0,.21,1.68Z"/><path d="M70.85,86.38v14.79H46.6V86.38Z"/><path d="M198.62,101.18H174.37V86.36h24.25Z"/><path d="M46.61,124.21H70.84V138.9H46.61Z"/><path d="M198.63,124.25v14.68H174.37V124.25Z"/><path d="M89.23,101.29V86.42h24.26c0,4.62,0,9.16-.06,13.71a1.66,1.66,0,0,1-1.2,1.11C104.65,101.31,97.06,101.29,89.23,101.29Z"/><path d="M113.36,124.25V138.9H89.3V124.25Z"/><path d="M131.9,124.17h24v14.74h-24Z"/><path d="M89.22,177.12V162.19h24.26v9.65c0,5.28,0,5.28-5.21,5.28h-19Z"/><path d="M156,162.19v14.93H149.1c-5.11,0-10.21,0-15.32,0-1.51,0-2.15-.38-2.11-2,.1-4.28,0-8.56,0-12.95Z"/><path d="M158.13,54.76c0-4.23,0-8.47,0-12.7,0-2.81,1.56-4.67,3.88-4.73A4.4,4.4,0,0,1,166.46,42q0,12.79,0,25.6c0,2.83-1.77,4.65-4.24,4.6s-4.06-1.87-4.07-4.76C158.12,63.23,158.13,59,158.13,54.76Z"/><path d="M87.07,54.74c0,4.23,0,8.46,0,12.7,0,2.9-1.57,4.72-4,4.78s-4.26-1.81-4.27-4.78q0-12.69,0-25.4c0-2.88,1.74-4.78,4.12-4.72s4.21,2.06,4.21,4.92Q87.09,48.48,87.07,54.74Z"/><path d="M118.53,54.56c0-4.23,0-8.46,0-12.69,0-2.77,1.66-4.6,4-4.54a4.19,4.19,0,0,1,4.14,4.49q0,12.9,0,25.79c0,2.87-1.66,4.66-4.16,4.62s-4-1.81-4-4.57c0-4.36,0-8.73,0-13.1Z"/><path d="M42.72,167.5c.16-4.3,2.72-9,8-12s10.92-2.75,16.32.17c.88.47,2,1,1.29,2.27s-1.74.52-2.61,0a12.57,12.57,0,0,0-13.89,0,13,13,0,0,0-6.71,12.42,13.73,13.73,0,0,0,13,12.68c7.29.15,13.59-5.28,14-12.22.11-1.79-.31-3.59-.34-5.39a6.88,6.88,0,0,1,.59-2.06c.57.51,1.45.92,1.66,1.56,3,9-3.42,19.14-12.86,20.43C51.2,186.74,42.63,179.27,42.72,167.5Z"/><path d="M143.79,109.8A16.19,16.19,0,0,1,133.6,81.22a16.57,16.57,0,0,1,18.68-1.35c.91.55,1.9,1.18,1.2,2.33s-1.75.38-2.61-.11c-8.46-4.8-18.41-.43-20.29,9-1.1,5.54.85,10.11,5.3,13.43a12.64,12.64,0,0,0,14.39,1A13,13,0,0,0,157.44,93c0-1.13-.44-2.26-.43-3.38a7.27,7.27,0,0,1,.77-2.14c.51.52,1.28.95,1.49,1.58,2.81,8.29-2.6,17.88-11.32,20.07C146.6,109.5,145.18,109.59,143.79,109.8Z"/><path d="M91.72,61.84V52.93h21.61v8.91Z"/><path d="M153.16,52.9v9H131.55v-9Z"/><path d="M145.75,93.62,156.14,82c.18-.2.3-.49.52-.61a15.37,15.37,0,0,1,1.49-.67c0,.56.2,1.24,0,1.65-1.24,2.14-2.58,4.23-3.93,6.31-2,3-4,6-6,9.05-1.17,1.78-2.75,2.12-4.07.41a73.74,73.74,0,0,1-4.64-7.25c-.21-.35,0-1,0-1.44.55.07,1.24-.06,1.61.23C142.71,90.94,144.19,92.29,145.75,93.62Z"/><path d="M60.58,169.76c3.62-4.06,7.13-8,10.7-11.93a5.71,5.71,0,0,1,1.76-.89c-.07.67.09,1.47-.23,2Q68,166.56,63,174.11a1.9,1.9,0,0,1-3,.48,12.24,12.24,0,0,1-1.88-2.05,42.18,42.18,0,0,1-3.24-4.31,8.14,8.14,0,0,1-.52-2.68,8.65,8.65,0,0,1,2.21.88C58,167.46,59.27,168.64,60.58,169.76Z"/></svg>