<svg id="Layer_1" data-name="Layer 1" xmlns="http://www.w3.org/2000/svg" viewBox="0 0 240 240"><defs><style>.cls-1{fill:none;stroke:#000;stroke-miterlimit:10;}</style></defs><path d="M200.92,136c-3.52,0-7.06.15-10.57,0-2.94-.16-4.88-1.84-4.82-5s2-4.59,5-4.62c6.58-.06,13.16-.26,19.73,0,3.65.14,5.11-.81,4.63-4.68a97,97,0,0,0-20.57-49.34c-2.39-3-3.9-3.06-6.45-.26-3.94,4.34-8.29,8.31-12.42,12.48-2.49,2.53-5.32,4.68-8.46,1.64s-1.21-5.91,1.38-8.44c4.36-4.27,8.49-8.79,13-12.9,2.72-2.48,2.17-3.85-.41-5.93-14.67-11.81-31.42-18.48-50-20.75-3-.36-4.26.48-4.16,3.74.21,6.1.06,12.21,0,18.32,0,3.36.1,7.09-4.56,7.26-5.21.19-5-3.91-5.12-7.46-.11-5.63-.18-11.28,0-16.91.12-3.75-.53-5.42-5.07-4.81A98.2,98.2,0,0,0,64.48,57.78c-3.81,2.91-4.91,4.75-.68,8.29,4.49,3.74,8.31,8.27,12.5,12.38,2.31,2.26,3.38,4.89,1.07,7.41-2.53,2.76-5.43,2.06-8-.47C64.92,80.91,60.28,76.57,56,71.93c-2.34-2.51-3.77-2.58-6,.19-11.84,14.63-18.55,31.33-20.78,50-.43,3.63,1.08,4.38,4.34,4.28,6.34-.2,12.69,0,19,0,3.09,0,5.8.62,6,4.33.23,4-2.41,5.36-5.85,5.41-6.35.11-12.7.25-19-.05-3.84-.19-4.93,1.05-4.45,4.79,2.38,18.34,8.91,34.86,20.64,49.29,2.18,2.68,3.55,3,6,.38,4.32-4.63,8.94-9,13.42-13.49,2.37-2.37,5.07-4,7.88-1.06s1.51,5.52-1,8C70,190,63.74,196.07,57.8,202.4c-4,4.21-7.13,3.3-10.58-.47-21-22.88-30.83-49.91-27.56-80.71,5-46.87,37-81.46,82.93-91.3,55.28-11.84,113,28.59,121.09,84.58,4.68,32.67-3.77,61.32-25.57,86-5.78,6.56-7.08,6.48-13.44.15-5.49-5.47-10.93-11-16.43-16.45-2.64-2.62-4.12-5.58-1-8.51,2.9-2.76,5.54-.87,7.87,1.5,4.45,4.52,9.08,8.86,13.43,13.47,2.19,2.32,3.5,2.13,5.48-.29,11.9-14.59,18.59-31.3,21-49.89.44-3.44-.73-4.67-4.16-4.43-3.27.23-6.57,0-9.86,0Z"/><path class="cls-1" d="M121.91,152a21.48,21.48,0,0,1-19.42-13.82c-2.89-8.28-.78-17.67,6.31-22.86,13-9.55,26.5-18.53,39.78-27.77,2.08-1.46,4.16-2.18,6.43-.49,2.52,1.87,2.3,4.08,1.36,6.85-5.05,14.82-9.72,29.78-14.9,44.55A20.62,20.62,0,0,1,121.91,152Z"/><path d="M142,106.1c-3.38,9.85-6.63,19.76-10.21,29.54-1.62,4.42-5.41,6.43-10,6.38a10.31,10.31,0,0,1-9.53-6.09c-2.2-4.29-2-8.88,1.51-11.64,8.63-6.87,17.86-13,26.84-19.41Z"/><path d="M121.76,136.49c-3.14-.56-5.14-2.46-5.1-5.58a4.92,4.92,0,0,1,5.33-5.14c3.43.08,5.75,2.28,5.45,5.77C127.18,134.56,125,136.38,121.76,136.49Z"/></svg>