<?xml version="1.0" encoding="utf-8"?>
<!-- Generator: Adobe Illustrator 25.3.1, SVG Export Plug-In . SVG Version: 6.00 Build 0)  -->
<svg version="1.1" id="Layer_1" xmlns="http://www.w3.org/2000/svg" xmlns:xlink="http://www.w3.org/1999/xlink" x="0px" y="0px"
	 viewBox="0 0 480 160" style="enable-background:new 0 0 480 160;" xml:space="preserve">
<g>
	<g>
		<path d="M137.44,42.04c-10.04,0-13.6,6.98-13.6,13.5v4h-2.1c-1.54,0-2.76,1.2-2.76,2.74s1.2,2.74,2.76,2.74h2.1v27.57
			c0,1.62,1.28,2.9,2.9,2.9s2.9-1.28,2.9-2.9V65.03h6.44c1.54,0,2.76-1.2,2.76-2.74s-1.2-2.74-2.76-2.74h-6.44v-4
			c0-3.66,1.36-8.02,7.8-8.02c1.54,0,2.76-1.2,2.76-2.74S138.98,42.04,137.44,42.04z"/>
		<path d="M160.13,58.64c-4.32,0-8.02,1.76-10.08,4.72v-1.52c0-1.62-1.28-2.9-2.9-2.9s-2.9,1.28-2.9,2.9v30.75
			c0,1.62,1.28,2.9,2.9,2.9s2.9-1.28,2.9-2.9V75.61c0-7.1,3.76-11.34,10.08-11.34c1.56,0,2.82-1.26,2.82-2.82
			C162.95,59.9,161.69,58.64,160.13,58.64z"/>
		<path d="M195.75,73.73c0-1.68-0.28-5.96-2.78-9.58c-2.6-3.76-6.7-5.66-12.2-5.66c-10.24,0-16.12,6.8-16.12,18.66
			c0,12.26,5.84,18.74,16.88,18.74c7.42,0,11.44-3.66,12.18-4.38c0.5-0.5,0.98-1.06,0.98-2.08c0-1.48-1.2-2.68-2.68-2.68
			c-0.76,0-1.18,0.24-1.66,0.54c-2.14,1.6-4.58,3.16-8.82,3.16c-6.64,0-10.8-4.36-10.98-11.4h21.68
			C195.75,79.05,195.75,75.85,195.75,73.73z M180.77,63.83c6,0,9.1,3.38,9.24,10.04h-19.42C171.19,67.39,174.79,63.83,180.77,63.83z
			"/>
		<path d="M215.39,74.21c-4.34-1.5-8.1-2.78-8.1-6c0-3.54,3.94-4.08,6.28-4.08c4.2,0,6.3,1.46,7.94,3.04
			c0.54,0.54,1.2,0.82,1.94,0.82c1.48,0,2.68-1.2,2.68-2.68c0-0.78-0.34-1.34-0.62-1.72c-2.46-3.24-6.7-5.04-11.92-5.04
			c-7.46,0-12.1,3.7-12.1,9.64c0,7.28,6.4,9.44,12.04,11.34c4.26,1.44,7.94,2.68,7.94,5.8c0,4.26-4.74,4.9-7.58,4.9
			c-3.86,0-6.9-1.16-9.3-3.58c-0.74-0.74-1.5-0.9-2-0.9c-1.48,0-2.68,1.2-2.68,2.68c0,0.62,0.16,1.08,0.64,1.74
			c2.22,2.8,7.2,5.64,13.36,5.64c8.38,0,13.38-3.92,13.38-10.48C227.25,78.29,220.95,76.11,215.39,74.21z"/>
		<path d="M249.93,58.48c-4,0-7.6,1.58-9.62,4.16V42.9c0-1.62-1.28-2.9-2.9-2.9c-1.62,0-2.9,1.28-2.9,2.9v49.69
			c0,1.62,1.28,2.9,2.9,2.9c1.62,0,2.9-1.28,2.9-2.9V73.87c0-6.72,3.24-10.14,9.62-10.14c6.14,0,8.64,2.78,8.64,9.6v19.24
			c0,1.62,1.28,2.9,2.9,2.9c1.62,0,2.9-1.28,2.9-2.9V72.37C264.39,63.15,259.53,58.48,249.93,58.48z"/>
		<path d="M312.95,58.94c-1.24,0-2.26,0.7-2.72,1.9l-8.32,23.67l-6.8-23.65c-0.28-0.96-1.24-1.92-2.74-1.92
			c-1.48,0-2.44,0.96-2.74,1.94l-6.8,23.65l-8.32-23.69c-0.46-1.18-1.48-1.9-2.72-1.9c-1.62,0-2.9,1.28-2.9,2.9
			c0,0.38,0.1,0.82,0.26,1.22l11.16,30.53c0.46,1.18,1.48,1.9,2.72,1.9c1.3,0,2.46-0.86,2.8-2.08l6.52-22.45l6.52,22.45
			c0.36,1.22,1.5,2.08,2.82,2.08c1.24,0,2.26-0.7,2.72-1.9l11.16-30.51c0.16-0.42,0.26-0.86,0.26-1.24
			C315.85,60.21,314.59,58.94,312.95,58.94z"/>
		<path d="M334.13,58.48c-10.58,0-16.42,6.62-16.42,18.66c0,12.08,5.84,18.74,16.42,18.74c10.58,0,16.42-6.66,16.42-18.74
			C350.54,65.11,344.72,58.48,334.13,58.48z M334.13,90.53c-7.08,0-10.54-4.38-10.54-13.4c0-8.84,3.54-13.32,10.54-13.32
			c7,0,10.54,4.48,10.54,13.32C344.66,86.15,341.22,90.53,334.13,90.53z"/>
		<path d="M373.08,58.64c-4.32,0-8.02,1.76-10.08,4.72v-1.52c0-1.62-1.28-2.9-2.9-2.9c-1.62,0-2.9,1.28-2.9,2.9v30.75
			c0,1.62,1.28,2.9,2.9,2.9c1.62,0,2.9-1.28,2.9-2.9V75.61c0-7.1,3.76-11.34,10.08-11.34c1.56,0,2.82-1.26,2.82-2.82
			C375.9,59.9,374.64,58.64,373.08,58.64z"/>
		<path d="M395.22,73.81l12.08-9.64c1.02-0.8,1.16-1.82,1.16-2.34c0-1.62-1.28-2.9-2.9-2.9c-0.5,0-1.24,0.08-1.98,0.72l-17.14,14
			V42.9c0-1.62-1.28-2.9-2.9-2.9c-1.62,0-2.9,1.28-2.9,2.9v49.69c0,1.62,1.28,2.9,2.9,2.9c1.62,0,2.9-1.28,2.9-2.9V80.61l4.08-3.26
			l13.14,16.82l0,0c0.7,0.88,1.52,1.32,2.5,1.32c1.62,0,2.9-1.28,2.9-2.9c0-0.46-0.06-1.14-0.64-1.8L395.22,73.81z"/>
		<path d="M428.12,74.21c-4.34-1.5-8.1-2.78-8.1-6c0-3.54,3.94-4.08,6.28-4.08c4.2,0,6.3,1.46,7.94,3.04
			c0.54,0.54,1.2,0.82,1.92,0.82c1.48,0,2.68-1.2,2.68-2.68c0-0.88-0.44-1.48-0.62-1.72c-2.46-3.24-6.7-5.04-11.92-5.04
			c-7.46,0-12.1,3.7-12.1,9.64c0,7.28,6.4,9.44,12.04,11.34c4.26,1.44,7.94,2.68,7.94,5.8c0,4.26-4.74,4.9-7.58,4.9
			c-3.86,0-6.9-1.16-9.3-3.58c-0.74-0.74-1.5-0.9-2-0.9c-1.48,0-2.68,1.2-2.68,2.68c0,0.62,0.16,1.08,0.64,1.74
			c2.22,2.8,7.2,5.64,13.36,5.64c8.38,0,13.38-3.92,13.38-10.48C439.98,78.29,433.68,76.11,428.12,74.21z"/>
	</g>
	<g>
		<g>
			<path d="M99.78,51.8h-1.42h-2.84H74.16c-12.14,0-23.48,6.54-29.58,17.04c-3,5.18-4.58,11.06-4.58,17.06
				c0,1.68,0.12,3.38,0.38,5.06c1.08,7.26,4.42,13.84,9.64,19.06c5.22,5.22,11.82,8.54,19.1,9.62c1.68,0.24,3.38,0.38,5.06,0.38
				c6,0,11.9-1.58,17.08-4.58c10.54-6.08,17.08-17.4,17.08-29.51V64.59v-2.84v-1.42C108.34,55.62,104.5,51.8,99.78,51.8z
				 M74.16,55.6h24.2c0.3,0,0.58,0.02,0.88,0.06l-4.52,2.6l-17.18,9.9l0,0c-0.28,0.16-0.56,0.32-0.86,0.48
				c-0.1,0.06-0.2,0.1-0.3,0.16c-0.2,0.1-0.38,0.2-0.58,0.3c-0.12,0.06-0.24,0.12-0.36,0.16c-0.18,0.08-0.36,0.16-0.52,0.24
				c-0.12,0.06-0.26,0.12-0.38,0.16c-0.16,0.08-0.34,0.14-0.5,0.22c-0.14,0.06-0.26,0.1-0.4,0.16c-0.16,0.06-0.34,0.14-0.5,0.2
				c-0.14,0.06-0.28,0.1-0.42,0.16c-0.16,0.06-0.34,0.12-0.5,0.18c-0.14,0.04-0.28,0.1-0.42,0.14c-0.16,0.06-0.34,0.1-0.5,0.16
				c-0.14,0.04-0.28,0.08-0.42,0.12c-0.16,0.04-0.34,0.1-0.5,0.14c-0.14,0.04-0.28,0.08-0.44,0.12c-0.16,0.04-0.34,0.08-0.5,0.12
				c-0.14,0.04-0.28,0.06-0.44,0.1c-0.16,0.04-0.34,0.08-0.5,0.1c-0.14,0.02-0.28,0.06-0.44,0.08c-0.18,0.04-0.34,0.06-0.52,0.1
				c-0.14,0.02-0.28,0.06-0.44,0.08c-0.18,0.02-0.34,0.06-0.52,0.08c-0.14,0.02-0.28,0.04-0.42,0.06c-0.18,0.02-0.36,0.04-0.54,0.06
				c-0.14,0.02-0.28,0.04-0.42,0.04c-0.18,0.02-0.38,0.04-0.56,0.04c-0.14,0-0.26,0.02-0.4,0.02c-0.22,0.02-0.44,0.02-0.66,0.04
				c-0.1,0-0.2,0.02-0.3,0.02c-0.32,0-0.64,0.02-0.94,0.02c-0.1,0-0.22,0-0.32,0c-0.22,0-0.42,0-0.64-0.02
				c-0.14,0-0.26-0.02-0.4-0.02c-0.18,0-0.38-0.02-0.56-0.02c-0.14,0-0.28-0.02-0.42-0.04c-0.18-0.02-0.36-0.02-0.54-0.04
				c-0.14-0.02-0.28-0.02-0.44-0.04c-0.18-0.02-0.34-0.04-0.52-0.06c-0.14-0.02-0.3-0.04-0.44-0.06c-0.18-0.02-0.34-0.04-0.52-0.08
				c-0.14-0.02-0.3-0.04-0.44-0.08c-0.16-0.02-0.34-0.06-0.5-0.1c-0.14-0.02-0.3-0.06-0.44-0.08c-0.16-0.04-0.34-0.06-0.5-0.1
				c-0.14-0.04-0.28-0.06-0.44-0.1c-0.16-0.04-0.34-0.08-0.5-0.12c-0.14-0.04-0.28-0.08-0.42-0.12c-0.16-0.04-0.34-0.1-0.5-0.14
				c-0.14-0.04-0.28-0.08-0.42-0.12c-0.16-0.06-0.34-0.1-0.5-0.16c-0.14-0.04-0.28-0.08-0.42-0.14c-0.16-0.06-0.34-0.12-0.5-0.18
				c-0.14-0.04-0.28-0.1-0.4-0.14c-0.18-0.06-0.34-0.14-0.52-0.2c-0.14-0.06-0.26-0.1-0.4-0.16c-0.18-0.08-0.36-0.16-0.54-0.22
				c-0.12-0.06-0.24-0.1-0.36-0.16c-0.2-0.08-0.4-0.18-0.6-0.28c-0.1-0.04-0.2-0.1-0.3-0.14c0,0-0.02,0-0.02-0.02
				C54.52,60.71,64.02,55.6,74.16,55.6z M101.24,58.88l-12.6,21.75c-0.16,0.28-0.34,0.56-0.5,0.84c-0.06,0.1-0.12,0.18-0.18,0.28
				c-0.12,0.18-0.24,0.36-0.36,0.54c-0.08,0.1-0.14,0.22-0.22,0.32c-0.12,0.16-0.22,0.32-0.34,0.48c-0.08,0.12-0.16,0.22-0.24,0.34
				c-0.12,0.14-0.22,0.3-0.34,0.44c-0.08,0.12-0.18,0.22-0.26,0.34c-0.12,0.14-0.22,0.28-0.34,0.42c-0.1,0.12-0.18,0.22-0.28,0.32
				c-0.12,0.14-0.24,0.28-0.34,0.4c-0.1,0.1-0.2,0.22-0.28,0.32c-0.12,0.14-0.24,0.26-0.36,0.4c-0.1,0.1-0.2,0.22-0.3,0.32
				c-0.12,0.12-0.24,0.26-0.36,0.38c-0.1,0.1-0.2,0.2-0.3,0.3c-0.12,0.12-0.26,0.24-0.38,0.36c-0.1,0.1-0.22,0.2-0.32,0.3
				c-0.12,0.12-0.26,0.24-0.4,0.36c-0.1,0.1-0.22,0.18-0.32,0.28c-0.14,0.12-0.28,0.24-0.4,0.34c-0.1,0.1-0.22,0.18-0.32,0.26
				c-0.14,0.12-0.28,0.22-0.42,0.34c-0.1,0.08-0.22,0.18-0.32,0.26c-0.14,0.12-0.3,0.22-0.44,0.34c-0.1,0.08-0.22,0.16-0.32,0.24
				c-0.16,0.12-0.34,0.22-0.5,0.34c-0.1,0.06-0.2,0.14-0.28,0.2c-0.2,0.14-0.42,0.26-0.62,0.4c-0.06,0.04-0.12,0.08-0.18,0.12
				c-0.28,0.16-0.54,0.34-0.82,0.5c-0.08,0.04-0.14,0.08-0.22,0.12c-0.2,0.12-0.42,0.24-0.62,0.34c-0.1,0.06-0.2,0.1-0.32,0.16
				c-0.18,0.1-0.36,0.18-0.54,0.28c-0.12,0.06-0.24,0.12-0.36,0.18c-0.16,0.08-0.34,0.16-0.5,0.24c-0.12,0.06-0.26,0.12-0.38,0.16
				c-0.16,0.08-0.34,0.14-0.5,0.22c-0.12,0.06-0.26,0.1-0.4,0.16c-0.16,0.06-0.34,0.14-0.5,0.2c-0.14,0.06-0.26,0.1-0.4,0.14
				c-0.16,0.06-0.34,0.12-0.5,0.18c-0.14,0.04-0.28,0.1-0.4,0.14c-0.16,0.06-0.34,0.12-0.5,0.16c-0.14,0.04-0.28,0.08-0.42,0.12
				c-0.16,0.06-0.34,0.1-0.5,0.14c-0.14,0.04-0.28,0.08-0.42,0.12c-0.18,0.04-0.34,0.08-0.52,0.14c-0.14,0.04-0.28,0.06-0.42,0.1
				c-0.18,0.04-0.36,0.08-0.54,0.12c-0.14,0.02-0.28,0.06-0.42,0.08c-0.18,0.04-0.36,0.06-0.54,0.1c-0.14,0.02-0.28,0.04-0.4,0.08
				c-0.18,0.04-0.38,0.06-0.56,0.08c-0.14,0.02-0.26,0.04-0.4,0.06c-0.2,0.02-0.4,0.04-0.6,0.08c-0.12,0.02-0.24,0.02-0.38,0.04
				c-0.22,0.02-0.46,0.04-0.68,0.06c-0.1,0-0.2,0.02-0.3,0.02h-0.02v-0.02c0-0.1,0.02-0.2,0.02-0.3c0.02-0.22,0.04-0.46,0.06-0.68
				c0.02-0.12,0.02-0.24,0.04-0.36c0.02-0.2,0.04-0.4,0.08-0.6c0.02-0.14,0.04-0.26,0.06-0.4c0.02-0.18,0.06-0.38,0.08-0.56
				c0.02-0.14,0.04-0.28,0.08-0.4c0.04-0.18,0.06-0.36,0.1-0.54c0.02-0.14,0.06-0.28,0.08-0.42c0.04-0.18,0.08-0.36,0.12-0.52
				c0.04-0.14,0.06-0.28,0.1-0.42c0.04-0.18,0.08-0.34,0.14-0.52c0.04-0.14,0.08-0.28,0.12-0.42c0.04-0.16,0.1-0.34,0.14-0.5
				c0.04-0.14,0.08-0.28,0.12-0.42c0.06-0.16,0.1-0.34,0.16-0.5c0.04-0.14,0.1-0.28,0.14-0.4c0.06-0.16,0.12-0.34,0.18-0.5
				c0.04-0.14,0.1-0.26,0.14-0.4c0.06-0.16,0.14-0.34,0.2-0.5c0.06-0.14,0.1-0.26,0.16-0.38c0.08-0.16,0.14-0.34,0.22-0.5
				c0.06-0.12,0.12-0.26,0.16-0.38c0.08-0.18,0.16-0.34,0.24-0.5c0.06-0.12,0.12-0.24,0.18-0.36c0.08-0.18,0.18-0.36,0.28-0.54
				c0.06-0.1,0.1-0.2,0.16-0.32c0.12-0.2,0.22-0.42,0.34-0.62c0.04-0.08,0.08-0.14,0.12-0.22c0.16-0.28,0.32-0.54,0.5-0.82
				c0.04-0.06,0.08-0.12,0.12-0.18c0.14-0.2,0.26-0.42,0.4-0.62c0.06-0.1,0.14-0.2,0.2-0.28c0.12-0.16,0.22-0.34,0.34-0.5
				c0.08-0.1,0.16-0.22,0.24-0.32c0.1-0.16,0.22-0.3,0.34-0.44c0.08-0.12,0.18-0.22,0.26-0.32c0.12-0.14,0.22-0.28,0.34-0.42
				c0.08-0.1,0.18-0.22,0.28-0.32c0.12-0.14,0.22-0.28,0.34-0.4c0.1-0.1,0.18-0.22,0.28-0.32c0.12-0.14,0.24-0.26,0.36-0.4
				c0.1-0.1,0.2-0.22,0.3-0.32c0.12-0.12,0.24-0.26,0.36-0.38c0.1-0.1,0.2-0.2,0.3-0.3c0.12-0.12,0.26-0.24,0.38-0.36
				c0.1-0.1,0.22-0.2,0.32-0.3c0.12-0.12,0.26-0.24,0.4-0.36c0.1-0.1,0.22-0.2,0.32-0.28c0.14-0.12,0.28-0.24,0.4-0.34
				c0.1-0.1,0.22-0.18,0.34-0.28c0.14-0.12,0.28-0.22,0.42-0.34c0.12-0.08,0.22-0.18,0.34-0.26c0.14-0.12,0.3-0.22,0.44-0.34
				c0.12-0.08,0.22-0.16,0.34-0.24c0.16-0.12,0.32-0.22,0.48-0.34c0.1-0.08,0.22-0.14,0.32-0.22c0.18-0.12,0.36-0.24,0.54-0.36
				c0.1-0.06,0.18-0.12,0.28-0.18c0.28-0.18,0.56-0.34,0.84-0.5L101.24,58.88z M44.52,90.01c-0.1-0.08-0.22-0.16-0.32-0.22
				c-0.06-0.04-0.12-0.1-0.18-0.14c-0.16-1.24-0.24-2.5-0.24-3.74c0-4.7,1.1-9.34,3.2-13.54c0.04,0.02,0.08,0.04,0.12,0.06
				c0.36,0.18,0.7,0.34,1.06,0.5c0.04,0.02,0.06,0.04,0.1,0.04c0.4,0.18,0.8,0.34,1.18,0.5c0.12,0.04,0.24,0.1,0.36,0.14
				c0.28,0.12,0.58,0.22,0.86,0.32c0.14,0.04,0.28,0.1,0.42,0.14c0.28,0.1,0.58,0.2,0.86,0.28c0.12,0.04,0.24,0.08,0.36,0.12
				c0.82,0.24,1.64,0.46,2.48,0.66c0.12,0.02,0.26,0.06,0.38,0.08c0.3,0.06,0.58,0.12,0.88,0.18c0.14,0.02,0.28,0.06,0.44,0.08
				c0.3,0.06,0.6,0.1,0.9,0.14c0.12,0.02,0.26,0.04,0.38,0.06c0.42,0.06,0.84,0.1,1.26,0.14c0.06,0,0.1,0,0.16,0.02
				c0.38,0.04,0.74,0.06,1.12,0.08c0.14,0,0.28,0.02,0.44,0.02c0.28,0.02,0.56,0.02,0.86,0.02c0.16,0,0.32,0,0.46,0
				c0.1,0,0.18,0,0.28,0c0.2,0,0.4,0,0.6,0c0.14,0,0.26,0,0.4,0c0.42-0.02,0.84-0.04,1.24-0.06c0.08,0,0.18-0.02,0.26-0.02
				c0.34-0.02,0.66-0.06,1-0.08c0.14-0.02,0.3-0.04,0.44-0.06c0.28-0.04,0.56-0.06,0.84-0.1c0.16-0.02,0.3-0.04,0.46-0.06
				c0.3-0.04,0.6-0.1,0.9-0.16c0.08-0.02,0.18-0.02,0.26-0.04c-0.06,0.06-0.1,0.14-0.16,0.2c-0.2,0.24-0.4,0.48-0.6,0.72
				c-0.1,0.12-0.18,0.22-0.26,0.34c-0.18,0.24-0.36,0.46-0.54,0.7c-0.08,0.12-0.16,0.22-0.24,0.34c-0.22,0.3-0.42,0.58-0.62,0.88
				c-0.04,0.06-0.08,0.1-0.1,0.16c-0.24,0.36-0.46,0.72-0.68,1.08c-0.06,0.1-0.12,0.2-0.18,0.3c-0.16,0.26-0.32,0.54-0.48,0.82
				c-0.06,0.12-0.14,0.24-0.2,0.36c-0.14,0.26-0.28,0.52-0.42,0.8c-0.06,0.12-0.12,0.22-0.18,0.34c-0.18,0.36-0.34,0.7-0.52,1.06
				c-0.02,0.02-0.02,0.06-0.04,0.08c-0.18,0.38-0.34,0.78-0.5,1.18c-0.04,0.1-0.08,0.22-0.14,0.34c-0.12,0.28-0.22,0.58-0.34,0.86
				c-0.04,0.14-0.1,0.26-0.14,0.4c-0.1,0.28-0.2,0.58-0.3,0.86c-0.04,0.12-0.08,0.24-0.12,0.36c-0.26,0.82-0.48,1.64-0.68,2.48
				c-0.02,0.12-0.06,0.26-0.08,0.38c-0.06,0.3-0.12,0.6-0.18,0.9c-0.02,0.14-0.06,0.28-0.08,0.44c-0.06,0.3-0.1,0.6-0.14,0.9
				c-0.02,0.12-0.04,0.26-0.06,0.38c-0.06,0.42-0.12,0.86-0.16,1.28c0,0.04,0,0.08-0.02,0.12c-0.04,0.38-0.06,0.78-0.1,1.16
				c0,0.04,0,0.1-0.02,0.14c-0.02,0-0.04,0-0.06,0c-0.52-0.04-1.04-0.08-1.54-0.14c-0.08-0.02-0.18-0.02-0.26-0.04
				c-0.5-0.06-1-0.14-1.5-0.22c-0.08-0.02-0.16-0.04-0.26-0.04c-0.52-0.1-1.02-0.2-1.52-0.32c-0.04-0.02-0.1-0.02-0.14-0.04
				c-0.5-0.12-1.02-0.26-1.52-0.4c-0.04-0.02-0.08-0.02-0.1-0.04c-0.5-0.16-1-0.32-1.5-0.5c-0.08-0.02-0.16-0.06-0.24-0.08
				c-0.48-0.18-0.96-0.36-1.42-0.56c-0.08-0.04-0.16-0.08-0.26-0.1c-0.48-0.2-0.94-0.42-1.4-0.66c-0.06-0.04-0.12-0.06-0.2-0.1
				c-0.48-0.24-0.96-0.5-1.44-0.76c-0.3-0.18-0.6-0.36-0.9-0.54c-0.1-0.06-0.18-0.12-0.28-0.18c-0.2-0.12-0.4-0.26-0.6-0.4
				c-0.1-0.08-0.22-0.14-0.32-0.22C44.88,90.27,44.7,90.13,44.52,90.01z M52.7,107.32c-3.52-3.52-6.08-7.72-7.52-12.38
				c0.04,0.02,0.06,0.04,0.1,0.06c0.3,0.18,0.62,0.36,0.94,0.52c0.1,0.06,0.2,0.1,0.3,0.16c0.22,0.12,0.42,0.22,0.64,0.34
				c0.12,0.06,0.24,0.12,0.36,0.18c0.2,0.1,0.4,0.2,0.6,0.28c0.12,0.06,0.26,0.12,0.4,0.18c0.2,0.08,0.4,0.18,0.58,0.26
				c0.14,0.06,0.26,0.12,0.4,0.16c0.2,0.08,0.4,0.16,0.6,0.24c0.14,0.06,0.26,0.1,0.4,0.16c0.2,0.08,0.4,0.14,0.6,0.22
				c0.14,0.04,0.26,0.1,0.4,0.14c0.22,0.08,0.44,0.14,0.64,0.2c0.12,0.04,0.24,0.08,0.36,0.12c0.24,0.08,0.5,0.14,0.74,0.22
				c0.1,0.02,0.18,0.06,0.28,0.08c0.34,0.1,0.7,0.18,1.04,0.26c0.02,0,0.02,0,0.04,0c0.32,0.08,0.66,0.14,1,0.22
				c0.12,0.02,0.22,0.04,0.34,0.06c0.24,0.04,0.48,0.08,0.72,0.12c0.14,0.02,0.26,0.04,0.4,0.06c0.22,0.04,0.44,0.06,0.66,0.1
				c0.14,0.02,0.28,0.04,0.44,0.06c0.2,0.02,0.42,0.06,0.62,0.08c0.14,0.02,0.3,0.04,0.44,0.04c0.2,0.02,0.42,0.04,0.62,0.06
				c0.16,0.02,0.3,0.02,0.46,0.04c0.08,0,0.16,0.02,0.22,0.02c0,0.06,0.02,0.14,0.02,0.2c0,0.14,0.02,0.3,0.04,0.44
				c0.02,0.2,0.04,0.42,0.06,0.62c0.02,0.16,0.02,0.3,0.04,0.46c0.02,0.2,0.04,0.42,0.08,0.62c0.02,0.14,0.04,0.3,0.06,0.44
				c0.02,0.2,0.06,0.42,0.1,0.62c0.02,0.14,0.04,0.28,0.06,0.42c0.04,0.22,0.08,0.44,0.12,0.66c0.02,0.12,0.04,0.26,0.08,0.38
				c0.06,0.28,0.12,0.56,0.18,0.82c0.02,0.06,0.02,0.14,0.04,0.2c0.08,0.34,0.16,0.68,0.26,1.02c0.02,0.1,0.06,0.2,0.08,0.3
				c0.06,0.24,0.14,0.48,0.2,0.72c0.04,0.14,0.08,0.26,0.12,0.4c0.06,0.2,0.14,0.42,0.2,0.62c0.04,0.14,0.1,0.28,0.14,0.42
				c0.06,0.2,0.14,0.38,0.2,0.58c0.06,0.14,0.1,0.28,0.16,0.42c0.08,0.18,0.14,0.38,0.22,0.56c0.06,0.14,0.12,0.28,0.18,0.42
				c0.08,0.18,0.16,0.38,0.24,0.56c0.06,0.14,0.12,0.28,0.18,0.42c0.08,0.18,0.18,0.38,0.26,0.56c0.06,0.14,0.12,0.26,0.2,0.4
				c0.1,0.2,0.2,0.4,0.3,0.6c0.06,0.12,0.12,0.24,0.18,0.36c0.14,0.28,0.3,0.56,0.46,0.82c0.02,0.04,0.04,0.06,0.06,0.1
				c0.02,0.04,0.04,0.06,0.06,0.1C60.44,113.38,56.22,110.82,52.7,107.32z M70.42,115.96c-0.04-0.06-0.1-0.12-0.14-0.18
				c-0.08-0.1-0.16-0.2-0.22-0.32c-0.14-0.18-0.26-0.36-0.4-0.56c-0.08-0.1-0.14-0.22-0.22-0.32c-0.14-0.2-0.26-0.4-0.4-0.6
				c-0.06-0.1-0.12-0.18-0.18-0.28c-0.18-0.3-0.36-0.6-0.54-0.9l0,0c-0.28-0.46-0.52-0.94-0.76-1.42c-0.04-0.06-0.06-0.12-0.1-0.2
				c-0.22-0.46-0.44-0.92-0.66-1.4c-0.04-0.08-0.08-0.16-0.12-0.26c-0.2-0.46-0.38-0.94-0.56-1.42c-0.02-0.08-0.06-0.16-0.08-0.24
				c-0.18-0.5-0.34-1-0.5-1.5c0-0.02-0.02-0.06-0.02-0.08c-0.14-0.5-0.28-1-0.4-1.52c-0.02-0.06-0.02-0.1-0.04-0.16
				c-0.12-0.5-0.22-1.02-0.32-1.52c-0.02-0.08-0.04-0.18-0.04-0.26c-0.08-0.5-0.16-1-0.22-1.5c-0.02-0.08-0.02-0.18-0.04-0.26
				c-0.06-0.52-0.1-1.04-0.14-1.54c0-0.02,0-0.04,0-0.06c0.04,0,0.1,0,0.14-0.02c0.4-0.02,0.78-0.06,1.18-0.1
				c0.04,0,0.08,0,0.12-0.02c0.42-0.04,0.86-0.1,1.28-0.16c0.12-0.02,0.26-0.04,0.38-0.06c0.3-0.04,0.6-0.1,0.9-0.14
				c0.14-0.02,0.28-0.06,0.44-0.08c0.3-0.06,0.6-0.12,0.9-0.18c0.12-0.02,0.26-0.06,0.38-0.08c0.84-0.2,1.66-0.42,2.48-0.68
				c0.12-0.04,0.24-0.08,0.36-0.12c0.3-0.1,0.58-0.2,0.86-0.3c0.14-0.04,0.26-0.1,0.4-0.14c0.3-0.1,0.58-0.22,0.88-0.34
				c0.12-0.04,0.22-0.08,0.34-0.14c0.4-0.16,0.78-0.34,1.18-0.5c0.02-0.02,0.06-0.02,0.08-0.04c0.36-0.16,0.72-0.34,1.06-0.52
				c0.12-0.06,0.24-0.12,0.34-0.18c0.26-0.14,0.54-0.28,0.8-0.42c0.12-0.06,0.24-0.14,0.38-0.2c0.28-0.16,0.54-0.32,0.82-0.48
				c0.1-0.06,0.2-0.12,0.3-0.18c0.36-0.22,0.72-0.46,1.08-0.68c0.06-0.04,0.1-0.08,0.16-0.12c0.3-0.2,0.6-0.4,0.88-0.62
				c0.12-0.08,0.22-0.16,0.34-0.24c0.24-0.18,0.46-0.36,0.7-0.54c0.12-0.08,0.22-0.18,0.34-0.28c0.24-0.2,0.48-0.4,0.72-0.6
				c0.06-0.06,0.14-0.1,0.2-0.16c-0.02,0.08-0.02,0.16-0.04,0.24c-0.06,0.32-0.12,0.62-0.16,0.94c-0.02,0.14-0.04,0.28-0.06,0.42
				c-0.04,0.3-0.08,0.58-0.12,0.88c-0.02,0.14-0.04,0.26-0.04,0.4c-0.04,0.36-0.06,0.72-0.1,1.08c0,0.06-0.02,0.12-0.02,0.18
				c-0.02,0.42-0.04,0.84-0.06,1.28c0,0.12,0,0.22,0,0.34c0,0.32,0,0.64,0,0.94c0,0.14,0,0.28,0,0.42c0,0.3,0.02,0.6,0.04,0.9
				c0,0.12,0.02,0.26,0.02,0.38c0.02,0.4,0.06,0.8,0.1,1.2c0,0.02,0,0.06,0,0.08c0.04,0.42,0.1,0.86,0.14,1.28
				c0.02,0.12,0.04,0.22,0.06,0.34c0.04,0.32,0.1,0.62,0.14,0.94c0.02,0.14,0.04,0.28,0.08,0.4c0.06,0.3,0.12,0.6,0.18,0.9
				c0.02,0.12,0.06,0.24,0.08,0.36c0.18,0.84,0.4,1.66,0.66,2.48c0.04,0.12,0.08,0.24,0.12,0.36c0.1,0.3,0.2,0.58,0.3,0.88
				c0.04,0.14,0.1,0.26,0.14,0.4c0.1,0.3,0.22,0.58,0.34,0.88c0.04,0.12,0.08,0.24,0.14,0.34c0.16,0.4,0.34,0.8,0.5,1.2
				c0.02,0.02,0.02,0.06,0.04,0.08c0.16,0.36,0.34,0.72,0.52,1.08c0.02,0.04,0.04,0.08,0.06,0.12
				C82.42,115.64,76.38,116.7,70.42,115.96z M104.54,85.89c0,10.12-5.14,19.6-13.52,25.19c0,0,0-0.02-0.02-0.02
				c-0.04-0.1-0.08-0.18-0.14-0.28c-0.1-0.2-0.2-0.4-0.28-0.6c-0.06-0.12-0.1-0.24-0.16-0.36c-0.08-0.18-0.16-0.36-0.24-0.54
				c-0.06-0.12-0.1-0.26-0.16-0.38c-0.06-0.18-0.14-0.34-0.2-0.52c-0.06-0.14-0.1-0.26-0.14-0.4c-0.06-0.16-0.12-0.34-0.18-0.5
				c-0.04-0.14-0.1-0.28-0.14-0.42c-0.06-0.16-0.1-0.34-0.16-0.5c-0.04-0.14-0.08-0.28-0.12-0.42c-0.04-0.16-0.1-0.34-0.14-0.5
				c-0.04-0.14-0.08-0.28-0.12-0.42c-0.04-0.16-0.08-0.34-0.12-0.52c-0.04-0.14-0.06-0.28-0.1-0.42c-0.04-0.18-0.08-0.34-0.1-0.52
				c-0.02-0.14-0.06-0.28-0.08-0.42c-0.04-0.18-0.06-0.34-0.1-0.52c-0.02-0.14-0.04-0.28-0.08-0.42c-0.02-0.18-0.06-0.34-0.08-0.52
				c-0.02-0.14-0.04-0.28-0.06-0.42c-0.02-0.18-0.04-0.36-0.06-0.54c-0.02-0.14-0.04-0.28-0.04-0.42c-0.02-0.18-0.04-0.36-0.04-0.56
				c-0.02-0.14-0.02-0.26-0.02-0.4c-0.02-0.2-0.02-0.38-0.02-0.58c0-0.12-0.02-0.24-0.02-0.36c0-0.22,0-0.46-0.02-0.68
				c0-0.1,0-0.18,0-0.28c0-0.32,0-0.64,0.02-0.96c0-0.08,0-0.16,0.02-0.24c0-0.24,0.02-0.48,0.04-0.7c0-0.12,0.02-0.24,0.02-0.36
				c0.02-0.2,0.02-0.4,0.04-0.58c0.02-0.14,0.02-0.26,0.04-0.4c0.02-0.18,0.04-0.36,0.06-0.56c0.02-0.14,0.04-0.28,0.06-0.42
				c0.02-0.18,0.04-0.36,0.08-0.54c0.02-0.14,0.04-0.28,0.08-0.42c0.04-0.18,0.06-0.34,0.1-0.52c0.02-0.14,0.06-0.28,0.08-0.42
				c0.04-0.18,0.08-0.34,0.1-0.52c0.04-0.14,0.06-0.28,0.1-0.42c0.04-0.16,0.08-0.34,0.12-0.5c0.04-0.14,0.08-0.28,0.12-0.42
				c0.04-0.16,0.1-0.34,0.14-0.5c0.04-0.14,0.08-0.28,0.12-0.42c0.06-0.16,0.1-0.34,0.16-0.5c0.04-0.14,0.1-0.28,0.14-0.42
				c0.06-0.16,0.12-0.34,0.18-0.5c0.04-0.14,0.1-0.28,0.14-0.4c0.06-0.16,0.14-0.34,0.2-0.5c0.06-0.14,0.1-0.26,0.16-0.4
				c0.08-0.18,0.14-0.34,0.22-0.52c0.06-0.12,0.1-0.26,0.16-0.38c0.08-0.18,0.16-0.36,0.26-0.54c0.06-0.12,0.1-0.24,0.16-0.34
				c0.1-0.2,0.2-0.38,0.3-0.58c0.06-0.1,0.1-0.2,0.14-0.28c0.16-0.28,0.32-0.58,0.48-0.86l12.52-21.65
				c0.04,0.28,0.06,0.58,0.06,0.88v24.13H104.54z"/>
		</g>
	</g>
</g>
</svg>
