<svg id="Layer_1" data-name="Layer 1" xmlns="http://www.w3.org/2000/svg" viewBox="0 0 260 260"><defs><style>.cls-1{fill:#ffea00;}</style></defs><path class="cls-1" d="M245.91,113.9l0-.19,0-.09a71.56,71.56,0,0,0-9.44-21.17c-.73-1-1.49-2.06-2.22-3l-.21-.27-.91-1.22-.81-1.09c-.08-.11-.17-.21-.25-.3l-4.67-5.11c-.06-.06-.12-.13-.19-.19l-1.95-1.83c-.51-.5-1-.94-1.63-1.43l-.61-.52c-.72-.63-1.51-1.27-2.32-1.87A69.72,69.72,0,0,0,182.1,61.17a56.32,56.32,0,0,0-4.21-16.88A56.48,56.48,0,0,0,125.78,9.74h-.29A56,56,0,0,0,73.92,44.66a56.26,56.26,0,0,0-2.45,7.57l-.62,2.54,3-.45A21.69,21.69,0,0,1,76.9,54l2.3-.12.35-1.18a49,49,0,0,1,1.77-5,47.52,47.52,0,0,1,62.27-25.39A47,47,0,0,1,172.37,66a5,5,0,0,0,4.95,5,61.07,61.07,0,0,1,19.5,3.38A59.58,59.58,0,0,1,214.16,84c.67.51,1.25,1,1.78,1.47.26.24.53.46.85.74s.67.58,1,.93l1.79,1.72,4.14,4.66.65.89c.38.54.77,1.07,1.16,1.61l.08.11c.6.82,1.2,1.64,1.71,2.39a60.31,60.31,0,0,1,7.7,18,58,58,0,0,1,1.51,19.52,60.67,60.67,0,0,1-4.88,18.76c-.3.59-.58,1.2-.86,1.81a28.85,28.85,0,0,1-1.3,2.61l-2.6,4.33c-.58.81-1.18,1.61-1.78,2.41l-.18.24-1,1.36-.66.88-2.46,2.69A58.71,58.71,0,0,1,205.43,183a60,60,0,0,1-18.33,6.11l-3.19.44a10.19,10.19,0,0,1-1.58.15l-5,.2-5-.28a28.43,28.43,0,0,1-2.93-.38c-.63-.1-1.26-.21-1.81-.27a60,60,0,0,1-18-6.31l-4.26-2.55-4.86-3.61L136,172.39,73.55,109.06a7.19,7.19,0,0,0-5.24-2.13,7.29,7.29,0,0,0-5.21,2.2,7.4,7.4,0,0,0,.07,10.45l61.38,60.53,2,2,5.26,4.69.29.23,2.64,1.92c1,.76,2.08,1.51,3.12,2.24l.27.17,5,2.9a73.33,73.33,0,0,0,22.51,7.52l1.78.25h.1a39,39,0,0,0,4,.45l5.57.23h.39l5.44-.3a17.92,17.92,0,0,0,2.67-.27l3.48-.53a72.89,72.89,0,0,0,22.16-7.7,71.18,71.18,0,0,0,18.44-14.62l2.81-3.15a3.17,3.17,0,0,0,.21-.27l1.89-2.6c.75-1,1.51-2.07,2.22-3.11.06-.08.11-.17.17-.26l2.81-4.83c.69-1.21,1.23-2.43,1.76-3.6.24-.56.49-1.12.82-1.82a72.52,72.52,0,0,0,5.6-22.61A69.32,69.32,0,0,0,245.91,113.9Zm-78.08,86.43Z"/><path class="cls-1" d="M183.1,206l-2.3.11-.35,1.19a49,49,0,0,1-1.77,5,47.49,47.49,0,0,1-62.27,25.39A47,47,0,0,1,87.63,194a5,5,0,0,0-4.95-5,61.07,61.07,0,0,1-19.5-3.38A59.58,59.58,0,0,1,45.84,176c-.67-.51-1.25-1-1.78-1.47l-.79-.69-.08-.07c-.34-.29-.66-.56-1-.91l-1.79-1.72-4.14-4.66-.65-.89c-.38-.54-.77-1.07-1.19-1.65-.62-.85-1.24-1.69-1.76-2.46A60.31,60.31,0,0,1,25,143.47,57.78,57.78,0,0,1,23.45,124a60.67,60.67,0,0,1,4.88-18.76c.3-.59.58-1.2.86-1.81a27.59,27.59,0,0,1,1.3-2.61l2.6-4.33c.57-.79,1.14-1.56,1.72-2.33l.2-.27q.54-.7,1.05-1.41l.66-.88,2.46-2.69A58.71,58.71,0,0,1,54.57,77,60,60,0,0,1,72.9,70.88l3.19-.44a10.19,10.19,0,0,1,1.58-.15l5-.2,5,.28a28.61,28.61,0,0,1,2.92.38c.64.1,1.27.21,1.82.27a59.86,59.86,0,0,1,18,6.31l4.26,2.55,4.86,3.61L124,87.61l62.46,63.33a7.36,7.36,0,0,0,5.24,2.13,7.29,7.29,0,0,0,5.21-2.2,7.4,7.4,0,0,0-.07-10.45L135.45,79.89l-2-2-5.25-4.68a3.15,3.15,0,0,0-.3-.24l-2.6-1.89c-1-.77-2.1-1.53-3.17-2.27l-.26-.17-5-2.9A73.42,73.42,0,0,0,94.31,58.2l-1.86-.26a39.06,39.06,0,0,0-4-.45l-5.59-.23h-.37l-5.44.3a18.35,18.35,0,0,0-2.67.27l-3.48.53a72.89,72.89,0,0,0-22.16,7.7A71.18,71.18,0,0,0,30.3,80.68l-2.8,3.14-.22.27L25.39,86.7c-.75,1-1.51,2.07-2.23,3.11l-.16.26L20.19,94.9c-.69,1.21-1.23,2.42-1.76,3.6-.24.56-.49,1.12-.82,1.82A72.52,72.52,0,0,0,12,122.93a69.38,69.38,0,0,0,2.08,23.18l.05.18a71.38,71.38,0,0,0,9.46,21.26c.74,1.06,1.53,2.11,2.23,3l.13.18c.33.43.65.86,1,1.31l.82,1.1a3.07,3.07,0,0,0,.24.29l4.67,5.11.19.19,2,1.83c.5.49,1,.92,1.57,1.39l.67.56c.71.63,1.5,1.26,2.32,1.87A69.72,69.72,0,0,0,77.9,198.83a56.32,56.32,0,0,0,4.21,16.88,56.43,56.43,0,0,0,52.11,34.55h.29a56,56,0,0,0,51.57-34.92,54.87,54.87,0,0,0,2.45-7.57l.62-2.54-3,.45A21.52,21.52,0,0,1,183.1,206Z"/></svg>