<svg id="Layer_1" data-name="Layer 1" xmlns="http://www.w3.org/2000/svg" viewBox="0 0 240 240"><defs><style>.cls-1{fill:#282525;}</style></defs><path class="cls-1" d="M85.54,107a65.67,65.67,0,1,0,62,87.31c4.44.18,8.49.25,11.81.25,20.16,0,67.07-2.14,67.07-21.9,0-.06,0-.12,0-.18s0-.1,0-.15V145.92a8.89,8.89,0,0,0,.18-1.81,8.68,8.68,0,0,0-.18-1.7V120.7a9,9,0,0,0,.18-1.81,8.6,8.6,0,0,0-.18-1.7V93a9.06,9.06,0,0,0,.18-1.82,8.47,8.47,0,0,0-.54-2.94,11.51,11.51,0,0,0,.36-2.72c0-.06,0-.12,0-.18s0-.1,0-.15V58.84a9,9,0,0,0,.18-1.81,8.7,8.7,0,0,0-.18-1.71V31.16a9.06,9.06,0,0,0,.18-1.82,8.81,8.81,0,0,0-.56-3,8.41,8.41,0,0,0-3.54-4.79c-13.71-11.63-57.36-12-63.15-12s-49.44.39-63.14,12a8.34,8.34,0,0,0-3.54,4.78,8.7,8.7,0,0,0-.58,3.05,8.39,8.39,0,0,0,.2,1.82V55.32a8,8,0,0,0-.2,1.71,8.37,8.37,0,0,0,.2,1.81V85.55a11.51,11.51,0,0,0,.35,2.72,8.48,8.48,0,0,0-.55,2.94,8.39,8.39,0,0,0,.2,1.82v14.29C90.06,107.1,87.82,107,85.54,107ZM218.75,172.1c0,.17,0,.34,0,.48a1.8,1.8,0,0,0,0,.22c-.38,7.36-26.89,13.32-59.41,13.32-3.23,0-6.39-.07-9.48-.18a66.2,66.2,0,0,0,1.35-13.29c0-1.16,0-2.31-.09-3.46,3,.09,5.83.13,8.22.13,15.12,0,45.27-1.21,59.41-10.13Zm0-25.22c0,.17,0,.33,0,.48a2,2,0,0,0,0,.22c-.38,7.36-26.89,13.32-59.41,13.32-3.15,0-6.22-.07-9.23-.18a65.28,65.28,0,0,0-7-19.55c6.14.36,11.8.46,16.18.46,15.12,0,45.27-1.19,59.41-10.13Zm0-61.87c0,.17,0,.34,0,.48a1.8,1.8,0,0,0,0,.22C218.37,93.07,191.86,99,159.34,99s-59-6-59.4-13.33c0-.14,0-.29,0-.41s0-.18,0-.28V69.63c14.14,8.94,44.3,10.14,59.42,10.14s45.27-1.2,59.41-10.13ZM159.34,19.18c33.73,0,54.63,6.26,58.15,10.16-3.52,3.91-24.42,10.17-58.15,10.17s-54.63-6.26-58.15-10.17C104.71,25.44,125.62,19.18,159.34,19.18Zm0,30c5.34,0,42.84-.35,59.41-9.51V57.34c0,.16,0,.33,0,.47a1.8,1.8,0,0,0,0,.22c-.38,7.36-26.89,13.32-59.41,13.32s-59-6-59.4-13.33c0-.14,0-.29,0-.41s0-.18,0-.28V39.7C116.48,48.86,154,49.21,159.34,49.21Zm0,61.86c5.34,0,42.84-.34,59.41-9.5V119.2c0,.17,0,.34,0,.48a1.8,1.8,0,0,0,0,.22c-.38,7.36-26.89,13.32-59.41,13.32-7.81,0-15.25-.35-22.08-1a65.81,65.81,0,0,0-37.34-23.67v-7C116.48,110.73,154,111.07,159.34,111.07ZM142.8,172.65a57.26,57.26,0,1,1-57.26-57.26A57.33,57.33,0,0,1,142.8,172.65Z"/><path class="cls-1" d="M41.3,172.65A44.25,44.25,0,1,0,85.54,128.4,44.29,44.29,0,0,0,41.3,172.65Zm82.88,0A38.64,38.64,0,1,1,85.54,134,38.69,38.69,0,0,1,124.18,172.65Z"/><path class="cls-1" d="M80.13,144.75v4.74a15.62,15.62,0,0,0-5.91,3.88,14.27,14.27,0,0,0-3.83,9.82,13.47,13.47,0,0,0,1.11,5.49,14.67,14.67,0,0,0,5.1,6,33.19,33.19,0,0,0,7.18,3.69,11.69,11.69,0,0,1,3.94,2.24,2.22,2.22,0,0,1,.48.65,1.72,1.72,0,0,1,.12.7,1.42,1.42,0,0,1-.55,1.21A4.44,4.44,0,0,1,85,184a12,12,0,0,1-6.86-2l-1.66-1.1A2.81,2.81,0,0,0,74,180.5a2.84,2.84,0,0,0-1.75,1.72l-2.62,7.3a2.79,2.79,0,0,0,1,3.22l1,.7a19.25,19.25,0,0,0,5.68,2.62c.78.23,1.56.42,2.35.57v4.16a2.81,2.81,0,0,0,2.81,2.8h7.18a2.81,2.81,0,0,0,2.8-2.8v-4.93A16,16,0,0,0,99,191.41a14.92,14.92,0,0,0,3.68-9.84,15.7,15.7,0,0,0-.89-5.36,14.53,14.53,0,0,0-4.61-6.39,26.9,26.9,0,0,0-7.06-4,1.48,1.48,0,0,0-.29-.12,18.52,18.52,0,0,1-4.74-2.48,1.67,1.67,0,0,1-.36-.42,1.09,1.09,0,0,1,0-.36.83.83,0,0,1,.24-.62,3.39,3.39,0,0,1,2.23-.56,11.29,11.29,0,0,1,3.72.58,11.65,11.65,0,0,1,2.24,1l1.58.9a2.79,2.79,0,0,0,4-1.44l2.73-7.18a2.82,2.82,0,0,0-1.2-3.42l-1.14-.66a20.63,20.63,0,0,0-6.22-2.37v-3.93A2.81,2.81,0,0,0,90,141.94H82.93A2.81,2.81,0,0,0,80.13,144.75Zm5.61,6.8v-4h1.5v3.55a2.8,2.8,0,0,0,2.54,2.79,16,16,0,0,1,5.53,1.5l-.72,1.91a16.71,16.71,0,0,0-2-.8,17.3,17.3,0,0,0-5.52-.88A8.52,8.52,0,0,0,81,157.78a6.41,6.41,0,0,0-1.94,4.64,6.19,6.19,0,0,0,.58,2.76,6.58,6.58,0,0,0,1.72,2.22,23.16,23.16,0,0,0,6.46,3.52h0a22.05,22.05,0,0,1,5.76,3.21,9.08,9.08,0,0,1,2.9,4,10.13,10.13,0,0,1,.56,3.46,9.31,9.31,0,0,1-2.29,6.15h0A11,11,0,0,1,89,191.07a2.79,2.79,0,0,0-2.14,2.72V198H85.28v-3.79a2.8,2.8,0,0,0-2.55-2.79,20.65,20.65,0,0,1-3.84-.72,15.66,15.66,0,0,1-3.2-1.31l.69-2A18.7,18.7,0,0,0,85,189.58a9.47,9.47,0,0,0,6.42-2.08A7.12,7.12,0,0,0,93.93,182a7.44,7.44,0,0,0-.57-2.91,7.78,7.78,0,0,0-1.64-2.4,17.38,17.38,0,0,0-5.87-3.52,28.16,28.16,0,0,1-6-3,9.1,9.1,0,0,1-3.22-3.71,8,8,0,0,1-.64-3.26,8.68,8.68,0,0,1,2.31-6,10.58,10.58,0,0,1,5.29-2.94A2.79,2.79,0,0,0,85.74,151.55Z"/></svg>