<svg id="Layer_1" data-name="Layer 1" xmlns="http://www.w3.org/2000/svg" viewBox="0 0 240 240"><defs><style>.cls-1{fill:#282525;}</style></defs><path class="cls-1" d="M72.84,186.8a4,4,0,0,0,4,4l87.67,0a4,4,0,0,0,4-3.83,83,83,0,0,0-1-13.84l64,0a4,4,0,0,0,3.95-3.83c.05-1.35.87-33.47-19.27-51.91a3.94,3.94,0,0,0-5.08-.21c-.24.17-23.65,17.76-45.44,0a4,4,0,0,0-5.1.09c-.47.4-6.87,6.1-12.43,17.1a4,4,0,0,0-4,.48c-1,.73-23.76,17.69-45.45,0a4,4,0,0,0-3.69-.69,52.62,52.62,0,0,0-12-16.8,3.94,3.94,0,0,0-5.08-.21c-.24.17-23.65,17.76-45.44,0a4,4,0,0,0-5.1.09C26.46,118,7.08,135.2,6.6,169.11A4,4,0,0,0,7.74,172a4,4,0,0,0,2.82,1.18H74.17A85.64,85.64,0,0,0,72.84,186.8Zm90.65-61.29c20.72,14.45,41.86,4.41,49.44-.15,11.78,12.64,14,31.75,14.45,39.83l-61.54,0c-2-8.1-5.55-17.18-11.77-24.9A60.77,60.77,0,0,1,163.49,125.51ZM96.54,143.2c20.71,14.45,41.85,4.41,49.43-.15,11.78,12.64,14,31.75,14.46,39.84H80.92C82.32,161.6,92.08,148.24,96.54,143.2Zm-81.86,22c1.4-21.3,11.16-34.66,15.61-39.7C51,140,72.15,129.92,79.73,125.36A48,48,0,0,1,88.82,140,71.46,71.46,0,0,0,76,165.2Z"/><path class="cls-1" d="M16.91,76.51A37.53,37.53,0,0,0,54.4,114h0A37.21,37.21,0,0,0,80.9,103a39.69,39.69,0,0,0,2.74-3.08,37.5,37.5,0,0,0,37,31.76h0A37.45,37.45,0,0,0,157.77,99.1,37.39,37.39,0,0,0,187.6,114h0a37.49,37.49,0,1,0-37.14-42.39A37.39,37.39,0,0,0,94.14,67.7a39.69,39.69,0,0,0-2.74,3.08,37.47,37.47,0,0,0-74.49,5.73Zm149.78-20.9a29.55,29.55,0,1,1,20.92,50.45h0a29.55,29.55,0,0,1-20.91-50.45ZM99.74,73.3a29.55,29.55,0,1,1,20.91,50.45h0A29.54,29.54,0,0,1,99.74,73.3ZM54.4,46.93a29.57,29.57,0,0,1,0,59.13h0a29.57,29.57,0,0,1,0-59.13Z"/></svg>