<svg id="Layer_1" data-name="Layer 1" xmlns="http://www.w3.org/2000/svg" viewBox="0 0 1100 1060"><defs><style>.cls-1{fill:#ae8dff;}</style></defs><circle class="cls-1" cx="553.6" cy="536.19" r="493.5"/><path d="M565,221.69l16.1-101.6,42,6.7c23.3,3.7,39.4,17.3,35.3,42.9-4,25-23.2,33-46.8,29.3l-20.4-3.2-4.7,29.4Zm34.7-78.9-5.3,33.7,19.7,3.1c11.2,1.8,19.9-1.5,21.8-13.5,2-12.7-5.3-18.4-16.5-20.2Z"/><path d="M655.9,240.49l36.7-96.1,20.4,7.8-36.7,96.1Z"/><path d="M695.4,236.69c5.9-9.7,15.5-11.6,30.2-8.4l24.1,4.6c2.6-5.8,2-10.3-5.1-14.6-8.1-4.9-18.3-4.9-26.7-1.2l-1.1-19.4a49.06,49.06,0,0,1,38.9,5.4c16.2,9.9,20.3,24.3,10.5,40.4l-13.4,22c-1.8,2.9-1.3,4.4,1.1,5.9l3.8,2.3-9.1,14.9-11-6.7c-6.9-4.2-11.3-11.2-5.7-20.4l2.6-4.3c-7.2,7.1-18.7,13.4-31.8,5.4C692.7,256.59,689.1,247,695.4,236.69Zm22.6,16.5c8.9,5.4,16.6,4,21.4-3.9l2.7-4.5-17-2.7c-6.4-1-9.2-.2-10.7,2.3C712.5,247.49,713.6,250.39,718,253.19Z"/><path d="M735.3,299.49l19.2-6.7c-.6,7.3.6,13.9,5.2,18.6,4.1,4.1,7.9,5.1,14.7,1.8l3.9-1.7-9.4-9.5,32.9-66.7,17,17.2L801.1,285l-14,21.6,21.9-13.7,32.6-17.4L858.9,293l-75.7,36.9c-16,7.6-27,5.4-36.9-4.6C738.4,317.29,735.1,307,735.3,299.49Z"/><path d="M842.4,364.69l21.2,6.5c-9.1,11.5-8.4,27.3-3.5,38.6,3.5,8.1,8.6,12.9,15.1,10.1,7.3-3.2,7-10.4,4.1-24l-2-10c-3.4-15.9-2.9-32.5,15-40.2,18.4-8,35.1,3.6,43.4,22.7,7.7,17.7,7.1,34.8-.7,47.6l-21.3-6.9a35.89,35.89,0,0,0,3.1-34.5c-3.1-7.2-8.5-11-14-8.6-6.9,3-6.8,10.1-4.8,20.9l2.1,11.8c3.5,19.3,1.6,34.4-15.3,41.7-18,7.8-34.3-3.1-43.2-23.5C833.8,398.69,832.4,379.39,842.4,364.69Z"/><path d="M859.8,460.69l101.9-13.6,2.9,21.7-49,6.5c12.5.8,24.4,6.5,26.4,21.8,1.9,14.1-5.6,23.9-21,26L869,530l-2.9-21.7,44.4-5.9c9.1-1.2,14.4-4.4,13.1-14.3-1.4-10.3-7.6-12.9-19.8-11.3l-41.2,5.5Z"/><path d="M906.8,542.39c22.7,2.8,37,19.4,34.3,42-2.9,23.2-20.8,36-43.5,33.2-22.9-2.8-37-19.5-34.2-42.8C866.1,552.19,883.9,539.59,906.8,542.39Zm-6.6,53.2c15.4,1.9,22-3.8,23.1-13s-3.9-16.2-19.3-18.1c-15.2-1.9-22,3.8-23.1,12.9S885,593.69,900.2,595.59Z"/><path d="M856.2,628.69l76.3,13.6-9.8,21.9L886,654.09l-22.8-7,19.6,13.8,30.8,23.7-10.1,22.6-38.3-6.8-23.2-5.5,20.4,12.3,32,20.5-9.8,21.9-61.1-47.9,11.1-24.9,33.9,6.3,26.7,6.9-22.9-15.3-27.2-21.2Z"/><path d="M811.1,718.19l57.3,48.7-14.2,16.7-18-15.3c8,10,12.8,23.8,3.5,34.7-7.1,8.4-16.5,8.5-25.5.8-6.2-5.3-9.5-11.3-10.6-14.6l13.7-16.1c.3,3.9,2.7,9.4,6,12.1s7,3.4,10.1-.3c4.9-5.7,3.2-16.3-6.3-24.4l-30.3-25.7Z"/><path d="M791.1,798.29c13.7,18.7,11.5,40.2-6.3,53.2-19.2,14.1-38.3,8.4-50-7.5a43.77,43.77,0,0,1-4.8-7.9l41.2-30.3c-7.4-7.7-16.1-7.6-24-1.8-8.5,6.3-10.3,13.3-8.7,20.1l-18.6-2.9c-.3-9.9,3.5-21.8,17.1-31.8C756.2,775.29,777.4,779.59,791.1,798.29ZM778.7,816l-25.9,19c6.5,7.6,14,8.7,21.9,2.9C782.3,832.39,783.8,824.79,778.7,816Z"/><path d="M717.8,849.59c8.6,21.5.9,41.7-19.6,49.9-22.2,8.8-39.2-1.6-46.4-19.9a48.49,48.49,0,0,1-2.7-8.8l47.5-18.9c-5.2-9.3-13.6-11.4-22.7-7.8-9.8,3.9-13.4,10.3-13.6,17.3l-17.3-7.5c2.3-9.7,8.9-20.2,24.6-26.4C689.9,818.59,709.3,828.09,717.8,849.59Zm-16.5,14-29.9,11.9c4.4,9,11.4,12,20.5,8.4C700.6,880.39,704.1,873.39,701.3,863.59Z"/><path d="M625.2,842.29l19.5,101-21.5,4.2-19.5-101Z"/><path d="M529.9,851.59l-21,100.7-41.7-8.7c-23.1-4.8-38.5-19.2-33.2-44.6,5.2-24.8,24.8-31.8,48.1-27l20.2,4.2,6.1-29.2Zm-38.4,77.1,7-33.4-19.5-4.1c-11.1-2.3-20,.5-22.4,12.4-2.6,12.6,4.4,18.6,15.5,20.9Z"/><path d="M440.1,828.39l-41.3,94.2-20-8.8,41.3-94.2Z"/><path d="M400.4,830.29c-6.4,9.4-16,10.8-30.6,6.9l-23.8-5.8c-2.9,5.6-2.5,10.2,4.4,14.8,7.9,5.3,18.1,5.8,26.6,2.5l.2,19.4a49.09,49.09,0,0,1-38.6-7.2c-15.7-10.7-19.1-25.2-8.6-40.8l14.5-21.3c1.9-2.8,1.5-4.4-.8-5.9l-3.7-2.5,9.8-14.5,10.6,7.2c6.7,4.6,10.7,11.7,4.7,20.6l-2.8,4.2c7.5-6.8,19.4-12.5,32-3.9C404,810.49,407.2,820.29,400.4,830.29Zm-21.8-17.5c-8.6-5.8-16.4-4.8-21.5,2.8l-2.9,4.3,16.9,3.5c6.3,1.3,9.2.7,10.8-1.8C383.8,818.69,382.9,815.69,378.6,812.79Z"/><path d="M363.5,765.69l-19.5,5.8c.9-7.2.1-13.9-4.3-18.8-3.9-4.3-7.6-5.5-14.6-2.5l-4,1.5,8.9,9.9-36,65.1-16.2-18L297,777l15-20.9-22.5,12.6-33.4,15.9-16.5-18.3L317,733c16.3-6.9,27.3-4.1,36.7,6.4C361.3,747.79,364.1,758.19,363.5,765.69Z"/><path d="M259.6,695.39l-20.9-7.5c9.6-11,9.7-26.9,5.3-38.4-3.1-8.3-8-13.3-14.6-10.8-7.5,2.8-7.5,10.1-5.3,23.8l1.5,10.1c2.6,16,1.3,32.6-16.9,39.5-18.8,7.1-34.8-5.3-42.2-24.8-6.8-18-5.4-35.1,3-47.5l20.9,8a35.92,35.92,0,0,0-4.7,34.4c2.8,7.3,7.9,11.4,13.5,9.3,7-2.7,7.3-9.8,5.8-20.7l-1.5-11.9c-2.6-19.5.1-34.4,17.3-40.9,18.4-7,34.1,4.7,42,25.5C269.9,661.89,270.3,681.19,259.6,695.39Z"/><path d="M246.9,598.69l-102.5,8.7-1.9-21.8,49.2-4.2c-12.4-1.4-24.1-7.6-25.4-23-1.2-14.2,6.8-23.6,22.2-24.9l52.3-4.5,1.9,21.8-44.7,3.8c-9.2.8-14.6,3.7-13.8,13.6.9,10.4,7,13.2,19.2,12.2l41.4-3.5Z"/><path d="M203.8,514.89c-22.5-3.9-36.1-21.1-32.2-43.6,4-23.1,22.5-35,45.1-31.1s36.1,21.3,32.1,44.3C244.9,507,226.5,518.79,203.8,514.89Zm9.1-52.8c-15.3-2.6-22.1,2.7-23.7,11.9s3.1,16.4,18.4,19c15.1,2.6,22.1-2.7,23.7-11.8S228,464.69,212.9,462.09Z"/><path d="M258.4,431.09l-75.6-17.2,10.9-21.4,36.2,11.8,22.4,8.1-18.9-14.7-29.6-25.1,11.2-22.1,38,8.6,23,6.7-19.8-13.3-31-22.1L236.1,309l58.6,50.8-12.3,24.3-33.5-7.9L222.6,368l22.2,16.4,26.1,22.5Z"/><path d="M307.8,343.79l-54.9-51.4,14.9-16,17.3,16.1c-7.5-10.4-11.7-24.3-1.9-34.9,7.5-8.1,16.9-7.7,25.5.4,5.9,5.6,9,11.7,9.9,15.1l-14.5,15.5c-.1-3.9-2.3-9.5-5.4-12.4s-6.9-3.7-10.1-.2c-5.1,5.5-4,16.2,5.1,24.7l29,27.2Z"/><path d="M331.5,264.79c-12.8-19.3-9.5-40.7,8.8-52.8,19.9-13.2,38.7-6.5,49.5,9.9a50.21,50.21,0,0,1,4.5,8.1l-42.6,28.3c7,8.1,15.7,8.4,23.8,3,8.8-5.8,11-12.8,9.7-19.7l18.5,3.8c-.2,9.9-4.6,21.6-18.6,30.9C365.3,289.39,344.4,284.09,331.5,264.79Zm13.3-17.1,26.8-17.8c-6.2-7.9-13.6-9.4-21.8-4C342,231.09,340.1,238.69,344.8,247.69Z"/><path d="M407.2,217c-7.5-21.9,1.1-41.7,21.9-48.9,22.6-7.7,39.1,3.5,45.4,22.1a59.54,59.54,0,0,1,2.3,9l-48.4,16.6c4.7,9.6,13,12.1,22.3,8.9,10-3.4,13.9-9.6,14.4-16.6l16.9,8.3c-2.7,9.5-9.9,19.8-25.8,25.2C433.6,249.39,414.7,239,407.2,217Zm17.2-13.1,30.4-10.4c-4-9.2-10.8-12.5-20-9.4C425.9,187.09,422.1,193.89,424.4,203.89Z"/><path d="M499.4,228.79,484.7,127l21.7-3.1L521,225.69Z"/></svg>