<svg id="Layer_1" data-name="Layer 1" xmlns="http://www.w3.org/2000/svg" viewBox="0 0 650 200"><defs><style>.cls-1{fill:#fff;}</style></defs><path class="cls-1" d="M6.08,156.76V55H50C80.05,55,99.8,76.56,99.8,105.87s-19.29,50.89-49.37,50.89ZM33.42,79.29v53.17H48.91c16,0,22-11.55,22-26.59S64.41,79.29,48.46,79.29Z"/><path class="cls-1" d="M106.18,139.44c0-12.15,6.84-18.83,23.55-24l20.2-6.22c-.76-4.26-3-6.08-9.12-6.08-8.65,0-18.37,4.71-24.6,11.7l-12.15-20A56.75,56.75,0,0,1,142.33,80.2c19.3,0,31.14,9.42,31.14,28.71v22.63c0,3.35.92,4.41,3.65,4.41h4.4v20.81H166c-8.51,0-16.86-3.64-16.86-14.28v-5.77c-2.28,9.72-8,21.72-23.39,21.72C114.84,158.43,106.18,153,106.18,139.44Zm30.08,0c9,0,12.91-3.49,12.91-11.24v-2.28l-12.3,4.41c-5.17,1.82-6.38,3.34-6.38,5.32C130.49,138.08,132.31,139.44,136.26,139.44Z"/><path class="cls-1" d="M192.92,132.61V102.38H182.29V81.72h10.63V73.21l27.34-12.15V81.72h18.23v20.66H220.26v26.28c0,4,2,5.92,5.47,5.92s7.29-2.43,9.72-6.22l7.45,20.5c-3.19,3.65-11.25,9.42-23.4,9.42C200.06,158.28,192.92,147.19,192.92,132.61Z"/><path class="cls-1" d="M245.63,139.44c0-12.15,6.84-18.83,23.55-24l20.2-6.22c-.76-4.26-3-6.08-9.12-6.08-8.65,0-18.38,4.71-24.6,11.7l-12.16-20A56.79,56.79,0,0,1,281.78,80.2c19.29,0,31.14,9.42,31.14,28.71v22.63c0,3.35.91,4.41,3.65,4.41H321v20.81H305.48c-8.51,0-16.86-3.64-16.86-14.28v-5.77c-2.28,9.72-8.05,21.72-23.39,21.72C254.29,158.43,245.63,153,245.63,139.44Zm30.08,0c9,0,12.91-3.49,12.91-11.24v-2.28l-12.31,4.41c-5.16,1.82-6.37,3.34-6.37,5.32C269.94,138.08,271.76,139.44,275.71,139.44Z"/><path class="cls-1" d="M327.81,156.76V55h27.34V103.9c2-12.46,7.6-23.7,23.7-23.7,16.41,0,27.49,13.37,27.49,39s-11.08,39-29,39c-16.1,0-20.35-11.09-22.18-23.39v21.87Zm38-19.14c8.81,0,12.76-7.29,12.76-18.38s-3.95-18.38-12.76-18.38c-5.78,0-10.64,2.89-10.64,15v6.68C355.15,134.74,360,137.62,365.79,137.62Z"/><path class="cls-1" d="M413.64,119.24c0-22.78,14.58-39,37.52-39,25.67,0,36.76,17.17,36.76,35.24a70.81,70.81,0,0,1-.76,11.09H439c1.68,7.29,7.6,9.88,15.2,9.88,7.44,0,12.91-2.13,15.79-8.66l16.56,15.79c-5.77,7.45-15.65,14.74-32.81,14.74C427.92,158.28,413.64,142,413.64,119.24Zm24.91-6.83h24.91c-.45-7.6-3.95-11.85-12.15-11.85C443.87,100.56,439.16,104.51,438.55,112.41Z"/><path class="cls-1" d="M490.65,177.72l9.42-23.84c5.62,5.16,12.15,8.65,18.53,8.65,5.47,0,8.36-1.52,10.64-7.29l1.36-3.64H514.35l-24-69.88H521l7.14,26.89L534,139.75l5.92-31.14,7.29-26.89h31.29l-26.12,78.69c-6.23,18.53-16.11,26.12-32.81,26.12C508,186.53,496.88,182.28,490.65,177.72Z"/><path class="cls-1" d="M576.63,146.89l10.18-19.75c8.66,5.92,21.57,11.09,30.53,11.09,4.1,0,6.08-.91,6.08-3,0-2.28-2.58-3.34-10.18-5.32l-10.33-2.73c-15.34-4.1-23.85-9.72-23.85-22.33,0-15.49,12.91-24.46,32.81-24.46,16.56,0,28.56,6.23,34.49,10.64l-9.27,19.44c-9.72-7.14-20.36-10.18-27.8-10.18-3.8,0-5.62,1.22-5.62,3,0,2.28,2.13,3.34,11.85,6.23l7.75,2.28c16.25,4.71,24.45,10.78,24.45,22.94,0,14.12-11.85,23.54-31.14,23.54C599.27,158.28,584.08,152.66,576.63,146.89Z"/><rect class="cls-1" x="489.51" y="47.72" width="30.72" height="21.05"/><rect class="cls-1" x="546.97" y="47.72" width="30.72" height="21.05"/></svg>