<svg width="172" height="17" viewBox="0 0 172 17" fill="none" xmlns="http://www.w3.org/2000/svg">
<path fill-rule="evenodd" clip-rule="evenodd" d="M66.2092 0.175432C62.9547 0.954157 60.8517 3.65512 60.8535 7.05338C60.8557 11.1602 63.6352 13.9341 67.7616 13.9479C69.784 13.9546 71.499 13.3197 72.6166 12.1503L73.2622 11.4747L72.6406 11.1475C72.1126 10.8698 71.843 10.9403 70.8525 11.6151C69.854 12.2952 69.4092 12.4095 67.7599 12.4095C66.0312 12.4095 65.7213 12.3202 64.7359 11.5373C63.0332 10.1846 62.4953 9.06829 62.4953 6.88741C62.4953 5.26031 62.6073 4.86042 63.3524 3.82333C65.2502 1.18246 68.2699 0.774708 71.4184 2.73402C71.9829 3.08561 72.1146 3.07325 72.5612 2.62618C73.0443 2.1426 73.0291 2.09177 72.2086 1.4338C70.6959 0.22036 68.2047 -0.301969 66.2092 0.175432ZM6.38164 1.38719C6.09166 2.04347 4.74637 5.01094 3.39193 7.9815C0.908743 13.4284 0.715333 13.9541 1.19214 13.9541C1.94864 13.9541 2.46659 13.4463 3.23366 11.9529L4.08072 10.3034H6.19594C8.6737 10.3034 9.21479 10.1489 9.21479 9.44207C9.21479 8.98658 8.93482 8.91187 6.96358 8.84026L4.71209 8.75882L6.21794 5.41982C7.53324 2.50262 7.76264 2.15272 8.03262 2.64893C8.20289 2.96121 9.37906 5.53243 10.6466 8.36258C11.9142 11.1927 12.9787 13.5351 13.0121 13.5679C13.0453 13.6008 13.4261 13.7148 13.8578 13.8212C14.3706 13.9479 14.6428 13.9038 14.6428 13.6946C14.6428 13.5182 13.279 10.4087 11.612 6.78406C8.65941 0.364423 8.55914 0.193686 7.74493 0.193686C7.03472 0.193686 6.82959 0.373133 6.38164 1.38719ZM26.9788 6.39653L27.0702 12.5997L27.8718 13.2767C29.1277 14.338 32.0697 14.2012 32.0697 13.0816C32.0697 12.6401 31.8554 12.5499 30.8044 12.5499C28.8223 12.5499 28.6415 12.2079 28.6415 8.45806V5.24852H30.2327C31.7192 5.24852 31.8177 5.20696 31.7326 4.61667C31.6529 4.06625 31.448 3.97386 30.1413 3.9L28.6415 3.81491V2.4487C28.6415 0.638511 28.4343 0.193686 27.591 0.193686H26.8873L26.9788 6.39653ZM34.4078 0.965952C34.4786 1.57253 34.6666 1.75732 35.2837 1.82696C35.9896 1.907 36.0693 1.82865 36.0693 1.0547C36.0693 0.281025 35.9805 0.193686 35.1934 0.193686C34.406 0.193686 34.3263 0.272036 34.4078 0.965952ZM128.06 0.591894C128.06 1.41218 128.428 1.87863 129.074 1.87863C129.879 1.87863 130.159 1.50401 129.916 0.752806C129.7 0.0807939 128.06 -0.0613026 128.06 0.591894ZM161.2 1.23582C161.2 1.68486 161.361 2.24903 161.557 2.48942C161.754 2.73009 163.742 4.16426 165.976 5.67678L170.038 8.4266L167.976 9.83859C160.976 14.632 161.35 14.3172 161.251 15.4924L161.16 16.5784L162.108 15.8805C162.63 15.4966 164.876 13.951 167.099 12.4455C171.656 9.35978 172.182 8.8894 171.934 8.12163C171.795 7.69084 166.225 3.6613 162.004 0.938434L161.2 0.419465V1.23582ZM18.477 4.09602C14.5828 5.8346 14.522 11.53 18.377 13.4621C19.6752 14.1127 21.821 14.0908 23.1726 13.4129C24.6764 12.6586 25.0575 12.1633 24.4899 11.6999C24.1202 11.3983 23.8602 11.4393 22.9477 11.9437C20.9968 13.0212 18.8027 12.6305 17.8042 11.0273C16.7246 9.29379 16.9183 7.43895 18.323 6.05785C19.6429 4.76045 20.9265 4.61526 22.6512 5.5681C23.8196 6.21371 24.7421 6.10616 24.5916 5.34204C24.4524 4.63633 22.1627 3.56273 20.8117 3.56975C20.1686 3.57312 19.1181 3.81014 18.477 4.09602ZM51.8458 4.01402C48.3458 5.76917 48.0167 10.8336 51.2495 13.1869C52.1069 13.8111 54.1235 14.1116 55.6125 13.837C56.7136 13.6339 58.4514 12.3722 58.194 11.9627C57.98 11.6224 56.7176 11.6356 56.5007 11.9807C56.1333 12.5651 54.1704 12.8493 53.0374 12.4826C50.2531 11.5803 49.7034 7.02951 52.186 5.4305C54.1195 4.18532 56.9244 5.5813 56.9244 7.78914C56.9244 8.29013 56.7144 8.33759 54.4961 8.33759C52.2583 8.33759 52.0677 8.38168 52.0677 8.89923C52.0677 9.42325 52.2583 9.46088 54.9043 9.46088C57.964 9.46088 58.6385 9.18905 58.6385 7.95567C58.6385 7.02586 57.4595 4.93653 56.579 4.30608C55.5211 3.54841 53.0748 3.39761 51.8458 4.01402ZM77.1322 3.94578C75.4712 4.40408 75.4066 4.46193 75.8646 5.0775C76.1868 5.51109 76.3842 5.52935 77.571 5.23561C79.2162 4.82813 80.7367 5.07637 81.4946 5.87616C81.9671 6.37462 82.0648 6.86747 82.0648 8.74928C82.0648 11.3747 81.7274 12.0568 80.1813 12.5587C78.2715 13.1782 76.3511 12.3289 76.3511 10.865C76.3511 9.7726 77.2993 9.07475 79.0145 8.90485C80.1176 8.79561 80.5115 8.63526 80.583 8.26738C80.6649 7.84474 80.4447 7.77594 79.0103 7.77594C76.7768 7.77594 75.4795 8.45946 74.9581 9.91104C74.6155 10.865 74.6235 11.1419 75.0192 12.0686C75.8337 13.9749 79.002 14.6101 81.0115 13.2694C81.9991 12.6109 82.0442 12.6056 82.2134 13.129C82.3236 13.4711 82.6473 13.6732 83.0839 13.6732H83.7789L83.7784 10.2331C83.7781 6.47572 83.449 5.34934 82.0608 4.35045C81.1109 3.66692 78.8234 3.47933 77.1322 3.94578ZM86.3501 8.63695V13.7106L87.1357 13.6216L87.9214 13.5328L88.0642 9.92705C88.2039 6.40018 88.2248 6.30639 89.0087 5.64448C90.0897 4.73181 91.5696 4.73714 92.5052 5.65712C93.1683 6.30863 93.2066 6.52205 93.2066 9.56563C93.2066 11.3362 93.2846 12.9847 93.38 13.229C93.4754 13.4733 93.8611 13.6732 94.2371 13.6732C94.9187 13.6732 94.9207 13.6637 94.9207 10.4297C94.9207 7.00059 95.2398 5.83207 96.3334 5.25695C97.2685 4.76494 98.5552 4.92754 99.4043 5.64477C100.196 6.31341 100.207 6.36761 100.3 9.99754L100.394 13.6732H101.107H101.819L101.727 9.60579L101.634 5.53861L100.7 4.62116C99.8602 3.7961 99.5997 3.70399 98.107 3.70399C96.754 3.70399 96.2651 3.84075 95.4598 4.44452L94.4722 5.18505L93.5491 4.37431C92.2812 3.26056 90.2334 3.22349 88.9433 4.29063C88.2754 4.84301 88.0642 4.91293 88.0642 4.58128C88.0642 4.15162 87.2497 3.56358 86.6547 3.56358C86.4504 3.56358 86.3501 5.23336 86.3501 8.63695ZM108.205 4.00531C107.734 4.24626 107.059 4.70962 106.705 5.03537L106.062 5.62735V4.73574C106.062 3.97218 105.96 3.8444 105.348 3.8444H104.634V10.2733C104.634 15.8766 104.692 16.7241 105.086 16.8727C105.976 17.2083 106.062 17.0117 106.062 14.6561C106.062 12.2705 106.237 11.8816 106.935 12.7089C108.755 14.8645 112.969 14.0844 114.32 11.3418C116.453 7.01069 112.232 1.94631 108.205 4.00531ZM118.842 4.0143C117.599 4.38976 117.508 4.47597 117.794 5.00223C118.049 5.46981 118.252 5.53496 118.87 5.34793C119.289 5.221 120.319 5.11513 121.157 5.1126C122.477 5.10867 122.775 5.21426 123.371 5.8961C123.966 6.57598 124.061 6.96969 124.061 8.77006C124.061 10.6549 123.984 10.9405 123.266 11.7308C121.577 13.5887 118.347 12.9212 118.347 10.7142C118.347 9.56002 118.995 9.12839 121.058 8.9099C122.152 8.79392 122.507 8.63666 122.585 8.23424C122.679 7.75375 122.517 7.71893 120.669 7.82171C117.574 7.99358 116.141 9.46285 116.815 11.7726C117.423 13.858 120.867 14.6971 122.995 13.2781C123.96 12.6339 124.015 12.6275 124.15 13.1377C124.233 13.4494 124.543 13.6732 124.891 13.6732C125.468 13.6732 125.489 13.5418 125.489 9.92368C125.489 6.49847 125.433 6.09352 124.846 5.24262C123.766 3.67675 121.496 3.21227 118.842 4.0143ZM134.588 4.13028C131.748 5.60489 131.391 9.98462 133.949 11.9625C135.736 13.345 138.271 13.2837 140.046 11.8156L140.916 11.0958V12.1178C140.916 14.4303 139.139 15.8429 136.602 15.5475C135.849 15.4599 134.849 15.1928 134.379 14.9541C133.607 14.5618 133.482 14.5621 133.078 14.9591C132.832 15.2007 132.631 15.4596 132.631 15.5345C132.631 15.6092 133.239 15.9347 133.982 16.2577C135.778 17.0389 138.765 17.0656 140.074 16.3122C142.203 15.0869 142.599 13.7628 142.618 7.82761L142.63 3.80705L141.856 3.89607C141.314 3.95813 141.034 4.18532 140.923 4.65401C140.772 5.28643 140.74 5.2957 140.34 4.82111C139.258 3.5383 136.391 3.19401 134.588 4.13028ZM148.447 4.1036C147.953 4.39931 147.444 4.80819 147.316 5.01235C147.148 5.28025 147.037 5.18926 146.916 4.68406C146.797 4.18279 146.529 3.95954 145.969 3.89523L145.188 3.80593L145.266 8.80965L145.344 13.8137L146.13 13.9024L146.916 13.9914V10.4342V6.8773L147.887 5.9225C149.182 4.6498 150.587 4.6015 151.794 5.78855C152.624 6.60378 152.629 6.6327 152.629 9.94474C152.629 13.386 152.799 13.9541 153.829 13.9541C154.298 13.9541 154.343 13.6365 154.337 10.3736C154.332 7.43502 154.231 6.5771 153.775 5.58888C152.89 3.67141 150.349 2.96318 148.447 4.1036ZM34.3552 8.56224C34.3552 13.4393 34.4697 13.9541 35.5551 13.9541C36.0293 13.9541 36.0693 13.596 36.0693 9.3435C36.0693 6.80766 35.9913 4.53298 35.8959 4.28866C35.8005 4.04435 35.4148 3.8444 35.0388 3.8444H34.3552V8.56224ZM38.0691 3.97161C38.0691 4.34651 42.1661 13.3104 42.4835 13.6306C43.2503 14.4031 43.938 13.4851 45.8546 9.12782C48.4047 3.33077 48.2524 3.8444 47.4193 3.8444C46.4846 3.8444 46.3952 3.98228 44.781 7.91635C44.0205 9.76979 43.3115 11.3871 43.2055 11.5103C43.0995 11.6333 42.269 9.95907 41.3602 7.78942C39.7775 4.01177 39.6727 3.8444 38.8882 3.8444C38.4376 3.8444 38.0691 3.90169 38.0691 3.97161ZM128.411 8.80853C128.488 13.7743 128.494 13.8145 129.138 13.9044L129.788 13.9948L129.71 8.98994C129.632 4.02413 129.626 3.98397 128.982 3.89411L128.333 3.80368L128.411 8.80853ZM111.479 5.42712C112.604 6.07976 113.205 7.2362 113.205 8.74591C113.205 10.3618 112.597 11.5665 111.5 12.1239C109.016 13.3865 106.062 11.5483 106.062 8.74001C106.062 5.99187 109.174 4.08871 111.479 5.42712ZM139.1 5.42685C140.256 5.96631 140.916 7.07107 140.916 8.46817C140.916 9.21628 140.669 9.73413 139.938 10.5182C139.034 11.4884 138.841 11.5671 137.373 11.5671C135.984 11.5671 135.676 11.4598 134.914 10.7106C133.82 9.63612 133.542 8.2011 134.173 6.89415C135.042 5.09462 137.084 4.48637 139.1 5.42685ZM161.253 5.73996C161.323 6.34036 161.793 6.81299 163.363 7.86299C165.212 9.1003 165.446 9.1854 166.139 8.87508C166.555 8.6889 166.831 8.43391 166.753 8.30866C166.469 7.8571 162.001 4.9677 161.587 4.9677C161.292 4.9677 161.19 5.20387 161.253 5.73996Z" fill="black"/>
</svg>
