<svg width="124" height="61" viewBox="0 0 124 61" fill="none" xmlns="http://www.w3.org/2000/svg">
<path fill-rule="evenodd" clip-rule="evenodd" d="M39.5454 0.645075C37.0228 1.54241 35.0827 3.29504 33.9982 5.65729C33.0062 7.81716 32.9959 7.96555 33.1174 18.513L33.2407 29.1834L34.4919 31.1998C35.2659 32.4471 36.515 33.6923 37.7658 34.4639L39.7886 35.7112L48.831 35.8431L57.873 35.9754L57.5877 34.8126C57.4306 34.1733 57.0936 32.9211 56.8389 32.0299L56.3758 30.4096L49.3714 28.8631C44.4717 27.7815 42.207 27.0989 41.8353 26.5919C41.0604 25.5355 41.0799 10.4119 41.8576 9.35174C42.2591 8.80394 44.3298 8.1803 49.3933 7.08223L56.375 5.56784L56.8385 3.94588C57.0936 3.05391 57.4273 1.81404 57.5803 1.1904L57.8586 0.056882L49.4777 0.0750183C43.5649 0.0877962 40.6399 0.255557 39.5454 0.645075ZM66.8944 2.78598L67.5998 5.57197L74.5719 7.08429C79.6272 8.18071 81.6962 8.80394 82.0977 9.35174C82.8879 10.4288 82.8941 25.5372 82.1047 26.613C81.7123 27.148 79.592 27.7861 74.5963 28.8726L67.6349 30.3866L66.8882 33.0489C66.4776 34.5134 66.1348 35.7706 66.127 35.8431C66.1191 35.9156 70.1592 35.9156 75.1057 35.8431C83.4663 35.7203 84.2197 35.6469 85.8162 34.7957C87.9249 33.6717 89.8211 31.4442 90.4496 29.3544C91.0876 27.2304 91.0876 8.74376 90.4496 6.61975C89.8211 4.52995 87.9249 2.30249 85.8162 1.17845C84.2205 0.32769 83.4655 0.253496 75.1442 0.131488L66.1894 0L66.8944 2.78598ZM56.6024 17.9871C56.6024 18.5048 57.4753 18.6054 61.9777 18.6054C66.4801 18.6054 67.3529 18.5048 67.3529 17.9871C67.3529 17.4694 66.4801 17.3688 61.9777 17.3688C57.4753 17.3688 56.6024 17.4694 56.6024 17.9871ZM4.55244 47.1494C3.42157 49.6675 1.86729 54.1496 0.621877 58.4846L0 60.6486H1.13997C2.16251 60.6486 2.33493 60.4351 2.81333 58.5732L3.34714 56.4979L7.29424 56.6154L11.2413 56.7328L11.8132 58.6907C12.2957 60.344 12.5438 60.6486 13.4059 60.6486C13.9678 60.6486 14.4272 60.4875 14.4272 60.29C14.4272 59.3568 11.8355 51.3966 10.4843 48.1799L8.96926 44.5733H7.33931C5.73913 44.5733 5.68827 44.6203 4.55244 47.1494ZM16.0811 52.6109V60.6486H17.1149H18.1486V52.6109V44.5733H17.1149H16.0811V52.6109ZM20.7994 45.1384C20.3396 46.3325 20.8081 47.2525 21.8757 47.2525C22.7423 47.2525 22.9036 47.0583 22.9036 46.0159C22.9036 45.0465 22.7022 44.7509 21.9716 44.6475C21.4246 44.57 20.94 44.7732 20.7994 45.1384ZM25.5912 52.5578V60.5423L28.412 60.8193C31.4251 61.1152 33.2059 60.7034 34.1243 59.499C34.4766 59.0366 34.6659 57.4253 34.6746 54.8207C34.6924 49.5195 34.2438 48.9012 30.3827 48.9012H27.6586V46.7373C27.6586 44.7039 27.5962 44.5733 26.6249 44.5733H25.5912V52.5578ZM48.3328 52.5578V60.5423L51.1238 60.816C54.2278 61.121 56.3762 60.6037 57.0246 59.396C57.247 58.9813 57.4294 56.8882 57.4294 54.7448C57.4294 49.5282 56.9675 48.9012 53.1242 48.9012H50.4002V46.7373C50.4002 44.7039 50.3377 44.5733 49.3665 44.5733H48.3328V52.5578ZM79.0599 45.0011C76.4624 45.8024 76.0361 46.917 76.0361 52.9044C76.0361 58.2109 76.0423 58.2451 77.2062 59.4055C78.8854 61.0789 82.5501 61.4759 86.4174 60.4025C86.8772 60.2752 87.021 59.9001 86.8838 59.1849C86.7465 58.469 86.479 58.2122 86.0126 58.3478C84.2077 58.8729 82.0994 59.0658 80.8043 58.8235C78.3512 58.3647 78.1035 57.8181 78.1035 52.8665C78.1035 47.2199 78.3115 46.8889 81.8798 46.8609C83.3278 46.8498 85.0028 46.9776 85.6024 47.1453C86.5125 47.4005 86.732 47.2995 86.9326 46.5345C87.0649 46.0303 87.0177 45.4632 86.828 45.274C86.2979 44.7456 80.5434 44.5436 79.0599 45.0011ZM89.2675 52.6109V60.6486H90.3012H91.3349V52.6109V44.5733H90.3012H89.2675V52.6109ZM121.933 46.5847V48.5962L119.436 48.7759C115.93 49.029 115.255 49.787 114.999 53.7593C114.618 59.673 116.163 61.3893 121.364 60.8341L124 60.5526V52.5631V44.5733H122.966C122.005 44.5733 121.933 44.7138 121.933 46.5847ZM9.02466 50.3381C9.72221 52.1402 10.2924 53.8063 10.2924 54.0404C10.2924 54.2951 9.03913 54.4658 7.16358 54.4658C4.11084 54.4658 4.04138 54.4431 4.31551 53.5384C5.0664 51.0595 7.10197 46.6577 7.4096 46.8473C7.60104 46.9652 8.32753 48.536 9.02466 50.3381ZM38.5126 48.9647C37.8518 49.1069 37.5822 49.461 37.5822 50.1869C37.5822 51.1893 37.6294 51.2037 39.9887 50.9379C42.606 50.6427 43.7845 51.2351 43.7845 52.8463C43.7845 53.5149 43.4855 53.6414 41.9106 53.6414C37.4416 53.6414 34.9947 56.4868 37.0038 59.3465C37.9965 60.7595 39.421 61.116 42.8425 60.8069L45.9184 60.5291L45.7816 55.6529C45.6592 51.2853 45.5504 50.6827 44.7392 49.8748C43.8225 48.9618 40.6709 48.5014 38.5126 48.9647ZM61.2541 48.9862C60.5875 49.1139 60.3237 49.4544 60.3237 50.1869C60.3237 51.1893 60.3709 51.2037 62.7302 50.9379C65.3476 50.6427 66.526 51.2351 66.526 52.8463C66.526 53.5149 66.227 53.6414 64.6521 53.6414C60.1832 53.6414 57.7362 56.4868 59.7453 59.3465C60.7356 60.7554 62.1642 61.1156 65.5506 60.8098L68.5934 60.5349V55.8198C68.5934 51.158 68.5797 51.0912 67.3848 49.9C66.3585 48.8769 65.8752 48.7038 64.1803 48.7512C63.0825 48.7821 61.766 48.8876 61.2541 48.9862ZM94.6109 49.9C93.4536 51.0537 93.4023 51.2631 93.4023 54.8232C93.4023 58.1598 93.5049 58.6606 94.4 59.6981C95.2932 60.7331 95.6665 60.8547 97.9506 60.8547C100.235 60.8547 100.608 60.7331 101.501 59.6981C102.396 58.6606 102.499 58.1598 102.499 54.8232C102.499 51.2631 102.448 51.0537 101.29 49.9C100.267 48.8802 99.7546 48.6951 97.9506 48.6951C96.1466 48.6951 95.6343 48.8802 94.6109 49.9ZM20.8362 54.8788V60.649H21.9733L23.1103 60.6486V54.878V49.1073L21.9733 49.1077L20.8362 49.1082V54.8788ZM104.153 53.2424C104.153 60.0353 105.366 61.4314 110.743 60.825L113.249 60.5423V54.8248V49.1073H112.216H111.182V53.8149V58.5221L109.995 58.7822C109.342 58.9253 108.323 58.9211 107.732 58.7728C106.396 58.4389 106.1 57.145 106.29 52.47L106.427 49.1053L105.29 49.1065L104.153 49.1073V53.2424ZM31.9663 51.0063C32.491 51.207 32.6204 51.9424 32.6204 54.7246C32.6204 57.9954 32.5634 58.2192 31.6186 58.6483C31.0533 58.9051 29.9717 58.983 29.1377 58.8267L27.6586 58.5502V54.8895C27.6586 51.7495 27.7616 51.2021 28.3822 51.0401C29.5077 50.747 31.2456 50.7305 31.9663 51.0063ZM54.7078 51.0063C55.2325 51.207 55.362 51.9424 55.362 54.7246C55.362 57.9954 55.3049 58.2192 54.3601 58.6483C53.7949 58.9051 52.7132 58.983 51.8792 58.8267L50.4002 58.5502V54.8895C50.4002 51.7495 50.5031 51.2021 51.1238 51.0401C52.2493 50.747 53.9871 50.7305 54.7078 51.0063ZM100.004 51.5533C100.696 52.8434 100.541 57.5951 99.7819 58.3523C99.0364 59.0951 97.4362 59.1957 96.2694 58.5732C95.5843 58.2076 95.4697 57.6883 95.4697 54.946C95.4697 53.0062 95.6653 51.5504 95.9659 51.2507C96.7908 50.4284 99.509 50.6324 100.004 51.5533ZM121.278 51.0063C121.807 51.2083 121.933 51.958 121.933 54.9035V58.5502L120.529 58.8127C119.742 58.9599 118.743 58.8713 118.255 58.6108C117.476 58.1953 117.384 57.7823 117.384 54.6917C117.384 52.3138 117.546 51.172 117.901 51.029C118.649 50.7281 120.518 50.7157 121.278 51.0063ZM43.7051 57.2192C43.8279 58.4805 43.763 58.5403 41.9953 58.8045C39.3354 59.2023 37.736 58.1685 38.7255 56.6916C39.1956 55.9901 40.1198 55.7407 41.9238 55.8281C43.4599 55.9027 43.5868 56.002 43.7051 57.2192ZM66.4458 57.2081C66.5653 58.4327 66.4772 58.5234 64.9126 58.7868C62.2754 59.2311 60.7852 58.368 61.4058 56.7563C61.6944 56.0061 62.5677 55.7617 64.6653 55.8437C66.2022 55.9039 66.3283 56.0004 66.4458 57.2081Z" fill="black"/>
</svg>
