<svg width="109" height="31" viewBox="0 0 109 31" fill="none" xmlns="http://www.w3.org/2000/svg">
<path fill-rule="evenodd" clip-rule="evenodd" d="M16.2079 4.95654L10.2169 9.93156L8.87318 12.2453C8.1341 13.5179 5.83524 17.4632 3.76466 21.0127C1.69409 24.5622 0 27.487 0 27.5123C0 27.5375 2.08165 27.5582 4.62585 27.5582H9.25171L15.747 13.7884C19.3195 6.21498 22.2326 0.0102153 22.2206 3.47125e-05C22.2086 -0.0101459 19.5028 2.22032 16.2079 4.95654ZM21.0959 9.13259L18.5593 16.0322L20.6773 18.5295C21.8422 19.903 24.0511 22.5039 25.586 24.3091C27.1209 26.1145 28.3769 27.6132 28.3769 27.6398C28.3769 27.6663 24.2833 28.4014 19.2801 29.2733C14.2768 30.1452 10.0491 30.8884 9.88503 30.9248C9.72099 30.9612 16.5586 30.9947 25.0798 30.9994C33.6009 31.0041 40.5557 30.9794 40.5348 30.9448C40.5139 30.91 37.5455 25.8271 33.9383 19.6494C24.7421 3.90003 23.7616 2.23303 23.6931 2.23303C23.6598 2.23303 22.4911 5.33785 21.0959 9.13259ZM51.3084 9.73981C48.986 15.7315 44.4826 27.4812 44.4826 27.5489C44.4826 27.6128 44.8436 27.6424 45.6221 27.6424H46.7615L47.5085 25.56C47.9194 24.4146 48.3298 23.2788 48.4205 23.0359L48.5853 22.5942H52.4844H56.3836L57.0919 24.4662C57.4814 25.4959 57.9132 26.6317 58.0514 26.9903L58.3025 27.6424H59.4547H60.6069L60.5571 27.4531C60.5298 27.3489 58.9576 23.2883 57.0634 18.4294L53.6192 9.59501L52.501 9.57154C51.4055 9.54848 51.3813 9.55193 51.3084 9.73981ZM52.791 12.7922C52.9203 13.2087 53.6155 15.1322 54.336 17.0667C55.0565 19.0013 55.6459 20.6009 55.6459 20.6215C55.6459 20.6422 54.2226 20.659 52.4829 20.659C49.5121 20.659 49.3225 20.6501 49.3603 20.5118C49.3824 20.4307 50.0542 18.585 50.8531 16.4101C51.6521 14.2352 52.334 12.2853 52.3686 12.077C52.4402 11.6455 52.4296 11.6278 52.791 12.7922ZM103.282 14.4023C102.159 14.5642 101.252 14.93 100.408 15.561C99.4328 16.291 98.6525 17.4833 98.1983 18.9383C97.977 19.6471 97.9631 19.7856 97.9615 21.29C97.96 22.6909 97.9836 22.975 98.1522 23.5866C98.7408 25.7213 99.9279 27.0269 101.875 27.6815C102.988 28.0553 105.21 27.9958 106.54 27.5565C106.974 27.4131 107.569 27.1636 107.862 27.0022L108.394 26.7086L108.386 25.9765C108.381 25.5739 108.353 25.1604 108.322 25.0578C108.267 24.8729 108.262 24.874 107.841 25.1608C106.966 25.7556 105.429 26.2026 104.236 26.2091C103.054 26.2156 101.901 25.7588 101.191 25.0028C100.513 24.2817 100.043 23.1102 100.043 22.1403V21.6687H104.522H109L108.974 19.7883L108.948 17.9079L108.55 17.1153C108.256 16.5313 108.01 16.1836 107.615 15.7934C106.546 14.7382 104.812 14.1816 103.282 14.4023ZM94.3206 14.6343C93.3994 14.9592 92.7529 15.5717 92.2092 16.635C91.8082 17.4191 91.7802 17.3676 91.7786 15.8422L91.7774 14.7694H90.7548H89.7322V21.2059V27.6424H90.7424H91.7526L91.8151 23.7227C91.8709 20.2229 91.8952 19.7399 92.0427 19.2147C92.3976 17.9502 93.1043 16.9763 93.9322 16.6106C94.5453 16.3398 95.5642 16.333 96.1447 16.596L96.5495 16.7793V15.7C96.5495 14.652 96.5439 14.6193 96.3577 14.57C96.0123 14.4787 94.6391 14.522 94.3206 14.6343ZM62.1223 15.6099V16.4503L65.6233 16.4723L69.1242 16.4942L65.2829 21.7107C61.6518 26.6416 61.4414 26.9468 61.441 27.2848L61.4406 27.6424H66.7666H72.0925V26.7598V25.8773L68.2973 25.8553L64.502 25.8334L68.3399 20.5857C71.5942 16.1359 72.1778 15.2948 72.1778 15.0537V14.7694H67.15H62.1223V15.6099ZM74.6691 19.3759C74.6975 23.8326 74.7047 24.0043 74.888 24.6555C75.4588 26.6823 76.5633 27.6391 78.6347 27.9014C80.4244 28.128 82.0599 27.4686 82.9664 26.1551C83.1637 25.8692 83.3478 25.6578 83.3756 25.6854C83.4035 25.7128 83.4262 26.1643 83.4262 26.6889V27.6424H84.4488H85.4714V21.2059V14.7694H84.4062H83.341L83.3401 18.9552C83.3391 23.5351 83.3443 23.4791 82.8213 24.448C82.4868 25.0677 81.869 25.6484 81.2292 25.9445C80.7964 26.1447 80.642 26.1697 79.8472 26.168C79.1244 26.1665 78.8778 26.1325 78.5646 25.9909C77.7551 25.6251 77.2376 24.9832 76.9199 23.9507C76.7598 23.4304 76.7463 23.1074 76.7152 19.0814L76.6819 14.7694H75.6608H74.6396L74.6691 19.3759ZM104.523 16.2071C105.477 16.3795 106.195 16.9166 106.645 17.7939C106.923 18.3345 107.116 19.0696 107.116 19.5829V19.9859H103.58C99.5609 19.9859 99.9267 20.068 100.181 19.223C100.658 17.6346 101.87 16.4301 103.212 16.2097C103.852 16.1046 103.955 16.1044 104.523 16.2071Z" fill="black"/>
</svg>
