<svg width="101" height="19" viewBox="0 0 101 19" fill="none" xmlns="http://www.w3.org/2000/svg">
<g clip-path="url(#clip0_343_437)">
<path d="M0.0384233 9.79489C0.0384233 7.36844 0.123038 4.93485 0.00314875 2.51198C-0.0673746 1.04108 0.472131 0.654565 1.81207 0.761929C3.37769 0.88361 4.95388 0.7154 6.52303 1.04823C10.3842 1.8642 11.6748 5.44662 9.1324 8.50294C8.674 9.0505 8.42717 9.21871 9.26993 9.73764C11.3045 10.933 12.0274 12.7653 11.5372 14.816C11.285 15.9234 10.6857 16.9179 9.82933 17.6503C8.97292 18.3827 7.90558 18.8135 6.78749 18.878C4.92215 18.9853 3.04271 18.878 1.17384 18.9281C0.186512 18.9567 0.017256 18.4557 0.0278345 17.6146C0.0560438 15.0093 0.0384233 12.4182 0.0384233 9.79489Z" fill="black"/>
<path d="M67.7725 18.946C66.3092 18.946 64.8458 18.9209 63.386 18.946C62.5432 18.9674 62.3281 18.7742 62.4868 17.8294C62.9558 15.2204 64.3662 13.2843 66.3409 11.6774C67.3423 10.8614 68.3755 10.0812 69.3276 9.20798C69.6754 8.92661 69.9257 8.53979 70.0417 8.10395C70.1578 7.66812 70.1337 7.20605 69.9728 6.78511C69.5955 5.78662 68.7951 5.38221 67.7584 5.35358C66.6435 5.31315 65.5352 5.54255 64.5249 6.02282C63.8444 6.34491 63.4671 6.2304 63.2449 5.45022C63.0475 4.78097 62.7795 4.21194 63.7069 3.90416C65.5475 3.2886 67.3882 2.78039 69.3699 3.14901C70.9813 3.44963 72.2684 4.14751 72.7938 5.80093C73.0781 6.56315 73.1351 7.39345 72.9577 8.18833C72.7802 8.98321 72.3762 9.7075 71.7959 10.2709C70.5124 11.5593 69.049 12.658 67.7055 13.8855C66.9756 14.5512 65.8649 15.3636 66.1999 16.3012C66.5348 17.2389 67.8536 16.6305 68.7281 16.7128C69.6026 16.7951 70.4912 16.6734 71.3586 16.7486C72.1062 16.813 73.2028 16.2332 73.2381 17.8222C73.2769 19.5508 72.0603 18.8959 71.2811 18.9567C70.1174 19.0104 68.9467 18.946 67.7725 18.946Z" fill="black"/>
<path d="M47.2966 6.26655C49.7296 5.41837 50.9356 6.62443 52.0217 8.41384C53.2946 10.4896 53.411 10.4466 54.8073 8.50332C55.9181 6.95726 56.923 5.28237 59.3526 6.35602C58.5733 8.08459 57.2933 9.46959 56.179 10.9333C55.3362 12.0285 55.1212 12.8373 56.1261 13.9897C57.3814 15.4427 58.4146 17.0853 59.6523 18.7924C57.6917 19.1503 56.0803 19.1718 55.1952 17.0961C55.0154 16.6738 54.5922 16.3803 54.3771 15.9544C53.7742 14.8164 53.1888 14.7806 52.5153 15.8829C52.2685 16.2837 51.8982 16.5986 51.6937 17.0281C50.7946 18.8748 49.3171 19.2792 47.1943 18.7781C48.492 17.0138 49.6909 15.3103 50.9709 13.6747C51.6091 12.8588 51.6761 12.2432 51.0026 11.3664C49.7226 9.73085 48.5731 8.03091 47.2966 6.26655Z" fill="black"/>
<path d="M22.2815 12.8123C22.2815 11.846 22.2533 11.0765 22.2815 10.3071C22.3274 9.28713 22.3415 8.37453 20.8922 8.51768C20.0283 8.59999 20.046 7.91287 20.0495 7.30447C20.053 6.69607 20.0107 5.99461 20.8817 6.0805C22.3239 6.21649 22.2921 5.31821 22.2921 4.29108C22.2921 3.15302 23.9635 1.95412 24.9896 2.28695C25.6279 2.49094 25.381 3.06355 25.3987 3.48943C25.5221 5.99461 25.5115 5.96598 27.8247 6.06619C28.3113 6.08766 29.214 5.70831 29.1117 6.69248C29.0236 7.49414 28.9495 8.7181 27.7013 8.50337C25.3634 8.1097 25.2929 9.4625 25.4093 11.1732C25.4904 12.347 25.3881 13.5352 25.4339 14.7162C25.508 16.477 26.1215 17.0604 27.7295 16.5665C28.9777 16.1871 29.1823 16.9244 29.3868 17.7224C29.6689 18.8462 28.7168 18.8319 28.0997 18.882C26.9396 18.975 25.7654 18.9321 24.5982 18.9106C23.4311 18.8891 22.9127 18.0016 22.5742 17.0174C22.0664 15.5751 22.3662 14.0828 22.2815 12.8123Z" fill="black"/>
<path d="M74.1587 12.7224C76.4049 9.59095 78.6898 6.4917 81.1863 3.56064C82.9706 3.07392 83.1293 3.1777 83.1398 4.96353C83.1398 7.15377 83.1786 9.34045 83.1398 11.5307C83.1187 12.4934 83.2139 13.1734 84.4234 13.0159C85.0087 12.9407 85.6117 12.9264 85.6258 13.8498C85.6258 14.7123 85.1497 14.8017 84.5009 14.7695C84.3584 14.738 84.2103 14.7434 84.0704 14.7853C83.9305 14.8272 83.8033 14.9043 83.7005 15.0093L83.7393 14.9843C82.7308 15.4889 83.1645 16.4373 83.1892 17.1673C83.2315 18.3913 82.8895 18.9568 81.6201 18.6168C80.7949 17.672 81.5672 16.4301 81.0347 15.4316C80.3295 14.6192 79.3598 14.7158 78.45 14.7803C77.1454 14.8626 75.816 14.4904 74.5395 15.0057H74.1869C73.6403 14.2506 73.9612 13.4919 74.1587 12.7224Z" fill="black"/>
<path d="M31.6824 12.6409C31.6824 10.9803 31.6578 9.3233 31.6824 7.6663C31.6824 7.12589 31.3721 6.32782 32.1585 6.1453C32.8637 5.98425 33.7981 5.71943 34.2742 6.47456C34.8771 7.44443 35.332 6.99706 35.9526 6.59981C36.5375 6.21022 37.1876 5.93247 37.8709 5.78027C38.5761 5.64427 39.6657 5.64426 39.6692 6.59265C39.6692 7.43725 39.5528 8.60755 38.019 8.5825C35.3602 8.53597 34.8454 9.1551 34.8454 11.7676C34.8454 13.7217 34.7749 15.6793 34.8666 17.6298C34.9336 19.0613 34.0661 18.9003 33.167 18.9325C32.2678 18.9647 31.6013 18.8251 31.6613 17.6155C31.7424 15.9585 31.6824 14.2979 31.6824 12.6409Z" fill="black"/>
<path d="M41.8485 12.6439C41.8485 10.8545 41.9191 9.09371 41.8274 7.32577C41.7569 5.89424 42.6313 6.06961 43.527 6.03024C44.4967 5.99087 45.0256 6.16981 45.0009 7.36872C44.9304 10.7328 44.9304 14.0993 45.0009 17.4682C45.0292 18.6921 44.5496 18.9534 43.46 18.9498C42.3704 18.9462 41.6969 18.7887 41.7886 17.4252C41.8908 15.8398 41.8097 14.2365 41.8097 12.6439H41.8485Z" fill="black"/>
<path d="M17.719 12.8021C17.719 14.4018 17.5815 16.023 17.7614 17.5941C17.9271 19.0507 17.1443 18.9183 16.2275 18.9326C15.3107 18.9469 14.6478 18.9756 14.7112 17.5727C14.8593 14.2014 14.7923 10.823 14.7394 7.44813C14.7394 6.35301 15.0921 6.0166 16.1499 6.0166C17.2078 6.0166 17.7896 6.20986 17.7261 7.4696C17.6521 9.2447 17.719 11.027 17.719 12.8021Z" fill="black"/>
<path d="M99.5124 13.2768C99.0399 14.5651 97.7881 14.7977 96.7725 15.3489C95.7666 15.5493 94.7319 15.5493 93.7259 15.3489C92.4416 15.1007 91.2839 14.4024 90.455 13.3761C89.6262 12.3498 89.1789 11.0606 89.1913 9.7337C89.149 6.65591 90.6934 4.49788 93.3874 3.87874C96.561 3.16298 98.7225 4.11494 100.577 7.04958C100.761 7.47904 100.496 7.7045 100.193 7.91207C99.6358 7.93354 99.389 7.50051 99.1069 7.13547C97.64 5.23153 95.7923 4.39408 93.4333 5.12059C91.6702 5.66099 90.6123 7.12831 90.5912 9.32929C90.5912 11.6663 91.7054 13.359 93.8952 14.243C94.2522 14.4127 94.6417 14.5006 95.0359 14.5006C95.4301 14.5006 95.8196 14.4127 96.1766 14.243C96.9252 13.9171 97.6236 13.4831 98.25 12.9546C98.6026 12.629 98.9764 12.1136 99.5935 12.5145C99.6382 12.6394 99.6542 12.773 99.6402 12.9051C99.6261 13.0373 99.5824 13.1644 99.5124 13.2768Z" fill="black"/>
<path d="M14.4112 1.70008C14.51 0.583489 15.1165 -0.0356446 16.3365 0.00372256C17.5566 0.0430897 18.2195 0.819702 18.1772 1.91124C18.1749 2.16678 18.1211 2.41915 18.0191 2.65279C17.9171 2.88642 17.769 3.09636 17.584 3.26971C17.399 3.44306 17.181 3.57613 16.9434 3.66071C16.7058 3.74528 16.4537 3.77958 16.2025 3.76149C15.1129 3.71855 14.4007 3.00636 14.4112 1.70008Z" fill="black"/>
<path d="M41.4893 1.74289C41.5563 0.626293 42.1557 0 43.3828 0C44.5359 0 45.1953 0.715768 45.2376 1.725C45.2642 1.98129 45.2361 2.2404 45.1549 2.4846C45.0738 2.72881 44.9417 2.95236 44.7676 3.13995C44.5935 3.32754 44.3815 3.47474 44.1461 3.57149C43.9108 3.66824 43.6576 3.71225 43.404 3.70052C42.3003 3.71483 41.5245 3.11358 41.4893 1.74289Z" fill="black"/>
<path d="M83.6901 15.0096C83.8135 14.8915 83.9193 14.7269 84.0674 14.6517C84.5434 14.4513 85.3827 14.8164 85.3756 13.8787C85.3685 12.9411 84.5963 13.1629 84.0674 13.1629C83.0554 13.1987 82.9602 12.5939 82.9672 11.7958C82.9884 9.67359 82.8896 7.54775 83.0025 5.43267C83.0765 4.00113 82.6781 3.30327 81.1865 3.53589C81.6238 2.66624 82.3995 2.91317 83.0131 3.10285C83.6266 3.29252 83.3939 4.00472 83.4009 4.49501C83.4221 6.84988 83.4009 9.20119 83.4009 11.5561C83.4009 12.2432 83.3727 12.916 84.3459 12.8194C85.3192 12.7227 85.8834 12.9088 85.8199 14.1149C85.7494 15.4212 84.8749 15.006 84.1979 15.0633C84.0271 15.0655 83.8567 15.0475 83.6901 15.0096Z" fill="black"/>
<path d="M81.5707 18.5025C82.5862 18.6278 82.9811 18.2448 83.0199 17.1426C83.0411 16.4268 82.3358 15.2923 83.7251 14.9774C83.0622 15.8792 83.4395 16.9135 83.436 17.8762C83.436 18.9499 82.8612 18.9713 82.1031 18.9499C81.3979 18.9284 80.7808 19.0608 80.7173 17.9406C80.5516 15.0776 80.4881 15.1062 77.646 15.0776C76.6058 15.0776 75.5656 15.0167 74.5254 14.9845C76.7857 14.3833 79.0354 14.0934 81.2251 15.2887C81.6765 16.3552 81.0876 17.4861 81.5707 18.5025Z" fill="black"/>
<path d="M100.136 7.95881L100.577 7.06055C101.092 8.71754 101.208 10.3709 100.51 12.0101C100.069 11.5985 100.027 11.008 99.8471 10.4819C99.7378 9.61583 99.5333 8.739 100.136 7.95881Z" fill="black"/>
<path d="M100.104 10.6289C100.686 10.9474 100.457 11.5129 100.51 11.996C100.125 12.3754 100.115 13.0697 99.5118 13.2629C99.4836 12.9623 99.459 12.6581 99.4307 12.3575C99.1698 11.6024 99.2721 10.9868 100.104 10.6289Z" fill="black"/>
<path d="M74.1588 12.7227L74.1905 15.0024C73.0798 14.258 73.5981 13.4921 74.1588 12.7227Z" fill="black"/>
<path d="M93.7256 15.3604H96.7722C96.2942 15.5824 95.7746 15.6974 95.2489 15.6974C94.7232 15.6974 94.2036 15.5824 93.7256 15.3604Z" fill="black"/>
<path d="M2.90559 13.7673C3.01137 12.5326 2.22504 10.8184 4.73567 11.0295C7.15815 11.2335 8.51925 12.0531 8.48046 13.7852C8.44167 15.5174 7.22867 16.2117 4.84498 16.4264C2.46129 16.6411 2.83859 15.1845 2.90559 13.7673Z" fill="#FAFDFF"/>
<path d="M2.86014 5.97667C3.07171 4.90303 2.25362 3.37128 4.3658 3.51086C6.15004 3.62896 7.34895 4.5022 7.38069 5.98384C7.41242 7.46547 6.13241 8.51049 4.26002 8.55344C1.95038 8.6107 3.29386 6.81054 2.86014 5.97667Z" fill="#F8FCFF"/>
<path d="M77.0569 12.118C78.1354 10.9675 79.0763 9.69173 79.8602 8.31729C79.9906 7.90215 80.2128 7.46195 80.6571 7.49058C81.2424 7.52995 81.0308 8.12762 81.0591 8.47834C81.1754 9.90988 81.6268 11.3808 80.7911 12.7729H80.8545C79.7438 13.3169 78.5696 12.9447 77.4271 12.9805C76.9158 12.9626 76.6831 12.619 77.0569 12.118Z" fill="white"/>
<path d="M80.7839 12.7556C80.7839 11.324 80.8192 9.91754 80.8051 8.49675C80.8051 6.91491 80.2057 8.1997 79.853 8.31781C79.8284 7.74519 79.9835 7.18689 80.6253 7.2191C81.5174 7.26205 81.1048 8.06729 81.2212 8.56116C81.4945 9.96601 81.4945 11.4115 81.2212 12.8164L80.7839 12.7556Z" fill="black"/>
<path d="M77.0577 12.1172C76.8955 12.7471 77.1846 12.9582 77.7629 12.9224C78.7925 12.8544 79.8186 12.8008 80.8483 12.7399C79.7093 13.6489 78.4011 13.0978 77.1811 13.0978C76.5534 13.0906 76.5428 12.5288 77.0577 12.1172Z" fill="black"/>
<path d="M81.2178 12.8158C81.2178 11.3842 81.2178 9.97776 81.2178 8.56055C81.4935 9.23496 81.6355 9.95798 81.6355 10.6882C81.6355 11.4183 81.4935 12.1414 81.2178 12.8158Z" fill="black"/>
<path d="M81.5706 18.5022C80.8654 17.5001 81.3767 16.3549 81.218 15.3027C81.9232 16.312 81.4119 17.4465 81.5706 18.5022Z" fill="black"/>
<path d="M100.105 10.6291C99.8814 11.2041 99.6569 11.7803 99.4312 12.3577C98.4615 13.2023 97.6117 14.2223 96.3212 14.6088C95.5139 14.8378 94.6601 14.8378 93.8528 14.6088C90.9896 13.417 89.7131 11.0872 90.2738 8.29571C90.7322 6.04105 92.0827 4.86361 94.2654 4.53794C96.2013 4.24447 97.7492 4.98887 99.0222 6.39893C99.4197 6.89184 99.7882 7.40809 100.126 7.94499L100.105 10.6291Z" fill="white"/>
<path d="M93.8623 14.623H96.3306C95.9674 14.8763 95.5371 15.0119 95.0965 15.0119C94.6558 15.0119 94.2255 14.8763 93.8623 14.623Z" fill="black"/>
<path d="M94.9316 9.97425C94.7624 8.73713 94.7624 7.48223 94.9316 6.24512C96.0423 7.45118 95.4217 8.58924 95.6368 9.57342C95.6968 10.2355 95.3653 10.1961 94.9316 9.97425Z" fill="black"/>
<path d="M94.9316 9.97407C95.0745 9.98158 95.2165 9.94792 95.3413 9.877C95.4661 9.80607 95.5685 9.70077 95.6369 9.57324C96.5572 9.69492 97.5304 9.40862 98.4084 9.99912C97.2519 10.3892 96.0988 10.7435 94.9316 9.97407Z" fill="black"/>
</g>
<defs>
<clipPath id="clip0_343_437">
<rect width="101" height="19" fill="white"/>
</clipPath>
</defs>
</svg>
