<svg id="Layer_1" data-name="Layer 1" xmlns="http://www.w3.org/2000/svg" viewBox="0 0 1100 1060"><defs><style>.cls-1{fill:#fff;}</style></defs><circle cx="549.6" cy="548.19" r="493.5"/><path class="cls-1" d="M561,233.69l16.1-101.6,42,6.7c23.3,3.7,39.4,17.3,35.3,42.9-4,25-23.2,33-46.8,29.3l-20.4-3.2-4.7,29.4Zm34.7-78.9-5.3,33.7,19.7,3.1c11.2,1.8,19.9-1.5,21.8-13.5,2-12.7-5.3-18.4-16.5-20.2Z"/><path class="cls-1" d="M651.9,252.49l36.7-96.1,20.4,7.8-36.7,96.1Z"/><path class="cls-1" d="M691.4,248.69c5.9-9.7,15.5-11.6,30.2-8.4l24.1,4.6c2.6-5.8,2-10.3-5.1-14.6-8.1-4.9-18.3-4.9-26.7-1.2l-1.1-19.4a49.06,49.06,0,0,1,38.9,5.4c16.2,9.9,20.3,24.3,10.5,40.4l-13.4,22c-1.8,2.9-1.3,4.4,1.1,5.9l3.8,2.3-9.1,14.9-11-6.7c-6.9-4.2-11.3-11.2-5.7-20.4l2.6-4.3c-7.2,7.1-18.7,13.4-31.8,5.4C688.7,268.59,685.1,259,691.4,248.69Zm22.6,16.5c8.9,5.4,16.6,4,21.4-3.9l2.7-4.5-17-2.7c-6.4-1-9.2-.2-10.7,2.3C708.5,259.49,709.6,262.39,714,265.19Z"/><path class="cls-1" d="M731.3,311.49l19.2-6.7c-.6,7.3.6,13.9,5.2,18.6,4.1,4.1,7.9,5.1,14.7,1.8l3.9-1.7-9.4-9.5,32.9-66.7,17,17.2L797.1,297l-14,21.6,21.9-13.7,32.6-17.4L854.9,305l-75.7,36.9c-16,7.6-27,5.4-36.9-4.6C734.4,329.29,731.1,319,731.3,311.49Z"/><path class="cls-1" d="M838.4,376.69l21.2,6.5c-9.1,11.5-8.4,27.3-3.5,38.6,3.5,8.1,8.6,12.9,15.1,10.1,7.3-3.2,7-10.4,4.1-24l-2-10c-3.4-15.9-2.9-32.5,15-40.2,18.4-8,35.1,3.6,43.4,22.7,7.7,17.7,7.1,34.8-.7,47.6l-21.3-6.9a35.89,35.89,0,0,0,3.1-34.5c-3.1-7.2-8.5-11-14-8.6-6.9,3-6.8,10.1-4.8,20.9l2.1,11.8c3.5,19.3,1.6,34.4-15.3,41.7-18,7.8-34.3-3.1-43.2-23.5C829.8,410.69,828.4,391.39,838.4,376.69Z"/><path class="cls-1" d="M855.8,472.69l101.9-13.6,2.9,21.7-49,6.5c12.5.8,24.4,6.5,26.4,21.8,1.9,14.1-5.6,23.9-21,26L865,542l-2.9-21.7,44.4-5.9c9.1-1.2,14.4-4.4,13.1-14.3-1.4-10.3-7.6-12.9-19.8-11.3l-41.2,5.5Z"/><path class="cls-1" d="M902.8,554.39c22.7,2.8,37,19.4,34.3,42-2.9,23.2-20.8,36-43.5,33.2-22.9-2.8-37-19.5-34.2-42.8C862.1,564.19,879.9,551.59,902.8,554.39Zm-6.6,53.2c15.4,1.9,22-3.8,23.1-13s-3.9-16.2-19.3-18.1c-15.2-1.9-22,3.8-23.1,12.9S881,605.69,896.2,607.59Z"/><path class="cls-1" d="M852.2,640.69l76.3,13.6-9.8,21.9L882,666.09l-22.8-7,19.6,13.8,30.8,23.7-10.1,22.6-38.3-6.8-23.2-5.5,20.4,12.3,32,20.5-9.8,21.9-61.1-47.9,11.1-24.9,33.9,6.3,26.7,6.9-22.9-15.3-27.2-21.2Z"/><path class="cls-1" d="M807.1,730.19l57.3,48.7-14.2,16.7-18-15.3c8,10,12.8,23.8,3.5,34.7-7.1,8.4-16.5,8.5-25.5.8-6.2-5.3-9.5-11.3-10.6-14.6l13.7-16.1c.3,3.9,2.7,9.4,6,12.1s7,3.4,10.1-.3c4.9-5.7,3.2-16.3-6.3-24.4l-30.3-25.7Z"/><path class="cls-1" d="M787.1,810.29c13.7,18.7,11.5,40.2-6.3,53.2-19.2,14.1-38.3,8.4-50-7.5a43.77,43.77,0,0,1-4.8-7.9l41.2-30.3c-7.4-7.7-16.1-7.6-24-1.8-8.5,6.3-10.3,13.3-8.7,20.1l-18.6-2.9c-.3-9.9,3.5-21.8,17.1-31.8C752.2,787.29,773.4,791.59,787.1,810.29ZM774.7,828l-25.9,19c6.5,7.6,14,8.7,21.9,2.9C778.3,844.39,779.8,836.79,774.7,828Z"/><path class="cls-1" d="M713.8,861.59c8.6,21.5.9,41.7-19.6,49.9-22.2,8.8-39.2-1.6-46.4-19.9a48.49,48.49,0,0,1-2.7-8.8l47.5-18.9c-5.2-9.3-13.6-11.4-22.7-7.8-9.8,3.9-13.4,10.3-13.6,17.3l-17.3-7.5c2.3-9.7,8.9-20.2,24.6-26.4C685.9,830.59,705.3,840.09,713.8,861.59Zm-16.5,14-29.9,11.9c4.4,9,11.4,12,20.5,8.4C696.6,892.39,700.1,885.39,697.3,875.59Z"/><path class="cls-1" d="M621.2,854.29l19.5,101-21.5,4.2-19.5-101Z"/><path class="cls-1" d="M525.9,863.59l-21,100.7-41.7-8.7c-23.1-4.8-38.5-19.2-33.2-44.6,5.2-24.8,24.8-31.8,48.1-27l20.2,4.2,6.1-29.2Zm-38.4,77.1,7-33.4-19.5-4.1c-11.1-2.3-20,.5-22.4,12.4-2.6,12.6,4.4,18.6,15.5,20.9Z"/><path class="cls-1" d="M436.1,840.39l-41.3,94.2-20-8.8,41.3-94.2Z"/><path class="cls-1" d="M396.4,842.29c-6.4,9.4-16,10.8-30.6,6.9l-23.8-5.8c-2.9,5.6-2.5,10.2,4.4,14.8,7.9,5.3,18.1,5.8,26.6,2.5l.2,19.4a49.09,49.09,0,0,1-38.6-7.2c-15.7-10.7-19.1-25.2-8.6-40.8l14.5-21.3c1.9-2.8,1.5-4.4-.8-5.9l-3.7-2.5,9.8-14.5,10.6,7.2c6.7,4.6,10.7,11.7,4.7,20.6l-2.8,4.2c7.5-6.8,19.4-12.5,32-3.9C400,822.49,403.2,832.29,396.4,842.29Zm-21.8-17.5c-8.6-5.8-16.4-4.8-21.5,2.8l-2.9,4.3,16.9,3.5c6.3,1.3,9.2.7,10.8-1.8C379.8,830.69,378.9,827.69,374.6,824.79Z"/><path class="cls-1" d="M359.5,777.69l-19.5,5.8c.9-7.2.1-13.9-4.3-18.8-3.9-4.3-7.6-5.5-14.6-2.5l-4,1.5,8.9,9.9-36,65.1-16.2-18L293,789l15-20.9-22.5,12.6-33.4,15.9-16.5-18.3L313,745c16.3-6.9,27.3-4.1,36.7,6.4C357.3,759.79,360.1,770.19,359.5,777.69Z"/><path class="cls-1" d="M255.6,707.39l-20.9-7.5c9.6-11,9.7-26.9,5.3-38.4-3.1-8.3-8-13.3-14.6-10.8-7.5,2.8-7.5,10.1-5.3,23.8l1.5,10.1c2.6,16,1.3,32.6-16.9,39.5-18.8,7.1-34.8-5.3-42.2-24.8-6.8-18-5.4-35.1,3-47.5l20.9,8a35.92,35.92,0,0,0-4.7,34.4c2.8,7.3,7.9,11.4,13.5,9.3,7-2.7,7.3-9.8,5.8-20.7l-1.5-11.9c-2.6-19.5.1-34.4,17.3-40.9,18.4-7,34.1,4.7,42,25.5C265.9,673.89,266.3,693.19,255.6,707.39Z"/><path class="cls-1" d="M242.9,610.69l-102.5,8.7-1.9-21.8,49.2-4.2c-12.4-1.4-24.1-7.6-25.4-23-1.2-14.2,6.8-23.6,22.2-24.9l52.3-4.5,1.9,21.8-44.7,3.8c-9.2.8-14.6,3.7-13.8,13.6.9,10.4,7,13.2,19.2,12.2l41.4-3.5Z"/><path class="cls-1" d="M199.8,526.89c-22.5-3.9-36.1-21.1-32.2-43.6,4-23.1,22.5-35,45.1-31.1s36.1,21.3,32.1,44.3C240.9,519,222.5,530.79,199.8,526.89Zm9.1-52.8c-15.3-2.6-22.1,2.7-23.7,11.9s3.1,16.4,18.4,19c15.1,2.6,22.1-2.7,23.7-11.8S224,476.69,208.9,474.09Z"/><path class="cls-1" d="M254.4,443.09l-75.6-17.2,10.9-21.4,36.2,11.8,22.4,8.1-18.9-14.7-29.6-25.1,11.2-22.1,38,8.6,23,6.7-19.8-13.3-31-22.1L232.1,321l58.6,50.8-12.3,24.3-33.5-7.9L218.6,380l22.2,16.4,26.1,22.5Z"/><path class="cls-1" d="M303.8,355.79l-54.9-51.4,14.9-16,17.3,16.1c-7.5-10.4-11.7-24.3-1.9-34.9,7.5-8.1,16.9-7.7,25.5.4,5.9,5.6,9,11.7,9.9,15.1l-14.5,15.5c-.1-3.9-2.3-9.5-5.4-12.4s-6.9-3.7-10.1-.2c-5.1,5.5-4,16.2,5.1,24.7l29,27.2Z"/><path class="cls-1" d="M327.5,276.79c-12.8-19.3-9.5-40.7,8.8-52.8,19.9-13.2,38.7-6.5,49.5,9.9a50.21,50.21,0,0,1,4.5,8.1l-42.6,28.3c7,8.1,15.7,8.4,23.8,3,8.8-5.8,11-12.8,9.7-19.7l18.5,3.8c-.2,9.9-4.6,21.6-18.6,30.9C361.3,301.39,340.4,296.09,327.5,276.79Zm13.3-17.1,26.8-17.8c-6.2-7.9-13.6-9.4-21.8-4C338,243.09,336.1,250.69,340.8,259.69Z"/><path class="cls-1" d="M403.2,229c-7.5-21.9,1.1-41.7,21.9-48.9,22.6-7.7,39.1,3.5,45.4,22.1a59.54,59.54,0,0,1,2.3,9l-48.4,16.6c4.7,9.6,13,12.1,22.3,8.9,10-3.4,13.9-9.6,14.4-16.6l16.9,8.3c-2.7,9.5-9.9,19.8-25.8,25.2C429.6,261.39,410.7,251,403.2,229Zm17.2-13.1,30.4-10.4c-4-9.2-10.8-12.5-20-9.4C421.9,199.09,418.1,205.89,420.4,215.89Z"/><path class="cls-1" d="M495.4,240.79,480.7,139l21.7-3.1L517,237.69Z"/></svg>