<svg width="90" height="100" viewBox="0 0 90 100" fill="none" xmlns="http://www.w3.org/2000/svg">
<g clip-path="url(#clip0_384_170)">
<path d="M61.5098 46.2004C63.9991 45.8793 66.4301 45.2059 68.7298 44.2004C73.2733 42.2467 77.406 39.4508 80.9098 35.9604C87.4398 29.4304 92.3598 18.8304 86.5398 8.67045C84.0498 4.33045 79.6298 3.40041 76.0998 3.26041C75.3638 2.22834 74.3893 1.38935 73.2594 0.814794C72.1294 0.240239 70.8774 -0.0528658 69.6098 -0.039576H19.2898C18.0197 -0.053354 16.7651 0.240502 15.6332 0.8169C14.5013 1.3933 13.5257 2.23511 12.7898 3.27042C9.29982 3.45042 5.02982 4.43045 2.58982 8.67045C-3.22018 18.8304 1.68982 29.4304 8.21982 35.9604C11.7237 39.4508 15.8564 42.2467 20.3998 44.2004C22.6768 45.2012 25.084 45.8745 27.5498 46.2004C29.3198 47.1304 30.3298 48.8404 29.4598 51.4204C28.0098 55.6504 23.7898 57.1004 19.7698 55.7104C17.4898 54.9204 16.4998 58.5404 18.7698 59.3204C20.2169 59.8611 21.7617 60.091 23.3035 59.995C24.8453 59.899 26.3496 59.4793 27.7185 58.7633C29.0873 58.0473 30.29 57.0509 31.2482 55.8392C32.2064 54.6275 32.8986 53.2275 33.2798 51.7304C33.366 51.4013 33.4328 51.0674 33.4798 50.7304L41.0598 64.9905V70.0904C41.0648 70.1637 41.0648 70.2372 41.0598 70.3104V78.5404C28.4898 79.1104 16.2598 82.8104 16.2598 89.2204C16.2598 96.2204 30.7798 99.9804 44.4398 99.9804C58.0998 99.9804 72.6198 96.2004 72.6198 89.2104C72.6198 82.7804 60.3298 79.0804 47.7298 78.5304V73.3005C47.7337 72.9648 47.7672 72.6302 47.8298 72.3005V64.9905L55.6198 50.4604C55.6594 50.8864 55.7363 51.308 55.8498 51.7204C56.2312 53.2163 56.9231 54.6151 57.8807 55.8259C58.8382 57.0367 60.0399 58.0325 61.4075 58.7484C62.7752 59.4643 64.2782 59.8843 65.8189 59.9812C67.3595 60.078 68.9033 59.8494 70.3498 59.3104C72.6198 58.5304 71.6398 54.9004 69.3498 55.7004C65.3498 57.0904 61.0998 55.6404 59.6598 51.4104C58.7498 48.8504 59.7498 47.0904 61.5098 46.2004ZM28.1898 42.2004L27.0998 42.0304C26.5868 41.8898 26.0659 41.7796 25.5398 41.7004C24.3193 41.4019 23.1253 41.0039 21.9698 40.5104C17.8956 38.7592 14.1901 36.2517 11.0498 33.1205C5.55982 27.6305 1.36982 18.8504 6.04982 10.6504C7.15982 8.65043 8.94982 7.8004 11.3498 7.4404L29.0398 42.2104L28.1898 42.2004ZM53.1898 81.9204L54.8398 82.1404C55.7198 82.2804 56.5398 82.4304 57.3498 82.5904C58.3498 82.7904 59.3498 83.0104 60.2198 83.2504C61.0898 83.4904 62.2198 83.8404 63.1098 84.1604C63.7901 84.3994 64.4576 84.6731 65.1098 84.9804C65.6298 85.2204 66.1098 85.4604 66.5198 85.7104C68.5198 86.8604 69.5998 88.0804 69.5998 89.1604C69.5998 92.4004 60.0198 96.9204 44.4198 96.9204C28.8198 96.9204 19.2398 92.4004 19.2398 89.1604C19.2398 86.1604 27.4598 82.0804 41.0398 81.4804V85.8804C41.045 86.3052 41.1362 86.7245 41.3081 87.113C41.48 87.5014 41.7289 87.8509 42.0398 88.1404C42.4258 88.4775 42.8795 88.7281 43.3704 88.8752C43.8612 89.0224 44.3779 89.0627 44.8857 88.9936C45.3935 88.9244 45.8806 88.7474 46.3142 88.4743C46.7479 88.2012 47.118 87.8385 47.3998 87.4104C47.5497 87.1549 47.6609 86.8786 47.7298 86.5904V81.4804C49.6198 81.6104 51.4698 81.7604 53.1698 81.9704L53.1898 81.9204ZM56.1898 40.6304L45.8698 60.0904C45.4178 59.9116 44.936 59.82 44.4498 59.8204C43.9636 59.819 43.4816 59.9106 43.0298 60.0904L29.4498 34.5704L15.8698 9.05045C15.615 8.5631 15.4845 8.02035 15.4898 7.47043C15.4946 7.43058 15.4946 7.39029 15.4898 7.35044C15.4946 7.26717 15.4946 7.1837 15.4898 7.10044C15.4945 7.08071 15.4945 7.06017 15.4898 7.04044C15.5106 6.93567 15.5373 6.83217 15.5698 6.73044C15.5851 6.64604 15.6051 6.56258 15.6298 6.48044C15.6955 6.28155 15.7827 6.09042 15.8898 5.91044C16.091 5.60232 16.3371 5.32594 16.6198 5.09043C16.8517 4.86738 17.1143 4.67879 17.3998 4.53043C17.7419 4.34734 18.1092 4.2159 18.4898 4.14042H18.6498C18.8783 4.10556 19.1088 4.08552 19.3398 4.08042H69.6198C69.8443 4.08508 70.0681 4.10512 70.2898 4.14042H70.4598C70.6649 4.1771 70.8659 4.23403 71.0598 4.3104C71.2111 4.37023 71.3581 4.44042 71.4998 4.52042C71.9162 4.74545 72.2861 5.04747 72.5898 5.41044L72.7398 5.63041C72.7898 5.70041 72.8498 5.77043 72.8898 5.84043C73.1499 6.27756 73.2976 6.77229 73.3198 7.28043C73.3432 7.67237 73.2957 8.06528 73.1798 8.4404C73.1274 8.62676 73.0571 8.80764 72.9698 8.98044L56.1898 40.6304ZM59.8998 42.2104L77.4698 7.66044C77.4748 7.57051 77.4748 7.48035 77.4698 7.39042C80.0498 7.71042 81.9398 8.61043 83.1098 10.6504C87.7998 18.8504 83.6098 27.6505 78.1098 33.1205C74.9695 36.2517 71.2641 38.7592 67.1898 40.5104C66.0849 40.9846 64.9448 41.3725 63.7798 41.6704C63.1402 41.7483 62.508 41.8787 61.8898 42.0604C61.5998 42.0604 61.2998 42.1604 60.9998 42.1904C60.6998 42.2204 60.3798 42.2604 59.8698 42.2604L59.8998 42.2104Z" fill="#272525"/>
</g>
<defs>
<clipPath id="clip0_384_170">
<rect width="89.12" height="99.97" fill="white"/>
</clipPath>
</defs>
</svg>
