<svg width="149" height="83" viewBox="0 0 149 83" fill="none" xmlns="http://www.w3.org/2000/svg">
<g clip-path="url(#clip0_358_262)">
<path d="M7.50062e-09 30.2033C-0.000116422 35.4351 1.35524 40.5768 3.93278 45.1229C6.51033 49.6689 10.2213 53.4628 14.7008 56.1313C12.6395 60.0803 11.6595 64.5086 11.861 68.963C12.0626 73.4175 13.4384 77.7382 15.8479 81.4831C16.1393 81.943 16.5404 82.3226 17.0148 82.5873C17.4892 82.8521 18.0219 82.9938 18.5646 82.9993H141.725C142.291 82.9938 142.845 82.8432 143.336 82.562C143.828 82.2807 144.239 81.8781 144.532 81.3922C147.432 76.4026 148.97 70.7327 148.991 64.9551C149.012 59.1775 147.516 53.4967 144.653 48.4858C141.79 43.4749 137.662 39.3113 132.685 36.4155C127.708 33.5196 122.059 31.9939 116.308 31.9924C114.354 31.9935 112.403 32.1762 110.482 32.5382C104.428 25.1675 95.9357 20.232 86.5574 18.6339C77.1791 17.0358 67.5416 18.882 59.4068 23.8349C57.6071 16.7763 53.3377 10.6049 47.3797 6.44939C41.4218 2.29393 34.1737 0.43229 26.9615 1.20542C19.7494 1.97855 13.0554 5.33458 8.10446 10.6595C3.1535 15.9843 0.276549 22.9222 7.50062e-09 30.2033ZM30.1864 6.51936C36.0906 6.53612 41.7742 8.77486 46.1161 12.7943C50.458 16.8137 53.1429 22.3219 53.6412 28.2321C49.0866 32.3386 45.5512 37.4584 43.3175 43.1824C41.3449 42.675 39.3164 42.4203 37.2802 42.4243C33.7636 42.4301 30.2872 43.175 27.0744 44.6113C23.8615 46.0475 20.9834 48.1432 18.625 50.7637C14.0968 48.1919 10.5439 44.1862 8.52092 39.3719C6.49795 34.5577 6.11885 29.206 7.44282 24.1525C8.76679 19.099 11.7193 14.6281 15.8393 11.4381C19.9593 8.24811 25.0149 6.51851 30.2166 6.51936H30.1864ZM80.1147 24.7145C85.2977 24.6937 90.4119 25.9055 95.0394 28.251C99.6668 30.5964 103.676 34.0087 106.739 38.209C107.114 38.7309 107.638 39.1263 108.242 39.3429C108.846 39.5594 109.5 39.587 110.12 39.4221C112.194 38.9044 114.322 38.6396 116.459 38.6336C120.915 38.6276 125.299 39.7648 129.196 41.9375C133.092 44.1101 136.372 47.2461 138.724 51.0485C141.076 54.851 142.422 59.1939 142.636 63.6656C142.85 68.1372 141.923 72.5896 139.944 76.6008H20.4362C18.6698 73.1937 17.9829 69.3253 18.4676 65.5148C18.9523 61.7043 20.5854 58.1339 23.1478 55.2825C25.7102 52.4311 29.0794 50.4352 32.8033 49.5624C36.5272 48.6897 40.4277 48.9818 43.9816 50.3998C44.3983 50.5657 44.8448 50.6428 45.2928 50.626C45.7407 50.6091 46.1803 50.4987 46.5835 50.3019C46.9866 50.1051 47.3446 49.826 47.6347 49.4827C47.9247 49.1393 48.1404 48.739 48.268 48.3073C50.2949 41.447 54.4775 35.4298 60.1906 31.1554C65.9036 26.881 72.8403 24.5788 79.9637 24.593L80.1147 24.7145Z" fill="#231F20"/>
</g>
<defs>
<clipPath id="clip0_358_262">
<rect width="149" height="83" fill="white"/>
</clipPath>
</defs>
</svg>
