<svg width="99" height="70" viewBox="0 0 99 70" fill="none" xmlns="http://www.w3.org/2000/svg">
<path fill-rule="evenodd" clip-rule="evenodd" d="M23.2948 0.284171C15.4495 1.71421 8.72913 7.92894 6.68167 15.6475C6.03827 18.0728 6.04665 22.7867 6.69788 24.9141L7.18455 26.5039L5.43487 28.2811C-5.99114 39.886 1.76311 59.452 17.8683 59.6537L20.6196 59.6882L21.0117 60.5062C21.6205 61.7768 23.8855 64.4669 25.5233 65.8647C33.5948 72.7533 46.4046 70.7988 52.403 61.7636C52.8748 61.0531 53.3142 60.6617 53.5425 60.7489C60.2718 63.323 68.6446 60.6205 72.899 54.5008L73.6364 53.4401L75.5877 53.5651C84.9894 54.1665 94.7814 47.4279 97.7906 38.2858C101.805 26.0885 95.5289 13.5435 83.3479 9.41851C79.682 8.17702 74.8694 8.00759 71.4798 9.00073L69.2045 9.66713L67.0211 7.46078C60.548 0.919327 51.2075 0.334543 44.148 6.02859L42.5118 7.34819L40.9743 5.89444C36.1598 1.34142 29.3499 -0.819405 23.2948 0.284171ZM32.0059 5.12622C35.6039 6.3599 38.652 8.7952 40.8873 12.222C41.5366 13.2171 42.1025 14.0313 42.1454 14.0313C42.1881 14.0313 42.862 13.1721 43.6432 12.1218C49.6916 3.98871 61.5265 4.59666 66.382 13.2895C67.1287 14.6264 67.283 14.642 70.0079 13.6553C76.0873 11.4535 82.7858 12.5275 87.7546 16.5003C99.1568 25.6169 96.0985 43.4675 82.2989 48.3437C79.8955 49.193 74.7597 49.5273 72.3539 48.9913C71.5168 48.8046 71.4662 48.8475 70.5072 50.5568C67.0027 56.8039 59.4993 59.2887 53.1204 56.3147C50.946 55.3008 51.0951 55.269 50.4198 56.8893C45.6053 68.4373 29.5221 68.7856 24.1279 57.4584L22.9535 54.9924L21.8727 55.1855C8.4889 57.5751 -0.795336 43.642 6.96108 32.8072C8.05385 31.2802 10.7958 28.8454 11.7967 28.513C12.0464 28.4301 11.9234 27.803 11.3295 26.1316C8.59564 18.4376 12.1317 9.65986 19.4096 6.07438C23.2602 4.17726 28.1618 3.80824 32.0059 5.12622ZM30.9251 31.0011V37.1965H31.8708H32.8166V31.0011V24.8058H31.8708H30.9251V31.0011ZM54.5512 25.7128C53.9362 26.3258 53.5836 26.9804 53.4628 27.733C53.3017 28.738 53.2088 28.8462 52.5081 28.8462C51.8261 28.8462 51.732 28.944 51.732 29.6543C51.732 30.3205 51.8423 30.4624 52.3603 30.4624H52.9886L52.329 34.1661C51.4499 39.1027 51.227 39.6207 49.9807 39.6207C49.2257 39.6207 48.9609 39.7543 48.7791 40.2268C48.4605 41.0545 48.8377 41.3675 50.1137 41.3341C52.5032 41.2716 53.1712 40.1605 54.1327 34.6483L54.8396 30.5971L55.8253 30.5152C56.5741 30.453 56.8492 30.2911 56.97 29.8418C57.2251 28.8937 57.1862 28.8462 56.1569 28.8462C55.2019 28.8462 55.1817 28.825 55.3479 27.9964C55.5875 26.8015 55.9872 26.422 57.0054 26.422C57.562 26.422 57.9501 26.2641 58.0533 25.9959C58.6648 24.4072 56.0715 24.1973 54.5512 25.7128ZM16.0629 29.0364C15.0988 29.3879 14.4416 30.2954 14.4416 31.2756C14.4416 32.5123 14.9477 32.988 17.0203 33.6988C19.0018 34.3784 19.2869 34.637 18.6997 35.2223C18.1547 35.7656 16.6025 35.7538 15.4849 35.1981C14.721 34.818 14.6737 34.8301 14.377 35.4793C14.013 36.2758 14.2378 36.4902 15.9251 36.9548C18.8638 37.7645 21.5314 36.0689 20.651 33.9507C20.3254 33.1671 19.886 32.8867 17.8194 32.1449C15.2577 31.2253 16.1964 29.7726 18.84 30.5656C20.0308 30.9228 20.0684 30.9158 20.3594 30.2795C20.6329 29.681 20.5802 29.5951 19.7201 29.2368C18.7981 28.8527 16.8584 28.7466 16.0629 29.0364ZM23.4297 29.2465C22.6687 29.5762 22.5863 29.7063 22.7957 30.2458C22.9287 30.5879 23.2 30.8131 23.4005 30.7477C24.3387 30.4414 26.6493 30.436 27.016 30.7393C27.8126 31.3984 27.4738 31.809 26.1286 31.8152C22.3088 31.8327 20.611 35.1803 23.6294 36.7434C24.5784 37.2347 27.6221 37.2595 28.8308 36.7854C29.381 36.5699 29.541 31.1382 29.0254 30.1782C28.3539 28.9273 25.3288 28.4236 23.4297 29.2465ZM36.5721 29.4577C34.1847 31.0475 34.1018 34.8113 36.4167 36.5039C37.292 37.1437 41.1729 37.3247 41.7471 36.7523C42.5964 35.9057 41.7958 35.3785 39.8696 35.5159C37.8586 35.6592 36.8699 35.1509 36.8699 33.9736C36.8699 33.4868 37.0926 33.4381 39.6397 33.3675L42.4094 33.2907L42.3346 32.1255C42.1516 29.2735 39.0236 27.8254 36.5721 29.4577ZM45.2765 29.2223C42.9461 30.5096 43.8159 32.8942 46.947 33.8014C48.4843 34.247 49.0085 34.9594 48.1759 35.4723C47.6741 35.7815 45.8331 35.6177 45.0038 35.1903C44.2829 34.8185 44.2253 34.832 43.9483 35.4375C43.0526 37.3979 49.0425 37.8394 50.0891 35.8901C50.9573 34.2728 50.144 33.0294 47.6841 32.2152C46.961 31.9757 46.2125 31.5913 46.0209 31.3613C45.477 30.7078 46.4346 30.1354 47.6655 30.3781C49.4279 30.7259 49.9686 30.6453 50.0578 30.0225C50.208 28.9726 46.7697 28.3972 45.2765 29.2223ZM59.4112 29.1073C56.4785 30.29 56.4174 35.2506 59.3174 36.7245C62.1761 38.1777 65.108 36.3208 65.108 33.0572C65.108 29.8469 62.3385 27.9269 59.4112 29.1073ZM66.5942 33.0214V37.1965H67.5399H68.4857V34.5392C68.4857 31.3826 68.9405 30.4624 70.5005 30.4624C71.3738 30.4624 71.9556 29.7004 71.5643 29.0687C71.3714 28.7579 69.6358 28.7905 69.0248 29.1164C68.6865 29.2969 68.463 29.2969 68.3512 29.1164C68.259 28.9677 67.8261 28.8462 67.3889 28.8462H66.5942V33.0214ZM74.0252 29.3475C72.4115 30.3412 72.1337 30.8821 72.1337 33.0319C72.1337 36.0169 73.835 37.4693 76.9061 37.1068C78.5879 36.9082 78.7819 36.7795 78.5082 36.0431C78.3099 35.5097 78.1283 35.455 76.8199 35.5342C74.7035 35.6622 74.0252 35.065 74.0252 33.0733C74.0252 31.0146 74.5284 30.5106 76.688 30.4072C78.3817 30.3258 79.1103 29.677 78.1726 29.0846C77.4908 28.6539 74.8832 28.819 74.0252 29.3475ZM80.998 29.3731C79.161 30.4896 78.4669 33.6075 79.6534 35.4128C80.9288 37.3532 86.1852 37.9116 86.1852 36.1069C86.1852 35.4594 86.146 35.4475 84.2936 35.534C82.2375 35.6299 81.1861 35.0952 81.1861 33.9536C81.1861 33.4623 81.385 33.4254 84.0234 33.4254H86.8607V32.6087C86.8607 29.625 83.5708 27.8095 80.998 29.3731ZM40.0434 30.7865C40.9921 31.5714 40.4357 32.0786 38.6263 32.0786C36.6348 32.0786 36.3557 31.7128 37.6014 30.7361C38.3469 30.1516 39.2997 30.1712 40.0434 30.7865ZM84.4963 31.0545C85.2634 31.9388 85.0697 32.0786 83.0776 32.0786C81.0618 32.0786 81.0312 32.0624 81.4739 31.2376C82.0724 30.123 83.6075 30.0298 84.4963 31.0545ZM62.6606 31.0612C62.9067 31.4111 63.0813 32.2249 63.0813 33.0214C63.0813 34.8514 62.55 35.5803 61.2162 35.5803C59.7562 35.5803 59.1823 34.8584 59.1823 33.0214C59.1823 31.1843 59.7562 30.4624 61.2162 30.4624C61.9677 30.4624 62.3517 30.6216 62.6606 31.0612ZM26.9847 33.3195C27.2703 33.4286 27.4122 33.8214 27.4122 34.501C27.4122 35.441 27.3457 35.5288 26.545 35.646C24.9797 35.875 24.3046 35.5283 24.3046 34.4956C24.3046 33.4117 25.6649 32.8148 26.9847 33.3195Z" fill="black"/>
</svg>
