<svg width="172" height="29" viewBox="0 0 172 29" fill="none" xmlns="http://www.w3.org/2000/svg">
<path fill-rule="evenodd" clip-rule="evenodd" d="M14.4762 28.7763V23.2042C20.4248 23.2042 24.9981 17.3585 22.7286 11.1369C21.9034 8.84652 20.0466 7.00053 17.7428 6.1801C11.4847 3.92389 5.60479 8.50467 5.60479 14.3845H0C0 4.98362 9.14647 -2.36612 19.0494 0.710515C23.382 2.04373 26.8205 5.4964 28.1959 9.80369C31.2906 19.6831 23.9321 28.7763 14.4762 28.7763Z" fill="black"/>
<path fill-rule="evenodd" clip-rule="evenodd" d="M14.4767 23.2381H8.90625V17.7002H14.4767V23.2381Z" fill="black"/>
<path fill-rule="evenodd" clip-rule="evenodd" d="M8.90558 27.5114H4.60742V23.2383H8.90558V27.5114Z" fill="black"/>
<path fill-rule="evenodd" clip-rule="evenodd" d="M4.6085 23.2388H0.998047V19.6836H4.57411V23.2388H4.6085Z" fill="black"/>
<path fill-rule="evenodd" clip-rule="evenodd" d="M51.4741 8.36745C49.8236 7.23935 47.7605 6.6582 45.3535 6.6582H40.127V23.2037H45.3535C47.7605 23.2037 49.8236 22.5884 51.4741 21.3919C52.3681 20.7424 53.0902 19.8536 53.5716 18.7255C54.053 17.5974 54.3281 16.2983 54.3281 14.8284C54.3281 13.3584 54.0874 12.0594 53.5716 10.9655C53.0902 9.8374 52.4025 8.94859 51.4741 8.36745ZM43.1872 9.42718H44.8377C46.6601 9.42718 48.1731 9.76903 49.3078 10.4869C50.5801 11.239 51.2334 12.7089 51.2334 14.7942C51.2334 16.9479 50.5801 18.452 49.3078 19.2724C48.2075 19.9903 46.7289 20.3663 44.8721 20.3663H43.2216V9.42718H43.1872Z" fill="black"/>
<path fill-rule="evenodd" clip-rule="evenodd" d="M58.008 6.41895C57.4922 6.41895 57.0796 6.58987 56.7357 6.93172C56.3919 7.27357 56.1855 7.68379 56.1855 8.19656C56.1855 8.70933 56.3575 9.11955 56.7013 9.49558C57.0452 9.83743 57.4922 10.0084 58.008 10.0084C58.5237 10.0084 58.9364 9.83743 59.3146 9.49558C59.6585 9.15374 59.8304 8.70933 59.8304 8.19656C59.8304 7.68379 59.6585 7.27357 59.3146 6.93172C58.9364 6.62405 58.4894 6.41895 58.008 6.41895Z" fill="black"/>
<path d="M59.4513 11.5127H56.4941V23.1697H59.4513V11.5127Z" fill="black"/>
<path fill-rule="evenodd" clip-rule="evenodd" d="M70.1459 12.5041C69.2519 11.7178 68.2547 11.2734 67.1888 11.2734C65.5727 11.2734 64.1973 11.8204 63.1657 12.9485C62.0998 14.0424 61.584 15.444 61.584 17.1191C61.584 18.7599 62.0998 20.1615 63.1313 21.2896C64.1629 22.3835 65.5383 22.9305 67.1544 22.9305C68.2891 22.9305 69.2519 22.6228 70.0771 22.0075V22.281C70.0771 23.2381 69.8021 23.9902 69.3207 24.503C68.8049 25.0158 68.0828 25.2892 67.2232 25.2892C65.8478 25.2892 65.0225 24.7423 63.9566 23.3749L61.9622 25.2892L62.031 25.3576C62.478 25.9729 63.1313 26.5541 63.991 27.101C64.8506 27.648 65.9853 27.9557 67.2575 27.9557C69.0112 27.9557 70.421 27.4087 71.4525 26.349C72.4841 25.2892 73.0343 23.8535 73.0343 22.11V11.5127H70.1459V12.5041ZM69.355 19.3753C68.8393 19.9564 68.1859 20.2299 67.3263 20.2299C66.4667 20.2299 65.8134 19.9564 65.332 19.3753C64.8162 18.7941 64.5755 18.042 64.5755 17.0849C64.5755 16.1277 64.8162 15.3756 65.332 14.7945C65.8478 14.2133 66.5011 13.9399 67.3263 13.9399C68.1859 13.9399 68.8393 14.2133 69.355 14.7945C69.8708 15.3756 70.1115 16.1619 70.1115 17.0849C70.1459 18.042 69.8708 18.7941 69.355 19.3753Z" fill="black"/>
<path d="M78.5001 11.5127H75.543V23.1697H78.5001V11.5127Z" fill="black"/>
<path fill-rule="evenodd" clip-rule="evenodd" d="M77.0568 6.41895C76.541 6.41895 76.1284 6.58987 75.7845 6.93172C75.4407 7.27357 75.2344 7.68379 75.2344 8.19656C75.2344 8.70933 75.4063 9.11955 75.7502 9.49558C76.094 9.83743 76.541 10.0084 77.0568 10.0084C77.5726 10.0084 77.9852 9.83743 78.3634 9.49558C78.7073 9.15374 78.8792 8.70933 78.8792 8.19656C78.8792 7.68379 78.7073 7.27357 78.3634 6.93172C77.9852 6.62405 77.5726 6.41895 77.0568 6.41895Z" fill="black"/>
<path fill-rule="evenodd" clip-rule="evenodd" d="M84.9658 8.36719H82.0775V11.5122H80.3926V14.1786H82.0775V18.9987C82.0775 20.5028 82.3869 21.5967 82.9715 22.2121C83.5904 22.8274 84.6563 23.1692 86.1349 23.1692C86.6163 23.1692 87.0977 23.1692 87.5791 23.1351H87.7166V20.4686L86.7195 20.537C86.0318 20.537 85.5504 20.4003 85.3097 20.161C85.069 19.9217 84.9658 19.4089 84.9658 18.6227V14.2128H87.7166V11.5464H84.9658V8.36719Z" fill="black"/>
<path d="M104.496 6.62402H101.539V23.1695H104.496V6.62402Z" fill="black"/>
<path fill-rule="evenodd" clip-rule="evenodd" d="M134.239 18.9992C133.723 19.5804 133.173 20.0931 132.76 20.3666C132.348 20.6401 131.832 20.7426 131.247 20.7426C130.388 20.7426 129.666 20.435 129.116 19.7855C128.565 19.136 128.256 18.3155 128.256 17.3242C128.256 16.3328 128.531 15.5124 129.081 14.8628C129.631 14.2133 130.353 13.9057 131.213 13.9057C132.176 13.9057 133.173 14.4868 134.033 15.5124L135.993 13.6664C134.72 12.0255 133.104 11.2734 131.179 11.2734C129.563 11.2734 128.153 11.8546 127.018 13.0169C125.883 14.1792 125.299 15.6149 125.299 17.3583C125.299 19.1018 125.883 20.5717 127.018 21.6998C128.153 22.8621 129.563 23.4433 131.179 23.4433C133.311 23.4433 135.03 22.5203 136.199 20.8452L134.239 18.9992Z" fill="black"/>
<path fill-rule="evenodd" clip-rule="evenodd" d="M146.343 13.1536C145.931 12.5725 145.346 12.0939 144.659 11.752C143.971 11.4102 143.146 11.2393 142.217 11.2393C140.567 11.2393 139.226 11.8546 138.229 13.0169C137.231 14.2133 136.75 15.6833 136.75 17.3925C136.75 19.1701 137.3 20.6059 138.366 21.734C139.432 22.8279 140.876 23.4091 142.63 23.4091C144.624 23.4091 146.24 22.6228 147.478 21.0503L147.547 20.9819L145.621 19.136C145.449 19.3411 145.174 19.5804 144.968 19.8197C144.693 20.0931 144.418 20.2983 144.108 20.435C143.661 20.6401 143.18 20.7768 142.63 20.7768C141.805 20.7768 141.151 20.5375 140.636 20.059C140.154 19.6146 139.879 19.0334 139.81 18.2813H147.616L147.65 17.2216C147.65 16.4695 147.547 15.7517 147.341 15.068C147.066 14.3501 146.756 13.7348 146.343 13.1536ZM139.913 15.8884C140.051 15.3414 140.326 14.8629 140.67 14.521C141.083 14.145 141.598 13.9399 142.217 13.9399C142.939 13.9399 143.49 14.145 143.868 14.5552C144.212 14.9312 144.418 15.3756 144.452 15.9226H139.913V15.8884Z" fill="black"/>
<path fill-rule="evenodd" clip-rule="evenodd" d="M157.656 12.4015C156.762 11.6495 155.524 11.2734 153.977 11.2734C152.98 11.2734 152.086 11.4785 151.26 11.8888C150.504 12.2648 149.747 12.9143 149.266 13.7689L149.3 13.8031L151.192 15.6149C151.983 14.3843 152.842 13.9399 153.977 13.9399C154.596 13.9399 155.112 14.1108 155.49 14.4184C155.868 14.7261 156.074 15.1363 156.074 15.6833V16.2644C155.352 16.0593 154.63 15.9226 153.908 15.9226C152.43 15.9226 151.26 16.2644 150.366 16.9481C149.472 17.6318 149.025 18.6232 149.025 19.8538C149.025 20.9478 149.404 21.8366 150.16 22.4861C150.917 23.1356 151.879 23.4433 153.014 23.4433C154.149 23.4433 155.18 22.9988 156.143 22.2126V23.1698H159.031V15.6833C158.997 14.2475 158.55 13.1536 157.656 12.4015ZM152.43 18.7257C152.773 18.4864 153.22 18.3839 153.839 18.3839C154.561 18.3839 155.318 18.5206 156.074 18.7941V19.9222C155.421 20.5034 154.561 20.811 153.53 20.811C153.014 20.811 152.636 20.7085 152.361 20.4692C152.086 20.2641 151.948 19.9906 151.948 19.6145C151.948 19.2385 152.086 18.9308 152.43 18.7257Z" fill="black"/>
<path fill-rule="evenodd" clip-rule="evenodd" d="M170.344 12.6067C169.518 11.6837 168.384 11.2393 166.905 11.2393C165.736 11.2393 164.773 11.5811 164.086 12.2306V11.5127H161.197V23.1698H164.154V16.743C164.154 15.8542 164.361 15.1705 164.773 14.6577C165.186 14.145 165.77 13.9057 166.527 13.9057C167.18 13.9057 167.696 14.1108 168.074 14.5552C168.453 14.9996 168.624 15.6149 168.624 16.4012V23.1356H171.582V16.4012C171.582 14.7945 171.169 13.5296 170.344 12.6067Z" fill="black"/>
<path fill-rule="evenodd" clip-rule="evenodd" d="M97.826 12.4015C96.932 11.6495 95.6941 11.2734 94.1468 11.2734C93.1496 11.2734 92.2556 11.4785 91.4304 11.8888C90.6739 12.2648 89.9174 12.9143 89.436 13.7689L89.4704 13.8031L91.3616 15.6149C92.1524 14.3843 93.0121 13.9399 94.1468 13.9399C94.7657 13.9399 95.2815 14.1108 95.6597 14.4184C96.038 14.7261 96.2443 15.1363 96.2443 15.6833V16.2644C95.5222 16.0593 94.8001 15.9226 94.078 15.9226C92.5994 15.9226 91.4304 16.2644 90.5363 16.9481C89.6423 17.6318 89.1953 18.6232 89.1953 19.8538C89.1953 20.9478 89.5735 21.8366 90.33 22.4861C91.0865 23.1356 92.0493 23.4433 93.184 23.4433C94.3187 23.4433 95.3503 22.9988 96.3131 22.2126V23.1698H99.2014V15.6833C99.167 14.2475 98.72 13.1536 97.826 12.4015ZM92.5994 18.7257C92.9433 18.4864 93.3903 18.3839 94.0092 18.3839C94.7313 18.3839 95.4878 18.5206 96.2443 18.7941V19.9222C95.591 20.5034 94.7313 20.811 93.6998 20.811C93.184 20.811 92.8058 20.7085 92.5307 20.4692C92.2556 20.2641 92.1181 19.9906 92.1181 19.6145C92.1181 19.2385 92.2556 18.9308 92.5994 18.7257Z" fill="black"/>
<path fill-rule="evenodd" clip-rule="evenodd" d="M115.156 23.4088C110.445 23.4088 106.594 19.5801 106.594 14.8968C106.594 10.2135 110.445 6.38477 115.156 6.38477C119.866 6.38477 123.718 10.2135 123.718 14.8968C123.718 19.5801 119.901 23.4088 115.156 23.4088ZM115.156 9.35885C112.095 9.35885 109.62 11.8202 109.62 14.8626C109.62 17.9051 112.095 20.3664 115.156 20.3664C118.216 20.3664 120.692 17.9051 120.692 14.8626C120.692 11.8202 118.216 9.35885 115.156 9.35885Z" fill="black"/>
</svg>
