<svg id="Layer_1" data-name="Layer 1" xmlns="http://www.w3.org/2000/svg" viewBox="0 0 240 240"><defs><style>.cls-1{fill:#282525;}</style></defs><path class="cls-1" d="M121.17,80.48a19.47,19.47,0,0,1-10.53-3.14l-2-1.35-3.24,9,1.17.84a24.75,24.75,0,0,0,11.52,3.8V97.9h8.88V89.17c7.68-1.89,12.72-7.84,12.72-15.24,0-9.68-7.3-13.9-13.65-16.49-7.54-3.12-8.81-4.81-8.81-7.42,0-2.43,1.74-5,6.63-5a17.5,17.5,0,0,1,9.2,2.49l1.94,1.1,3.37-8.9L137,38.88a22.56,22.56,0,0,0-9.52-3V28h-8.8v8.48c-7.45,1.8-12.16,7.36-12.16,14.51,0,8.81,7,12.75,14.47,15.7,5.62,2.28,7.91,4.54,7.91,7.82C128.85,78.08,125.77,80.48,121.17,80.48Zm1.18-17.34c-8.69-3.41-12.07-6.82-12.07-12.16,0-5.77,4-10,10.56-11.08l1.59-.26V31.8h1.19v7.75l1.84.06a20.43,20.43,0,0,1,8.15,1.81L133,43.15a21.6,21.6,0,0,0-9.12-2c-7.21,0-10.44,4.44-10.44,8.83,0,5.85,4.84,8.32,11.17,10.94,8,3.27,11.3,7,11.3,13s-4.37,10.69-11.13,11.81l-1.6.26v8.09h-1.26V86L120,86a23.34,23.34,0,0,1-10-2.45l.64-1.79a23.55,23.55,0,0,0,10.57,2.57c6.66,0,11.49-4.12,11.49-9.79C132.66,68.13,127.16,65.09,122.35,63.14Z"/><path class="cls-1" d="M164,85.16a47.4,47.4,0,1,0-82.4,0H24.51L10,124.74l6.85,90.34h206l6-90.54L210.33,85.16ZM80.81,61.76a41.92,41.92,0,0,1,66.64-33.9c.53.39,1.05.79,1.57,1.2a42.31,42.31,0,0,1,9.89,11.42,41.72,41.72,0,0,1,5.82,21.28,40.53,40.53,0,0,1-.22,4.29,41.75,41.75,0,0,1-3.08,12,42.27,42.27,0,0,1-15.21,18.47A42,42,0,0,1,80.81,61.76Zm52.11,46.3h56.7v9.72H49.12v-9.72h63.5l.59.11a47.88,47.88,0,0,0,9.34,1h.22A47.19,47.19,0,0,0,132.92,108.06Zm82.27,98.86H24.37L18.88,134.5H220Zm5.21-79.25-.07,1.07H18.44l-.08-1.07-.13-1.78,12-32.57H87.44c.67.75,1.41,1.46,2.12,2.16a47.44,47.44,0,0,0,12.22,8.77H45.31v17.34H193.43V104.25H143.76A47.87,47.87,0,0,0,158.1,93.32h47l15.37,32.78Z"/></svg>