<?xml version="1.0" encoding="UTF-8" standalone="no"?>
<!DOCTYPE svg PUBLIC "-//W3C//DTD SVG 1.1//EN" "http://www.w3.org/Graphics/SVG/1.1/DTD/svg11.dtd">
<svg width="100%" height="100%" viewBox="0 0 1691 1621" version="1.1" xmlns="http://www.w3.org/2000/svg" xmlns:xlink="http://www.w3.org/1999/xlink" xml:space="preserve" xmlns:serif="http://www.serif.com/" style="fill-rule:evenodd;clip-rule:evenodd;stroke-linejoin:round;stroke-miterlimit:2;">
    <g transform="matrix(6.19305,0,0,6.19305,-3819.01,-709.738)">
        <g transform="matrix(0.491446,0,0,0.491446,633.6,123.363)">
            <path d="M321.185,393.235L321.185,393.236L321.185,393.235ZM481.904,215.345L481.842,214.944L481.755,214.766C477.614,199.115 471.1,184.484 462.335,171.189C460.829,169.045 459.26,166.957 457.746,164.941L457.328,164.381C456.71,163.557 456.09,162.731 455.454,161.864L453.777,159.623C453.612,159.398 453.435,159.183 453.265,159L443.654,148.488C443.529,148.353 443.401,148.222 443.258,148.088L439.252,144.329C438.205,143.303 437.123,142.391 435.907,141.381C435.48,141.024 435.053,140.667 434.651,140.317C433.165,139.011 431.533,137.7 429.871,136.474C417.527,126.857 403.361,119.294 387.758,113.991C375.902,110.012 363.407,107.598 350.569,106.804C349.469,94.745 346.557,83.072 341.894,72.064C336.011,58.113 327.189,45.096 316.377,34.418C305.577,23.777 292.477,15.154 278.503,9.486C264.79,3.901 249.624,0.949 234.648,0.949L234.05,0.95C218.916,1.08 203.634,4.231 189.863,10.061C176.053,15.885 163.166,24.619 152.594,35.324C142.062,46.015 133.526,58.983 127.911,72.824C125.892,77.782 124.195,83.028 122.867,88.416L121.58,93.635L127.771,92.702C129.436,92.443 131.507,92.12 134.045,92.057L138.777,91.814L139.5,89.373C140.576,85.741 141.8,82.298 143.139,79.135C148.105,67.367 155.548,56.389 164.662,47.392C173.773,38.419 184.821,31.148 196.619,26.363C208.347,21.591 221.307,19.119 234.05,19.18C246.81,19.29 259.69,21.946 271.3,26.862C282.928,31.769 293.775,39.123 302.666,48.127C311.535,57.137 318.718,68.056 323.441,79.711C328.148,91.269 330.604,104.068 330.539,116.726C330.513,122.344 335.08,126.971 340.723,127.041C354.662,127.205 368.169,129.55 380.852,134.003C394.101,138.717 406.087,145.329 416.541,153.705C417.929,154.767 419.131,155.76 420.221,156.744C420.756,157.225 421.3,157.693 421.957,158.254C422.674,158.868 423.352,159.448 424.07,160.17L427.753,163.724L436.277,173.31L437.604,175.146C438.396,176.253 439.195,177.352 439.997,178.45L440.163,178.68C441.4,180.375 442.633,182.065 443.684,183.6C450.886,194.865 456.218,207.37 459.526,220.748C462.895,234.719 463.94,248.226 462.632,260.922C461.344,274.407 457.939,287.448 452.59,299.529C451.972,300.76 451.394,302.016 450.823,303.263C449.931,305.204 449.089,307.036 448.146,308.626L442.783,317.557C441.593,319.221 440.363,320.86 439.134,322.499L438.758,322.999C438.054,323.94 437.351,324.877 436.678,325.792L435.32,327.617L430.254,333.141C420.273,343.648 409.622,351.869 398.586,357.581C386.662,363.815 373.94,368.05 360.856,370.158L354.284,371.061C353.206,371.215 352.187,371.363 351.036,371.367L340.765,371.776L330.572,371.212C328.682,371.092 326.704,370.771 324.55,370.419C323.245,370.209 321.947,369.999 320.828,369.858C307.727,367.512 295.191,363.124 283.704,356.888L274.942,351.628L264.95,344.206L255.704,335.725L127.142,205.367C124.257,202.519 120.392,200.889 116.361,200.992C112.295,201.02 108.486,202.625 105.637,205.513C99.751,211.48 99.816,221.126 105.783,227.019L232.116,351.608L236.341,355.76L247.156,365.416C247.349,365.587 247.548,365.746 247.75,365.893L253.192,369.851C255.328,371.407 257.463,372.961 259.622,374.454C259.79,374.573 259.963,374.685 260.159,374.799L270.453,380.783C284.913,388.4 300.454,393.599 316.797,396.26C318.021,396.409 319.242,396.587 320.459,396.766L320.665,396.796C323.254,397.174 325.933,397.564 328.853,397.713L340.304,398.181L340.694,398.193C340.851,398.193 341.006,398.19 341.118,398.181L352.322,397.579C354.382,397.546 356.216,397.26 357.817,397.011L364.97,395.928C380.961,393.128 396.313,387.788 410.584,380.066C423.988,372.875 436.745,362.771 448.545,349.986L454.317,343.496C454.463,343.328 454.603,343.154 454.747,342.955L458.64,337.596C460.193,335.465 461.742,333.338 463.216,331.193C463.332,331.026 463.443,330.85 463.55,330.667L469.34,320.725C470.774,318.218 471.884,315.72 472.957,313.303C473.466,312.154 473.978,311.001 474.654,309.572C480.996,294.735 484.871,279.062 486.173,263.018C487.522,247.782 486.087,231.744 481.904,215.345Z" style="fill:url(#_Linear1);"/>
        </g>
        <g transform="matrix(0.491446,0,0,0.491446,633.6,123.363)">
            <path d="M352.622,404.893L347.888,405.132L347.163,407.574C346.084,411.215 344.86,414.659 343.525,417.813C338.56,429.581 331.117,440.559 322.002,449.557C312.891,458.53 301.843,465.801 290.046,470.586C278.32,475.359 265.373,477.837 252.614,477.769C239.85,477.657 226.971,475 215.364,470.085C203.74,465.182 192.892,457.827 183.996,448.821C175.13,439.814 167.946,428.893 163.222,417.237C158.514,405.673 156.06,392.875 156.126,380.22C156.151,374.604 151.583,369.977 145.941,369.907C131.999,369.742 118.493,367.397 105.812,362.943C92.564,358.232 80.578,351.619 70.122,343.242C68.737,342.183 67.534,341.19 66.445,340.206C65.91,339.725 65.363,339.254 64.826,338.796L64.648,338.645C63.952,338.045 63.293,337.482 62.594,336.778L58.912,333.225L50.386,323.637L49.059,321.803C48.266,320.697 47.467,319.597 46.605,318.414C45.334,316.67 44.063,314.929 42.98,313.347C35.777,302.082 30.446,289.576 27.138,276.2C23.768,262.227 22.721,248.72 24.03,236.026C25.32,222.543 28.723,209.501 34.076,197.416C34.693,196.185 35.27,194.933 35.841,193.685C36.734,191.741 37.577,189.904 38.518,188.322L43.88,179.39C45.034,177.778 46.225,176.189 47.414,174.603L47.823,174.057C48.555,173.08 49.285,172.106 49.985,171.157L51.342,169.332L56.409,163.806C66.389,153.301 77.04,145.08 88.076,139.365C99.997,133.134 112.72,128.899 125.806,126.789L132.38,125.887C133.462,125.732 134.483,125.584 135.625,125.581L145.899,125.174L156.092,125.736C157.96,125.855 159.941,126.175 162.1,126.526C163.409,126.737 164.714,126.947 165.836,127.091C178.941,129.435 191.475,133.825 202.96,140.061L211.721,145.321L221.714,152.741L230.961,161.223L359.523,291.579C362.411,294.429 366.302,296.003 370.303,295.955C374.368,295.927 378.177,294.322 381.027,291.436C386.913,285.47 386.848,275.822 380.881,269.928L254.548,145.343L250.322,141.19L239.52,131.544C239.32,131.366 239.118,131.201 238.916,131.055L233.553,127.156C231.392,125.58 229.228,124.006 227.031,122.484C226.867,122.371 226.702,122.265 226.505,122.148L216.211,116.165C201.748,108.549 186.206,103.348 169.867,100.688C168.627,100.539 167.389,100.357 166.053,100.161C163.446,99.779 160.752,99.385 157.809,99.233L146.308,98.763L145.969,98.756C145.828,98.756 145.687,98.759 145.544,98.767L134.342,99.368C132.304,99.401 130.461,99.686 128.847,99.937L121.692,101.018C105.7,103.821 90.349,109.159 76.08,116.882C62.674,124.074 49.917,134.179 38.119,146.962L32.367,153.426C32.217,153.6 32.072,153.779 31.916,153.991L28.022,159.353C26.47,161.482 24.92,163.611 23.443,165.761C23.321,165.936 23.209,166.115 23.113,166.281L17.324,176.223C15.892,178.725 14.784,181.219 13.705,183.646C13.196,184.797 12.684,185.948 12.009,187.376C5.669,202.213 1.792,217.885 0.49,233.93C-0.859,249.171 0.579,265.222 4.768,281.637L4.86,281.996C9.001,297.723 15.53,312.417 24.33,325.759C25.857,327.934 27.485,330.1 28.919,332.008L29.205,332.391C29.866,333.271 30.528,334.155 31.21,335.084L32.907,337.355C33.054,337.554 33.211,337.74 33.399,337.949L43.009,348.459C43.13,348.589 43.254,348.716 43.407,348.862L47.41,352.614C48.434,353.62 49.481,354.504 50.645,355.474C51.11,355.862 51.574,356.248 52.012,356.629C53.479,357.919 55.11,359.23 56.791,360.475C69.137,370.091 83.302,377.654 98.906,382.959C110.763,386.936 123.258,389.35 136.095,390.144C137.194,402.201 140.107,413.874 144.769,424.886C150.652,438.835 159.475,451.853 170.286,462.53C181.087,473.17 194.185,481.791 208.161,487.464C221.874,493.049 237.039,496 252.015,496L252.614,495.998C267.748,495.868 283.029,492.717 296.802,486.888C310.611,481.063 323.498,472.328 334.07,461.623C344.6,450.938 353.135,437.968 358.753,424.125C360.775,419.156 362.472,413.909 363.798,408.533L365.084,403.308L358.894,404.246C357.232,404.506 355.166,404.827 352.622,404.893Z" style="fill:url(#_Linear2);"/>
        </g>
    </g>
    <defs>
        <linearGradient id="_Linear1" x1="0" y1="0" x2="1" y2="0" gradientUnits="userSpaceOnUse" gradientTransform="matrix(5.66382e-12,551.208,-551.208,5.66382e-12,293.964,-36.4711)"><stop offset="0" style="stop-color:rgb(97,112,181);stop-opacity:1"/><stop offset="1" style="stop-color:rgb(126,80,160);stop-opacity:1"/></linearGradient>
        <linearGradient id="_Linear2" x1="0" y1="0" x2="1" y2="0" gradientUnits="userSpaceOnUse" gradientTransform="matrix(5.66382e-12,551.208,-551.208,5.66382e-12,192.7,-36.4711)"><stop offset="0" style="stop-color:rgb(97,112,181);stop-opacity:1"/><stop offset="1" style="stop-color:rgb(126,80,160);stop-opacity:1"/></linearGradient>
    </defs>
</svg>
