<svg width="118" height="113" viewBox="0 0 118 113" fill="none" xmlns="http://www.w3.org/2000/svg">
<g clip-path="url(#clip0_363_192)">
<path d="M47.6407 38.7905C47.7075 39.0872 47.8488 39.362 48.0513 39.5889C48.2538 39.8158 48.5108 39.9874 48.798 40.0875C49.0852 40.1876 49.3931 40.2128 49.6928 40.1608C49.9925 40.1089 50.274 39.9814 50.5107 39.7905L55.2507 36.0405V59.1905H49.3107C48.8357 59.1914 48.38 59.3781 48.0407 59.7105C47.7077 60.0534 47.5212 60.5125 47.5207 60.9905V66.7905C47.5194 67.0264 47.5647 67.2602 47.6541 67.4785C47.7434 67.6969 47.8751 67.8954 48.0414 68.0626C48.2078 68.2299 48.4055 68.3627 48.6234 68.4532C48.8412 68.5438 49.0748 68.5905 49.3107 68.5905H73.6807C73.9163 68.5921 74.1498 68.547 74.3678 68.4578C74.5858 68.3685 74.784 68.2369 74.9507 68.0705C75.1188 67.9024 75.2521 67.7028 75.343 67.4832C75.4339 67.2636 75.4807 67.0282 75.4807 66.7905V60.9905C75.482 60.7537 75.4364 60.5191 75.3464 60.3001C75.2564 60.0811 75.1238 59.8821 74.9564 59.7147C74.789 59.5473 74.5901 59.4148 74.3711 59.3248C74.1521 59.2348 73.9174 59.1891 73.6807 59.1905H67.7807V24.2405C67.782 24.0037 67.7364 23.7691 67.6464 23.5501C67.5564 23.3311 67.4238 23.1321 67.2564 22.9647C67.089 22.7973 66.8901 22.6648 66.6711 22.5748C66.4521 22.4848 66.2175 22.4391 65.9807 22.4405H58.3207C57.9626 22.4429 57.6137 22.5545 57.3207 22.7605L46.8807 29.9805C46.5842 30.1822 46.3552 30.4683 46.2233 30.8017C46.0913 31.1351 46.0625 31.5005 46.1407 31.8505L47.6407 38.7905ZM58.3907 24.4505H65.7807V61.1905H73.4807V66.6005H49.4807V61.1905H57.2107V31.9205L49.4907 38.0305L48.0607 31.5505L58.3907 24.4505Z" fill="#272525"/>
<path d="M0.0892701 92.2002C0.199836 92.5191 0.400278 92.7992 0.666419 93.0068C0.932559 93.2144 1.25304 93.3406 1.58927 93.3702L16.8393 94.6002L17.3093 108.75C17.3197 109.079 17.4241 109.398 17.6102 109.669C17.7963 109.94 18.0563 110.152 18.3593 110.28C18.57 110.374 18.7985 110.422 19.0293 110.42C19.457 110.422 19.8703 110.265 20.1893 109.98L48.5593 84.3902L49.9293 88.1302C50.1445 88.9327 50.6092 89.6461 51.2563 90.1673C51.9034 90.6886 52.6993 90.9907 53.5293 91.0302C54.1667 91.0021 54.7897 90.8311 55.3522 90.5299C55.9148 90.2288 56.4024 89.8051 56.7793 89.2902L61.7793 83.1202C61.9804 82.8701 62.2345 82.6677 62.5233 82.5276C62.8121 82.3876 63.1283 82.3133 63.4493 82.3102C63.9921 82.3104 64.5143 82.5179 64.9093 82.8902L70.8093 88.2402C71.6095 89.0337 72.6827 89.4916 73.8093 89.5202C74.5791 89.5192 75.326 89.2584 75.9293 88.7802L96.4493 111.53C96.613 111.709 96.8122 111.853 97.0343 111.951C97.2564 112.049 97.4965 112.1 97.7393 112.1C97.9159 112.103 98.0917 112.076 98.2593 112.02C98.5759 111.921 98.857 111.733 99.0683 111.477C99.2796 111.221 99.412 110.91 99.4493 110.58L101.029 96.7302L116.229 95.3302C116.549 95.2986 116.854 95.179 117.11 94.9849C117.365 94.7907 117.563 94.5295 117.679 94.2302C117.795 93.9322 117.826 93.6077 117.767 93.2933C117.709 92.9788 117.564 92.6869 117.349 92.4502L92.1293 64.4502C92.1293 64.3802 92.1793 64.3202 92.2093 64.2602C92.3582 64.0056 92.5589 63.7851 92.7983 63.6129C93.0377 63.4406 93.3106 63.3205 93.5993 63.2602L101.349 61.4402C102.088 61.3622 102.787 61.0676 103.359 60.5935C103.931 60.1194 104.35 59.4869 104.564 58.7753C104.778 58.0638 104.777 57.305 104.56 56.5942C104.344 55.8834 103.923 55.2523 103.349 54.7802L97.8293 49.0302C97.6234 48.8195 97.463 48.5688 97.3581 48.2935C97.2532 48.0183 97.2059 47.7245 97.2193 47.4302C97.2364 47.1371 97.3126 46.8506 97.4432 46.5876C97.5737 46.3247 97.7561 46.0909 97.9793 45.9002L103.979 40.6902C104.595 40.2753 105.075 39.6877 105.358 39.0013C105.641 38.3148 105.715 37.5599 105.571 36.8315C105.427 36.103 105.071 35.4333 104.547 34.9065C104.024 34.3797 103.357 34.0192 102.629 33.8702L95.0793 31.3502C94.7993 31.2583 94.5407 31.1109 94.3191 30.9167C94.0974 30.7226 93.9172 30.4856 93.7893 30.2202C93.6705 29.9508 93.6092 29.6596 93.6092 29.3652C93.6092 29.0708 93.6705 28.7796 93.7893 28.5102L96.6993 21.1002C96.9928 20.4764 97.1255 19.7891 97.0854 19.101C97.0452 18.4128 96.8334 17.7455 96.4693 17.1602C96.0059 16.5287 95.3634 16.0509 94.6253 15.7888C93.8871 15.5267 93.0872 15.4923 92.3293 15.6902L84.4693 16.9602C84.1795 17.0112 83.8822 17.0016 83.5963 16.932C83.3103 16.8624 83.0419 16.7343 82.808 16.5558C82.574 16.3772 82.3796 16.1522 82.237 15.8948C82.0943 15.6374 82.0066 15.3532 81.9793 15.0602L81.1093 7.1402C80.8293 4.5302 79.1093 3.3602 77.4793 3.3602C76.4812 3.38529 75.5189 3.73652 74.7393 4.3602L68.3693 9.1402C68.1338 9.31452 67.8656 9.43938 67.5806 9.50723C67.2956 9.57509 66.9998 9.58453 66.7111 9.535C66.4224 9.48548 66.1467 9.37803 65.9006 9.21909C65.6545 9.06014 65.4432 8.85302 65.2793 8.6102L60.8393 2.00018C60.4876 1.4028 59.9925 0.902521 59.3989 0.544586C58.8053 0.186651 58.1317 -0.0176311 57.4393 -0.0498047C56.6634 -0.0114453 55.9154 0.252021 55.2868 0.708405C54.6582 1.16479 54.176 1.79435 53.8993 2.5202L50.4793 9.72018C50.3562 9.99015 50.1788 10.2319 49.9582 10.4302C49.7376 10.6286 49.4784 10.7794 49.197 10.8733C48.9155 10.9671 48.6177 11.0019 48.3222 10.9756C48.0267 10.9492 47.7397 10.8623 47.4793 10.7202L40.4793 6.93021C39.7413 6.46289 38.8706 6.24997 38.0003 6.32401C37.1299 6.39804 36.3077 6.75493 35.6593 7.34018C35.2642 7.78172 34.9643 8.30001 34.7785 8.86264C34.5927 9.42527 34.5248 10.0202 34.5793 10.6102L34.8993 18.6102C34.9161 18.9045 34.8714 19.1991 34.768 19.4752C34.6646 19.7513 34.5047 20.0027 34.2986 20.2135C34.0925 20.4243 33.8447 20.5898 33.5711 20.6994C33.2974 20.8091 33.0039 20.8604 32.7093 20.8502L24.7093 20.7602C23.9784 20.6764 23.239 20.8088 22.5826 21.1411C21.9262 21.4734 21.3818 21.9909 21.0166 22.6296C20.6515 23.2683 20.4818 24.0001 20.5285 24.7343C20.5752 25.4685 20.8362 26.1729 21.2793 26.7602L25.2793 33.6602C25.4311 33.9124 25.5287 34.1935 25.5659 34.4855C25.6031 34.7775 25.579 35.0741 25.4953 35.3563C25.4116 35.6385 25.27 35.9002 25.0796 36.1247C24.8891 36.3492 24.654 36.5315 24.3893 36.6602L17.2993 40.2702C16.5889 40.5195 15.9691 40.9752 15.5194 41.5789C15.0697 42.1827 14.8105 42.907 14.7751 43.659C14.7396 44.411 14.9295 45.1564 15.3204 45.7998C15.7114 46.4432 16.2855 46.9552 16.9693 47.2702L23.6993 51.5302C23.9512 51.6827 24.1686 51.8859 24.3376 52.1271C24.5066 52.3682 24.6236 52.6419 24.6809 52.9307C24.7383 53.2196 24.7349 53.5172 24.6709 53.8046C24.6069 54.092 24.4838 54.363 24.3093 54.6002L19.6993 61.1002C19.1997 61.6508 18.874 62.3369 18.7633 63.0721C18.6526 63.8073 18.7617 64.5589 19.077 65.2322C19.3923 65.9056 19.8997 66.4707 20.5353 66.8564C21.1709 67.2422 21.9064 67.4313 22.6493 67.4002L25.8493 67.6602L0.59928 90.4302C0.356192 90.6472 0.179345 90.9285 0.0891175 91.2417C-0.00111043 91.5548 -0.0010604 91.8871 0.0892701 92.2002ZM92.6893 78.5002C92.7999 78.3895 92.9003 78.269 92.9893 78.1402C93.2861 77.9435 93.5494 77.7004 93.7693 77.4202C94.1434 76.8736 94.3837 76.2466 94.4705 75.5899C94.5574 74.9332 94.4884 74.2653 94.2693 73.6402L93.5493 71.1702L112.549 92.1702L99.3893 93.3902C98.9951 93.4282 98.6257 93.5995 98.342 93.8759C98.0584 94.1523 97.8775 94.5171 97.8293 94.9102L96.4893 106.36L77.6093 85.4202L79.0793 78.2502C79.1322 77.9979 79.2304 77.7574 79.3693 77.5402C79.8404 77.296 80.3844 77.232 80.8993 77.3602L88.6093 79.3602C89.3044 79.5927 90.0489 79.6356 90.7661 79.4844C91.4833 79.3333 92.1472 78.9935 92.6893 78.5002ZM22.8893 63.9602C22.6146 63.9675 22.3449 63.8869 22.1193 63.7302V63.6602C22.1652 63.4115 22.2717 63.178 22.4293 62.9802L27.0293 56.4902C27.2469 56.1752 27.4343 55.8403 27.5893 55.4902C28.0521 54.4551 28.1781 53.3007 27.9493 52.1902C27.8034 51.4527 27.5081 50.7528 27.0816 50.1337C26.6551 49.5146 26.1064 48.9893 25.4693 48.5902L18.7393 44.3302C18.5731 44.228 18.4217 44.1035 18.2893 43.9602C18.2335 43.9083 18.1922 43.8429 18.1693 43.7702C18.1693 43.7202 18.3093 43.5002 18.7893 43.2602L22.4393 41.4002L25.8793 39.6402C26.5557 39.3051 27.1555 38.8335 27.6408 38.2552C28.1262 37.677 28.4865 37.0045 28.6993 36.2802C29.106 34.8907 28.9516 33.3971 28.2693 32.1202C28.2693 32.0602 28.2093 32.0002 28.1693 31.9402L24.1693 25.0402C24.0365 24.8276 23.9512 24.5888 23.9193 24.3402C23.9193 24.3402 23.9193 24.2802 23.9193 24.2702H23.9893C24.2145 24.1794 24.4567 24.1384 24.6993 24.1502H26.7593L32.7593 24.2302C33.5066 24.234 34.2469 24.0852 34.9347 23.7929C35.6225 23.5006 36.2434 23.0709 36.7593 22.5302C37.2817 21.9964 37.687 21.3595 37.9493 20.6602C37.9493 20.6002 37.9493 20.5302 37.9993 20.4602C38.2177 19.817 38.3161 19.139 38.2893 18.4602L37.9793 10.4602C37.9793 9.92021 38.0793 9.69019 38.1893 9.66019C38.4379 9.67828 38.6783 9.75728 38.8893 9.8902L44.6393 13.0002L45.8993 13.6702C45.983 13.7162 46.0699 13.7563 46.1593 13.7902C46.9042 14.1529 47.7208 14.3443 48.5493 14.3502C49.9493 14.3546 51.2967 13.817 52.3093 12.8502C52.818 12.3734 53.2349 11.8074 53.5393 11.1802L56.9593 3.98019C57.0116 3.8642 57.0752 3.75364 57.1493 3.65018C57.218 3.54479 57.3023 3.4504 57.3993 3.37018L57.5293 3.44019L57.6293 3.5202C57.7652 3.64203 57.886 3.77968 57.9893 3.93021L60.9893 8.41019L62.4193 10.5402C62.7642 11.043 63.1861 11.4884 63.6693 11.8602C64.6264 12.5981 65.8007 12.9989 67.0093 13.0002C67.3654 12.9988 67.7205 12.9619 68.0693 12.8902C68.8951 12.7335 69.6746 12.3916 70.3493 11.8902L72.9493 9.8902L76.7193 7.06018C76.9107 6.89471 77.1414 6.78111 77.3893 6.73019H77.4493C77.6113 6.95494 77.7019 7.22324 77.7093 7.50018L78.5693 15.4202C78.7001 16.5314 79.1637 17.5771 79.8993 18.4202C80.5158 19.1321 81.3051 19.6734 82.1912 19.9921C83.0773 20.3109 84.0306 20.3963 84.9593 20.2402L92.8293 18.9702C93.0887 18.9058 93.3599 18.9058 93.6193 18.9702C93.6193 18.9702 93.6193 18.9702 93.6193 19.0302C93.6354 19.2847 93.5873 19.5392 93.4793 19.7702L90.5693 27.1802C90.4993 27.3602 90.4393 27.5402 90.3793 27.7202V27.8502C90.1188 28.8615 90.15 29.9259 90.4693 30.9202C90.5395 31.1384 90.623 31.3521 90.7193 31.5602C90.8432 31.8145 90.9869 32.0586 91.1493 32.2902C91.8257 33.3117 92.826 34.076 93.9893 34.4602L99.6293 36.3502L101.549 36.9902C101.769 37.0626 101.975 37.1707 102.159 37.3102L102.239 37.4002C102.207 37.5231 102.145 37.6363 102.059 37.7302C101.966 37.8434 101.862 37.9472 101.749 38.0402L98.0293 41.4302L95.7793 43.3702C95.2106 43.8587 94.7475 44.4582 94.4185 45.132C94.0895 45.8057 93.9015 46.5394 93.8659 47.2883C93.8303 48.0372 93.948 48.7855 94.2116 49.4874C94.4753 50.1893 94.8794 50.8299 95.3993 51.3702L100.919 57.1202C101.128 57.2962 101.275 57.5345 101.339 57.8002C101.137 57.9456 100.904 58.0446 100.659 58.0902L92.9093 59.9002C92.1733 60.0665 91.4794 60.3822 90.8704 60.8278C90.2615 61.2733 89.7506 61.8391 89.3693 62.4902C89.2051 62.7818 89.0647 63.0861 88.9493 63.4002C88.8376 63.7251 88.7572 64.06 88.7093 64.4002C88.3593 64.8427 88.1138 65.3585 87.9909 65.9091C87.8679 66.4596 87.8708 67.0309 87.9993 67.5802L90.2093 75.2302L82.6193 73.2302C82.3071 73.1551 81.9894 73.1049 81.6693 73.0802H81.1893C80.9046 73.0833 80.6206 73.1067 80.3393 73.1502H80.1593C79.9152 73.1969 79.6746 73.2604 79.4393 73.3402L79.1493 73.4502L78.7193 73.6502C78.5327 73.7416 78.3523 73.8451 78.1793 73.9602L78.0093 74.0802C77.7391 74.2687 77.4879 74.483 77.2593 74.7202C76.0602 75.5317 75.2272 76.7812 74.9393 78.2002L73.5693 84.9002C73.498 85.2574 73.5399 85.628 73.6893 85.9602L73.4993 85.8602C73.4034 85.798 73.3131 85.7278 73.2293 85.6502L67.3293 80.2902C66.8969 79.9071 66.4078 79.5934 65.8793 79.3602C65.0931 78.9818 64.2261 78.8021 63.3543 78.8369C62.4826 78.8718 61.6327 79.1202 60.8793 79.5602C60.6003 79.7123 60.3358 79.8897 60.0893 80.0902C59.7974 80.3337 59.5264 80.6014 59.2793 80.8902L54.2793 87.0602C54.221 87.1346 54.1575 87.2048 54.0893 87.2702C54.0281 87.333 53.9611 87.3899 53.8893 87.4402C53.8357 87.4894 53.7702 87.5239 53.6993 87.5402C53.6765 87.5272 53.6561 87.5103 53.6393 87.4902C53.472 87.311 53.3488 87.0953 53.2793 86.8602L51.4393 81.8602C51.6693 81.6287 51.8282 81.3361 51.8973 81.0172C51.9664 80.6982 51.9428 80.3661 51.8293 80.0602L51.7093 79.7102C51.3726 78.7465 50.7725 77.8964 49.9771 77.2565C49.1817 76.6166 48.2228 76.2126 47.2093 76.0902C46.9221 75.9891 46.628 75.9089 46.3293 75.8502C46.0162 75.7896 45.6981 75.7595 45.3793 75.7602C45.0066 75.7616 44.6349 75.7984 44.2693 75.8702C43.9028 75.9498 43.5445 76.0637 43.1993 76.2102L36.1993 79.2102C36.1993 79.1502 36.1993 79.0802 36.1993 79.0102L37.2593 71.1102C37.3623 70.3588 37.3108 69.5942 37.1079 68.8634C36.905 68.1326 36.5549 67.4509 36.0793 66.8602C35.1853 65.7555 33.8991 65.039 32.4893 64.8602C32.2993 64.7897 32.1057 64.7296 31.9093 64.6802C31.6267 64.6067 31.3393 64.5533 31.0493 64.5202L28.3593 64.3102L22.8893 63.9602ZM29.8893 68.5802L31.6393 68.3702C31.8019 68.481 31.9497 68.6121 32.0793 68.7602C32.2634 68.9916 32.3984 69.2582 32.4757 69.5437C32.5531 69.8292 32.5714 70.1274 32.5293 70.4202L31.4693 78.3102C31.3599 78.9195 31.3818 79.5451 31.5336 80.1452C31.6853 80.7453 31.9634 81.3061 32.3493 81.7902C32.8883 82.4014 33.6311 82.7959 34.4393 82.9002C35.0192 83.1744 35.6528 83.3166 36.2943 83.3166C36.9358 83.3166 37.5693 83.1744 38.1493 82.9002L45.4693 79.7802C45.7408 79.6624 46.0333 79.6012 46.3293 79.6002C46.7343 79.8525 47.0439 80.2325 47.2093 80.6802L47.2993 80.9202L20.6493 104.92L20.2493 92.9202C20.2357 92.4961 20.0658 92.092 19.7723 91.7856C19.4788 91.4792 19.0824 91.292 18.6593 91.2602L5.86927 90.2602L29.8893 68.5802Z" fill="#272525"/>
</g>
<defs>
<clipPath id="clip0_363_192">
<rect width="117.83" height="112.1" fill="white"/>
</clipPath>
</defs>
</svg>
