<svg width="87" height="69" viewBox="0 0 87 69" fill="none" xmlns="http://www.w3.org/2000/svg">
<g clip-path="url(#clip0_376_26)">
<path d="M41.4027 0.368164C41.4027 3.75108 40.0678 6.99545 37.6917 9.38753C35.3156 11.7796 32.0929 13.1235 28.7326 13.1235C25.3723 13.1235 22.1496 11.7796 19.7735 9.38753C17.3974 6.99545 16.0625 3.75108 16.0625 0.368164H41.4027Z" fill="black"/>
<path d="M45.5742 42.0424C45.5742 38.6595 46.9091 35.4151 49.2852 33.0231C51.6613 30.631 54.884 29.2871 58.2443 29.2871C61.6046 29.2871 64.8273 30.631 67.2034 33.0231C69.5795 35.4151 70.9144 38.6595 70.9144 42.0424H45.5742Z" fill="black"/>
<path d="M41.3989 11.374V42.0457H16.0625L41.3989 11.374Z" fill="black"/>
<path d="M45.5742 31.0361V0.368164H70.9106L45.5742 31.0361Z" fill="black"/>
<path d="M60.7112 62.2217C60.4823 60.7104 59.5853 59.5769 57.7801 59.5769C57.0225 59.5376 56.2782 59.7885 55.6969 60.2792C55.1155 60.7698 54.7402 61.4638 54.6464 62.2217H60.7112ZM58.0654 66.7366C59.2014 66.7603 60.3008 66.3312 61.124 65.5427L62.6252 67.19C61.6232 68.2253 60.2346 68.996 58.0766 68.996C54.3724 68.996 51.9818 66.5251 51.9818 63.1776C51.9655 62.4096 52.1034 61.6462 52.3873 60.9332C52.6712 60.2201 53.0951 59.5722 53.6338 59.0281C54.1725 58.4841 54.8147 58.0552 55.522 57.767C56.2294 57.4789 56.9872 57.3376 57.7501 57.3515C61.428 57.3515 63.5109 60.1663 63.3308 64.073H54.6464C54.9541 65.6939 56.0838 66.7178 58.0654 66.7178" fill="black"/>
<path d="M0.591797 66.6194L7.27962 59.7808H0.749422V57.6348H10.3796V59.8224L3.69176 66.661H10.4659V68.807H0.591797V66.6194Z" fill="black"/>
<path d="M21.0459 62.2214C20.8133 60.7101 19.9201 59.5767 18.1149 59.5767C17.3573 59.5374 16.613 59.7883 16.0316 60.2789C15.4503 60.7696 15.0749 61.4636 14.9811 62.2214H21.0459ZM18.4189 66.7364C19.5549 66.7601 20.6543 66.3309 21.4775 65.5425L22.9787 67.1898C21.9767 68.225 20.5881 68.9958 18.4264 68.9958C14.7259 68.9958 12.3353 66.5248 12.3353 63.1773C12.319 62.4106 12.4565 61.6485 12.7395 60.9365C13.0224 60.2245 13.445 59.5772 13.9821 59.0334C14.5192 58.4896 15.1596 58.0603 15.8652 57.7713C16.5707 57.4823 17.3269 57.3394 18.0886 57.3513C21.7665 57.3513 23.8494 60.1661 23.6693 64.0728H14.9661C15.2739 65.6936 16.4035 66.7175 18.3851 66.7175" fill="black"/>
<path d="M47.5152 63.1621C47.4967 62.4647 47.2744 61.7883 46.8762 61.2174C46.4779 60.6466 45.9213 60.2066 45.276 59.9525C44.6306 59.6984 43.9252 59.6415 43.2479 59.7888C42.5706 59.9362 41.9515 60.2813 41.4679 60.7811C40.9844 61.2808 40.658 61.9129 40.5295 62.5984C40.4009 63.2839 40.476 63.9923 40.7452 64.6351C41.0145 65.2779 41.466 65.8265 42.0433 66.2123C42.6207 66.5981 43.2982 66.804 43.9911 66.8043C44.4623 66.806 44.9291 66.7123 45.3636 66.5287C45.7981 66.345 46.1915 66.0753 46.5203 65.7355C46.8491 65.3956 47.1066 64.9927 47.2775 64.5506C47.4484 64.1085 47.5293 63.6363 47.5152 63.1621ZM38.1064 63.1847C38.1064 59.6105 40.7598 57.3738 43.6796 57.3738C44.3806 57.3652 45.0749 57.5108 45.7141 57.8006C46.3533 58.0904 46.9219 58.5172 47.38 59.0514V52.4395H49.7444V68.7576H47.38V67.2161C46.9307 67.7725 46.3628 68.2201 45.7183 68.5255C45.0739 68.8309 44.3694 68.9865 43.6571 68.9806C42.9108 68.9754 42.1731 68.8199 41.4875 68.5233C40.8018 68.2266 40.1821 67.7948 39.6648 67.2532C39.1475 66.7117 38.7431 66.0714 38.4755 65.3701C38.2078 64.6687 38.0824 63.9205 38.1064 63.1696" fill="black"/>
<path d="M64.7147 66.4196L66.8539 65.2861C67.1366 65.7938 67.5517 66.2142 68.0544 66.5018C68.557 66.7895 69.1282 66.9335 69.7062 66.9183C71.046 66.9183 71.7365 66.2269 71.7365 65.4448C71.7365 64.5493 70.4417 64.3491 69.0381 64.0582C67.1429 63.6539 65.1838 63.0305 65.1838 60.7295C65.1838 58.9613 66.8539 57.3291 69.4847 57.3518C71.5564 57.3518 73.0951 58.1792 73.9658 59.5205L71.9805 60.6162C71.7068 60.2071 71.334 59.8751 70.8972 59.6516C70.4605 59.4282 69.9743 59.3206 69.4847 59.3392C68.2125 59.3392 67.567 59.9663 67.567 60.6842C67.567 61.489 68.5915 61.7081 70.1941 62.067C72.0218 62.4713 74.0934 63.072 74.0934 65.3994C74.0934 66.941 72.7573 69.019 69.5898 68.9963C67.2742 68.9963 65.6454 68.0593 64.7109 66.4044" fill="black"/>
<path d="M80.2527 63.8126L78.38 65.8679V68.7734H76.0156V52.459H78.38V63.14L83.394 57.5974H86.2688L81.9228 62.3806L86.3814 68.7734H83.7055L80.2527 63.8126Z" fill="black"/>
<path d="M31.0686 57.3701C28.2613 57.3701 25.9082 59.2026 25.9082 62.244V68.7728H28.3176V62.5463C28.3176 60.7139 29.3647 59.6182 31.1474 59.6182C32.93 59.6182 33.8233 60.7139 33.8233 62.5463V68.7728H36.2289V62.2629C36.2289 59.2215 33.8795 57.389 31.0686 57.389" fill="black"/>
</g>
<defs>
<clipPath id="clip0_376_26">
<rect width="85.7895" height="68.6316" fill="white" transform="translate(0.591797 0.368164)"/>
</clipPath>
</defs>
</svg>
