<svg width="96" height="110" viewBox="0 0 96 110" fill="none" xmlns="http://www.w3.org/2000/svg">
<g clip-path="url(#clip0_365_743)">
<path d="M96.0014 4.91106C96.0014 3.61248 95.4874 2.3668 94.5714 1.44644C93.6555 0.526074 92.4123 0.00601195 91.1139 0H4.88901C3.64371 0.0584815 2.46723 0.588495 1.59829 1.48259C0.729357 2.37668 0.232967 3.56787 0.209831 4.81454C0.186695 6.06121 0.638672 7.27003 1.47384 8.19576C2.309 9.12149 3.46484 9.69484 4.70711 9.7995C4.53395 10.5067 4.44243 11.2314 4.43432 11.9594V57.4328C4.44376 58.1532 4.53527 58.8703 4.70711 59.57C3.46484 59.6747 2.309 60.248 1.47384 61.1738C0.638672 62.0995 0.186695 63.3083 0.209831 64.555C0.232967 65.8017 0.729357 66.9929 1.59829 67.8869C2.46723 68.781 3.64371 69.3111 4.88901 69.3696H43.5345C43.5111 69.6951 43.5111 70.0218 43.5345 70.3473V82.0112C43.2956 82.1599 43.0745 82.3353 42.8753 82.5341L26.2578 99.8594C25.8701 100.292 25.5881 100.809 25.4343 101.369C25.2804 101.93 25.2589 102.518 25.3711 103.088C25.5859 104.254 26.1673 105.322 27.0306 106.135C27.8654 106.973 28.9508 107.516 30.1222 107.681C30.6993 107.774 31.2901 107.729 31.8468 107.551C32.4036 107.374 32.9109 107.068 33.3276 106.658L43.5345 96.0169V104.771C43.5345 105.413 43.6609 106.048 43.9065 106.641C44.1521 107.234 44.5121 107.773 44.966 108.227C45.4198 108.681 45.9586 109.041 46.5516 109.287C47.1446 109.533 47.7803 109.659 48.4221 109.659C49.0639 109.659 49.6994 109.533 50.2924 109.287C50.8854 109.041 51.4242 108.681 51.8781 108.227C52.3319 107.773 52.6919 107.234 52.9375 106.641C53.1832 106.048 53.3095 105.413 53.3095 104.771V96.0624L65.0623 107.431C65.4921 107.833 66.0092 108.131 66.5731 108.301C67.137 108.47 67.7326 108.507 68.3132 108.408C69.4812 108.185 70.549 107.598 71.3651 106.733C72.1812 105.868 72.7042 104.768 72.8597 103.588C72.9401 103.002 72.8834 102.406 72.694 101.846C72.5047 101.285 72.1878 100.777 71.7684 100.36L53.5823 82.9206C53.4456 82.7883 53.2928 82.6738 53.1276 82.5796V70.4837C53.1628 70.1587 53.1628 69.831 53.1276 69.506H91.0458C92.1757 69.5124 93.2729 69.127 94.1507 68.4154C95.0286 67.7038 95.6329 66.7101 95.8607 65.6031C96.0885 64.4962 95.9256 63.3445 95.4 62.344C94.8745 61.3436 94.0187 60.5562 92.978 60.1158C93.2243 59.2895 93.347 58.4313 93.3418 57.5692V12.0959C93.3501 11.2335 93.2273 10.3749 92.978 9.54936C93.8881 9.16743 94.6627 8.5213 95.2016 7.69444C95.7406 6.86758 96.0191 5.89797 96.0014 4.91106ZM69.9043 102.429C70.0092 102.558 70.0857 102.707 70.1288 102.868C70.1719 103.029 70.1807 103.197 70.1545 103.361C70.0807 103.944 69.8171 104.488 69.4043 104.907C69.01 105.34 68.4815 105.628 67.9039 105.726C67.7379 105.763 67.5657 105.762 67.4002 105.723C67.2347 105.683 67.0803 105.606 66.9491 105.498L52.8776 91.8561C52.68 91.6714 52.4335 91.5476 52.1675 91.4993C51.9015 91.4509 51.6272 91.48 51.3773 91.5832C51.128 91.6899 50.9153 91.8675 50.7658 92.0938C50.6163 92.3201 50.5366 92.5852 50.5362 92.8565V104.907C50.567 105.205 50.5349 105.505 50.4421 105.79C50.3494 106.074 50.198 106.336 49.9976 106.558C49.7972 106.781 49.5524 106.958 49.279 107.08C49.0056 107.202 48.7099 107.264 48.4107 107.264C48.1115 107.264 47.8156 107.202 47.5423 107.08C47.2689 106.958 47.0241 106.781 46.8237 106.558C46.6233 106.336 46.4719 106.074 46.3792 105.79C46.2864 105.505 46.2544 105.205 46.2852 104.907V92.6519C46.283 92.3781 46.1997 92.1111 46.046 91.8845C45.8923 91.6579 45.6749 91.4819 45.4214 91.3787C45.2483 91.349 45.0714 91.349 44.8984 91.3787C44.5211 91.3853 44.1617 91.5405 43.8982 91.8107L31.3043 104.952C31.1873 105.045 31.0507 105.109 30.9049 105.141C30.7591 105.173 30.608 105.17 30.4632 105.134C29.8755 105.043 29.3331 104.764 28.9174 104.339C28.4786 103.945 28.1828 103.417 28.0763 102.838C28.037 102.691 28.0309 102.537 28.0584 102.388C28.086 102.239 28.1465 102.097 28.2355 101.974L44.8531 84.6713C44.9442 84.5756 45.0637 84.5117 45.194 84.4894C45.5009 84.4225 45.776 84.2534 45.9743 84.0097C46.1725 83.766 46.2821 83.4622 46.2852 83.148V70.5518C46.2865 70.2176 46.348 69.8864 46.467 69.5742H50.3316C50.4714 69.8808 50.5413 70.2148 50.5362 70.5518V83.489C50.5325 83.7822 50.6233 84.069 50.7953 84.3065C50.9672 84.544 51.2112 84.7198 51.4909 84.8077C51.6137 84.8496 51.7289 84.9111 51.832 84.9897L69.9043 102.429ZM93.2508 64.6859C93.2183 65.2421 92.9829 65.767 92.589 66.161C92.1951 66.555 91.6701 66.7906 91.1139 66.8231H4.88901C4.32227 66.8231 3.77877 66.5979 3.37803 66.1971C2.97729 65.7963 2.75213 65.2527 2.75213 64.6859C2.75213 64.119 2.97729 63.5753 3.37803 63.1745C3.77877 62.7737 4.32227 62.5485 4.88901 62.5485H91.0912C91.6427 62.5419 92.1754 62.7488 92.5779 63.1259C92.9804 63.503 93.2215 64.0212 93.2508 64.5721V64.6859ZM8.61719 57.6374V12.1641C8.61569 11.4225 8.78685 10.6907 9.11725 10.0268H88.6815C89.0119 10.6907 89.1832 11.4225 89.1817 12.1641V57.6374C89.1784 58.3784 89.0073 59.1091 88.6815 59.7747H9.11725C8.7743 59.0747 8.60293 58.3031 8.61719 57.5237V57.6374ZM91.1139 7.16204H4.88901C4.32227 7.16204 3.77877 6.93684 3.37803 6.53603C2.97729 6.13522 2.75213 5.59162 2.75213 5.02478C2.75213 4.45795 2.97729 3.91435 3.37803 3.51354C3.77877 3.11273 4.32227 2.88753 4.88901 2.88753H91.0912C91.6579 2.88753 92.2016 3.11273 92.6023 3.51354C93.0031 3.91435 93.2281 4.45795 93.2281 5.02478C93.2281 5.59162 93.0031 6.13522 92.6023 6.53603C92.2016 6.93684 91.6579 7.16204 91.0912 7.16204H91.1139Z" fill="#231F20"/>
<path d="M29.2576 42.3575C29.0535 42.5136 28.8824 42.7085 28.7536 42.9308C28.6249 43.1532 28.5413 43.3988 28.5075 43.6535L25.6432 52.4071C25.6357 52.4979 25.6357 52.5892 25.6432 52.68L25.5295 53.021C25.4311 53.3222 25.4064 53.6427 25.4577 53.9554C25.5089 54.2682 25.6344 54.5639 25.8238 54.818C26.0132 55.072 26.2608 55.2768 26.5459 55.4152C26.8309 55.5535 27.145 55.6214 27.4617 55.613L37.5778 55.3174H37.8961H38.0779H38.237H38.4644L38.7372 55.1583L39.01 54.9536L73.109 29.4658C73.2973 29.3206 73.4587 29.1436 73.5863 28.9429C73.8151 28.8739 74.0304 28.7663 74.2228 28.6246L75.3595 27.7834C77.0856 26.5073 78.2764 24.6355 78.7011 22.5311C78.8445 21.5128 78.7751 20.4758 78.4973 19.4857C78.2195 18.4955 77.7393 17.5738 77.0872 16.7787C76.5015 15.9164 75.7456 15.1832 74.8659 14.624C73.9863 14.0649 73.0016 13.6917 71.9723 13.5274C69.9392 13.2969 67.8938 13.8408 66.2437 15.0508L64.857 16.0739C64.6745 16.2339 64.5139 16.4175 64.3796 16.6196C64.15 16.6753 63.9338 16.7758 63.7431 16.9152L29.2576 42.3575ZM30.4625 53.0892L28.8258 50.8155C28.8258 50.8155 28.8258 50.8156 28.8258 50.7019L30.5534 45.3588L36.1684 52.8619L30.4625 53.0892ZM67.6077 16.7105C68.7584 15.9179 70.148 15.5484 71.5404 15.6647C72.2507 15.7864 72.929 16.0505 73.5345 16.4413C74.14 16.832 74.6603 17.3413 75.0639 17.9383C75.5156 18.48 75.8516 19.1084 76.051 19.7849C76.2504 20.4615 76.309 21.1717 76.2233 21.8718C76.2339 22.0384 76.2339 22.2054 76.2233 22.372C76.1373 22.6848 76.0231 22.9892 75.8823 23.2815C75.6487 23.7389 75.3501 24.1601 74.9958 24.532L74.7456 24.8275L74.5639 25.0095L74.3592 25.1913L74.0409 25.4642L73.3362 25.9871L70.1991 21.7808C70.1617 21.7076 70.1159 21.639 70.0627 21.5762L66.8802 17.279L67.6077 16.7105ZM64.6297 18.9842L71.1312 27.6696L38.4189 52.1115L31.9174 43.3125L64.6297 18.9842Z" fill="#231F20"/>
</g>
<defs>
<clipPath id="clip0_365_743">
<rect width="96" height="110" fill="white"/>
</clipPath>
</defs>
</svg>
