<svg width="175" height="50" viewBox="0 0 175 50" fill="none" xmlns="http://www.w3.org/2000/svg">
<g clip-path="url(#clip0_376_8)">
<path d="M50.2706 17.6739C50.1385 21.6521 50.6525 26.3573 49.4318 30.9729C46.3337 42.6821 35.8686 50.0406 23.3297 49.2743C12.2828 48.5976 2.79212 39.5382 1.20022 28.1477C-0.844972 13.6347 10.2662 0.414468 24.8752 0.0957781C31.1607 -0.0402919 37.4498 0.0349135 43.7388 0.059979C47.7685 0.059979 50.1956 2.52355 50.2777 6.66652C50.3241 10.0898 50.2706 13.5345 50.2706 17.6739Z" fill="black"/>
<path d="M130.049 22.205C130.049 19.6197 130.049 17.3101 130.049 15.0005C130.049 14.1876 130.138 13.3354 131.209 13.3891C132.148 13.4357 132.462 14.1698 132.458 15.0327C132.437 20.25 132.487 25.4707 132.348 30.6844C132.273 33.5275 130.591 35.3 128.004 35.7476C124.434 36.3599 121.715 35.2928 120.601 32.6466C120.012 31.2806 119.706 29.8086 119.701 28.32C119.697 26.8315 119.995 25.3577 120.576 23.9883C121.754 21.1236 125.398 19.9491 128.428 21.3492C128.896 21.5676 129.346 21.8326 130.049 22.205Z" fill="black"/>
<path d="M107.638 22.2409C109.165 21.1416 110.607 20.6295 112.278 20.8086C115.415 21.1344 117.16 22.7887 117.296 25.9577C117.417 28.74 117.332 31.5295 117.35 34.3189C117.35 35.1103 117.175 35.7834 116.236 35.8085C115.201 35.8335 114.965 35.0923 114.955 34.2473C114.926 31.6977 114.98 29.1446 114.915 26.5987C114.844 23.5837 113.131 22.377 110.186 23.1576C108.501 23.6052 107.737 24.7546 107.688 26.3803C107.62 28.8868 107.645 31.3612 107.627 33.8498C107.627 34.7665 107.627 35.787 106.36 35.7655C105.189 35.7655 105.225 34.7808 105.225 33.9286C105.225 27.6455 105.225 21.36 105.225 15.0722C105.225 14.2343 105.325 13.4071 106.317 13.3641C107.406 13.3176 107.63 14.1698 107.63 15.0829C107.641 17.3925 107.638 19.6878 107.638 22.2409Z" fill="black"/>
<path d="M165.495 27.0249C167.882 25.0948 169.956 23.444 172.012 21.7503C172.694 21.1953 173.44 20.6081 174.154 21.4889C174.867 22.3698 174.154 23.0143 173.468 23.555C173.422 23.5909 173.368 23.6231 173.326 23.6625C172.019 24.8406 169.599 25.6641 169.567 27.1215C169.539 28.5216 171.441 29.9861 172.505 31.3898C173.108 32.1955 173.725 32.994 174.339 33.7961C174.81 34.4156 174.793 35.0637 174.214 35.5364C173.636 36.009 172.976 35.8085 172.508 35.2248C171.023 33.3736 169.574 31.4936 168.054 29.671C167.747 29.3129 167.608 28.3426 166.79 28.8546C166.176 29.2378 165.43 29.5923 165.487 30.5877C165.555 31.7694 165.487 32.9618 165.487 34.147C165.487 34.967 165.412 35.7763 164.31 35.7405C163.207 35.7047 163.182 34.8775 163.182 34.0718C163.182 27.7171 163.182 21.3636 163.182 15.0113C163.182 14.2378 163.317 13.4966 164.252 13.4715C165.252 13.4429 165.505 14.159 165.502 15.0399C165.487 18.8893 165.495 22.7387 165.495 27.0249Z" fill="black"/>
<path d="M142.246 29.2944C141.061 29.2944 139.869 29.366 138.677 29.2729C137.606 29.1906 137.492 29.674 137.656 30.537C138.202 33.4553 141.425 34.748 144.437 33.2977C145.223 32.9182 146.222 31.5718 146.936 33.0256C147.607 34.3828 146.04 34.7802 145.198 35.2171C140.408 37.7236 135.404 34.8375 135.082 29.4878C134.938 28.067 135.059 26.6317 135.439 25.2553C136.428 22.1257 139.133 20.432 142.481 20.8796C145.519 21.2914 147.535 23.712 147.568 26.992C147.585 28.7824 147.1 29.2837 145.248 29.3052C144.266 29.3052 143.256 29.2944 142.246 29.2944Z" fill="black"/>
<path d="M84.0987 29.3339C82.9744 29.3339 81.8429 29.4198 80.7257 29.3124C79.4158 29.187 79.4051 29.8495 79.63 30.7912C80.251 33.3622 82.9672 34.6263 85.7263 33.6022C86.2208 33.4067 86.6933 33.1594 87.1362 32.8645C87.7287 32.4849 88.3319 32.1949 88.8351 32.9075C89.3384 33.6201 88.8744 34.107 88.3319 34.5511C85.3087 37.0182 78.5449 36.9144 77.2671 31.0634C76.8131 29.1496 76.8648 27.1501 77.417 25.2625C78.3771 22.1222 81.0648 20.4463 84.4271 20.876C87.4538 21.2628 89.4812 23.6691 89.5383 26.9634C89.5704 28.7896 89.0778 29.3231 87.2932 29.3518C86.2331 29.3339 85.1659 29.3339 84.0987 29.3339Z" fill="black"/>
<path d="M97.0542 20.7652C98.5512 20.7131 100.009 21.2533 101.112 22.2691C101.723 22.8027 102.226 23.4508 101.584 24.2493C100.941 25.0478 100.313 24.6074 99.7347 24.1311C98.5926 23.175 97.2684 23.0569 95.8764 23.2717C95.1268 23.3899 94.5022 23.7659 94.3273 24.5429C94.1524 25.3199 94.6628 25.9323 95.3196 26.2545C96.3903 26.7773 97.4897 27.1891 98.5747 27.6511C99.6598 28.113 100.734 28.6393 101.53 29.5668C103.09 31.3894 102.519 34.1179 100.334 35.296C97.9073 36.6245 94.2238 36.116 92.2321 34.1466C91.686 33.6094 91.0115 33.0222 91.7539 32.1915C92.4963 31.3607 93.0317 32.0447 93.5778 32.4744C94.2554 33.0582 95.081 33.4425 95.9629 33.5847C96.8449 33.7269 97.7488 33.6214 98.5747 33.28C99.3278 32.9936 99.9739 32.5639 100.002 31.6579C100.031 30.752 99.4171 30.2758 98.6675 29.9714C97.5753 29.5202 96.4582 29.1335 95.3695 28.6752C92.7069 27.5508 91.6718 26.0218 92.0822 23.8805C92.4713 21.9361 94.3237 20.7687 97.0542 20.7652Z" fill="black"/>
<path d="M155.009 36.0193C153.025 35.9441 151.322 35.382 149.952 33.9998C149.455 33.4985 149.123 32.9255 149.737 32.3061C150.28 31.7475 150.826 32.0017 151.304 32.417C152.764 33.6775 154.424 34.1 156.262 33.5307C157.111 33.2693 157.961 32.8432 157.99 31.7403C158.015 30.7162 157.247 30.308 156.465 30.0036C155.205 29.4915 153.899 29.0833 152.671 28.5068C150.601 27.5293 149.816 26.1041 150.08 24.1383C150.326 22.4052 151.593 21.3345 153.842 20.9621C155.898 20.604 157.722 21.0839 159.249 22.5377C159.771 23.0318 160.067 23.6441 159.585 24.2672C159.103 24.8902 158.418 24.7076 157.879 24.235C156.708 23.2037 155.341 23.0282 153.881 23.2682C153.139 23.3935 152.504 23.7623 152.336 24.5465C152.168 25.3307 152.693 25.9323 153.342 26.2581C154.345 26.7558 155.402 27.1462 156.444 27.5651C157.393 27.8976 158.282 28.3812 159.078 28.9974C161.134 30.7484 160.863 33.7455 158.518 35.1349C157.404 35.8152 156.162 35.8869 155.009 36.0193Z" fill="black"/>
<path d="M60.4084 29.4123C60.4084 28.2235 60.4263 27.0383 60.4084 25.853C60.387 24.7788 60.8439 23.4109 58.9343 23.4037C58.5774 23.4037 58.2811 22.8953 58.2954 22.4369C58.2954 21.9106 58.5952 21.4092 59.1056 21.4343C60.669 21.5131 60.3549 20.4353 60.4013 19.5329C60.5583 16.3102 62.5 14.2727 65.4375 14.1617C66.1942 14.1403 66.9473 14.2369 67.0901 15.1249C67.2436 16.1025 66.4512 16.3174 65.7231 16.3675C64.3989 16.457 63.478 17.0228 63.0533 18.3154C62.4072 20.2741 62.8569 21.0046 64.8629 21.1407C65.6553 21.1908 66.3406 21.4021 66.3727 22.283C66.4048 23.1639 65.6588 23.5649 64.9128 23.4252C62.8248 23.0349 62.8105 24.2417 62.8534 25.7527C62.9319 28.3631 62.8855 30.9735 62.8534 33.5839C62.8534 34.5543 63.1354 35.9079 61.6827 35.915C60.1157 35.915 60.4191 34.5114 60.4013 33.4872C60.3906 32.1409 60.4084 30.7658 60.4084 29.4123Z" fill="black"/>
<path d="M68.6644 28.4276C68.6644 26.5298 68.6644 24.6284 68.6644 22.7306C68.6644 22.0646 68.7215 21.3555 69.4782 21.1085C70.2349 20.8614 70.8167 21.1299 71.0951 21.9965C71.3378 22.7592 71.6876 22.1218 71.9196 21.9428C72.7212 21.3236 73.6845 20.9505 74.6929 20.8685C75.4746 20.8005 76.1706 21.0655 76.2777 21.9428C76.3847 22.8201 75.7494 23.017 75.0641 23.1961C71.9981 23.948 71.1736 24.9542 71.1379 28.1018C71.1022 30.1177 71.1379 32.1373 71.1379 34.1533C71.1379 34.9589 71.1201 35.7897 70.0386 35.8363C68.8821 35.89 68.7037 35.0485 68.6929 34.1604C68.6501 32.2268 68.6644 30.329 68.6644 28.4276Z" fill="black"/>
<path d="M25.2374 37.7768C26.6259 37.1716 27.818 37.4975 28.9638 37.4187C30.6913 37.2934 32.0512 36.7025 32.6722 34.9121C32.9721 34.0563 32.7579 33.573 31.8442 33.7341C30.0595 34.0492 29.9275 33.0931 29.9989 31.7038C30.0881 29.9134 30.0809 28.1409 29.9989 26.3648C29.9489 25.2906 30.288 24.9325 31.3944 24.9325C34.6353 24.9325 34.8995 24.5171 34.1963 21.2694C33.1684 16.5105 29.053 13.6673 24.1524 14.3262C19.7265 14.917 16.6176 19.0206 16.8425 23.801C16.896 24.9719 17.4671 24.9611 18.3059 24.9719C21.1613 25.0113 21.1613 25.0292 21.1613 27.8795C21.1613 29.4228 21.1149 30.9697 21.1613 32.5095C21.2006 33.4655 20.8222 33.6875 19.9264 33.7269C15.4898 33.9167 14.1084 32.6527 14.1477 28.2053C14.1691 25.6988 13.9478 23.2173 14.319 20.7358C15.2006 14.8311 20.0299 10.8421 26.0298 11.0677C28.8147 11.1359 31.4698 12.263 33.4578 14.2208C35.4457 16.1786 36.6181 18.8209 36.7376 21.6131C36.8911 24.3345 36.7947 27.0738 36.7626 29.8059C36.7626 30.3825 36.7198 31.1703 36.3664 31.4961C34.6353 33.0896 33.7894 35.281 32.401 37.0785C31.2766 38.5789 27.5932 38.8439 25.2374 37.7768Z" fill="#FEFEFE"/>
<path d="M130.095 28.0273C130.038 28.8509 130.034 29.6816 129.909 30.4981C129.592 32.6179 128.268 33.7924 126.222 33.8497C124.252 33.9034 122.853 32.8614 122.332 30.9099C121.906 29.3632 121.887 27.732 122.278 26.1761C122.821 24.0276 124.349 22.828 126.344 23.0285C128.642 23.2577 130.042 24.8189 130.045 27.1357C130.045 27.4293 130.045 27.7265 130.045 28.0237L130.095 28.0273Z" fill="#FDFDFD"/>
<path d="M141.378 27.0458C140.614 27.0458 139.847 27.0458 139.08 27.0458C137.234 27.0458 137.038 26.6878 137.934 25.0048C138.79 23.3863 140.236 22.8563 141.942 22.996C142.658 23.0045 143.351 23.253 143.911 23.702C144.47 24.1509 144.864 24.7746 145.03 25.4739C145.326 26.5016 145.244 27.2177 143.855 27.0638C143.03 27.013 142.204 27.007 141.378 27.0458Z" fill="#FAFAFA"/>
<path d="M83.3338 27.0463C82.5057 27.0463 81.6741 26.989 80.8353 27.0463C79.3005 27.1752 79.3148 26.4232 79.7645 25.3346C80.0958 24.5322 80.6841 23.8633 81.4363 23.4334C82.1886 23.0036 83.0622 22.8372 83.9191 22.9606C85.6288 23.1324 86.746 23.9883 87.1315 25.75C87.3207 26.6309 87.2207 27.1107 86.1642 27.0463C85.2291 26.9997 84.2796 27.0463 83.3338 27.0463Z" fill="#F9F9F9"/>
</g>
<defs>
<clipPath id="clip0_376_8">
<rect width="173.724" height="49.3289" fill="white" transform="translate(0.941406)"/>
</clipPath>
</defs>
</svg>
