<svg width="70" height="116" viewBox="0 0 70 116" fill="none" xmlns="http://www.w3.org/2000/svg">
<g clip-path="url(#clip0_366_746)">
<path d="M69.0194 43.1153C69.6705 40.4174 69.9996 37.6526 70 34.8779C70 25.6344 66.3125 16.7696 59.7488 10.2335C53.185 3.69738 44.2826 0.0253906 35 0.0253906C25.7175 0.0253906 16.8151 3.69738 10.2513 10.2335C3.68752 16.7696 0 25.6344 0 34.8779C0.000420755 37.6526 0.3296 40.4174 0.98064 43.1153C1.6494 47.7785 2.93446 52.3332 4.80245 56.6608C8.24714 63.8717 22.7299 87.6075 29.3678 98.4238C20.3915 99.5755 16.2177 103.431 16.2177 107.037C16.2177 111.368 22.1013 116 35 116C47.8987 116 53.7824 111.368 53.7824 107.037C53.7824 103.406 49.6085 99.5255 40.6322 98.4238C47.2701 87.6075 61.7529 63.8717 65.1975 56.6608C67.0655 52.3332 68.3507 47.7785 69.0194 43.1153ZM48.3765 107.037C47.9993 108.063 43.4986 110.617 35 110.617C26.5015 110.617 21.9002 108.113 21.6236 107.087C21.8499 106.186 25.546 103.982 32.5359 103.557C32.5861 103.653 32.645 103.746 32.7119 103.832C32.9504 104.223 33.2864 104.546 33.6873 104.77C34.0882 104.994 34.5405 105.111 35 105.109C35.4625 105.108 35.9171 104.99 36.3215 104.767C36.726 104.543 37.0671 104.222 37.3132 103.832L37.4641 103.557C44.2529 103.907 48.0496 106.135 48.3765 107.037ZM9.68033 54.4575C8.01995 50.5508 6.88701 46.4422 6.31109 42.239C6.31109 42.239 6.31109 42.0888 6.31109 42.0387C5.24034 37.6994 5.17457 33.1745 6.11872 28.8061C7.06287 24.4378 8.99221 20.3405 11.7609 16.8241C14.5295 13.3077 18.0649 10.4642 22.0997 8.5088C26.1345 6.55341 30.563 5.53725 35.0503 5.53725C39.5376 5.53725 43.9661 6.55341 48.0009 8.5088C52.0357 10.4642 55.5711 13.3077 58.3397 16.8241C61.1084 20.3405 63.0378 24.4378 63.9819 28.8061C64.9261 33.1745 64.8603 37.6994 63.7895 42.0387C63.7895 42.0387 63.7895 42.0387 63.7895 42.239C63.2136 46.4422 62.0806 50.5508 60.4203 54.4575C56.9253 61.7184 41.0847 87.6326 35.1006 97.3723C29.0158 87.5324 13.1753 61.6183 9.68033 54.3574V54.4575Z" fill="#231F20"/>
<path d="M34.9987 15.1475C31.2768 15.1425 27.6371 16.2374 24.5403 18.2934C21.4436 20.3494 19.0291 23.274 17.6025 26.6972C16.1759 30.1204 15.8013 33.888 16.5262 37.5233C17.2511 41.1586 19.0428 44.4979 21.6746 47.1186C24.3064 49.7393 27.6599 51.5235 31.3105 52.2454C34.9611 52.9672 38.7448 52.5943 42.1824 51.1737C45.6201 49.7531 48.5572 47.3487 50.6218 44.265C52.6865 41.1814 53.786 37.557 53.781 33.8508C53.7743 28.8924 51.7933 24.139 48.2724 20.6329C44.7514 17.1268 39.978 15.1541 34.9987 15.1475ZM21.6222 33.8006C21.6272 31.1673 22.4159 28.5945 23.8887 26.4073C25.3616 24.2201 27.4524 22.5167 29.8971 21.5124C32.3418 20.508 35.0305 20.2478 37.6236 20.7646C40.2167 21.2814 42.5978 22.5519 44.4661 24.4158C46.3343 26.2796 47.6057 28.653 48.1198 31.2362C48.6339 33.8194 48.3676 36.4963 47.3544 38.9288C46.3413 41.3612 44.6268 43.4401 42.4276 44.9026C40.2284 46.3651 37.6432 47.1458 34.9987 47.1458C31.4487 47.1392 28.0464 45.7302 25.5385 43.2282C23.0307 40.7262 21.6222 37.3357 21.6222 33.8006Z" fill="#231F20"/>
</g>
<defs>
<clipPath id="clip0_366_746">
<rect width="70" height="116" fill="white"/>
</clipPath>
</defs>
</svg>
