<svg width="127" height="95" viewBox="0 0 127 95" fill="none" xmlns="http://www.w3.org/2000/svg">
<g clip-path="url(#clip0_363_737)">
<path d="M60.1598 17.2432L49.9203 1.39022C49.6504 0.9597 49.2738 0.605798 48.8267 0.362337C48.3797 0.118876 47.8772 -0.00585908 47.3678 0.000211445H3.05587C2.26872 0.000211445 1.51384 0.311683 0.957236 0.866352C0.400631 1.42102 0.0878906 2.17345 0.0878906 2.95787V91.8653C0.0878906 92.6497 0.400631 93.4017 0.957236 93.9564C1.51384 94.5111 2.26872 94.8229 3.05587 94.8229H109.725C110.512 94.8229 111.267 94.5111 111.824 93.9564C112.38 93.4017 112.693 92.6497 112.693 91.8653V53.9183C115.611 52.8856 118.268 51.2329 120.48 49.0745C122.692 46.9161 124.407 44.3038 125.504 41.419C126.602 38.5342 127.056 35.4462 126.837 32.3687C126.617 29.2913 125.727 26.2982 124.231 23.5976C122.734 20.8969 120.665 18.5533 118.168 16.7291C115.671 14.9049 112.806 13.644 109.771 13.0338C106.736 12.4236 103.605 12.4789 100.593 13.1956C97.5821 13.9123 94.7634 15.2734 92.3329 17.1844L60.1598 17.2432ZM122.102 33.9245C122.107 37.1794 121.144 40.363 119.333 43.0718C117.522 45.7807 114.945 47.893 111.929 49.1413C108.912 50.3896 105.591 50.7176 102.388 50.084C99.1838 49.4504 96.2406 47.8838 93.931 45.5822C91.6213 43.2806 90.0492 40.3478 89.4134 37.1551C88.7776 33.9624 89.1069 30.6534 90.3596 27.6474C91.6122 24.6413 93.732 22.0735 96.4502 20.2688C99.1685 18.4641 102.363 17.5038 105.629 17.5097C109.996 17.5175 114.181 19.2493 117.268 22.326C120.356 25.4027 122.094 29.5733 122.102 33.9245ZM6.11289 88.878V6.06356H45.7058L55.9156 21.9462C56.1882 22.381 56.5695 22.7376 57.0222 22.9813C57.4749 23.225 57.9834 23.3474 58.4978 23.3362H87.1092C85.2382 26.5715 84.2551 30.2406 84.2588 33.9747C84.2624 37.7087 85.2525 41.376 87.1296 44.6077C89.0068 47.8394 91.7048 50.5213 94.9523 52.3842C98.1998 54.2471 101.882 55.2252 105.629 55.2198H106.668V88.9076L6.11289 88.878Z" fill="#231F20"/>
<path d="M101.476 38.6574L98.864 35.6997C98.5396 35.344 98.0898 35.1266 97.6086 35.0935C97.1274 35.0605 96.652 35.2141 96.2817 35.5221C95.9137 35.8371 95.6855 36.2844 95.6466 36.7662C95.6076 37.2481 95.7613 37.7257 96.0741 38.0952L99.9027 42.5317C100.059 42.7224 100.253 42.8786 100.472 42.9906C100.692 43.1026 100.933 43.1679 101.179 43.1823C101.629 43.1782 102.062 43.0101 102.396 42.7094L116.761 29.9913C116.972 29.842 117.149 29.6502 117.281 29.4281C117.412 29.2059 117.495 28.9586 117.524 28.7024C117.554 28.4461 117.528 28.1864 117.45 27.9406C117.371 27.6947 117.242 27.4684 117.07 27.2759C116.897 27.0833 116.686 26.9289 116.45 26.8231C116.214 26.7174 115.958 26.6626 115.699 26.6621C115.441 26.6616 115.185 26.7155 114.948 26.8202C114.712 26.925 114.5 27.0783 114.327 27.2701L101.476 38.6574Z" fill="#231F20"/>
<path d="M23.446 61.7852V60.3064C23.4501 59.924 23.5606 59.5502 23.7649 59.2265C23.9692 58.9028 24.2595 58.642 24.6035 58.4726L39.7402 49.5997C40.1068 49.3446 40.5398 49.2007 40.9868 49.1855C41.2337 49.1885 41.4773 49.2426 41.7021 49.3444C41.9269 49.4462 42.1281 49.5935 42.2927 49.7769C42.485 49.9533 42.6374 50.1687 42.7398 50.4084C42.8421 50.6481 42.8921 50.9069 42.8863 51.1673C42.9075 51.4797 42.841 51.7916 42.6942 52.0685C42.5474 52.3453 42.3262 52.576 42.0553 52.7346L27.8682 61.0754L42.0553 69.3862C42.3264 69.5592 42.5463 69.8014 42.6924 70.0874C42.8385 70.3733 42.9055 70.6928 42.8863 71.0131C42.8902 71.2732 42.8395 71.5315 42.7372 71.7709C42.635 72.0103 42.4835 72.2255 42.2927 72.4031C42.1266 72.5826 41.9245 72.7255 41.6996 72.8223C41.4746 72.9191 41.2318 72.9678 40.9868 72.9652C40.5439 72.9525 40.1128 72.8196 39.7402 72.5807L24.6035 63.7077C24.2409 63.538 23.9371 63.2645 23.731 62.9221C23.5249 62.5798 23.4256 62.1839 23.446 61.7852Z" fill="black"/>
<path d="M64.7923 50.0142L49.2104 76.3963C49.0814 76.5895 48.904 76.746 48.6958 76.8498C48.4875 76.9535 48.2556 77.0011 48.0232 76.988C47.5096 76.981 47.0152 76.7921 46.6282 76.4555C46.4201 76.3091 46.2515 76.1139 46.1376 75.8869C46.0236 75.6598 45.9679 75.4081 45.9753 75.1543C45.9927 74.622 46.1459 74.1028 46.4204 73.6459L62.0618 47.293C62.1823 47.0899 62.3572 46.9243 62.5668 46.8146C62.7765 46.705 63.0128 46.6556 63.249 46.672C63.7568 46.6826 64.2468 46.8591 64.6439 47.1746C64.8461 47.3199 65.0106 47.5113 65.1241 47.7324C65.2377 47.9535 65.2968 48.1982 65.2968 48.4466C65.2808 49.0061 65.1059 49.5498 64.7923 50.0142Z" fill="black"/>
<path d="M89.3365 60.3064V61.7852C89.3351 62.1645 89.229 62.5359 89.0302 62.8593C88.8313 63.1827 88.5471 63.4455 88.2086 63.6189L73.072 72.4919C72.6908 72.736 72.2486 72.8691 71.7956 72.8764C71.3078 72.8726 70.8402 72.6818 70.4897 72.3439C70.2973 72.1675 70.1449 71.9525 70.0426 71.7128C69.9402 71.4731 69.8904 71.2143 69.8962 70.9539C69.8749 70.6305 69.9475 70.3082 70.1054 70.0249C70.2634 69.7416 70.4998 69.5094 70.7866 69.3566L84.9142 60.9866L70.7866 52.7053C70.5534 52.5444 70.3581 52.3348 70.2141 52.0912C70.0702 51.8477 69.981 51.576 69.9527 51.2948C69.9245 51.0135 69.9578 50.7293 70.0506 50.4622C70.1433 50.1951 70.2931 49.9514 70.4897 49.7477C70.658 49.571 70.8605 49.4298 71.0849 49.3332C71.3094 49.2366 71.5511 49.1865 71.7956 49.1855C72.2494 49.2131 72.6889 49.3556 73.072 49.5997L88.2086 58.4726C88.5493 58.6433 88.8354 58.9054 89.0347 59.2294C89.2339 59.5534 89.3384 59.9264 89.3365 60.3064Z" fill="black"/>
</g>
<defs>
<clipPath id="clip0_363_737">
<rect width="127" height="95" fill="white"/>
</clipPath>
</defs>
</svg>
