<svg width="92" height="103" viewBox="0 0 92 103" fill="none" xmlns="http://www.w3.org/2000/svg">
<path d="M45.9994 103C57.6072 102.989 68.7818 98.559 77.2822 90.5984C85.7826 82.6379 90.9801 71.7353 91.8326 60.0772C92.6851 48.419 89.1294 36.8672 81.8787 27.7386C74.6279 18.6099 64.2182 12.5794 52.7372 10.8563C53.2971 9.80231 53.5876 8.62451 53.5824 7.42917C53.4773 5.52725 52.653 3.73794 51.2789 2.42893C49.9048 1.11993 48.0851 0.390625 46.1936 0.390625C44.302 0.390625 42.4823 1.11993 41.1082 2.42893C39.7341 3.73794 38.9099 5.52725 38.8048 7.42917C38.8063 8.60353 39.08 9.76125 39.6042 10.8103C28.0869 12.4571 17.6169 18.4371 10.3023 27.5462C2.98761 36.6553 -0.628465 48.2171 0.182227 59.9035C0.992919 71.5899 6.17015 82.533 14.6714 90.5294C23.1727 98.5258 34.3667 102.982 45.9994 103ZM46.1821 4.94499C46.6764 4.94044 47.1609 5.08414 47.5738 5.35787C47.9867 5.6316 48.3093 6.02292 48.5006 6.48197C48.6918 6.94101 48.743 7.44708 48.6477 7.93555C48.5524 8.42403 48.3148 8.87288 47.9653 9.22489C47.6157 9.5769 47.1701 9.81609 46.685 9.91209C46.2 10.0081 45.6975 9.95658 45.2417 9.76398C44.7859 9.57138 44.3973 9.24648 44.1255 8.83067C43.8537 8.41487 43.7109 7.92697 43.7154 7.42917C43.7154 6.77033 43.9753 6.13849 44.4379 5.67262C44.9005 5.20676 45.5279 4.94499 46.1821 4.94499ZM45.9994 15.2956C54.1307 15.2956 62.0792 17.7239 68.8401 22.2732C75.601 26.8226 80.8705 33.2887 83.9821 40.854C87.0938 48.4193 87.908 56.744 86.3217 64.7753C84.7354 72.8066 80.8198 80.1837 75.0701 85.9739C69.3205 91.7641 61.995 95.7073 54.02 97.3048C46.045 98.9024 37.7787 98.0825 30.2665 94.9488C22.7542 91.8152 16.3333 86.5085 11.8159 79.6999C7.29839 72.8913 4.88722 64.8866 4.88722 56.698C4.88722 45.7174 9.21864 35.1866 16.9287 27.4221C24.6387 19.6577 35.0958 15.2956 45.9994 15.2956Z" fill="#231F20"/>
<path d="M46.0013 90.9935C52.7412 90.9935 59.3297 88.9806 64.9337 85.2097C70.5377 81.4388 74.9055 76.0792 77.4848 69.8084C80.064 63.5376 80.7388 56.6374 79.424 49.9804C78.1091 43.3233 74.8635 37.2085 70.0977 32.409C65.3319 27.6095 59.2598 24.341 52.6495 23.0168C46.0391 21.6927 39.1872 22.3723 32.9604 24.9698C26.7336 27.5672 21.4114 31.9659 17.667 37.6094C13.9225 43.253 11.9238 49.8879 11.9238 56.6754C11.9359 65.7733 15.5301 74.4952 21.9183 80.9284C28.3064 87.3617 36.9671 90.9813 46.0013 90.9935ZM76.1502 56.6754C76.1502 62.6804 74.3821 68.5506 71.0693 73.5435C67.7565 78.5365 63.0478 82.4281 57.5388 84.7261C52.0298 87.0241 45.9679 87.6254 40.1195 86.4539C34.2712 85.2823 28.8992 82.3905 24.6828 78.1444C20.4664 73.8982 17.5949 68.4883 16.4316 62.5987C15.2683 56.7091 15.8654 50.6044 18.1473 45.0565C20.4292 39.5086 24.2935 34.7667 29.2515 31.4305C34.2094 28.0943 40.0384 26.3136 46.0013 26.3136C53.9955 26.3197 61.6604 29.5205 67.3131 35.2131C72.9659 40.9057 76.1442 48.6248 76.1502 56.6754Z" fill="#231F20"/>
<path d="M31.0401 74.2022C31.242 74.2062 31.4406 74.1502 31.6111 74.0412L44.3559 65.1627C44.8968 65.2755 45.4481 65.3295 46.0004 65.3237C48.2781 65.3237 50.4624 64.4126 52.073 62.7907C53.6835 61.1688 54.5883 58.9689 54.5883 56.6752C54.6117 56.392 54.6117 56.1074 54.5883 55.8242L65.4145 38.6422C65.533 38.4496 65.5839 38.2225 65.5591 37.9973C65.5342 37.7721 65.4351 37.5618 65.2775 37.4001C65.1064 37.26 64.8927 37.1836 64.6722 37.1836C64.4517 37.1836 64.238 37.26 64.067 37.4001L47.1195 48.2107C46.7621 48.1879 46.4035 48.1879 46.0461 48.2107C44.6729 48.2069 43.3188 48.5348 42.0975 49.1668C40.8761 49.7988 39.823 50.7165 39.0266 51.843C38.2302 52.9695 37.7136 54.2719 37.5202 55.641C37.3268 57.01 37.4621 58.4059 37.915 59.7114L30.2407 72.9832C30.1336 73.1783 30.0935 73.4035 30.1265 73.624C30.1595 73.8444 30.2639 74.0477 30.4234 74.2022C30.6231 74.2723 30.8404 74.2723 31.0401 74.2022ZM49.5863 48.9007L61.3718 41.3794L53.8802 53.2711C53.0741 51.3255 51.5868 49.7458 49.7005 48.8318L49.5863 48.9007ZM46.0004 53.0411C46.7277 53.0411 47.4387 53.2582 48.0434 53.6651C48.6481 54.072 49.1194 54.6504 49.3977 55.3271C49.676 56.0037 49.7489 56.7484 49.607 57.4667C49.4651 58.1851 49.1149 58.8449 48.6006 59.3628C48.0863 59.8807 47.4311 60.2334 46.7178 60.3763C46.0045 60.5192 45.2651 60.4458 44.5932 60.1656C43.9213 59.8853 43.3469 59.4107 42.9428 58.8017C42.5388 58.1927 42.3231 57.4767 42.3231 56.7443C42.314 56.2522 42.4025 55.7631 42.5832 55.3059C42.7639 54.8486 43.0332 54.4322 43.3756 54.081C43.718 53.7297 44.1265 53.4508 44.5772 53.2604C45.0278 53.07 45.5117 52.9719 46.0004 52.972V53.0411ZM42.049 64.5418L34.1007 70.085L38.92 61.7586C39.7387 62.8673 40.8124 63.7592 42.049 64.3577V64.5418Z" fill="#231F20"/>
<path d="M17.1973 56.6756C17.1973 56.9379 17.3007 57.1895 17.4849 57.375C17.6691 57.5605 17.919 57.6646 18.1794 57.6646H25.4426C25.7031 57.6646 25.9528 57.5605 26.137 57.375C26.3212 57.1895 26.4247 56.9379 26.4247 56.6756C26.4247 56.4132 26.3212 56.1618 26.137 55.9763C25.9528 55.7908 25.7031 55.6865 25.4426 55.6865H18.1794C18.0505 55.6865 17.9227 55.7121 17.8035 55.7618C17.6844 55.8115 17.5761 55.8844 17.4849 55.9763C17.3937 56.0681 17.3214 56.1771 17.2721 56.2971C17.2227 56.4171 17.1973 56.5457 17.1973 56.6756Z" fill="#231F20"/>
<path d="M66.945 57.6646H74.2082C74.4687 57.6646 74.7185 57.5605 74.9027 57.375C75.0868 57.1895 75.1903 56.9379 75.1903 56.6756C75.1903 56.4132 75.0868 56.1618 74.9027 55.9763C74.7185 55.7908 74.4687 55.6865 74.2082 55.6865H66.945C66.6845 55.6865 66.4347 55.7908 66.2506 55.9763C66.0664 56.1618 65.9629 56.4132 65.9629 56.6756C65.9629 56.9379 66.0664 57.1895 66.2506 57.375C66.4347 57.5605 66.6845 57.6646 66.945 57.6646Z" fill="#231F20"/>
<path d="M46.1813 36.7565C46.4418 36.7565 46.6917 36.6522 46.8758 36.4667C47.06 36.2813 47.1635 36.0298 47.1635 35.7675V28.453C47.1635 28.1907 47.06 27.9391 46.8758 27.7536C46.6917 27.5681 46.4418 27.4639 46.1813 27.4639C45.9227 27.4697 45.6762 27.5759 45.4933 27.7601C45.3104 27.9443 45.205 28.1926 45.1992 28.453V35.7675C45.1992 36.0298 45.3027 36.2813 45.4869 36.4667C45.6711 36.6522 45.9209 36.7565 46.1813 36.7565Z" fill="#231F20"/>
<path d="M46.1813 76.5938C45.9209 76.5938 45.6711 76.6979 45.4869 76.8834C45.3027 77.0689 45.1992 77.3205 45.1992 77.5828V84.8972C45.205 85.1577 45.3104 85.4058 45.4933 85.59C45.6762 85.7743 45.9227 85.8804 46.1813 85.8862C46.4418 85.8862 46.6917 85.7821 46.8758 85.5966C47.06 85.4111 47.1635 85.1595 47.1635 84.8972V77.5598C47.1575 77.3015 47.0514 77.0558 46.8678 76.8752C46.6843 76.6947 46.4379 76.5937 46.1813 76.5938Z" fill="#231F20"/>
</svg>
