<svg width="119" height="85" viewBox="0 0 119 85" fill="none" xmlns="http://www.w3.org/2000/svg">
<g clip-path="url(#clip0_363_203)">
<path d="M30.5615 48.1404C35.3253 48.1346 39.9805 46.7188 43.9387 44.072C47.8969 41.4252 50.9803 37.6662 52.7994 33.27C54.6184 28.8738 55.0913 24.0379 54.1584 19.3734C53.2255 14.7089 50.9286 10.4253 47.558 7.06388C44.1874 3.7025 39.8944 1.41428 35.2217 0.488442C30.549 -0.4374 25.7062 0.0406401 21.3055 1.86224C16.9049 3.68384 13.1438 6.76723 10.4978 10.7226C7.85174 14.6779 6.43946 19.3277 6.43945 24.0843C6.45494 30.4647 9.00225 36.579 13.5235 41.0878C18.0447 45.5967 24.1713 48.1327 30.5615 48.1404ZM18.0321 11.5156C19.6706 9.86204 21.6222 8.55048 23.7732 7.65725C25.9243 6.76402 28.2318 6.30696 30.5615 6.31271C32.9498 6.21577 35.3332 6.60178 37.5684 7.44754C39.8036 8.29329 41.8446 9.58132 43.5688 11.2343C45.293 12.8874 46.6649 14.8713 47.602 17.0669C48.5391 19.2625 49.0222 21.6246 49.0222 24.0113C49.0222 26.398 48.5391 28.7601 47.602 30.9557C46.6649 33.1514 45.293 35.1352 43.5688 36.7882C41.8446 38.4412 39.8036 39.7294 37.5684 40.5751C35.3332 41.4209 32.9498 41.8068 30.5615 41.7098C25.8615 41.7099 21.3537 39.8477 18.0276 36.5321C14.7015 33.2166 12.829 28.7187 12.8212 24.0259C12.8155 21.6998 13.2732 19.3958 14.1678 17.248C15.0624 15.1002 16.376 13.1516 18.0321 11.5156Z" fill="#231F20"/>
<path d="M88.4677 48.1404C93.2316 48.1346 97.8867 46.7188 101.845 44.072C105.803 41.4252 108.887 37.6662 110.706 33.27C112.525 28.8738 112.998 24.0379 112.065 19.3734C111.132 14.7089 108.835 10.4253 105.464 7.06388C102.094 3.7025 97.8007 1.41428 93.1279 0.488442C88.4552 -0.4374 83.6125 0.0406401 79.2118 1.86224C74.8111 3.68384 71.0501 6.76723 68.404 10.7226C65.758 14.6779 64.3457 19.3277 64.3457 24.0843C64.3612 30.4647 66.9085 36.579 71.4297 41.0878C75.951 45.5967 82.0776 48.1327 88.4677 48.1404ZM75.9383 11.5156C77.5768 9.86204 79.5284 8.55048 81.6795 7.65725C83.8305 6.76402 86.1381 6.30696 88.4677 6.31271C90.8561 6.21577 93.2394 6.60178 95.4746 7.44754C97.7099 8.29329 99.7509 9.58132 101.475 11.2343C103.199 12.8874 104.571 14.8713 105.508 17.0669C106.445 19.2625 106.928 21.6246 106.928 24.0113C106.928 26.398 106.445 28.7601 105.508 30.9557C104.571 33.1514 103.199 35.1352 101.475 36.7882C99.7509 38.4412 97.7099 39.7294 95.4746 40.5751C93.2394 41.4209 90.8561 41.8068 88.4677 41.7098C83.7678 41.7099 79.2599 39.8477 75.9338 36.5321C72.6077 33.2166 70.7353 28.7187 70.7275 24.0259C70.7217 21.6998 71.1795 19.3958 72.0741 17.248C72.9687 15.1002 74.2822 13.1516 75.9383 11.5156Z" fill="#231F20"/>
<path d="M119 81.9312C119 81.0543 119.556 60.7396 106.734 49.0185C106.181 48.5129 105.466 48.2183 104.717 48.1862C103.967 48.1541 103.231 48.3867 102.636 48.8432C99.8632 50.8257 96.713 52.2195 93.3798 52.9384C90.0465 53.6573 86.601 53.6862 83.2562 53.0231C83.0348 51.1697 82.2473 49.4291 81.0008 48.0381C79.7543 46.6471 78.1092 45.673 76.2889 45.248C73.6305 44.5924 70.8301 44.8265 68.318 45.9143C65.8058 47.0021 63.7209 48.8835 62.3836 51.2693C62.2512 51.4883 62.0674 51.6719 61.8481 51.8043C61.6288 51.9367 61.3806 52.0139 61.1248 52.0292C60.8627 52.024 60.6065 51.9513 60.3808 51.8181C60.1551 51.685 59.9677 51.496 59.8367 51.2693C58.7398 49.3067 57.1393 47.671 55.1997 46.5306C53.2601 45.3902 51.0512 44.786 48.8003 44.7803C47.8127 44.7888 46.8298 44.9164 45.8729 45.1603C44.2636 45.5705 42.7947 46.4058 41.6202 47.5785C40.4458 48.7511 39.6092 50.2178 39.1983 51.8246C35.6452 53.4325 31.7111 54.0111 27.8446 53.4942C23.9781 52.9774 20.3349 51.3861 17.3304 48.9017C16.7586 48.4157 16.0322 48.1488 15.2812 48.1488C14.5303 48.1488 13.8039 48.4157 13.232 48.9017C12.7051 49.3693 0.380636 60.3012 0.0586191 81.7558C0.0569395 82.1787 0.138817 82.5977 0.299564 82.989C0.46031 83.3802 0.696767 83.7359 0.995395 84.0358C1.28828 84.3357 1.63903 84.5733 2.02647 84.734C2.41391 84.8948 2.82997 84.9755 3.24951 84.9711H58.051C58.5341 84.6856 59.0851 84.535 59.6464 84.535C60.2078 84.535 60.7588 84.6856 61.2419 84.9711H115.956C116.751 84.9354 117.505 84.6037 118.069 84.0412C118.632 83.4787 118.964 82.726 119 81.9312ZM6.52823 78.7452C7.05893 70.2984 10.2333 62.2313 15.6033 55.6829C19.1014 57.9746 23.0815 59.4305 27.2345 59.9374C31.3875 60.4443 35.6016 59.9886 39.5496 58.6059C41.833 65.2995 49.1516 72.5777 54.5088 77.2544C54.5088 77.7806 54.5088 78.2775 54.5088 78.7159L6.52823 78.7452ZM42.5942 54.6891C42.4471 53.3707 42.7931 52.0446 43.5658 50.9655C44.3386 49.8865 45.4834 49.1306 46.7804 48.8432C47.4381 48.6619 48.118 48.5733 48.8003 48.5801C50.3878 48.5918 51.9435 49.0258 53.3071 49.8376C54.6707 50.6494 55.7929 51.8095 56.558 53.1984C57.03 53.9971 57.7018 54.6596 58.5076 55.1207C59.3133 55.5819 60.2253 55.826 61.1541 55.8291C62.0833 55.8158 62.9925 55.5573 63.7893 55.0799C64.5862 54.6025 65.2425 53.9231 65.6916 53.1108C66.6317 51.471 68.0771 50.1783 69.8126 49.4251C71.548 48.6719 73.4807 48.4985 75.3228 48.9308C76.6093 49.1851 77.7567 49.9043 78.5453 50.9506C79.3339 51.9968 79.7083 53.2967 79.5969 54.6014C79.5969 60.7397 70.4926 70.4732 61.0955 77.7806C53.7477 71.9639 42.5942 61.4412 42.5942 54.5722V54.6891ZM66.0136 78.7452C71.1951 74.4484 79.4505 66.7318 82.3487 59.4828C89.8492 60.9942 97.6446 59.6046 104.158 55.5952C110.657 62.9319 112.179 73.5715 112.53 78.7452H66.0136Z" fill="#231F20"/>
</g>
<defs>
<clipPath id="clip0_363_203">
<rect width="119" height="85" fill="white"/>
</clipPath>
</defs>
</svg>
