<svg id="Layer_1" data-name="Layer 1" xmlns="http://www.w3.org/2000/svg" viewBox="0 0 546 137"><defs><style>.cls-1{fill:#4d4d4d;}.cls-2{fill:#9b65c3;}.cls-3{fill:#be63c5;}.cls-4{fill:#bf63c6;}.cls-5{fill:#3278b1;}.cls-6{fill:#3278b2;}.cls-7{fill:#45a4ec;}.cls-8{fill:#19bb7d;}.cls-9{fill:#08c7fb;}.cls-10{fill:#59f2f6;}.cls-11{fill:#da3757;}.cls-12{fill:#d33c4e;}.cls-13{fill:#ee5a24;}.cls-14{fill:#8bdf55;}.cls-15{fill:#25c16f;}.cls-16{fill:#fb0;}.cls-17{fill:#ffa800;}</style></defs><path class="cls-1" d="M141,24c-13,0-17.58,9.05-17.58,17.49v5.17h-2.76a3.54,3.54,0,0,0,0,7.07h2.76V89.42a3.79,3.79,0,1,0,7.58,0V53.75h8.36a3.54,3.54,0,0,0,0-7.07H131V41.51c0-4.74,1.72-10.34,10.08-10.34a3.49,3.49,0,0,0,3.53-3.53A3.63,3.63,0,0,0,141,24"/><path class="cls-1" d="M170.26,45.47c-5.6,0-10.34,2.33-13,6.12v-2a3.79,3.79,0,1,0-7.58,0V89.42a3.79,3.79,0,1,0,7.58,0v-22c0-9.22,4.91-14.74,13-14.74a3.64,3.64,0,0,0,3.62-3.62,3.54,3.54,0,0,0-3.62-3.62"/><path class="cls-1" d="M216.35,65c0-2.15-.34-7.75-3.61-12.4-3.36-4.83-8.62-7.33-15.77-7.33-13.27,0-20.85,8.79-20.85,24.13,0,15.85,7.58,24.29,21.8,24.29,9.56,0,14.82-4.73,15.76-5.68a3.61,3.61,0,0,0,1.3-2.67,3.46,3.46,0,0,0-3.45-3.45,3.37,3.37,0,0,0-2.15.69c-2.76,2.07-5.95,4.14-11.38,4.14-8.53,0-13.95-5.61-14.21-14.74h28c4.56-.08,4.56-4.22,4.56-7M197,52.2c7.75,0,11.8,4.39,12,13H183.87c.69-8.36,5.34-13,13.1-13"/><path class="cls-1" d="M241.69,65.64c-5.6-1.9-10.43-3.62-10.43-7.76,0-4.56,5.08-5.25,8.1-5.25,5.43,0,8.1,1.89,10.25,4a3.48,3.48,0,0,0,5.95-2.41,3.76,3.76,0,0,0-.78-2.24c-3.19-4.23-8.61-6.55-15.42-6.55-9.65,0-15.6,4.82-15.6,12.49,0,9.39,8.28,12.24,15.51,14.65,5.52,1.89,10.26,3.45,10.26,7.49,0,5.52-6.12,6.38-9.83,6.38a16.38,16.38,0,0,1-12.06-4.65,3.62,3.62,0,0,0-2.58-1.12,3.45,3.45,0,0,0-3.45,3.44,3.68,3.68,0,0,0,.86,2.24c2.85,3.62,9.31,7.33,17.23,7.33,10.86,0,17.32-5.09,17.32-13.53,0-9.13-8.1-12-15.33-14.47"/><path class="cls-1" d="M286.4,45.3c-5.17,0-9.82,2.07-12.4,5.34V25.14a3.8,3.8,0,0,0-7.59,0V89.5a3.8,3.8,0,0,0,7.59,0V65.29c0-8.7,4.22-13.09,12.4-13.09,7.93,0,11.2,3.61,11.2,12.4V89.5a3.8,3.8,0,0,0,7.59,0V63.31c-.18-12-6.47-18-18.79-18"/><path class="cls-1" d="M367.82,45.91a3.69,3.69,0,0,0-3.53,2.49L353.52,79.08,344.73,48.4a3.75,3.75,0,0,0-7.06,0L328.88,79,318.11,48.32a3.62,3.62,0,0,0-3.53-2.41,3.76,3.76,0,0,0-3.79,3.79,3.38,3.38,0,0,0,.34,1.55l14.39,39.54a3.61,3.61,0,0,0,3.53,2.42,3.73,3.73,0,0,0,3.62-2.67l8.44-29,8.45,29a3.8,3.8,0,0,0,3.62,2.67,3.7,3.7,0,0,0,3.53-2.5L371.1,51.16a3.72,3.72,0,0,0,.34-1.64,3.52,3.52,0,0,0-3.62-3.61"/><path class="cls-1" d="M395.22,45.3c-13.7,0-21.19,8.62-21.19,24.13,0,15.68,7.49,24.29,21.19,24.29s21.2-8.61,21.2-24.29-7.58-24.13-21.2-24.13m0,41.53c-9.13,0-13.61-5.69-13.61-17.32,0-11.46,4.57-17.23,13.61-17.23s13.62,5.77,13.62,17.23c0,11.63-4.48,17.32-13.62,17.32"/><path class="cls-1" d="M445.54,45.47c-5.6,0-10.34,2.33-13,6.12v-2a3.79,3.79,0,1,0-7.58,0V89.42a3.79,3.79,0,1,0,7.58,0v-22c0-9.22,4.91-14.74,13-14.74a3.62,3.62,0,1,0,0-7.24"/><path class="cls-1" d="M474.14,65.12l15.6-12.49a3.81,3.81,0,0,0-2.33-6.81,3.7,3.7,0,0,0-2.58,1L462.69,64.86V25.14a3.8,3.8,0,0,0-7.59,0V89.5a3.8,3.8,0,0,0,7.59,0V74l5.25-4.22,17,21.8h0a4.16,4.16,0,0,0,3.19,1.72,3.76,3.76,0,0,0,3.79-3.79,3.52,3.52,0,0,0-.77-2.32Z"/><path class="cls-1" d="M516.62,65.64C511,63.74,506.2,62,506.2,57.88c0-4.56,5.08-5.25,8.09-5.25,5.43,0,8.1,1.89,10.26,4a3.47,3.47,0,0,0,5.94-2.41,4.39,4.39,0,0,0-.77-2.24c-3.19-4.23-8.62-6.55-15.43-6.55-9.65,0-15.59,4.82-15.59,12.49,0,9.39,8.27,12.24,15.51,14.65,5.51,1.89,10.25,3.45,10.25,7.49,0,5.52-6.12,6.38-9.82,6.38a16.36,16.36,0,0,1-12.06-4.65A3.51,3.51,0,0,0,500,80.63a3.45,3.45,0,0,0-3.44,3.44,3.62,3.62,0,0,0,.86,2.24c2.84,3.62,9.3,7.33,17.23,7.33,10.86,0,17.32-5.09,17.32-13.53,0-9.13-8.1-12-15.34-14.47"/><path class="cls-2" d="M15.52,87.35A44.37,44.37,0,0,0,27.92,112L43,96.91A44.15,44.15,0,0,1,65.06,58.66Z"/><path class="cls-2" d="M43,96.91A43.77,43.77,0,0,1,20.94,91a46.36,46.36,0,0,1-5.42-3.71,44.34,44.34,0,0,0,12.4,24.64Z"/><path class="cls-3" d="M43,96.91h0L27.92,112A43.6,43.6,0,0,0,52.57,124.4l28.6-49.54A43.92,43.92,0,0,1,43,96.91"/><path class="cls-4" d="M49,119.05a43.72,43.72,0,0,1-6-22L27.92,112.08a43.65,43.65,0,0,0,24.65,12.4A56.92,56.92,0,0,1,49,119.05"/><path class="cls-5" d="M99.18,39l-34,19.73a44,44,0,0,1-44.11,0A43.6,43.6,0,0,0,15.09,80.8a41.74,41.74,0,0,0,.51,6.55A47.25,47.25,0,0,0,21,91.05a43.76,43.76,0,0,0,22.06,6l57-57a12.15,12.15,0,0,0-.95-1"/><path class="cls-6" d="M20.94,91.05A43.78,43.78,0,0,0,43,97,44.18,44.18,0,0,1,65.06,58.74L15.43,87.35c1.81,1.29,3.62,2.58,5.51,3.7"/><path class="cls-7" d="M20.94,58.74A43.6,43.6,0,0,0,15,80.8a40.58,40.58,0,0,0,.52,6.55L65.14,58.74a44.44,44.44,0,0,1-44.2,0"/><path class="cls-8" d="M100.13,39.87a11.82,11.82,0,0,0-.95-.86,8,8,0,0,0-1.38-.95,11.06,11.06,0,0,0-5.51-1.46H59.2A44.17,44.17,0,0,0,20.94,58.66a44.12,44.12,0,0,0,44.12,0A44.15,44.15,0,0,0,43,96.91a44.17,44.17,0,0,0,38.26-22l19.64-34a11.69,11.69,0,0,0-.77-1"/><path class="cls-9" d="M65.14,58.74l34-19.64a7.5,7.5,0,0,0-1.38-1L20.94,58.74a44.44,44.44,0,0,0,44.2,0"/><path class="cls-10" d="M92.29,36.6H59.2A44.17,44.17,0,0,0,20.94,58.66L97.8,38.06a11.7,11.7,0,0,0-5.51-1.46"/><path class="cls-11" d="M81.26,74.86l19.64-34a10.4,10.4,0,0,0-.86-1l-57,57A43.76,43.76,0,0,0,49,119a47.25,47.25,0,0,0,3.7,5.43,41.74,41.74,0,0,0,6.55.51A43.6,43.6,0,0,0,81.26,119a44,44,0,0,1,0-44.11"/><path class="cls-12" d="M43,96.91h0A43.76,43.76,0,0,0,49,119a47.25,47.25,0,0,0,3.7,5.43L81.26,74.86A44.17,44.17,0,0,1,43,96.91"/><path class="cls-13" d="M81.26,74.86,52.65,124.48a40.58,40.58,0,0,0,6.55.52,43.51,43.51,0,0,0,22.06-6,44.2,44.2,0,0,1,0-44.19"/><path class="cls-14" d="M101.85,42.2a7.5,7.5,0,0,0-.95-1.38A12.9,12.9,0,0,0,99.09,39L65.14,58.74A44.17,44.17,0,0,0,43.09,97,44.15,44.15,0,0,0,81.34,74.94a44.1,44.1,0,0,0,0,44.11A44.14,44.14,0,0,0,103.4,80.8V47.71a11.47,11.47,0,0,0-1.55-5.51"/><path class="cls-15" d="M99.18,39l-34,19.73A44.17,44.17,0,0,0,43.09,97l57-57a12.15,12.15,0,0,0-.95-1"/><path class="cls-14" d="M43,96.91a44.17,44.17,0,0,0,38.26-22l19.64-34a10.4,10.4,0,0,0-.86-1Z"/><path class="cls-16" d="M100.9,40.82l-19.64,34a44,44,0,0,0,0,44.11l20.59-76.86a11.81,11.81,0,0,0-.95-1.29"/><path class="cls-17" d="M81.26,119.05a44.15,44.15,0,0,0,22-38.25V47.71a11,11,0,0,0-1.46-5.51Z"/></svg>