<svg width="147" height="20" viewBox="0 0 147 20" fill="none" xmlns="http://www.w3.org/2000/svg">
<path fill-rule="evenodd" clip-rule="evenodd" d="M41.6021 0.283622L41.2754 0.571562L41.2405 9.62111C41.216 16.0121 41.2438 18.8048 41.3353 19.1274C41.5126 19.7526 42.0671 20.0116 42.6731 19.752C42.9145 19.6486 43.1286 19.4498 43.1969 19.2653C43.2649 19.0821 43.3126 17.3653 43.3126 15.1046C43.3126 10.6885 43.3633 10.346 44.1445 9.47732C44.7796 8.77101 45.439 8.52627 46.6896 8.53295C48.2466 8.54118 48.9966 9.01587 49.4266 10.2651C49.5656 10.6688 49.5988 11.5454 49.5988 14.8113C49.5988 19.3236 49.6302 19.5481 50.2947 19.7854C50.7408 19.9448 51.3686 19.7278 51.5684 19.3449C51.7731 18.9529 51.7326 11.1198 51.5206 10.0939C51.0907 8.01387 49.8564 6.94921 47.57 6.68645C45.9605 6.50137 44.6317 6.82833 43.7432 7.62784L43.3126 8.01542V4.35441V0.693278L42.9724 0.344479C42.5458 -0.0927418 42.0538 -0.114579 41.6021 0.283622ZM96.7806 0.283622L96.4539 0.571562L96.4227 9.7402C96.3992 16.6232 96.426 18.9944 96.53 19.2519C96.6122 19.4554 96.8263 19.6625 97.056 19.7608C97.3895 19.9038 97.5001 19.9025 97.8515 19.752C98.093 19.6486 98.307 19.4498 98.3754 19.2653C98.439 19.0938 98.494 17.9501 98.4976 16.7238L98.5041 14.4941L99.1415 13.9783C99.4921 13.6946 99.8269 13.4798 99.8856 13.501C99.9442 13.5222 101.041 14.9166 102.324 16.5996C104.813 19.8668 104.998 20.0404 105.711 19.7855C106.132 19.6351 106.291 19.3671 106.291 18.8054C106.291 18.448 106.025 18.037 104.455 15.9636C103.446 14.6303 102.377 13.2146 102.08 12.8173L101.54 12.0952L103.561 10.4444C104.672 9.53638 105.699 8.66516 105.843 8.50813C106.432 7.86518 105.985 6.79743 105.126 6.79743C104.745 6.79743 104.382 7.06449 101.625 9.37267L98.5493 11.948L98.4911 6.25973L98.4329 0.571562L98.1062 0.283622C97.6888 -0.0843888 97.198 -0.0843888 96.7806 0.283622ZM6.20918 0.837427C3.97061 1.29028 2.84399 2.8202 2.69883 5.60414L2.62724 6.97642L2.2198 7.00864C1.48351 7.06687 1.29504 7.15434 1.10797 7.5251C0.962572 7.81339 0.949651 7.96876 1.0472 8.25563C1.22054 8.7654 1.49235 8.93711 2.13249 8.94153L2.68544 8.94535V14.0698V19.1943L2.95132 19.5112C3.30114 19.928 3.97422 19.95 4.38142 19.558L4.66197 19.2877L4.69236 14.1464L4.72262 9.00501L6.10115 8.94535C7.37387 8.89022 7.49668 8.86409 7.7018 8.60395C7.99049 8.23773 7.98409 7.74335 7.6855 7.35422C7.45605 7.0553 7.39575 7.04229 6.08486 7.00995L4.72262 6.97642L4.72798 5.90246C4.73845 3.80108 5.37312 2.95349 7.10042 2.73392C7.96011 2.62462 8.39257 2.27331 8.38582 1.68944C8.37627 0.85652 7.60575 0.554856 6.20918 0.837427ZM121.757 3.56457C121.499 3.77817 121.479 3.89093 121.424 5.38434L121.366 6.97642L120.714 7.03609C120.356 7.0689 119.979 7.16663 119.878 7.25315C119.592 7.49598 119.522 8.04358 119.724 8.44488C119.939 8.86981 120.108 8.94535 120.845 8.94535H121.411L121.446 13.2114C121.482 17.4286 121.485 17.4836 121.757 18.0143C122.31 19.0951 123.059 19.6415 124.208 19.8013C125.009 19.9129 125.451 19.7668 125.679 19.315C126.018 18.6436 125.509 17.895 124.714 17.895C124.14 17.895 123.566 17.2882 123.466 16.5752C123.426 16.2838 123.408 14.4613 123.427 12.5252L123.461 9.00501L124.49 8.94535C125.394 8.89296 125.547 8.85132 125.742 8.60395C126.03 8.23797 126.024 7.74347 125.726 7.35505C125.507 7.06986 125.408 7.04253 124.475 7.01079L123.461 6.97642L123.428 5.42884C123.399 4.03711 123.37 3.85382 123.146 3.60908C122.83 3.26398 122.146 3.24202 121.757 3.56457ZM21.6008 6.68168C19.2932 6.99504 17.7489 8.47579 17.1566 10.943C16.8926 12.0429 16.8933 14.5619 17.158 15.665C17.8456 18.5301 19.5995 19.9173 22.5916 19.9626C24.4424 19.9907 25.7506 19.5696 26.8259 18.5993C27.4156 18.0671 27.5302 17.5941 27.1897 17.0958C26.8571 16.6091 26.3916 16.6281 25.5259 17.1636C24.4347 17.8388 23.8751 18.0143 22.8142 18.0143C21.5226 18.0143 20.7926 17.7127 20.0394 16.868C19.4382 16.1935 18.9829 15.0882 18.9829 14.3026V13.9572H23.008H27.0331L27.3734 13.6084C27.7011 13.2725 27.7136 13.2184 27.7123 12.1466C27.7089 9.38484 26.4863 7.47557 24.3378 6.8763C23.4856 6.6386 22.4567 6.56545 21.6008 6.68168ZM59.0696 6.67977C58.3527 6.78573 57.3413 7.25231 56.9147 7.6739L56.6057 7.97914L56.5277 7.65671C56.4006 7.13155 56.016 6.79695 55.5445 6.80125C55.0862 6.80542 54.8292 6.96031 54.6234 7.35636C54.526 7.54407 54.488 9.20811 54.488 13.2989C54.488 19.5419 54.4874 19.5366 55.183 19.7852C55.4307 19.8736 55.6407 19.8736 55.8884 19.7852C56.5588 19.5456 56.5834 19.3783 56.5834 15.0587C56.5834 10.6416 56.6392 10.2336 57.354 9.42254C57.9026 8.80013 58.6299 8.52698 59.7285 8.53068C60.7039 8.53402 61.5243 8.79201 61.915 9.21837C62.0496 9.36515 62.2802 9.75309 62.4273 10.0804C62.6884 10.6611 62.6959 10.7811 62.7317 14.9879L62.7686 19.3002L63.0427 19.5642C63.4076 19.9156 64.0881 19.9206 64.4262 19.5745C64.6676 19.3272 64.6754 19.2094 64.7321 14.9385C64.788 10.7359 64.8006 10.5367 65.0415 10.079C65.7391 8.75406 67.2416 8.19608 68.9229 8.63772C69.8476 8.88055 70.3335 9.25214 70.6863 9.98625C70.9549 10.5455 70.9611 10.6386 71.0183 14.9293C71.0716 18.9323 71.0943 19.3225 71.2872 19.5408C71.7664 20.083 72.7487 19.887 72.9815 19.2026C73.1532 18.6976 73.1599 12.1213 72.99 10.7327C72.6836 8.22746 71.3973 6.98096 68.8061 6.6781C67.0681 6.47488 65.5154 6.8849 64.5152 7.81113L64.0353 8.25563L63.6227 7.88428C62.572 6.93859 60.6886 6.4404 59.0696 6.67977ZM79.5162 6.68765C78.2499 6.85673 77.4729 7.22856 76.5673 8.09895C75.6169 9.01229 75.5388 9.80296 76.3549 10.2487C76.7611 10.4705 77.1051 10.3257 77.9002 9.59855C78.7887 8.78592 79.5164 8.53259 80.7293 8.61373C82.3712 8.72375 83.2679 9.5803 83.4326 11.196L83.5045 11.9014L81.0157 11.954C78.8195 12.0004 78.4388 12.0381 77.7797 12.2739C75.8571 12.9618 74.978 14.3142 75.121 16.3638C75.2667 18.4493 76.6777 19.7074 79.1711 19.9748C80.5386 20.1216 82.3666 19.6097 83.0196 18.8973C83.3622 18.5234 83.4742 18.5359 83.4742 18.9482C83.4742 19.2908 83.8093 19.7002 84.2083 19.845C84.5456 19.9673 85.2068 19.6176 85.3459 19.2432C85.4285 19.0212 85.456 17.45 85.4286 14.5538C85.3885 10.346 85.3781 10.175 85.1207 9.51192C84.2929 7.37951 82.2072 6.32847 79.5162 6.68765ZM112.284 6.68168C110.177 6.96783 108.714 8.24274 108.028 10.3902C107.774 11.1832 107.746 11.477 107.746 13.3009C107.746 15.6488 107.928 16.4805 108.714 17.7278C109.526 19.0155 110.741 19.7048 112.609 19.9366C114.476 20.1685 116.504 19.6154 117.611 18.5723C117.978 18.2273 118.048 18.0836 118.048 17.6788C118.048 17.2998 117.982 17.1434 117.741 16.9491C117.355 16.6375 117.037 16.6371 116.593 16.9474C116.401 17.0817 115.929 17.3632 115.545 17.5731C114.881 17.9358 114.783 17.9547 113.566 17.9547C112.403 17.9547 112.232 17.9256 111.704 17.6371C110.677 17.077 110.059 16.2017 109.797 14.9358C109.725 14.5879 109.666 14.2255 109.666 14.1303C109.666 13.9825 110.256 13.9566 113.712 13.9533C118.007 13.9493 117.966 13.9547 118.288 13.3605C118.666 12.664 118.395 10.3483 117.794 9.14081C117.462 8.47328 116.633 7.60648 115.98 7.24169C115.069 6.73359 113.573 6.50674 112.284 6.68168ZM131.959 6.69576C129.64 6.98513 128.01 8.69142 127.518 11.3449C127.288 12.5848 127.36 14.9962 127.656 15.9858C128.462 18.6786 130.25 19.9674 133.181 19.9674C134.493 19.9674 135.345 19.7762 136.342 19.2579C137.052 18.8894 137.838 18.1231 137.838 17.7998C137.838 17.2033 137.369 16.701 136.814 16.7021C136.705 16.7023 136.301 16.9183 135.917 17.182C134.947 17.8482 134.196 18.0534 132.952 17.9924C132.096 17.9504 131.848 17.888 131.311 17.579C130.247 16.967 129.456 15.6204 129.456 14.4208V13.9572H133.446C136.809 13.9572 137.476 13.9289 137.687 13.7778C138.083 13.4932 138.227 12.8481 138.151 11.6985C137.915 8.10933 135.603 6.24124 131.959 6.69576ZM13.8502 6.90435C13.1599 7.13083 12.1949 7.74574 12.0161 8.07305C11.9325 8.22627 11.8909 8.16016 11.827 7.77258C11.7008 7.00721 11.0131 6.59719 10.3156 6.87153C9.80568 7.07212 9.78647 7.30959 9.78647 13.3981C9.78647 18.9728 9.7945 19.1859 10.0166 19.4754C10.4216 20.0032 11.3684 19.9624 11.6806 19.4039C11.7822 19.2221 11.8405 18.0087 11.8819 15.2101L11.9401 11.2723L12.2673 10.5892C12.8141 9.44772 13.9331 8.70669 15.11 8.70669C15.5725 8.70669 16.1311 8.43701 16.2332 8.16434C16.3886 7.7492 16.3009 7.25923 16.0197 6.97105C15.786 6.73144 15.6218 6.67929 15.1175 6.68454C14.7785 6.688 14.2082 6.78705 13.8502 6.90435ZM32.4569 6.80769C31.287 7.09026 30.2175 7.99287 29.9442 8.9284C29.6991 9.76669 29.7717 10.9695 30.1091 11.6637C30.6175 12.7095 31.3739 13.219 33.6739 14.0652C36.2393 15.0088 36.6772 15.3334 36.6772 16.291C36.6772 17.2085 35.9596 17.7759 34.5749 17.9532C33.3506 18.11 31.9554 17.6585 30.8636 16.7522C30.4401 16.4007 30.2821 16.3357 29.9905 16.3934C29.5243 16.4855 29.227 16.8676 29.227 17.3744C29.227 17.9275 29.9622 18.6729 31.0658 19.2389C32.1917 19.8162 32.9675 19.9636 34.5205 19.8947C36.5981 19.8028 37.8399 19.1215 38.4293 17.7504C38.8284 16.822 38.8127 15.5495 38.392 14.715C37.8558 13.6516 37.1196 13.1697 34.5975 12.2318C32.8848 11.5948 32.2002 11.2062 31.9633 10.7366C31.2877 9.39749 32.7276 8.34035 34.722 8.71111C35.5692 8.86862 35.8799 9.0185 36.5523 9.59438C37.1253 10.0851 37.5478 10.1368 38.0002 9.77194C38.4828 9.38293 38.431 8.72924 37.8704 8.13343C36.9289 7.13286 35.6718 6.67046 33.9463 6.69003C33.3675 6.69671 32.6973 6.74958 32.4569 6.80769ZM92.3108 6.90435C91.6204 7.13083 90.6554 7.74574 90.4766 8.07305C90.393 8.22627 90.3514 8.16016 90.2875 7.77258C90.1614 7.00721 89.4736 6.59719 88.7761 6.87153C88.2662 7.07212 88.247 7.30959 88.247 13.3981C88.247 18.9728 88.255 19.1859 88.4771 19.4754C88.8821 20.0032 89.8289 19.9624 90.1411 19.4039C90.2427 19.2221 90.301 18.0087 90.3424 15.2101L90.4006 11.2723L90.7278 10.5892C91.2746 9.44772 92.3936 8.70669 93.5705 8.70669C94.033 8.70669 94.5916 8.43701 94.6937 8.16434C94.8491 7.7492 94.7614 7.25923 94.4802 6.97105C94.2465 6.73144 94.0823 6.67929 93.578 6.68454C93.239 6.688 92.6687 6.78705 92.3108 6.90435ZM144.791 6.80793C144.167 6.95876 143.488 7.33703 142.955 7.83082L142.494 8.25718V7.8202C142.494 6.93227 141.521 6.48109 140.822 7.0448L140.515 7.29205L140.519 13.2797C140.522 18.0029 140.555 19.3104 140.674 19.4715C141.026 19.946 141.835 19.9822 142.225 19.5408C142.417 19.3243 142.442 18.9458 142.498 15.4068C142.555 11.7465 142.575 11.4709 142.816 10.8508C143.297 9.61944 144.57 8.70669 145.807 8.70669C146.837 8.70669 147.35 7.70182 146.688 6.97964C146.459 6.72953 146.311 6.68013 145.821 6.69003C145.496 6.69671 145.033 6.7497 144.791 6.80793ZM24.0047 8.80645C24.8771 9.15549 25.5769 10.2774 25.703 11.5291L25.7676 12.1709L22.4044 12.1393L19.0411 12.1076L19.0771 11.6302C19.1206 11.0527 19.5308 10.097 19.9565 9.58113C20.7298 8.64392 22.6701 8.27269 24.0047 8.80645ZM114.888 8.87685C115.735 9.32589 116.418 10.592 116.418 11.7134V12.1709L113.071 12.1392L109.725 12.1076L109.765 11.6925C109.879 10.5302 110.645 9.3519 111.584 8.89535C112.448 8.47495 114.113 8.46565 114.888 8.87685ZM134.667 8.93115C135.495 9.36407 136.041 10.3467 136.115 11.538L136.15 12.1076L132.787 12.1393L129.424 12.1709L129.498 11.6213C129.655 10.4422 130.328 9.41049 131.261 8.91659C132.155 8.44297 133.747 8.44977 134.667 8.93115ZM83.4742 14.4724C83.4742 15.3022 83.211 16.1862 82.784 16.7905C82.3749 17.3694 81.2657 17.9626 80.3893 18.0713C79.2116 18.2172 77.9213 17.7702 77.4398 17.0493C77.2065 16.7001 77.1739 16.5279 77.2107 15.8393C77.2494 15.1137 77.2921 14.9959 77.6553 14.6118C78.2677 13.9641 78.7824 13.8557 81.2915 13.8462L83.4742 13.8378V14.4724Z" fill="black"/>
</svg>
