<svg width="147" height="20" viewBox="0 0 147 20" fill="none" xmlns="http://www.w3.org/2000/svg">
<path fill-rule="evenodd" clip-rule="evenodd" d="M41.6031 0.283622L41.2764 0.571562L41.2415 9.62111C41.2169 16.0121 41.2448 18.8048 41.3363 19.1274C41.5135 19.7526 42.0681 20.0116 42.674 19.752C42.9155 19.6486 43.1296 19.4498 43.1979 19.2653C43.2659 19.0821 43.3136 17.3653 43.3136 15.1046C43.3136 10.6885 43.3642 10.346 44.1455 9.47732C44.7806 8.77101 45.4399 8.52627 46.6905 8.53295C48.2475 8.54118 48.9976 9.01587 49.4276 10.2651C49.5666 10.6688 49.5998 11.5454 49.5998 14.8113C49.5998 19.3236 49.6312 19.5481 50.2957 19.7854C50.7417 19.9448 51.3695 19.7278 51.5694 19.3449C51.7741 18.9529 51.7336 11.1198 51.5216 10.0939C51.0917 8.01387 49.8574 6.94921 47.571 6.68645C45.9615 6.50137 44.6326 6.82833 43.7442 7.62784L43.3136 8.01542V4.35441V0.693278L42.9733 0.344479C42.5468 -0.0927418 42.0547 -0.114579 41.6031 0.283622ZM96.7815 0.283622L96.4549 0.571562L96.4237 9.7402C96.4002 16.6232 96.427 18.9944 96.531 19.2519C96.6132 19.4554 96.8273 19.6625 97.057 19.7608C97.3905 19.9038 97.5011 19.9025 97.8525 19.752C98.0939 19.6486 98.308 19.4498 98.3764 19.2653C98.44 19.0938 98.495 17.9501 98.4986 16.7238L98.5051 14.4941L99.1424 13.9783C99.4931 13.6946 99.8279 13.4798 99.8865 13.501C99.9452 13.5222 101.042 14.9166 102.325 16.5996C104.814 19.8668 104.999 20.0404 105.712 19.7855C106.133 19.6351 106.292 19.3671 106.292 18.8054C106.292 18.448 106.026 18.037 104.456 15.9636C103.447 14.6303 102.378 13.2146 102.081 12.8173L101.541 12.0952L103.561 10.4444C104.673 9.53638 105.7 8.66516 105.844 8.50813C106.433 7.86518 105.986 6.79743 105.127 6.79743C104.746 6.79743 104.383 7.06449 101.626 9.37267L98.5503 11.948L98.4921 6.25973L98.4339 0.571562L98.1072 0.283622C97.6898 -0.0843888 97.199 -0.0843888 96.7815 0.283622ZM6.21016 0.837427C3.97159 1.29028 2.84497 2.8202 2.69981 5.60414L2.62822 6.97642L2.22078 7.00864C1.48448 7.06687 1.29602 7.15434 1.10895 7.5251C0.963549 7.81339 0.950627 7.96876 1.04818 8.25563C1.22151 8.7654 1.49333 8.93712 2.13347 8.94153L2.68642 8.94535V14.0698V19.1943L2.9523 19.5112C3.30211 19.928 3.9752 19.95 4.3824 19.558L4.66295 19.2877L4.69333 14.1464L4.7236 9.00501L6.10213 8.94535C7.37484 8.89022 7.49766 8.86408 7.70277 8.60395C7.99147 8.23773 7.98507 7.74335 7.68647 7.35422C7.45703 7.0553 7.39673 7.04229 6.08583 7.00995L4.7236 6.97642L4.72895 5.90246C4.73943 3.80108 5.3741 2.95349 7.1014 2.73392C7.96108 2.62462 8.39355 2.27331 8.3868 1.68944C8.37725 0.85652 7.60673 0.554856 6.21016 0.837427ZM121.758 3.56457C121.5 3.77817 121.479 3.89093 121.425 5.38434L121.367 6.97642L120.715 7.03609C120.357 7.0689 119.98 7.16663 119.879 7.25315C119.593 7.49598 119.523 8.04358 119.725 8.44488C119.94 8.86981 120.109 8.94535 120.846 8.94535H121.411L121.447 13.2114C121.483 17.4286 121.486 17.4836 121.758 18.0143C122.311 19.0951 123.06 19.6415 124.209 19.8013C125.01 19.9129 125.452 19.7668 125.68 19.315C126.019 18.6436 125.51 17.895 124.715 17.895C124.141 17.895 123.567 17.2882 123.467 16.5752C123.427 16.2838 123.409 14.4613 123.428 12.5252L123.462 9.00501L124.491 8.94535C125.395 8.89296 125.548 8.85132 125.743 8.60395C126.031 8.23797 126.025 7.74347 125.727 7.35505C125.508 7.06986 125.409 7.04253 124.476 7.01079L123.462 6.97642L123.429 5.42884C123.4 4.03711 123.371 3.85382 123.147 3.60908C122.831 3.26398 122.147 3.24202 121.758 3.56457ZM21.6018 6.68168C19.2942 6.99504 17.7499 8.47579 17.1576 10.943C16.8936 12.0429 16.8943 14.5619 17.159 15.665C17.8465 18.5301 19.6005 19.9173 22.5926 19.9626C24.4434 19.9907 25.7516 19.5696 26.8269 18.5993C27.4166 18.0671 27.5312 17.5941 27.1907 17.0958C26.8581 16.6091 26.3926 16.6281 25.5269 17.1636C24.4357 17.8388 23.8761 18.0143 22.8151 18.0143C21.5236 18.0143 20.7936 17.7127 20.0404 16.868C19.4391 16.1935 18.9839 15.0882 18.9839 14.3026V13.9572H23.009H27.0341L27.3744 13.6084C27.7021 13.2725 27.7146 13.2184 27.7132 12.1466C27.7099 9.38484 26.4873 7.47557 24.3387 6.8763C23.4866 6.6386 22.4577 6.56545 21.6018 6.68168ZM59.0705 6.67977C58.3537 6.78573 57.3423 7.25231 56.9157 7.6739L56.6067 7.97914L56.5287 7.65671C56.4016 7.13155 56.017 6.79695 55.5455 6.80125C55.0872 6.80542 54.8302 6.96031 54.6244 7.35636C54.5269 7.54407 54.489 9.20811 54.489 13.2989C54.489 19.5419 54.4884 19.5366 55.1839 19.7852C55.4317 19.8736 55.6417 19.8736 55.8894 19.7852C56.5598 19.5456 56.5844 19.3783 56.5844 15.0587C56.5844 10.6416 56.6401 10.2336 57.355 9.42254C57.9035 8.80012 58.6309 8.52698 59.7294 8.53068C60.7048 8.53402 61.5253 8.79201 61.916 9.21837C62.0505 9.36515 62.2811 9.75309 62.4283 10.0804C62.6894 10.6611 62.6968 10.7811 62.7327 14.9879L62.7696 19.3002L63.0436 19.5642C63.4086 19.9156 64.0891 19.9206 64.4272 19.5745C64.6686 19.3272 64.6764 19.2094 64.7331 14.9385C64.789 10.7359 64.8015 10.5367 65.0425 10.079C65.74 8.75406 67.2425 8.19608 68.9239 8.63772C69.8486 8.88055 70.3345 9.25214 70.6872 9.98625C70.9559 10.5455 70.9621 10.6386 71.0192 14.9293C71.0726 18.9323 71.0953 19.3225 71.2881 19.5408C71.7674 20.083 72.7497 19.887 72.9825 19.2026C73.1542 18.6976 73.1608 12.1213 72.991 10.7327C72.6846 8.22746 71.3983 6.98096 68.8071 6.6781C67.0691 6.47488 65.5164 6.8849 64.5162 7.81113L64.0363 8.25563L63.6237 7.88428C62.573 6.93859 60.6896 6.4404 59.0705 6.67977ZM79.5172 6.68765C78.2509 6.85673 77.4738 7.22856 76.5683 8.09895C75.6179 9.01229 75.5398 9.80296 76.3558 10.2487C76.7621 10.4705 77.1061 10.3257 77.9012 9.59855C78.7896 8.78592 79.5174 8.53259 80.7303 8.61373C82.3722 8.72375 83.2689 9.5803 83.4336 11.196L83.5055 11.9014L81.0167 11.954C78.8205 12.0004 78.4398 12.0381 77.7807 12.2739C75.8581 12.9618 74.9789 14.3142 75.122 16.3638C75.2676 18.4493 76.6786 19.7074 79.172 19.9748C80.5396 20.1216 82.3676 19.6097 83.0206 18.8973C83.3631 18.5234 83.4751 18.5359 83.4751 18.9482C83.4751 19.2908 83.8103 19.7002 84.2092 19.845C84.5466 19.9673 85.2078 19.6176 85.3469 19.2432C85.4294 19.0212 85.457 17.45 85.4296 14.5538C85.3895 10.346 85.379 10.175 85.1216 9.51192C84.2938 7.37951 82.2081 6.32847 79.5172 6.68765ZM112.285 6.68168C110.178 6.96783 108.715 8.24274 108.029 10.3902C107.775 11.1832 107.747 11.477 107.747 13.3009C107.747 15.6488 107.929 16.4805 108.715 17.7278C109.527 19.0155 110.742 19.7048 112.61 19.9366C114.477 20.1685 116.505 19.6154 117.612 18.5723C117.979 18.2273 118.049 18.0836 118.049 17.6788C118.049 17.2998 117.983 17.1434 117.742 16.9491C117.356 16.6375 117.038 16.6371 116.594 16.9474C116.402 17.0817 115.93 17.3632 115.546 17.5731C114.882 17.9358 114.784 17.9547 113.567 17.9547C112.404 17.9547 112.233 17.9256 111.705 17.6371C110.678 17.077 110.06 16.2017 109.798 14.9358C109.726 14.5879 109.667 14.2255 109.667 14.1303C109.667 13.9825 110.257 13.9566 113.713 13.9533C118.008 13.9493 117.967 13.9547 118.289 13.3605C118.667 12.664 118.396 10.3483 117.795 9.14081C117.463 8.47328 116.634 7.60648 115.981 7.24169C115.07 6.73359 113.573 6.50674 112.285 6.68168ZM131.96 6.69576C129.641 6.98513 128.011 8.69142 127.519 11.3449C127.289 12.5848 127.361 14.9962 127.657 15.9858C128.463 18.6786 130.251 19.9674 133.182 19.9674C134.494 19.9674 135.346 19.7762 136.343 19.2579C137.053 18.8894 137.839 18.1231 137.839 17.7998C137.839 17.2033 137.37 16.701 136.815 16.7021C136.706 16.7023 136.302 16.9183 135.918 17.182C134.948 17.8482 134.197 18.0534 132.953 17.9924C132.097 17.9504 131.849 17.888 131.312 17.579C130.248 16.967 129.457 15.6204 129.457 14.4208V13.9572H133.447C136.81 13.9572 137.477 13.9289 137.688 13.7778C138.084 13.4932 138.228 12.8481 138.152 11.6985C137.916 8.10933 135.604 6.24124 131.96 6.69576ZM13.8512 6.90435C13.1609 7.13083 12.1959 7.74574 12.0171 8.07305C11.9335 8.22627 11.8919 8.16016 11.828 7.77258C11.7018 7.00721 11.0141 6.59719 10.3165 6.87153C9.80665 7.07212 9.78745 7.30959 9.78745 13.3981C9.78745 18.9728 9.79548 19.1859 10.0176 19.4754C10.4226 20.0032 11.3693 19.9624 11.6816 19.4039C11.7832 19.2221 11.8415 18.0087 11.8828 15.2101L11.941 11.2723L12.2683 10.5892C12.815 9.44772 13.9341 8.70669 15.111 8.70669C15.5735 8.70669 16.132 8.43701 16.2341 8.16434C16.3895 7.7492 16.3019 7.25923 16.0206 6.97105C15.787 6.73144 15.6227 6.67929 15.1185 6.68454C14.7795 6.688 14.2092 6.78705 13.8512 6.90435ZM32.4579 6.80769C31.288 7.09026 30.2185 7.99287 29.9452 8.9284C29.7001 9.76669 29.7726 10.9695 30.1101 11.6637C30.6185 12.7095 31.3749 13.219 33.6748 14.0652C36.2403 15.0088 36.6782 15.3334 36.6782 16.291C36.6782 17.2085 35.9605 17.7759 34.5758 17.9532C33.3516 18.11 31.9564 17.6585 30.8646 16.7522C30.4411 16.4007 30.2831 16.3357 29.9915 16.3934C29.5253 16.4855 29.228 16.8676 29.228 17.3744C29.228 17.9275 29.9632 18.6729 31.0668 19.2389C32.1927 19.8162 32.9685 19.9636 34.5215 19.8947C36.5991 19.8028 37.8409 19.1215 38.4303 17.7504C38.8294 16.822 38.8136 15.5495 38.3929 14.715C37.8568 13.6516 37.1206 13.1697 34.5984 12.2318C32.8858 11.5948 32.2012 11.2062 31.9643 10.7366C31.2887 9.39749 32.7285 8.34035 34.723 8.71111C35.5702 8.86862 35.8809 9.0185 36.5533 9.59438C37.1263 10.0851 37.5487 10.1368 38.0012 9.77194C38.4837 9.38293 38.4319 8.72924 37.8714 8.13343C36.9299 7.13286 35.6728 6.67046 33.9472 6.69003C33.3684 6.69671 32.6983 6.74958 32.4579 6.80769ZM92.3117 6.90435C91.6214 7.13083 90.6564 7.74574 90.4776 8.07305C90.394 8.22627 90.3524 8.16016 90.2885 7.77258C90.1623 7.00721 89.4746 6.59719 88.777 6.87153C88.2672 7.07212 88.248 7.30959 88.248 13.3981C88.248 18.9728 88.256 19.1859 88.4781 19.4754C88.8831 20.0032 89.8299 19.9624 90.1421 19.4039C90.2437 19.2221 90.302 18.0087 90.3433 15.2101L90.4016 11.2723L90.7288 10.5892C91.2756 9.44772 92.3946 8.70669 93.5715 8.70669C94.034 8.70669 94.5926 8.43701 94.6946 8.16434C94.8501 7.7492 94.7624 7.25923 94.4812 6.97105C94.2475 6.73144 94.0833 6.67929 93.579 6.68454C93.24 6.688 92.6697 6.78705 92.3117 6.90435ZM144.792 6.80793C144.168 6.95876 143.489 7.33703 142.956 7.83082L142.495 8.25718V7.8202C142.495 6.93227 141.522 6.48109 140.823 7.0448L140.516 7.29205L140.52 13.2797C140.523 18.0029 140.556 19.3104 140.675 19.4715C141.027 19.946 141.836 19.9822 142.226 19.5408C142.418 19.3243 142.443 18.9458 142.499 15.4068C142.556 11.7465 142.576 11.4709 142.817 10.8508C143.298 9.61944 144.571 8.70669 145.808 8.70669C146.838 8.70669 147.351 7.70182 146.689 6.97964C146.46 6.72953 146.312 6.68013 145.822 6.69003C145.497 6.69671 145.034 6.7497 144.792 6.80793ZM24.0057 8.80645C24.8781 9.15549 25.5779 10.2774 25.704 11.5291L25.7686 12.1709L22.4054 12.1393L19.0421 12.1076L19.078 11.6302C19.1216 11.0527 19.5318 10.097 19.9575 9.58113C20.7308 8.64392 22.671 8.27269 24.0057 8.80645ZM114.889 8.87685C115.736 9.32589 116.419 10.592 116.419 11.7134V12.1709L113.072 12.1392L109.726 12.1076L109.766 11.6925C109.88 10.5302 110.646 9.3519 111.585 8.89535C112.449 8.47495 114.114 8.46565 114.889 8.87685ZM134.668 8.93115C135.496 9.36407 136.042 10.3467 136.116 11.538L136.151 12.1076L132.788 12.1393L129.425 12.1709L129.499 11.6213C129.656 10.4422 130.329 9.41049 131.262 8.91659C132.156 8.44297 133.748 8.44977 134.668 8.93115ZM83.4751 14.4724C83.4751 15.3022 83.2119 16.1862 82.7849 16.7905C82.3759 17.3694 81.2667 17.9626 80.3903 18.0713C79.2125 18.2172 77.9223 17.7702 77.4408 17.0493C77.2075 16.7001 77.1749 16.5279 77.2117 15.8393C77.2503 15.1137 77.2931 14.9959 77.6563 14.6118C78.2687 13.9641 78.7833 13.8557 81.2924 13.8462L83.4751 13.8378V14.4724Z" fill="black"/>
</svg>
