<svg width="147" height="27" viewBox="0 0 147 27" fill="none" xmlns="http://www.w3.org/2000/svg">
<path fill-rule="evenodd" clip-rule="evenodd" d="M76.5577 0.0933885C76.3471 0.172294 76.0995 0.434802 76.0078 0.676609C75.7426 1.37641 75.7906 20.4132 76.0591 20.948C76.2154 21.2596 76.4305 21.3856 76.8688 21.423C77.9833 21.5175 78.0051 21.4252 78.0736 16.3664C78.1256 12.5302 78.1782 11.7709 78.4325 11.1972C79.0652 9.76855 79.9966 9.2488 81.9347 9.2432C83.5218 9.23861 84.2211 9.57392 84.7616 10.5992C85.1339 11.3049 85.1465 11.4765 85.1465 15.7881C85.1465 21.0559 85.2306 21.4479 86.3611 21.4545C87.3296 21.46 87.346 21.3712 87.346 16.1305C87.346 10.8318 87.2577 10.2103 86.3209 8.91315C85.9674 8.42393 85.4905 8.04638 84.8388 7.73992C83.9891 7.34047 83.6716 7.28804 82.1012 7.28804C80.2211 7.28804 79.3738 7.55241 78.4213 8.43632L78.0406 8.78962L78.0381 4.7298C78.0366 2.49703 77.978 0.579549 77.9077 0.468742C77.6992 0.139715 76.9729 -0.0620468 76.5577 0.0933885ZM117.631 0.0411244C117.491 0.0847345 117.244 0.236946 117.081 0.379146C116.806 0.619595 116.785 1.27799 116.786 9.64756C116.786 15.3216 116.851 18.8909 116.961 19.2883C117.332 20.6281 118.46 21.4571 119.913 21.4571C120.574 21.4571 120.711 21.3958 120.879 21.0261C121.194 20.3336 120.88 19.7169 120.08 19.4549C118.817 19.0414 118.901 19.7239 118.885 9.78314C118.875 3.47631 118.814 0.730232 118.679 0.477395C118.473 0.0925401 118.041 -0.0873302 117.631 0.0411244ZM36.9861 0.931653C35.3646 1.25338 33.98 2.43934 33.4687 3.94431C33.3139 4.40027 33.2058 5.29843 33.2058 6.13042V7.54257H32.6514C31.8335 7.54257 31.3447 7.95424 31.3447 8.643C31.3447 9.39948 31.7225 9.74853 32.5411 9.74853H33.2058V15.4234C33.2058 21.0955 33.206 21.0985 33.5819 21.3626C34.0947 21.723 34.6612 21.6943 35.0669 21.2874C35.3915 20.9618 35.4052 20.7218 35.4052 15.3483V9.74853H36.5786C38.3116 9.74853 38.9499 9.44088 38.9557 8.60313C38.9609 7.81577 38.417 7.54257 36.8433 7.54257H35.4052L35.409 6.31232C35.4129 5.00623 35.7588 3.95942 36.3542 3.45171C36.7789 3.08942 37.6932 2.79128 38.3792 2.79128C39.4515 2.79128 39.8449 1.75753 39.0199 1.10677C38.5515 0.737019 38.1437 0.702064 36.9861 0.931653ZM67.024 7.22559C64.634 7.47079 63.2651 8.79131 63.2602 10.8566C63.2553 12.9254 64.2434 13.8754 67.7616 15.1845C70.2071 16.0944 70.9347 16.6332 70.9347 17.534C70.9347 18.1507 70.3595 18.8865 69.6428 19.1868C69.3357 19.3156 68.5301 19.4191 67.8525 19.4171C66.4678 19.4128 65.5138 19.069 64.5628 18.2316C63.8601 17.6129 63.2565 17.5761 62.8944 18.1302C62.397 18.8917 62.9665 19.7446 64.688 20.8158C66.4893 21.9368 69.8914 21.8609 71.6482 20.6606C72.3923 20.1522 73.1345 18.7736 73.1332 17.9028C73.13 15.7856 71.8341 14.4576 68.7353 13.3951C66.3137 12.565 65.3515 11.8802 65.3515 10.9871C65.3515 9.93298 66.1648 9.40915 67.8017 9.40915C69.0067 9.40915 69.7689 9.65622 70.6546 10.3338C71.3579 10.8717 72.0116 10.8931 72.3632 10.3894C72.7439 9.84457 72.6907 9.49434 72.1307 8.85444C71.0334 7.60094 69.1671 7.00567 67.024 7.22559ZM45.2921 7.55139C44.8209 7.7333 44.2155 8.11239 43.9465 8.39373L43.4577 8.90551L43.1921 8.18162C42.9439 7.50541 42.8803 7.45433 42.2271 7.40631C40.9714 7.314 40.9884 7.2166 40.9884 14.4528C40.9884 20.5521 41.0006 20.7905 41.3268 21.1177C41.7217 21.5138 42.4754 21.5597 42.9441 21.2165C43.2505 20.992 43.2784 20.6775 43.3623 16.5076C43.4581 11.7529 43.5132 11.4166 44.3407 10.5394C44.9755 9.86646 45.6579 9.53879 46.7405 9.38743C48.1691 9.18754 48.6486 8.42241 47.8482 7.61978C47.3342 7.10409 46.5085 7.08204 45.2921 7.55139ZM53.2033 7.4579C52.0687 7.77657 51.775 7.93676 50.9425 8.6912C49.662 9.85136 48.9403 11.8942 48.9403 14.3575C48.9403 19.3076 51.2888 21.7942 55.778 21.5974C57.1177 21.5385 57.5095 21.4494 58.4336 20.9931C59.03 20.6987 59.7409 20.2241 60.0138 19.9385C60.4405 19.4919 60.4872 19.3545 60.3476 18.9564C60.0678 18.1587 59.4895 18.1142 58.3536 18.8031C55.159 20.7408 51.7185 19.3814 51.2198 15.9846L51.1013 15.1786H55.5917H60.0822L60.4502 14.7119C60.7784 14.2959 60.8107 14.0888 60.7481 12.8029C60.6268 10.3124 59.5338 8.53372 57.5895 7.66322C56.5747 7.20879 54.4453 7.10919 53.2033 7.4579ZM93.2676 7.46519C92.1074 7.78896 91.269 8.44226 90.7597 9.41899C90.2432 10.4096 90.3173 11.9956 90.9221 12.8985C91.6153 13.9332 92.4455 14.3838 96.2087 15.7684C97.3621 16.1928 98.0214 16.822 98.0409 17.5169C98.0744 18.702 97.302 19.3579 95.6716 19.5287C94.2856 19.674 93.1033 19.3568 92.0374 18.5535C90.77 17.5983 89.8838 17.699 89.8838 18.7984C89.8838 20.069 92.7331 21.6195 95.078 21.6247C96.9951 21.6291 98.599 21.0495 99.492 20.0293C100.755 18.587 100.631 16.6181 99.1858 15.1625C98.5572 14.5294 98.0635 14.2489 96.5588 13.6699C92.981 12.2935 92.5908 12.0254 92.5908 10.9428C92.5908 9.97676 93.1738 9.52691 94.5385 9.43969C96.0499 9.34314 96.6904 9.49909 97.5795 10.1797C98.7721 11.0926 99.6967 10.9343 99.6967 9.81708C99.6967 9.40389 99.5473 9.14308 99.07 8.72276C97.5797 7.41021 95.263 6.9081 93.2676 7.46519ZM105.881 7.48454C104.359 7.95305 102.914 9.24048 102.912 10.1303C102.911 10.5327 103.509 11.106 103.93 11.106C104.118 11.106 104.602 10.8016 105.004 10.4293C105.915 9.58766 106.725 9.23912 107.77 9.24048C109.977 9.24302 111.371 10.4173 111.371 12.2744V12.9446L108.452 13.0018C105.838 13.0531 105.445 13.0997 104.688 13.4484C102.873 14.2838 101.904 15.9045 102.12 17.7407C102.404 20.1457 104.231 21.5009 107.226 21.5275C108.799 21.5416 109.572 21.3095 110.617 20.5094C111.35 19.948 111.371 19.9429 111.371 20.3227C111.371 20.8511 111.7 21.246 112.25 21.3792C112.607 21.4654 112.805 21.3916 113.152 21.043L113.598 20.5966L113.539 15.8088C113.484 11.2165 113.465 10.9851 113.085 10.1364C112.546 8.93453 111.32 7.81119 110.177 7.47045C109.057 7.13718 106.988 7.1438 105.881 7.48454ZM126.637 7.45654C125.358 7.81577 124.909 8.08591 124.037 9.02107C121.622 11.61 121.682 17.5335 124.147 20.0061C125.247 21.109 126.724 21.6215 128.813 21.6247C131.485 21.629 134.187 20.1018 133.714 18.8546C133.461 18.1882 132.813 18.1006 132.049 18.6297C130.928 19.406 130.148 19.6521 128.797 19.655C127.323 19.6579 126.466 19.3008 125.616 18.3302C125.098 17.7382 124.567 16.3432 124.567 15.5719V15.1786H128.947C134.365 15.1786 134.131 15.2756 134.117 13.0296C134.1 10.4493 133.091 8.68577 131.081 7.72329C130.012 7.21117 127.95 7.08746 126.637 7.45654ZM139.749 7.38781C137.338 7.95763 136.149 9.79706 136.761 12.009C137.146 13.3996 138.492 14.3654 141.529 15.4319C143.683 16.1877 144.544 16.9752 144.297 17.9623C143.799 19.9524 139.89 20.1454 137.902 18.278C137.106 17.53 136.072 17.8495 136.072 18.8435C136.072 19.3833 137.582 20.6816 138.745 21.142C140.153 21.6994 142.901 21.7028 144.109 21.1484C145.168 20.6621 145.838 20.0392 146.241 19.1663C147.075 17.3606 146.205 15.2739 144.193 14.2528C143.774 14.0401 142.64 13.5759 141.671 13.221C139.514 12.431 138.779 11.853 138.779 10.9484C138.779 9.9228 139.356 9.51419 140.915 9.43528C142.359 9.36215 143.388 9.66317 144.028 10.3467C144.558 10.9131 145.437 10.9224 145.801 10.3653C146.125 9.86884 145.954 9.33873 145.268 8.71886C143.836 7.42583 141.735 6.91879 139.749 7.38781ZM56.6696 9.42052C57.6954 9.8103 58.4602 10.9257 58.6716 12.3402L58.7916 13.1423H54.9522H51.1128L51.2281 12.5908C51.6874 10.392 53.0233 9.25083 55.147 9.2432C55.7225 9.24116 56.4077 9.32091 56.6696 9.42052ZM129.928 9.4195C131.038 9.83931 132.012 11.395 132.012 12.749V13.1423H128.29H124.567V12.6278C124.567 11.4419 125.479 10.1198 126.682 9.56119C127.445 9.20705 129.167 9.13188 129.928 9.4195ZM111.367 15.8149C111.358 18.2576 109.442 19.8505 106.918 19.5145C105.134 19.2771 104.434 18.6085 104.434 17.141C104.434 16.5407 104.536 16.2578 104.899 15.8529C105.622 15.0467 106.411 14.8552 109.044 14.8467L111.371 14.8392L111.367 15.8149Z" fill="black"/>
<g clip-path="url(#clip0_343_423)">
<path d="M26.4401 8.76003C26.4401 10.3415 26.4621 11.9247 26.4401 13.5113C26.3552 18.5579 23.3229 23.3873 18.5427 25.3642C13.5674 27.4208 8.93148 26.7658 4.78426 23.4857C2.04037 21.3137 0.518264 18.3204 0.105918 14.7671C-0.258916 11.6346 0.380811 8.76342 2.07432 6.15359C3.80346 3.49116 6.19099 1.61778 9.26238 0.682792C11.0153 0.149966 12.8259 0.00403229 14.6399 0.00403229C17.2395 0.00403229 19.8375 0.0193044 22.4456 0.00403229C25.0537 -0.0112398 26.5181 1.36155 26.4604 4.01719C26.4095 5.59531 26.4401 7.17852 26.4401 8.76003Z" fill="black"/>
<path d="M18.8706 12.7588C18.465 13.4375 17.9627 13.8058 17.5419 14.2436C16.9565 14.8545 16.3982 15.5078 15.7381 16.0287C14.6758 16.8636 14.1481 17.8597 14.3924 19.2206C14.5112 19.8892 14.143 20.0249 13.5542 20.0113C11.8318 19.9723 12.0269 20.181 12.0728 18.5282C12.0994 18.1569 12.0377 17.7845 11.8929 17.4415C11.7481 17.0986 11.5243 16.7947 11.2396 16.5548C9.99068 15.3907 8.81133 14.1536 7.41309 12.7588H18.8706Z" fill="#FFFEFE"/>
<path d="M15.9204 9.2428C15.9204 10.8192 14.926 11.8204 13.4226 11.8917C11.9191 11.9629 10.7465 10.8073 10.6973 9.24448C10.6549 7.87339 11.9055 6.68218 13.3326 6.64315C14.5849 6.61091 16.1749 7.95146 15.9204 9.2428Z" fill="white"/>
</g>
<defs>
<clipPath id="clip0_343_423">
<rect width="26.4479" height="26.5344" fill="white"/>
</clipPath>
</defs>
</svg>
