<svg width="162" height="91" viewBox="0 0 162 91" fill="none" xmlns="http://www.w3.org/2000/svg">
<path fill-rule="evenodd" clip-rule="evenodd" d="M66.028 0.160514C64.6813 0.43419 63.4461 1.12333 62.4616 2.15013C61.6525 2.99395 54.0065 16.4018 54.0065 16.9768C54.0065 17.363 60.2265 28.2944 60.3666 28.154C60.4766 28.0437 61.2779 26.6528 67.0484 16.5556L69.712 11.8945H87.4667C97.2318 11.8945 105.221 11.8483 105.221 11.7919C105.221 11.7353 104.875 11.088 104.452 10.3533C104.029 9.61858 102.933 7.63816 102.018 5.9526C100.148 2.51082 99.2895 1.51624 97.4325 0.643648L96.1496 0.0405932L81.566 0.00353537C73.5451 -0.0169501 66.553 0.053713 66.028 0.160514ZM71.0482 15.865C70.1417 17.3713 62.2687 31.2475 62.2149 31.4333C62.1844 31.5387 64.2653 35.3165 66.8389 39.8284L71.5183 48.0318H80.9678H90.417L92.6934 44.0613C93.9453 41.8774 96.0534 38.2294 97.3778 35.9546C98.7023 33.6795 99.7858 31.7056 99.7858 31.5677C99.7858 31.4301 97.6812 27.6722 95.109 23.217L90.4319 15.117H80.965H71.4983L71.0482 15.865ZM98.9175 23.3286L103.615 31.5401L100.422 37.0815C93.1495 49.7035 85.7 62.7516 85.7 62.8683C85.7 62.9369 88.0214 62.9931 90.8586 62.9931C98.6986 62.9931 98.7599 62.9544 103.098 55.2823C111.167 41.0094 114.301 35.3886 114.809 34.2762C115.288 33.2286 115.361 32.7717 115.291 31.2717L115.209 29.5028L111.202 22.3099L107.194 15.117H100.707H94.2197L98.9175 23.3286ZM49.4326 24.6577C45.4953 31.5636 45.4934 31.7698 49.3196 38.4796C50.3301 40.2519 53.4774 45.8426 56.3137 50.9037C61.9168 60.9015 62.64 61.9136 64.6774 62.6094C65.6415 62.9385 66.9345 62.9931 73.7796 62.9931H81.758L83.1181 60.6338C83.8661 59.3363 85.3731 56.751 86.467 54.8887C87.5609 53.0266 88.4559 51.448 88.4559 51.381C88.4559 51.3141 84.2455 51.2324 79.0997 51.1992L69.7432 51.1391L68.7975 49.5279C67.4967 47.3123 54.3882 24.6291 53.1334 22.4224C52.5746 21.4401 52.0517 20.5969 51.9711 20.5491C51.8907 20.5012 50.7483 22.3502 49.4326 24.6577ZM84.2072 24.6556C88.7205 26.6744 89.9832 32.9048 86.6253 36.5871C86.0187 37.2523 85.0197 38.0538 84.4053 38.3682C83.4362 38.8642 82.9847 38.9399 80.9919 38.9399C79.0372 38.9399 78.5485 38.8614 77.7088 38.4121C76.2613 37.6374 75.0799 36.4787 74.3285 35.097C73.7793 34.0867 73.6484 33.5341 73.5696 31.8927C73.4847 30.1178 73.5396 29.7643 74.093 28.5283C75.8219 24.6673 80.3536 22.9321 84.2072 24.6556ZM4.03638 73.9001C-0.355688 75.9495 -1.37516 81.5888 2.02959 85.0009C4.48238 87.4592 8.70495 87.6806 11.1977 85.4815C12.5619 84.2779 13.1698 83.0295 13.3042 81.1554L13.4128 79.6379L11.429 79.485C10.3379 79.401 8.87835 79.3989 8.18546 79.4806L6.92576 79.6289V80.518V81.407H9.10755C10.4543 81.407 11.2893 81.4979 11.2893 81.6445C11.2893 82.2335 10.6001 83.4378 9.94835 83.9874C7.7801 85.8159 4.49961 85.2417 2.85132 82.7452C2.30794 81.9226 2.21768 81.5513 2.21768 80.141C2.21768 78.7307 2.30794 78.3595 2.85132 77.5368C3.19972 77.009 3.91557 76.2916 4.44219 75.9424C5.24601 75.4091 5.64401 75.3074 6.92576 75.3074C8.19717 75.3074 8.60758 75.4105 9.38315 75.9249L10.3142 76.5425L10.9517 75.8757C11.5123 75.2892 11.5502 75.1619 11.2668 74.8187C10.0611 73.3578 6.23884 72.8721 4.03638 73.9001ZM42.9828 80.141V86.701H43.9014H44.8201V80.141V73.5811H43.9014H42.9828V80.141ZM61.3557 74.9803C59.1124 75.9967 57.9 77.8105 57.7312 80.4032C57.6398 81.8043 57.7076 82.228 58.1908 83.2803C59.3145 85.7269 61.2246 86.973 63.8462 86.9698C65.5423 86.9677 66.3371 86.7318 67.614 85.8512C68.608 85.1659 68.6551 84.9659 67.9902 84.2565L67.505 83.7391L67.0142 84.2112C65.8388 85.3418 63.2851 85.7365 61.8745 85.0055C60.4217 84.2526 59.2913 82.3758 59.2913 80.7164C59.2913 78.9156 60.67 76.8357 62.1991 76.33C63.5102 75.8964 65.5372 76.1493 66.471 76.8631L67.2675 77.4719L67.8111 76.8921L68.3545 76.3123L67.7833 75.8522C66.0314 74.4405 63.3494 74.0766 61.3557 74.9803ZM69.8264 74.7895C69.7265 75.0026 69.6918 84.5212 69.7873 85.4925C69.9049 86.6888 69.9139 86.701 70.6835 86.701H71.4609V80.7164V74.7319H70.6571C70.215 74.7319 69.8411 74.7579 69.8264 74.7895ZM97.1831 77.0024V79.2728L96.1108 78.7287C94.3059 77.8128 92.7749 78.1323 91.4918 79.6924C89.4223 82.2084 90.5966 86.2471 93.5951 86.9247C94.6343 87.1597 95.9523 86.8393 96.6663 86.1785L97.1831 85.6999V86.2006C97.1831 86.619 97.3147 86.701 97.9869 86.701H98.7907V80.7164V74.7319H97.9869H97.1831V77.0024ZM102.925 80.6971V86.701H103.606H104.287L104.352 84.3417L104.417 81.9824L106.412 81.8673C108.547 81.7442 109.188 81.4523 110.145 80.1675C110.801 79.2868 110.801 77.3124 110.145 76.4318C109.098 75.0263 108.631 74.8535 105.665 74.7701L102.925 74.6935V80.6971ZM111.652 80.7164V86.701H112.456H113.259V80.7164V74.7319H112.456H111.652V80.7164ZM130.688 75.3785C130.101 75.9044 129.944 76.2485 129.851 77.2199C129.738 78.4007 129.728 78.4147 128.962 78.4147C128.23 78.4147 128.188 78.4589 128.188 79.2203C128.188 79.9875 128.226 80.0259 128.991 80.0259H129.795V83.3634V86.701H130.599H131.403V83.3634V80.0259H132.436C133.464 80.0259 133.47 80.0216 133.47 79.2203C133.47 78.4191 133.464 78.4147 132.436 78.4147C131.441 78.4147 131.403 78.3892 131.403 77.7242C131.403 76.815 132.178 76.032 132.935 76.1767C133.378 76.2619 133.55 76.1625 133.716 75.724C134.064 74.806 133.986 74.7319 132.67 74.7319C131.614 74.7319 131.293 74.8364 130.688 75.3785ZM123.824 77.2486C123.824 78.3162 123.786 78.3885 123.192 78.4571C122.666 78.5176 122.549 78.6545 122.489 79.2779C122.422 79.9684 122.469 80.0259 123.092 80.0259H123.766L123.868 82.6154C123.924 84.0397 124.095 85.4368 124.248 85.7204C124.754 86.6563 126.487 87.2175 127.576 86.7983C127.853 86.6922 127.875 86.5311 127.688 85.9927C127.507 85.473 127.312 85.3199 126.833 85.3199C125.804 85.3199 125.661 84.9661 125.661 82.4098V80.0524L126.637 79.9815C127.553 79.9152 127.613 79.8683 127.613 79.2203C127.613 78.5724 127.553 78.5254 126.637 78.4591L125.661 78.3882V77.2507V76.113H124.743H123.824V77.2486ZM108.332 76.9082C109.043 77.6201 109.081 78.8076 108.42 79.6496C107.977 80.2137 107.816 80.2561 106.123 80.2561H104.303V78.2996V76.3431H106.035C107.569 76.3431 107.833 76.4081 108.332 76.9082ZM16.5716 78.4426C15.838 78.7349 14.786 79.7331 14.3693 80.5323C13.9475 81.3418 13.9525 83.7821 14.3781 84.6066C14.8314 85.4852 16.2135 86.6655 16.9776 86.8266C17.3228 86.8994 17.7833 86.994 18.001 87.037C18.7205 87.179 20.3394 86.6844 21.1279 86.0816C23.023 84.6329 23.2991 81.2944 21.6728 79.4919C20.6348 78.3415 18.1223 77.8245 16.5716 78.4426ZM26.1026 78.5107C24.6764 79.1487 23.4615 81.0392 23.4615 82.6204C23.4615 83.9078 24.5124 85.7036 25.6602 86.3778C27.5065 87.4624 30.2158 87.0184 31.465 85.4269C33.1325 83.3022 32.45 79.8353 30.1306 78.6495C29.0712 78.1079 27.1512 78.0416 26.1026 78.5107ZM35.5187 78.6152C32.3907 80.562 32.345 84.7201 35.4321 86.4591C36.5258 87.075 38.037 87.1256 39.0868 86.5815L39.8352 86.1937L39.6935 87.0679C39.4887 88.3343 38.6672 89.0655 37.4495 89.0655C36.6308 89.0655 36.3565 88.9406 35.7966 88.3126C35.1269 87.5614 35.1237 87.5604 34.3461 87.9322C33.4088 88.3801 33.3914 88.5285 34.1681 89.4536C35.6979 91.2757 38.4237 91.5238 40.2247 90.0049C41.4732 88.9521 41.6048 88.294 41.6048 83.1052V78.4147H40.7052C40.2105 78.4147 39.7647 78.5378 39.7149 78.6882C39.6504 78.882 39.4629 78.8486 39.0705 78.5731C38.3103 78.0393 36.4075 78.0619 35.5187 78.6152ZM48.0865 78.5669C45.0201 80.0816 45.0189 84.9286 48.0847 86.4961C49.1705 87.0513 51.0933 87.148 51.9766 86.692C52.6008 86.3695 53.7769 85.3096 53.7769 85.0693C53.7769 84.9788 53.4567 84.7017 53.0656 84.4535L52.3544 84.0022L51.7689 84.5458C51.3448 84.9399 50.9151 85.0897 50.2091 85.0897C49.1947 85.0897 48.0691 84.4427 48.3343 84.0125C48.4129 83.8852 49.6953 83.281 51.1845 82.6697C52.6734 82.0581 53.9253 81.5336 53.9661 81.5039C54.1019 81.4049 53.2714 79.9191 52.7739 79.3711C52.5046 79.0742 52.005 78.6859 51.664 78.5079C50.8367 78.0766 49.0183 78.1065 48.0865 78.5669ZM75.2262 78.4333C73.2901 78.9964 71.999 81.6678 72.5936 83.8806C73.1124 85.8118 74.6091 86.9622 76.6267 86.9804C78.9371 87.0011 80.6375 85.4484 80.8284 83.1443C81.1129 79.7044 78.4773 77.488 75.2262 78.4333ZM116.704 78.4426C116.088 78.6882 114.867 79.7649 114.867 80.063C114.867 80.1627 115.153 80.3921 115.501 80.5731C116.088 80.8769 116.185 80.8596 116.777 80.3489C117.884 79.3948 119.87 79.8524 120.206 81.1384C120.31 81.5391 120.201 81.5628 118.734 81.4576C116.022 81.2633 114.637 82.2239 114.637 84.2991C114.637 86.6087 117.191 87.7609 119.416 86.4558C120.329 85.9202 120.379 85.9151 120.379 86.3557C120.379 86.5877 120.61 86.701 121.085 86.701H121.791L121.717 83.3779C121.642 80.0561 121.642 80.0545 120.966 79.3483C119.961 78.2976 118.074 77.8966 116.704 78.4426ZM136.462 78.5349C134.802 79.2861 133.929 80.6831 133.929 82.591C133.929 85.217 135.665 87.003 138.196 86.9802C139.739 86.9664 140.683 86.4526 141.62 85.1164C142.208 84.2765 142.312 83.9177 142.311 82.7107C142.309 81.0652 141.846 80.0966 140.565 79.059C139.528 78.2188 137.682 77.9831 136.462 78.5349ZM146.565 78.4327C146.252 78.5627 145.826 78.8233 145.618 79.0116C145.281 79.3177 145.228 79.3043 145.118 78.8843C145.028 78.5392 144.807 78.4147 144.285 78.4147H143.575V82.5578V86.701H144.379H145.183V84.1575C145.183 80.7227 145.545 80.0259 147.333 80.0259C147.948 80.0259 148.113 79.9065 148.343 79.2931C148.495 78.89 148.588 78.5284 148.549 78.4897C148.328 78.2679 147.051 78.231 146.565 78.4327ZM152.532 78.3507C152.342 78.4221 151.903 78.6799 151.556 78.9236C150.926 79.3656 150.924 79.3653 150.924 78.8762C150.924 78.4612 150.809 78.3968 150.178 78.4578L149.431 78.5298L149.369 82.6154L149.306 86.701H150.115H150.924L150.925 84.4568C150.927 80.9142 151.454 79.7958 153.121 79.7958C154.457 79.7958 154.703 80.3756 154.794 83.7326L154.874 86.701H155.637H156.399L156.475 83.8033C156.549 80.9547 156.562 80.8962 157.195 80.3507C158.043 79.6206 159.259 79.6001 159.753 80.3074C160.031 80.7056 160.111 81.4705 160.111 83.76V86.701H161.055H162L161.913 83.5352C161.84 80.8716 161.752 80.2418 161.359 79.5647C160.484 78.0566 158.151 77.7725 156.699 78.9973C156.102 79.5009 155.998 79.523 155.733 79.2033C155.048 78.3756 153.535 77.9728 152.532 78.3507ZM82.0254 81.5448C82.0254 85.0143 82.2931 86.0107 83.3769 86.5721C84.5962 87.2037 86.1487 87.104 87.0602 86.3352C87.7403 85.7619 87.7669 85.7575 87.7669 86.2201C87.7669 86.6167 87.9086 86.701 88.576 86.701H89.3851L89.3224 82.6154L89.2597 78.5298H88.4559H87.6521L87.5373 81.4852C87.4238 84.4066 87.4146 84.4473 86.7507 85.0191C86.2133 85.4817 85.9181 85.571 85.2737 85.4663C83.8661 85.2373 83.7563 84.9666 83.6727 81.5145L83.5974 78.4147H82.8115H82.0254V81.5448ZM78.0713 80.1551C79.2161 80.9588 79.6075 82.846 78.9098 84.1985C78.4686 85.0534 77.1825 85.6408 76.1685 85.4502C73.8659 85.0172 73.3868 81.2769 75.48 80.0738C76.1398 79.6945 77.4748 79.7364 78.0713 80.1551ZM96.1131 80.2685C96.8471 80.847 97.294 82.2381 97.0924 83.3153C96.7809 84.9795 94.9595 85.9568 93.5402 85.2214C91.9165 84.3799 91.6259 81.6938 93.0232 80.4423C93.921 79.6385 95.2213 79.5653 96.1131 80.2685ZM139.808 80.5783C140.506 81.2774 140.589 81.4951 140.589 82.6188C140.589 83.5211 140.462 84.0395 140.138 84.4522C138.558 86.4646 135.54 85.3275 135.538 82.719C135.536 80.9869 136.595 79.7958 138.137 79.7958C138.844 79.7958 139.189 79.9573 139.808 80.5783ZM19.7398 80.4428C20.4896 81.021 20.9416 82.4566 20.6545 83.348C20.1003 85.0686 18.1932 85.653 16.8446 84.5157C15.0965 83.0412 16.1472 80.0167 18.4027 80.031C18.8482 80.0338 19.4499 80.219 19.7398 80.4428ZM29.1697 80.3539C30.3006 80.9399 30.6901 82.6147 30.0045 83.9435C29.5677 84.7901 29.0131 85.0897 27.8831 85.0897C27.1889 85.0897 26.8435 84.9339 26.3178 84.384C25.7546 83.795 25.6432 83.4877 25.6432 82.5238C25.6432 81.5105 25.7351 81.287 26.3933 80.6976C27.2327 79.9458 28.1606 79.831 29.1697 80.3539ZM39.0962 80.6987C39.6591 81.2629 39.7675 81.5573 39.7675 82.5224C39.7675 84.1532 38.9763 85.0897 37.5988 85.0897C36.484 85.0897 35.5242 84.385 35.273 83.3816C34.6499 80.8928 37.379 78.9777 39.0962 80.6987ZM51.1489 80.3523C51.6702 80.7344 51.6507 80.7586 50.4468 81.2357C49.9415 81.436 49.1407 81.7651 48.6669 81.9668C47.8296 82.3238 47.8057 82.3205 47.8057 81.8526C47.8057 81.5881 48.1077 81.0688 48.477 80.6987C49.2298 79.9444 50.3873 79.7944 51.1489 80.3523ZM119.786 82.9277C120.744 83.296 119.655 85.1395 118.304 85.4368C116.658 85.7991 115.605 84.2468 116.838 83.2751C117.45 82.7924 118.969 82.6133 119.786 82.9277Z" fill="black"/>
</svg>
