<svg width="96" height="81" viewBox="0 0 96 81" fill="none" xmlns="http://www.w3.org/2000/svg">
<path d="M94.3449 49.7865L90.8558 49.1053C90.6831 47.1826 90.2883 45.2866 89.6794 43.4555L92.6302 41.4521C92.859 41.3049 93.0556 41.1123 93.2077 40.886C93.3598 40.6598 93.4642 40.4047 93.5146 40.1364C93.565 39.8681 93.5604 39.5923 93.5009 39.3258C93.4413 39.0594 93.3282 38.808 93.1685 38.5871L88.0047 30.9139C87.6925 30.4676 87.2212 30.1591 86.6888 30.0524C86.4246 29.9988 86.1524 29.9995 85.8885 30.0546C85.6247 30.1097 85.3746 30.218 85.1535 30.3729L82.2028 32.3764C80.7419 31.1239 79.1352 30.0542 77.4178 29.1909L78.0757 25.6848C78.1365 25.4185 78.1424 25.1425 78.0932 24.8738C78.0439 24.6051 77.9405 24.3493 77.7892 24.1223C77.6379 23.8952 77.4421 23.7016 77.2136 23.5535C76.9851 23.4053 76.7289 23.3057 76.4607 23.2607L67.409 21.5377C67.1449 21.4841 66.8727 21.4848 66.6088 21.5399C66.3449 21.595 66.0949 21.7033 65.8738 21.8582C65.6514 22.0066 65.4609 22.1983 65.3137 22.422C65.1664 22.6457 65.0654 22.8968 65.0165 23.1605L64.3585 26.6866C62.4437 26.8503 60.5557 27.2472 58.7361 27.8686L56.7423 24.9035C56.5975 24.672 56.4071 24.4727 56.1827 24.3179C55.9582 24.1631 55.7047 24.0562 55.4375 24.0036C55.1704 23.9511 54.8955 23.954 54.6295 24.0123C54.3636 24.0706 54.1123 24.183 53.8912 24.3426L46.275 29.5716C46.0526 29.7199 45.8623 29.9116 45.715 30.1353C45.5677 30.359 45.4666 30.6101 45.4177 30.8738C45.32 31.4165 45.4343 31.9762 45.7368 32.4365L47.7306 35.3816C46.4967 36.8621 45.4395 38.4826 44.5804 40.2099L41.0913 39.5488C40.8271 39.4952 40.5549 39.496 40.291 39.5511C40.0272 39.6062 39.7771 39.7145 39.556 39.8694C39.3315 40.02 39.1397 40.2148 38.9924 40.4421C38.845 40.6694 38.7451 40.9244 38.6987 41.1917L36.9841 50.2874C36.9233 50.5537 36.9173 50.8297 36.9666 51.0984C37.0158 51.3671 37.1193 51.6229 37.2706 51.8499C37.4218 52.077 37.6177 52.2706 37.8462 52.4187C38.0746 52.5669 38.3308 52.6666 38.5991 52.7116L42.0881 53.3727C42.2588 55.2957 42.6537 57.192 43.2645 59.0225L40.3137 61.026C40.0891 61.1765 39.8974 61.3714 39.75 61.5987C39.6026 61.826 39.5027 62.081 39.4564 62.3482C39.403 62.6137 39.4038 62.8872 39.4587 63.1524C39.5135 63.4175 39.6213 63.6688 39.7754 63.8909L44.9592 71.5641C45.1068 71.7876 45.2976 71.979 45.5202 72.127C45.7428 72.275 45.9928 72.3765 46.2552 72.4257C46.5194 72.4793 46.7915 72.4785 47.0554 72.4234C47.3193 72.3683 47.5693 72.26 47.7903 72.1051L50.7412 70.1016C52.2075 71.3412 53.8134 72.4036 55.5261 73.2671L54.8683 76.7932C54.8105 77.0581 54.8069 77.332 54.8576 77.5984C54.9083 77.8648 55.0123 78.1181 55.1633 78.3429C55.3143 78.5677 55.509 78.7593 55.7359 78.9062C55.9628 79.053 56.2171 79.1521 56.4832 79.1974L65.5349 80.9404H65.9137C66.3887 80.9473 66.8505 80.7836 67.216 80.4788C67.5816 80.1739 67.8268 79.7479 67.9075 79.2775L68.5655 75.7514C70.4782 75.5848 72.3649 75.1948 74.1878 74.5894L76.1816 77.5545C76.3314 77.7802 76.5254 77.9728 76.7516 78.1209C76.9777 78.269 77.2316 78.3694 77.4975 78.416C77.7617 78.4696 78.0339 78.4688 78.2977 78.4137C78.5616 78.3586 78.8117 78.2504 79.0328 78.0954L86.6488 72.8864C86.8777 72.7392 87.0743 72.5466 87.2264 72.3204C87.3785 72.0941 87.4829 71.839 87.5333 71.5707C87.5837 71.3024 87.5791 71.0266 87.5195 70.7602C87.46 70.4938 87.3469 70.2424 87.1872 70.0215L85.1934 67.0563C86.4272 65.5758 87.4845 63.9554 88.3436 62.228L91.8327 62.8892C92.0964 62.9472 92.369 62.9509 92.6341 62.8999C92.8991 62.849 93.1512 62.7444 93.3749 62.5927C93.5986 62.441 93.7892 62.2452 93.9354 62.0172C94.0816 61.7892 94.1802 61.5338 94.2253 61.2664L95.9399 52.1506C95.9932 51.8852 95.9924 51.6116 95.9376 51.3464C95.8827 51.0813 95.775 50.83 95.6208 50.6079C95.3196 50.176 94.8612 49.8809 94.3449 49.7865ZM90.5966 58.5016L87.5461 57.9205C87.0846 57.8209 86.6029 57.889 86.1867 58.1128C85.7705 58.3366 85.4468 58.7016 85.2733 59.1427C84.3002 61.4919 82.9007 63.6388 81.1461 65.4736C80.8054 65.8095 80.5958 66.257 80.5556 66.735C80.5153 67.2129 80.647 67.6895 80.9267 68.0781L82.6613 70.6626L78.4345 73.5676L76.68 70.9631C76.4222 70.5652 76.0321 70.2723 75.5793 70.1365C75.1265 70.0007 74.6404 70.031 74.2077 70.2218C71.8749 71.2001 69.3782 71.7236 66.8507 71.7645C66.3758 71.7575 65.9139 71.9212 65.5484 72.2261C65.1829 72.531 64.9377 72.957 64.857 73.4274L64.2589 76.5127L59.2545 75.5511L59.8327 72.4657C59.9306 71.9995 59.86 71.5135 59.6334 71.0949C59.4069 70.6763 59.0393 70.3526 58.5966 70.1818C56.2625 69.1991 54.1322 67.7856 52.3162 66.0146C51.9831 65.6773 51.5416 65.47 51.0705 65.4297C50.5993 65.3893 50.1294 65.5185 49.7443 65.7942L47.1722 67.5572L44.3212 63.3299L46.8932 61.5669C47.2892 61.3078 47.5807 60.9158 47.7158 60.4608C47.8509 60.0058 47.8208 59.5174 47.6309 59.0826C46.6566 56.7246 46.1357 54.2026 46.0956 51.6498C46.1026 51.1725 45.9397 50.7083 45.6363 50.341C45.3329 49.9737 44.9089 49.7274 44.4408 49.6463L41.3904 49.0653L42.3473 43.9965L45.3979 44.5975C45.8618 44.6959 46.3455 44.6249 46.762 44.3972C47.1786 44.1696 47.5007 43.8002 47.6707 43.3554C48.6486 41.0087 50.0476 38.8628 51.7978 37.0244C52.1334 36.6897 52.3397 36.2461 52.3798 35.7727C52.42 35.2993 52.2914 34.8269 52.0171 34.44L50.2825 31.8355L54.5093 28.9304L56.2638 31.535C56.5217 31.9329 56.9118 32.2258 57.3646 32.3616C57.8174 32.4974 58.3034 32.4671 58.7361 32.2762C61.0716 31.3067 63.5666 30.7836 66.0931 30.7336C66.5681 30.7405 67.03 30.5768 67.3955 30.2719C67.7611 29.9671 68.0062 29.5411 68.0869 29.0707L68.6851 25.9853L73.6893 26.947L73.1112 30.0324C73.0133 30.4986 73.084 30.9846 73.3105 31.4032C73.5371 31.8218 73.9047 32.1455 74.3473 32.3163C76.6814 33.299 78.8117 34.7124 80.6277 36.4835C80.9608 36.8208 81.4023 37.028 81.8734 37.0684C82.3445 37.1088 82.8146 36.9796 83.1997 36.7039L85.7717 34.9408L88.6426 39.2082L86.0707 40.9713C85.6747 41.2304 85.3832 41.6224 85.2481 42.0774C85.113 42.5324 85.1431 43.0208 85.333 43.4555C86.3054 45.8141 86.8263 48.3358 86.8683 50.8884C86.8614 51.3657 87.0242 51.8298 87.3276 52.1971C87.631 52.5644 88.0549 52.8108 88.523 52.8919L91.5735 53.4729L90.5966 58.5016Z" fill="#231F20"/>
<path d="M69.2234 36.6835C65.3818 35.9582 61.4108 36.796 58.1841 39.0128C54.9573 41.2296 52.739 44.6436 52.0172 48.5039C51.2954 52.3641 52.1293 56.3544 54.3354 59.5969C56.5414 62.8394 59.9389 65.0685 63.7805 65.7938C64.6872 65.9688 65.6086 66.056 66.5319 66.0542C70.1876 66.0285 73.7036 64.6399 76.3985 62.1575C79.0934 59.6752 80.7751 56.2758 81.1178 52.6184C81.4604 48.961 80.4394 45.306 78.2529 42.3619C76.0664 39.4177 72.87 37.3942 69.2833 36.6835H69.2234ZM76.8995 53.2521C76.3727 56.0334 74.7683 58.4906 72.4391 60.0835C70.1098 61.6765 67.2463 62.2747 64.4782 61.7467C61.8871 61.2358 59.5774 59.7756 57.9975 57.6496C56.4176 55.5235 55.6803 52.8834 55.9288 50.2417C56.1772 47.6001 57.3937 45.1455 59.3421 43.3546C61.2904 41.5636 63.8315 40.5641 66.472 40.5501C67.1405 40.5525 67.8076 40.6128 68.4658 40.7304C69.8421 40.9991 71.1524 41.5378 72.3214 42.3158C73.4904 43.0938 74.4953 44.0957 75.2786 45.2643C76.0619 46.4328 76.6082 47.7451 76.8863 49.126C77.1645 50.507 77.169 51.9295 76.8995 53.3122V53.2521Z" fill="#231F20"/>
<path d="M19.7587 40.71L20.1375 43.3746C20.1652 43.5761 20.2324 43.7701 20.335 43.9455C20.4377 44.1208 20.5738 44.2741 20.7356 44.3963C20.9995 44.5988 21.3209 44.7112 21.6528 44.7169H21.912L28.7706 43.7152C29.172 43.6557 29.5336 43.439 29.7765 43.1124C30.0193 42.7858 30.1236 42.3758 30.0666 41.9722L29.6878 39.3076C31.0103 38.7226 32.2559 37.9756 33.3961 37.0837L35.5295 38.7065C35.8588 38.9468 36.2686 39.0479 36.6712 38.9879C37.0737 38.928 37.4369 38.7119 37.6827 38.386L41.8297 32.8163C41.9517 32.6546 42.0409 32.4704 42.0919 32.274C42.1429 32.0777 42.1548 31.8731 42.127 31.6721C42.0993 31.4711 42.0322 31.2776 41.9299 31.1027C41.8276 30.9277 41.692 30.7748 41.5308 30.6526L39.3974 29.0298C39.9169 27.6753 40.2716 26.2626 40.454 24.8225L43.1058 24.4419C43.5074 24.3757 43.8699 24.1614 44.1226 23.8409C44.3633 23.5051 44.4635 23.0879 44.4018 22.6788L43.4247 15.7869C43.3654 15.3822 43.1504 15.0171 42.8261 14.7699C42.5018 14.5227 42.094 14.413 41.6902 14.4646L39.0385 14.8653C38.4605 13.5322 37.724 12.2743 36.8453 11.1189L38.4403 8.97514C38.677 8.63711 38.7834 8.22413 38.7394 7.81316C38.6743 7.40446 38.4524 7.03765 38.1214 6.79137L32.5986 2.6242C32.4397 2.49854 32.2569 2.407 32.0614 2.3553C31.8659 2.3036 31.6619 2.29281 31.4621 2.32363C31.2616 2.35149 31.0685 2.41894 30.8939 2.52209C30.7194 2.62524 30.5671 2.76209 30.4454 2.9247L28.8303 5.08842C27.4878 4.56666 26.0895 4.20364 24.6634 4.00659L24.2846 1.34195C24.2554 1.14028 24.1867 0.946416 24.0825 0.771569C23.9783 0.596722 23.8406 0.44437 23.6775 0.323285C23.5143 0.202199 23.329 0.114798 23.1321 0.0661263C22.9351 0.0174548 22.7305 0.00847415 22.5301 0.0397134L15.6915 1.02139C15.4896 1.04815 15.2952 1.11549 15.1199 1.21943C14.9445 1.32336 14.7918 1.46176 14.6708 1.62632C14.5499 1.79088 14.4631 1.97821 14.4158 2.1772C14.3685 2.37618 14.3616 2.58272 14.3955 2.78445L14.7743 5.44903C13.4539 6.03008 12.2087 6.77011 11.0659 7.65285L8.91259 6.0501C8.75436 5.92338 8.57161 5.83117 8.37594 5.77943C8.18026 5.72769 7.97594 5.71756 7.77613 5.74959C7.37456 5.8158 7.0121 6.03008 6.75941 6.35061L2.61233 11.9403C2.3729 12.269 2.27253 12.6795 2.33318 13.0823C2.35871 13.2844 2.42493 13.4793 2.52776 13.6549C2.63058 13.8306 2.76784 13.9833 2.93128 14.104L5.06463 15.7268C4.54501 17.0744 4.19025 18.4804 4.008 19.914L1.35625 20.3147C1.15406 20.3368 0.958874 20.4018 0.783576 20.5054C0.608278 20.6091 0.456853 20.7489 0.339407 20.9158C0.099973 21.2445 -0.000396948 21.655 0.0602505 22.0577L1.0373 28.9697C1.0965 29.3731 1.31208 29.7364 1.63711 29.9804C1.96214 30.2245 2.37017 30.3293 2.77187 30.272L5.4235 29.8913C6.00173 31.2181 6.73825 32.4694 7.61671 33.6178L6.02172 35.7815C5.89562 35.9405 5.8038 36.1242 5.7523 36.3208C5.70081 36.5174 5.69073 36.7227 5.72261 36.9235C5.75033 37.125 5.81746 37.319 5.92011 37.4944C6.02277 37.6698 6.15889 37.8229 6.32072 37.9452L11.8635 42.1325C12.1927 42.3728 12.6026 42.4738 13.0051 42.4138C13.4077 42.3539 13.7708 42.1378 14.0166 41.8119L15.6117 39.6682C16.9478 40.1803 18.34 40.53 19.7587 40.71ZM13.7774 36.8033L12.3817 38.7065L9.31137 36.3825L10.707 34.4792C10.9444 34.2 11.0748 33.8448 11.0748 33.4775C11.0748 33.1103 10.9444 32.7551 10.707 32.4758C9.4515 31.032 8.47146 29.368 7.81604 27.5673C7.6961 27.2351 7.46634 26.9544 7.16512 26.7721C6.86391 26.5897 6.50947 26.5168 6.16118 26.5655L3.84846 26.9062L3.29015 23.0795L5.60299 22.7389C5.9545 22.6885 6.27768 22.5172 6.51761 22.2542C6.75754 21.9912 6.89933 21.6527 6.91882 21.2964C7.04006 19.3865 7.52043 17.517 8.33444 15.7869C8.47948 15.4618 8.51109 15.0971 8.42425 14.7517C8.33741 14.4063 8.13724 14.1005 7.85596 13.8836L5.98181 12.4611L8.29453 9.37586L10.1687 10.7782C10.4466 11.0167 10.8001 11.1478 11.1656 11.1478C11.531 11.1478 11.8845 11.0167 12.1624 10.7782C13.5862 9.50398 15.2368 8.51157 17.0272 7.85321C17.3578 7.73268 17.6371 7.5018 17.8186 7.19912C18.0001 6.89644 18.0726 6.54034 18.0241 6.19036L17.6852 3.84628L21.4933 3.30537L21.8323 5.62939C21.8817 5.97942 22.0493 6.30176 22.307 6.54247C22.5647 6.78317 22.8968 6.92758 23.2478 6.95162C25.1484 7.07345 27.0089 7.55616 28.7307 8.37413C29.0645 8.55058 29.4508 8.59911 29.8176 8.51065C30.1844 8.4222 30.5067 8.20274 30.7244 7.89325L32.1201 6.01005L35.1905 8.33402L33.7949 10.2173C33.5576 10.4966 33.4272 10.8518 33.4272 11.219C33.4272 11.5863 33.5576 11.9415 33.7949 12.2207C35.0511 13.653 36.0254 15.3118 36.6659 17.1092C36.7897 17.443 37.0231 17.7242 37.3277 17.9064C37.6323 18.0886 37.9897 18.1607 38.3406 18.1109L40.6535 17.7904L41.2117 21.617L38.879 21.9576C38.5321 22.0108 38.2134 22.1802 37.9745 22.4385C37.7356 22.6967 37.5905 23.0285 37.563 23.38C37.4487 25.2951 36.9752 27.1712 36.1675 28.9096C36.0124 29.2296 35.9752 29.5946 36.0629 29.9395C36.1505 30.2844 36.3572 30.5868 36.646 30.7929L38.5201 32.2153L36.1076 35.2806L34.2335 33.8582C33.9556 33.6197 33.6021 33.4887 33.2366 33.4887C32.8711 33.4887 32.5177 33.6197 32.2397 33.8582C30.8204 35.1337 29.1683 36.1202 27.3749 36.7632C27.0449 36.8906 26.7672 37.1258 26.5864 37.4311C26.4055 37.7363 26.3321 38.0938 26.378 38.4461L26.6971 40.7701L22.9089 41.331L22.57 38.987C22.5205 38.637 22.353 38.3147 22.0953 38.074C21.8376 37.8332 21.5054 37.6888 21.1544 37.6647C19.2561 37.5426 17.3969 37.0671 15.6715 36.2623C15.4661 36.1622 15.2417 36.1075 15.0135 36.102C14.7944 36.134 14.5847 36.2132 14.3989 36.3342C14.213 36.4552 14.0554 36.6153 13.9369 36.8033H13.7774Z" fill="#231F20"/>
<path d="M23.7651 33.3778C26.5846 32.9565 29.1314 31.4524 30.8694 29.1821C32.6074 26.9119 33.4011 24.0525 33.0833 21.2061C32.7655 18.3596 31.361 15.7481 29.1656 13.9213C26.9702 12.0944 24.1551 11.1947 21.3128 11.4117C18.4706 11.6286 15.8229 12.9451 13.9272 15.0842C12.0315 17.2233 11.0357 20.018 11.1494 22.88C11.2631 25.7421 12.4773 28.4481 14.5366 30.4286C16.5959 32.4091 19.3397 33.5094 22.1901 33.498C22.7173 33.4971 23.2438 33.4569 23.7651 33.3778ZM14.2947 23.5007C14.1424 22.4573 14.1965 21.394 14.454 20.3716C14.7115 19.3493 15.1672 18.3881 15.7951 17.5431C16.4231 16.698 17.2108 15.9859 18.1131 15.4474C19.0154 14.9089 20.0148 14.5547 21.0536 14.405C21.4293 14.3419 21.8092 14.3084 22.1901 14.3048C23.7133 14.3216 25.1999 14.7764 26.4741 15.6155C27.7482 16.4545 28.7565 17.6426 29.3798 19.0394C30.003 20.4362 30.2151 21.9831 29.991 23.4972C29.7669 25.0113 29.116 26.4292 28.1152 27.5832C27.1143 28.7373 25.8055 29.5791 24.3435 30.0092C22.8815 30.4393 21.3276 30.4397 19.8654 30.0103C18.4033 29.5808 17.094 28.7396 16.0927 27.586C15.0913 26.4324 14.4398 25.0147 14.215 23.5007H14.2947Z" fill="#231F20"/>
</svg>
