<svg width="78" height="57" viewBox="0 0 78 57" fill="none" xmlns="http://www.w3.org/2000/svg">
<path d="M19.7874 22.7787L2.2435 36.9185C2.07161 37.0612 1.9326 37.2392 1.83582 37.4403C1.73903 37.6414 1.68676 37.8609 1.68262 38.0839V54.4923C1.68262 54.9044 1.84679 55.2997 2.13899 55.5911C2.43118 55.8825 2.82746 56.0462 3.24069 56.0462H20.7378C21.1511 56.0462 21.5473 55.8825 21.8395 55.5911C22.1317 55.2997 22.2959 54.9044 22.2959 54.4923V23.9596C22.2894 23.678 22.2062 23.4034 22.0552 23.1653C21.9043 22.9272 21.6913 22.7345 21.439 22.6078C21.1755 22.4781 20.8807 22.4253 20.5884 22.4556C20.2962 22.4858 20.0186 22.5978 19.7874 22.7787ZM19.2265 52.9851H4.70528V38.8142L19.2265 27.0983V52.9851Z" fill="#231F20"/>
<path d="M32.3924 13.6268L27.8584 16.4548C27.6462 16.5941 27.4714 16.783 27.3492 17.0051C27.227 17.2271 27.1611 17.4756 27.1572 17.7289V54.4925C27.1572 54.9046 27.3214 55.2999 27.6136 55.5913C27.9058 55.8827 28.3021 56.0463 28.7153 56.0463H46.2436C46.6569 56.0463 47.0532 55.8827 47.3454 55.5913C47.6376 55.2999 47.8017 54.9046 47.8017 54.4925V28.4814C47.8003 28.0889 47.6501 27.7114 47.3811 27.4248L34.3711 13.8599C34.1205 13.5967 33.7855 13.4293 33.424 13.3867C33.0626 13.3441 32.6976 13.4291 32.3924 13.6268ZM44.7012 52.9853H30.1643V18.568L32.9533 16.8277L44.7012 29.0719V52.9853Z" fill="#231F20"/>
<path d="M64.5672 16.9364L53.0686 28.4347C52.9694 28.5321 52.8908 28.6481 52.8373 28.7762C52.7838 28.9043 52.7564 29.0418 52.757 29.1805V54.943C52.7549 55.0824 52.7808 55.2207 52.8333 55.3498C52.8858 55.479 52.9638 55.5963 53.0626 55.6948C53.1614 55.7934 53.2791 55.8711 53.4086 55.9235C53.5381 55.9758 53.6768 56.0017 53.8165 55.9996H65.315C65.4534 55.9996 65.5905 55.9722 65.7181 55.9189C65.8458 55.8656 65.9616 55.7875 66.0588 55.6892C66.1559 55.5909 66.2325 55.4743 66.2841 55.3462C66.3356 55.2181 66.3611 55.0811 66.359 54.943V17.7444C66.363 17.5356 66.3039 17.3305 66.1894 17.1557C66.075 16.9808 65.9106 16.8444 65.7174 16.7639C65.5242 16.6835 65.3112 16.6629 65.1061 16.7047C64.901 16.7465 64.7132 16.8489 64.5672 16.9985V16.9364ZM64.2555 53.8864H54.9071V29.6156L64.2555 20.2927V53.8864Z" fill="#231F20"/>
<path d="M74.4449 0.341707L49.5158 18.6303L35.0724 3.46492C34.792 3.19286 34.4301 3.01979 34.0419 2.97209C33.6537 2.9244 33.2604 3.00472 32.9222 3.20079L0.794756 25.5138C-1.05935 26.819 0.70131 29.88 2.58658 28.6214L33.5922 7.05426L48.0979 22.2352C48.3764 22.5097 48.7374 22.6857 49.1257 22.7362C49.514 22.7867 49.9082 22.709 50.248 22.5149L76.2367 3.41831C78.0596 2.06647 76.299 -1.01012 74.4449 0.341707Z" fill="#231F20"/>
</svg>
