<svg width="52" height="81" viewBox="0 0 52 81" fill="none" xmlns="http://www.w3.org/2000/svg">
<path d="M0 7.95211V73.0634C0.00410424 75.1698 0.848319 77.1884 2.34727 78.6764C3.84622 80.1644 5.8775 81 7.99528 81H44.0203C46.1354 80.9959 48.1627 80.1585 49.6583 78.671C51.1539 77.1834 51.9959 75.1671 52 73.0634V7.95211C52 5.84576 51.1598 3.82545 49.6638 2.33459C48.1677 0.843737 46.1381 0.00408207 44.0203 0H7.99528C5.87608 0.00407299 3.84484 0.843237 2.34633 2.33365C0.847815 3.82407 0.0040951 5.84434 0 7.95211ZM7.99528 3.17465H44.0203C45.293 3.17872 46.5123 3.68336 47.4122 4.57842C48.3121 5.47348 48.8195 6.68631 48.8236 7.95211V73.0634C48.8154 74.3265 48.3063 75.5354 47.4068 76.4271C46.5074 77.3189 45.2903 77.8213 44.0203 77.8253H7.99528C6.72404 77.8253 5.50458 77.3242 4.60423 76.4315C3.70387 75.5389 3.19599 74.3278 3.19189 73.0634V7.95211C3.20008 6.69041 3.7098 5.48313 4.60971 4.59385C5.50963 3.70457 6.72671 3.20548 7.99528 3.20551V3.17465Z" fill="#231F20"/>
<path d="M13.3868 63.3088H38.767C40.3424 63.3088 41.8534 62.6874 42.9688 61.5809C44.0841 60.4745 44.7128 58.9732 44.7169 57.4063V12.7762C44.7169 11.2067 44.0901 9.70147 42.9742 8.59166C41.8584 7.48186 40.345 6.8584 38.767 6.8584H13.3868C11.8115 6.86248 10.3021 7.48775 9.18961 8.59712C8.07713 9.70648 7.45232 11.2094 7.45233 12.7762V57.3447C7.4462 58.1244 7.59509 58.8976 7.89039 59.62C8.18569 60.3423 8.62159 60.9994 9.17306 61.5537C9.72453 62.1079 10.3807 62.5483 11.1038 62.8495C11.827 63.1506 12.6028 63.3067 13.3868 63.3088ZM9.99347 12.8379C9.98317 12.3875 10.0632 11.9396 10.229 11.5203C10.3947 11.1011 10.6427 10.7189 10.9587 10.396C11.2746 10.0732 11.652 9.81616 12.0689 9.64007C12.4859 9.46397 12.9339 9.37232 13.3868 9.37039H38.767C39.667 9.37039 40.5301 9.72594 41.1665 10.3589C41.8029 10.9918 42.1604 11.8503 42.1604 12.7454V57.3139C42.1563 58.2077 41.7974 59.0638 41.162 59.6959C40.5265 60.3279 39.6657 60.6848 38.767 60.6889H13.3868C12.4881 60.6848 11.6274 60.3279 10.9919 59.6959C10.3564 59.0638 9.99755 58.2077 9.99347 57.3139V12.8379Z" fill="#231F20"/>
<path d="M26.0001 65.2656C24.9213 65.2656 23.8668 65.5837 22.9699 66.1798C22.073 66.7759 21.3739 67.6231 20.9611 68.6143C20.5483 69.6055 20.4402 70.6963 20.6507 71.7486C20.8611 72.8009 21.3806 73.7674 22.1434 74.526C22.9062 75.2847 23.878 75.8014 24.936 76.0107C25.994 76.22 27.0906 76.1126 28.0872 75.702C29.0839 75.2914 29.9356 74.5961 30.535 73.704C31.1343 72.8119 31.4541 71.7631 31.4541 70.6902C31.4541 69.2515 30.8795 67.8717 29.8567 66.8544C28.8338 65.8371 27.4466 65.2656 26.0001 65.2656ZM26.0001 74.204C25.302 74.2009 24.6205 73.9923 24.0416 73.6043C23.4626 73.2164 23.0123 72.6666 22.7473 72.0243C22.4822 71.382 22.4145 70.676 22.5525 69.9954C22.6906 69.3148 23.0283 68.6902 23.5229 68.2003C24.0176 67.7105 24.6471 67.3773 25.332 67.243C26.0169 67.1086 26.7264 67.1791 27.3711 67.4455C28.0157 67.7119 28.5665 68.1623 28.954 68.7398C29.3415 69.3173 29.5483 69.9959 29.5483 70.6902C29.5483 71.1529 29.4564 71.6112 29.2779 72.0385C29.0994 72.4658 28.8378 72.8538 28.5081 73.1803C28.1784 73.5068 27.7871 73.7653 27.3567 73.941C26.9263 74.1166 26.4653 74.206 26.0001 74.204Z" fill="#231F20"/>
</svg>
