<svg width="125" height="62" viewBox="0 0 125 62" fill="none" xmlns="http://www.w3.org/2000/svg">
<path fill-rule="evenodd" clip-rule="evenodd" d="M80.9568 0.563251C80.0335 1.18071 79.2185 2.56483 79.2137 3.52345C79.2026 5.7334 81.6408 7.55137 83.753 6.90806C84.5836 6.65498 84.113 6.34669 91.0364 11.6766C92.8367 13.0625 94.4491 14.3015 94.6198 14.4299C94.8826 14.628 94.8626 14.8118 94.4873 15.635C93.2256 18.404 93.2952 21.2706 94.6802 23.6011L95.0934 24.2963L93.5574 25.8095C92.2072 27.1395 91.9174 27.3253 91.1622 27.3441C88.5314 27.4096 87.3798 30.2579 89.2156 32.1595C91.0715 34.0825 94.0333 32.9968 94.0891 30.3731C94.1079 29.491 94.2284 29.2969 95.5874 27.9579L97.0657 26.5017L98.2135 27.093C101.414 28.741 105.595 28.2668 108.173 25.9633C113.258 21.4189 111.533 13.2553 105.036 11.1154L103.822 10.7156L103.857 8.98063C103.89 7.35132 103.935 7.20232 104.592 6.52987C106.669 4.40186 105.256 1.15923 102.251 1.15923C99.4367 1.15923 98.1185 4.56751 100.176 6.52418C100.809 7.12651 100.842 7.24352 100.842 8.9355V10.7136L99.6829 11.1229C99.0456 11.3479 98.1627 11.7561 97.721 12.0298L96.9178 12.5276L91.6509 8.45739L86.3839 4.38718L86.2689 3.26621C85.9945 0.59305 83.1078 -0.875872 80.9568 0.563251ZM3.0583 16.9352V28.329H5.2656H7.4729V23.7229V19.1167L11.6116 19.1763L15.7503 19.2359L15.8606 23.7277L15.971 28.2195L18.1231 28.2821L20.2752 28.3448V16.9431V5.54146H18.0679H15.8606V10.2524V14.9632H11.6668H7.4729V10.2524V5.54146H5.2656H3.0583V16.9352ZM39.7935 5.83332C39.7277 6.00335 39.7046 9.72934 39.7419 14.1135L39.8098 22.0844L40.4546 23.3898C44.7946 32.1773 57.8746 28.0676 56.4895 18.3516C55.6903 12.7456 49.0361 9.2944 44.6822 12.2276L43.9042 12.7515L43.8437 9.20128L43.783 5.65102L41.8481 5.58769C40.3422 5.53839 39.8864 5.59295 39.7935 5.83332ZM62.9865 5.77766C59.9976 6.78163 58.3944 8.6191 58.1044 11.374C57.7382 14.8522 59.2116 16.9832 62.9448 18.375C66.7444 19.7914 67.2907 20.2026 67.2907 21.6464C67.2907 24.2974 63.5118 24.7479 61.3136 22.3589L60.6693 21.6584L59.2343 23.0701C57.5298 24.747 57.5212 24.8027 58.782 25.9841C63.7566 30.6455 71.8643 27.9381 71.9137 21.599C71.9426 17.8993 70.3121 16.0233 65.7695 14.5298C63.0324 13.6297 62.4658 13.0771 62.7481 11.583C63.1492 9.46158 66.2646 9.28322 68.375 11.2609L68.9074 11.7598L70.0816 10.4583C71.6027 8.77226 71.6813 8.50801 70.9012 7.69971C69.2773 6.01737 65.2123 5.03005 62.9865 5.77766ZM116.297 7.63507C115.996 7.79896 115.222 8.15896 114.577 8.43526C113.813 8.7624 113.363 9.09939 113.287 9.40111C113.018 10.4623 113.344 24.0439 113.659 24.9328C114.371 26.9421 116.746 28.329 119.475 28.329C120.864 28.329 120.991 28.2085 121.44 26.4666C121.626 25.7435 121.846 24.9793 121.928 24.7685C122.061 24.43 121.928 24.385 120.786 24.3846C119.228 24.3844 118.025 23.853 117.811 23.0704C117.729 22.7691 117.651 20.9244 117.639 18.9708L117.617 15.4192L119.438 15.3555L121.259 15.2919V13.539V11.7861L119.438 11.7226L117.617 11.6588V9.4767C117.617 7.08992 117.528 6.96568 116.297 7.63507ZM80.7729 11.1579C77.3441 11.929 74.9083 14.5857 74.3563 18.1561C74.2168 19.0591 74.1464 22.4713 74.1828 26.5761L74.2437 33.4782L76.2855 33.5413L78.3272 33.6041V30.0903C78.3272 26.8474 78.4546 26.1134 78.8945 26.82C79.4254 27.6728 83.2274 28.2795 84.9787 27.7907C87.2253 27.1638 89.2781 25.3919 90.3981 23.1124C91.2984 21.2802 91.3033 17.8584 90.4078 16.0371C88.7205 12.6054 84.2971 10.3652 80.7729 11.1579ZM22.5719 11.3229C22.5075 11.4899 22.4876 14.1276 22.5278 17.1842C22.6101 23.438 22.7 23.8482 24.3972 25.7131C28.131 29.8157 34.5598 28.8133 36.892 23.7649C37.3366 22.8028 37.3653 22.3951 37.3732 16.9352L37.3818 11.1288L35.3401 11.0657L33.2983 11.0028V16.1673C33.2983 21.6926 33.2025 22.2895 32.168 23.2078C30.5081 24.6808 28.0271 24.1567 27.0018 22.1168C26.7424 21.6006 26.6764 20.409 26.6764 16.2442V11.0192H24.683C23.1873 11.0192 22.66 11.0951 22.5719 11.3229ZM85.1228 15.9199C87.9089 17.6658 87.6776 21.796 84.7094 23.2991C81.9748 24.6839 78.548 22.555 78.548 19.4715C78.548 16.1418 82.2695 14.1317 85.1228 15.9199ZM104.634 15.8506C107.557 17.7663 107.185 21.9253 103.969 23.3147C100.209 24.9383 96.5944 20.6067 98.8183 17.1425C100.061 15.2062 102.743 14.6107 104.634 15.8506ZM49.6323 15.7488C53.6655 17.1333 53.4046 23.0338 49.2714 23.9089C44.9994 24.8132 42.1597 19.3948 45.463 16.6419C46.9001 15.4442 48.0362 15.201 49.6323 15.7488ZM109.449 37.5751C109.448 37.6115 109.445 42.9657 109.442 49.4733L109.435 61.3053H110.601H111.768L111.836 60.3629L111.905 59.4205L112.655 60.0745C114.035 61.2775 114.846 61.5244 117.416 61.5244C120.791 61.5244 122.858 60.3611 124.125 57.7471C124.345 57.2938 124.62 56.7346 124.737 56.5046C125.232 55.5282 124.989 51.9313 124.336 50.5601C122.911 47.571 120.778 46.2361 117.396 46.2186C115.087 46.2068 114.194 46.5144 112.661 47.8505L111.886 48.5258L111.827 43.0836L111.768 37.6413L110.609 37.5751C109.972 37.5385 109.45 37.5385 109.449 37.5751ZM9.56984 38.5444C3.13887 39.5199 -1.23887 46.3619 0.31441 53.0102C2.20717 61.1114 12.0325 64.7234 18.4589 59.6808C20.2854 58.2478 20.4706 57.6757 19.3449 56.9439L18.4361 56.3534L17.645 57.1672C14.4842 60.4188 9.02552 60.4703 5.63378 57.2804C1.60215 53.4887 1.85797 45.8439 6.12446 42.6133C8.70988 40.6556 12.3758 40.1906 15.0894 41.4764C15.8531 41.8381 16.7731 42.4679 17.1338 42.8754L17.7894 43.6167L18.6977 43.0391C19.8841 42.2849 19.9744 41.9753 19.2336 41.2014C17.3367 39.22 12.9918 38.0254 9.56984 38.5444ZM53.8262 38.5462C53.132 38.6814 51.3602 39.3247 51.0671 39.548C48.9653 41.1497 48.308 42.3682 48.308 44.6614C48.308 47.8906 49.7473 49.4297 54.1573 50.9161C58.5997 52.4133 59.5652 53.2481 59.5652 55.592C59.5652 59.6129 54.1012 61.1778 50.8669 58.0833C49.6343 56.9038 49.4725 56.9027 48.2086 58.066L47.6078 58.619L48.4219 59.4466C52.1734 63.2602 59.4753 62.6121 61.6144 58.2756C63.405 54.6454 61.6473 50.9306 57.4499 49.4748C56.6579 49.2001 55.9492 48.9148 55.8746 48.8409C55.8002 48.7669 55.5664 48.7064 55.3552 48.7064C54.6992 48.7064 52.1979 47.4767 51.6465 46.8834C51.3582 46.5731 51.056 45.9445 50.9748 45.4861C50.176 40.9775 55.6819 38.9472 59.5438 42.3263C60.1947 42.8958 60.019 42.9286 61.0944 42.0366L62.0031 41.2831L61.3357 40.5285C59.9914 39.0087 56.3668 38.0519 53.8262 38.5462ZM22.7565 50.1768L22.8136 61.3053H24.0277H25.2417L25.352 52.1708L25.4624 43.0362L26.6546 45.9261C28.0471 49.3013 28.2211 49.711 28.9775 51.3971C29.2901 52.0934 29.5459 52.7153 29.5459 52.7784C29.5459 52.9236 30.373 54.8238 30.6573 55.3314C30.7745 55.5407 30.8703 55.8052 30.8703 55.9189C30.8703 56.0326 31.1537 56.7487 31.4998 57.5103C31.8461 58.2719 32.3543 59.4619 32.6291 60.155C33.0359 61.1802 33.2235 61.4148 33.6369 61.4148C34.3134 61.4148 34.8434 61.2003 34.8434 60.9264C34.8434 60.7027 38.1817 52.6633 39.1695 50.5081C39.4611 49.8721 39.6995 49.2546 39.6995 49.1356C39.6995 49.0169 39.794 48.7482 39.9096 48.539C40.3358 47.7666 42.1129 43.4403 42.1792 43.0137C42.2074 42.8307 42.282 46.8713 42.3447 51.9931L42.4586 61.3053L43.7278 61.371L44.997 61.4368V50.2426V39.0484L43.0943 39.1117L41.1916 39.175L40.7707 40.2706C40.5394 40.8732 40.2579 41.5634 40.1454 41.8044C40.0326 42.0454 39.4845 43.3765 38.9269 44.7624C38.3694 46.1483 37.8272 47.4794 37.7217 47.7204C37.6165 47.9614 37.2185 48.9474 36.8375 49.9115C36.4563 50.8756 36.0572 51.8616 35.9504 52.1026C35.8436 52.3436 35.6122 52.8859 35.4363 53.3077C35.2604 53.7295 34.9558 54.4346 34.7593 54.8746C34.5627 55.3146 34.3989 55.8076 34.3949 55.9701C34.3911 56.1327 34.26 56.4327 34.1038 56.6369C33.8497 56.9686 33.789 56.9222 33.5318 56.1987C33.3734 55.7534 33.0522 54.9456 32.8176 54.4033C32.2205 53.0222 32.1128 52.7639 31.3117 50.7879C30.4588 48.6843 30.3608 48.4502 29.7788 47.1299C29.5293 46.5641 29.3252 46.0584 29.3252 46.0063C29.3252 45.9541 29.1587 45.5297 28.9555 45.063C28.7522 44.5963 28.1222 43.0807 27.5554 41.6948L26.5246 39.175L24.6119 39.1117L22.6993 39.0484L22.7565 50.1768ZM71.5378 50.1854L71.595 61.3053H72.809H74.023L74.0822 56.1014L74.1413 50.8975L80.0419 50.8973H85.9424V56.1012V61.3053L87.2116 61.371L88.4808 61.4368V50.2511V39.0655H87.1485H85.8164L85.8323 43.6121C85.8411 46.1126 85.8446 48.2835 85.8402 48.4362C85.8338 48.6545 84.5942 48.7011 80.0379 48.6553L74.2437 48.5968L74.1841 43.8312L74.1248 39.0655H72.8026H71.4806L71.5378 50.1854ZM92.4539 51.9635C92.4539 57.9623 92.5447 58.4746 93.8856 60.0566C95.7453 62.2503 100.195 62.2576 102.349 60.0702L103.049 59.3596V59.9635C103.049 61.059 103.403 61.4148 104.494 61.4148H105.483L105.425 54.0198L105.367 46.6248L104.208 46.5587L103.049 46.4923V50.7976C103.049 55.7392 102.828 56.8797 101.597 58.3078C100.401 59.6948 98.483 60.0526 96.7381 59.2141C95.1394 58.4459 95.0193 57.9711 94.8864 51.8835L94.7716 46.6248L93.6128 46.5587L92.4539 46.4923V51.9635ZM118.39 48.3315C121.309 49.2434 122.793 51.7115 122.353 54.9256C121.538 60.8923 113.458 61.3439 111.751 55.5181C110.518 51.3112 114.417 47.0907 118.39 48.3315Z" fill="black"/>
</svg>
