<svg width="90" height="66" viewBox="0 0 90 66" fill="none" xmlns="http://www.w3.org/2000/svg">
<g clip-path="url(#clip0_343_474)">
<path d="M1.40957 48.1697H14.3003C14.6669 48.1697 15.0187 48.0248 15.2794 47.7663C15.5402 47.5079 15.689 47.1568 15.6934 46.7891V23.8406C15.689 23.4729 15.5402 23.1217 15.2794 22.8633C15.0187 22.6049 14.6669 22.4599 14.3003 22.46H1.40957C1.04454 22.46 0.694445 22.6054 0.436329 22.8643C0.178213 23.1232 0.0332031 23.4744 0.0332031 23.8406V46.7891C0.0332031 46.9704 0.0688374 47.1499 0.138006 47.3174C0.207174 47.4849 0.308523 47.6371 0.436329 47.7653C0.564135 47.8935 0.715905 47.9952 0.882892 48.0646C1.04988 48.1339 1.22882 48.1697 1.40957 48.1697ZM2.78593 25.2212H12.8568V45.4253H2.78593V25.2212Z" fill="#231F20"/>
<path d="M44.345 64.99C44.5796 65.1437 44.8536 65.2256 45.1338 65.2257C45.3152 65.228 45.4952 65.1938 45.6632 65.1252C45.8312 65.0566 45.9838 64.955 46.1121 64.8264C46.2403 64.6977 46.3416 64.5446 46.41 64.3761C46.4784 64.2076 46.5124 64.027 46.5102 63.8451V1.38074C46.5108 1.11333 46.434 0.851515 46.289 0.627077C46.1441 0.402639 45.9372 0.225221 45.6937 0.116446C45.4501 0.00767215 45.1803 -0.0278159 44.917 0.0142998C44.6538 0.0564155 44.4084 0.17436 44.2107 0.353727L19.0335 22.814C18.8857 22.9408 18.7671 23.0983 18.6859 23.2756C18.6048 23.4529 18.563 23.6459 18.5635 23.841V46.7895C18.5673 47.0145 18.6241 47.2355 18.7291 47.4344C18.8341 47.6333 18.9844 47.8046 19.1678 47.9344L44.345 64.99ZM21.4169 24.4639L43.7407 4.47875V61.2859L21.4169 46.1328V24.4639Z" fill="#231F20"/>
<path d="M90.0007 35.3069C90.0149 29.7993 88.9188 24.3456 86.7786 19.2736C84.6383 14.2016 81.498 9.61588 77.5463 5.79208C76.7492 5.07449 75.7062 4.69425 74.6357 4.73095C73.5653 4.76764 72.5505 5.21846 71.804 5.98897C71.0576 6.75948 70.6374 7.78992 70.6315 8.86429C70.6256 9.93866 71.0344 10.9736 71.7724 11.7523C74.9215 14.8118 77.4255 18.4749 79.1355 22.5242C80.8455 26.5735 81.7265 30.9262 81.7265 35.3238C81.7265 39.7214 80.8455 44.074 79.1355 48.1233C77.4255 52.1725 74.9215 55.8357 71.7724 58.8952C71.3811 59.2755 71.0684 59.7294 70.852 60.2309C70.6356 60.7325 70.5198 61.2718 70.5113 61.8182C70.5027 62.3646 70.6016 62.9074 70.8021 63.4156C71.0026 63.9237 71.3009 64.3872 71.6801 64.7796C72.0592 65.1721 72.5117 65.4858 73.0117 65.7029C73.5116 65.9199 74.0494 66.0361 74.5941 66.0447C75.1389 66.0532 75.6799 65.9541 76.1865 65.7529C76.693 65.5517 77.1551 65.2525 77.5463 64.8722C81.5026 61.0413 84.6454 56.4473 86.7857 51.3664C88.9261 46.2855 90.0197 40.8228 90.0007 35.3069ZM73.6691 62.8181C73.4187 62.5553 73.2802 62.2051 73.283 61.8416C73.2823 61.6587 73.3191 61.4775 73.3913 61.3094C73.4635 61.1414 73.5695 60.9901 73.7027 60.8651C77.1068 57.5435 79.8127 53.5712 81.6604 49.1828C83.508 44.7945 84.46 40.0791 84.46 35.3154C84.46 30.5516 83.508 25.8362 81.6604 21.4479C79.8127 17.0595 77.1068 13.0872 73.7027 9.76563C73.5052 9.57449 73.3693 9.32854 73.3122 9.05933C73.2552 8.79013 73.2797 8.50996 73.3825 8.2548C73.4853 7.99964 73.6618 7.78113 73.8893 7.62733C74.1168 7.47352 74.385 7.39141 74.6594 7.39159C75.016 7.3931 75.3584 7.53166 75.6161 7.7788C79.2905 11.3555 82.2116 15.6357 84.2064 20.3658C86.2011 25.0958 87.2289 30.1795 87.2289 35.3154C87.2289 40.4512 86.2011 45.5348 84.2064 50.2648C82.2116 54.9949 79.2905 59.2751 75.6161 62.8518C75.3515 63.1024 74.9996 63.2391 74.6357 63.2328C74.2719 63.2266 73.9249 63.0777 73.6691 62.8181Z" fill="#231F20"/>
<path d="M58.3608 56.2343C59.4254 56.2289 60.4471 55.8129 61.2143 55.0726C63.8872 52.5117 66.0147 49.4338 67.4683 46.0248C68.9219 42.6158 69.6713 38.9467 69.6713 35.239C69.6713 31.5313 68.9219 27.862 67.4683 24.453C66.0147 21.0441 63.8872 17.9661 61.2143 15.4052C60.4155 14.6527 59.3558 14.2421 58.2601 14.2604C57.4424 14.2854 56.6502 14.5516 55.9824 15.0256C55.3147 15.4997 54.801 16.1606 54.5055 16.9258C54.21 17.691 54.1459 18.5266 54.3211 19.3282C54.4963 20.1298 54.903 20.8618 55.4906 21.4328C57.3516 23.217 58.8327 25.3609 59.8447 27.7353C60.8566 30.1096 61.3784 32.6651 61.3784 35.2473C61.3784 37.8295 60.8566 40.385 59.8447 42.7594C58.8327 45.1337 57.3516 47.2777 55.4906 49.0619C55.0827 49.45 54.7578 49.9174 54.5356 50.4355C54.3134 50.9536 54.1987 51.5117 54.1982 52.0757C54.2065 53.1616 54.6345 54.2019 55.3921 54.9776C56.1498 55.7533 57.178 56.2038 58.2601 56.2343H58.3608ZM57.4041 51.0654C59.5367 49.0218 61.2342 46.5657 62.3939 43.8455C63.5537 41.1253 64.1516 38.1975 64.1516 35.239C64.1516 32.2804 63.5537 29.3525 62.3939 26.6323C61.2342 23.9121 59.5367 21.456 57.4041 19.4124C57.1377 19.163 56.9808 18.8179 56.9677 18.4527C56.9657 18.0844 57.1038 17.7291 57.3538 17.4593C57.4785 17.3257 57.6293 17.2195 57.7968 17.1471C57.9643 17.0746 58.1448 17.0376 58.3272 17.0383C58.6815 17.0353 59.0236 17.1678 59.284 17.4088C61.6921 19.708 63.6095 22.474 64.9195 25.539C66.2296 28.604 66.9052 31.9041 66.9052 35.239C66.9052 38.5738 66.2296 41.8739 64.9195 44.9389C63.6095 48.0039 61.6921 50.7698 59.284 53.069C59.1576 53.1981 59.0058 53.2993 58.8381 53.366C58.6705 53.4327 58.4908 53.4634 58.3105 53.4562C57.9484 53.4518 57.6025 53.3044 57.3481 53.046C57.0936 52.7875 56.9509 52.439 56.951 52.0757C56.9838 51.7314 57.1457 51.4123 57.4041 51.1833V51.0654Z" fill="#231F20"/>
</g>
<defs>
<clipPath id="clip0_343_474">
<rect width="90" height="66" fill="white"/>
</clipPath>
</defs>
</svg>
