<svg width="95" height="108" viewBox="0 0 95 108" fill="none" xmlns="http://www.w3.org/2000/svg">
<g clip-path="url(#clip0_363_496)">
<path d="M12.0761 92.8856H54.4896L76.3762 107.613C76.761 107.863 77.2092 107.997 77.6676 107.999C78.0472 108.001 78.4211 107.907 78.7551 107.726C79.1357 107.534 79.4544 107.238 79.6748 106.872C79.8952 106.507 80.0084 106.086 80.0012 105.658V91.7265C84.238 89.9083 89.3811 85.9992 89.3811 80.7719V38.8401C89.3811 35.6274 88.1089 32.5463 85.8442 30.2745C83.5795 28.0028 80.5078 26.7266 77.305 26.7266H12.0761C8.87334 26.7266 5.80179 28.0028 3.53708 30.2745C1.27238 32.5463 0 35.6274 0 38.8401V80.7719C0 82.3627 0.312447 83.938 0.919327 85.4077C1.52621 86.8774 2.41572 88.2128 3.53708 89.3377C4.65845 90.4625 5.98959 91.3548 7.45473 91.9636C8.91987 92.5723 10.4903 92.8856 12.0761 92.8856ZM4.6673 38.8401C4.67327 36.8709 5.4558 34.9841 6.84392 33.5916C8.23204 32.1992 10.113 31.4144 12.0761 31.4084H77.305C79.2681 31.4144 81.1491 32.1992 82.5372 33.5916C83.9253 34.9841 84.7079 36.8709 84.7138 38.8401V80.7719C84.7138 83.4992 80.6357 86.7038 76.9652 87.8629C76.4794 88.0046 76.0548 88.3053 75.7591 88.7172C75.4635 89.1291 75.3138 89.6284 75.3339 90.1356V101.317L56.5061 88.6584C56.1273 88.3931 55.6766 88.2504 55.2146 88.2493H12.1667C10.2036 88.2433 8.32262 87.4584 6.9345 86.0659C5.54638 84.6735 4.76399 82.7866 4.75801 80.8174L4.6673 38.8401Z" fill="#231F20"/>
<path d="M17.1287 51.1134H72.1168C72.719 51.1569 73.3238 51.0755 73.8932 50.8742C74.4627 50.6728 74.9847 50.356 75.4267 49.9434C75.8687 49.5308 76.2211 49.0312 76.4622 48.4759C76.7032 47.9206 76.8275 47.3214 76.8275 46.7157C76.8275 46.1101 76.7032 45.5109 76.4622 44.9556C76.2211 44.4003 75.8687 43.9007 75.4267 43.4881C74.9847 43.0755 74.4627 42.7586 73.8932 42.5573C73.3238 42.356 72.719 42.2746 72.1168 42.318H17.1287C16.5265 42.2746 15.9219 42.356 15.3524 42.5573C14.7829 42.7586 14.2609 43.0755 13.8189 43.4881C13.377 43.9007 13.0244 44.4003 12.7833 44.9556C12.5423 45.5109 12.418 46.1101 12.418 46.7157C12.418 47.3214 12.5423 47.9206 12.7833 48.4759C13.0244 49.0312 13.377 49.5308 13.8189 49.9434C14.2609 50.356 14.7829 50.6728 15.3524 50.8742C15.9219 51.0755 16.5265 51.1569 17.1287 51.1134ZM17.1287 45.1362H72.1168C72.5374 45.1362 72.9409 45.3038 73.2383 45.6021C73.5357 45.9005 73.7028 46.3052 73.7028 46.7271C73.7028 47.149 73.5357 47.5537 73.2383 47.8521C72.9409 48.1504 72.5374 48.318 72.1168 48.318H17.1287C16.7081 48.318 16.3048 48.1504 16.0073 47.8521C15.7099 47.5537 15.5427 47.149 15.5427 46.7271C15.5427 46.3052 15.7099 45.9005 16.0073 45.6021C16.3048 45.3038 16.7081 45.1362 17.1287 45.1362Z" fill="#231F20"/>
<path d="M17.1287 64.0226H72.1168C72.719 64.0661 73.3238 63.9847 73.8932 63.7833C74.4627 63.582 74.9847 63.2652 75.4267 62.8526C75.8687 62.4399 76.2211 61.9404 76.4622 61.3851C76.7032 60.8298 76.8275 60.2306 76.8275 59.6249C76.8275 59.0192 76.7032 58.42 76.4622 57.8647C76.2211 57.3094 75.8687 56.8099 75.4267 56.3973C74.9847 55.9846 74.4627 55.6678 73.8932 55.4665C73.3238 55.2652 72.719 55.1837 72.1168 55.2272H17.1287C16.5265 55.1837 15.9219 55.2652 15.3524 55.4665C14.7829 55.6678 14.2609 55.9846 13.8189 56.3973C13.377 56.8099 13.0244 57.3094 12.7833 57.8647C12.5423 58.42 12.418 59.0192 12.418 59.6249C12.418 60.2306 12.5423 60.8298 12.7833 61.3851C13.0244 61.9404 13.377 62.4399 13.8189 62.8526C14.2609 63.2652 14.7829 63.582 15.3524 63.7833C15.9219 63.9847 16.5265 64.0661 17.1287 64.0226ZM17.1287 58.0226H72.1168C72.5374 58.0226 72.9409 58.1902 73.2383 58.4885C73.5357 58.7869 73.7028 59.1916 73.7028 59.6135C73.7028 60.0355 73.5357 60.4402 73.2383 60.7385C72.9409 61.0369 72.5374 61.2045 72.1168 61.2045H17.1287C16.9204 61.2045 16.7142 61.1633 16.5217 61.0834C16.3293 61.0034 16.1546 60.8863 16.0073 60.7385C15.8601 60.5908 15.7431 60.4154 15.6634 60.2224C15.5837 60.0293 15.5427 59.8225 15.5427 59.6135C15.5427 59.4046 15.5837 59.1977 15.6634 59.0047C15.7431 58.8117 15.8601 58.6363 16.0073 58.4885C16.1546 58.3408 16.3293 58.2236 16.5217 58.1437C16.7142 58.0637 16.9204 58.0226 17.1287 58.0226Z" fill="#231F20"/>
<path d="M17.1287 76.4777H72.1168C72.719 76.5212 73.3238 76.4397 73.8932 76.2384C74.4627 76.0371 74.9847 75.7203 75.4267 75.3076C75.8687 74.895 76.2211 74.3955 76.4622 73.8402C76.7032 73.2848 76.8275 72.6856 76.8275 72.08C76.8275 71.4743 76.7032 70.8753 76.4622 70.3199C76.2211 69.7646 75.8687 69.2651 75.4267 68.8525C74.9847 68.4398 74.4627 68.123 73.8932 67.9217C73.3238 67.7204 72.719 67.6388 72.1168 67.6823H17.1287C16.5265 67.6388 15.9219 67.7204 15.3524 67.9217C14.7829 68.123 14.2609 68.4398 13.8189 68.8525C13.377 69.2651 13.0244 69.7646 12.7833 70.3199C12.5423 70.8753 12.418 71.4743 12.418 72.08C12.418 72.6856 12.5423 73.2848 12.7833 73.8402C13.0244 74.3955 13.377 74.895 13.8189 75.3076C14.2609 75.7203 14.7829 76.0371 15.3524 76.2384C15.9219 76.4397 16.5265 76.5212 17.1287 76.4777ZM17.1287 70.4778H72.1168C72.5374 70.4778 72.9409 70.6454 73.2383 70.9438C73.5357 71.2421 73.7028 71.6467 73.7028 72.0686C73.7028 72.4905 73.5357 72.8952 73.2383 73.1936C72.9409 73.492 72.5374 73.6595 72.1168 73.6595H17.1287C16.7081 73.6595 16.3048 73.492 16.0073 73.1936C15.7099 72.8952 15.5427 72.4905 15.5427 72.0686C15.5427 71.6467 15.7099 71.2421 16.0073 70.9438C16.3048 70.6454 16.7081 70.4778 17.1287 70.4778Z" fill="#231F20"/>
<path d="M87.4085 20.5452C88.2695 21.0679 88.9038 21.4997 89.3343 21.8179L89.8555 22.1589C90.5076 22.6616 91.3321 22.8842 92.1477 22.7777C92.9633 22.6711 93.7035 22.2442 94.2055 21.5907C94.7151 20.9446 94.9529 20.1245 94.8682 19.3051C94.7836 18.4857 94.3831 17.7319 93.7524 17.2043C82.0162 7.43161 71.2994 1.93155 60.9906 0.3861C55.8985 -0.385368 50.7092 -0.223608 45.6747 0.863422C41.328 1.79996 37.107 3.24936 33.1001 5.18152L30.6306 1.59071C30.3099 1.11722 29.8654 0.741539 29.3457 0.50498C28.8261 0.26842 28.2516 0.180077 27.6852 0.249742C27.1194 0.314219 26.5819 0.532443 26.1307 0.880901C25.6795 1.22936 25.3318 1.69481 25.125 2.227L18.3279 19.5907C18.1505 20.0392 18.0786 20.5227 18.1179 21.0036C18.1572 21.4845 18.3066 21.9498 18.5544 22.3633C18.7954 22.7702 19.1239 23.1181 19.5158 23.3815C19.9077 23.6449 20.3533 23.8173 20.8201 23.8862L39.4214 25.977H39.7838C40.3067 25.9797 40.8218 25.8499 41.2812 25.5996C41.7407 25.3493 42.1297 24.9866 42.4121 24.5452C42.7164 24.0456 42.8774 23.4716 42.8774 22.8862C42.8774 22.3007 42.7164 21.7265 42.4121 21.227L40.4862 17.977C45.3717 14.9772 50.8718 13.1278 56.5726 12.5679C64.5965 11.9545 72.6452 13.377 79.977 16.7043C82.5409 17.8082 85.0242 19.0917 87.4085 20.5452ZM56.3686 8.54525C49.3326 9.25513 42.5827 11.7073 36.7252 15.6815C36.2843 15.9787 35.973 16.4336 35.8551 16.9531C35.7372 17.4727 35.8215 18.0177 36.0908 18.4771L38.0394 21.727L22.746 19.977L28.3875 5.5906L30.8118 9.09068C31.0965 9.50049 31.5179 9.79445 32 9.91951C32.4821 10.0446 32.9929 9.99246 33.44 9.77247C37.6174 7.63593 42.0482 6.03978 46.6262 5.02241C51.1831 4.02972 55.8827 3.8835 60.4922 4.59073C67.3322 5.7638 73.8619 8.3235 79.6825 12.1135C72.2958 9.11325 64.3111 7.89117 56.3686 8.54525Z" fill="#231F20"/>
</g>
<defs>
<clipPath id="clip0_363_496">
<rect width="95" height="108" fill="white"/>
</clipPath>
</defs>
</svg>
