<svg width="119" height="113" viewBox="0 0 119 113" fill="none" xmlns="http://www.w3.org/2000/svg">
<path fill-rule="evenodd" clip-rule="evenodd" d="M8.06514 0.423021C5.93164 1.0858 3.60306 2.75303 2.20233 4.62103C-0.181614 7.80019 -0.0555762 5.40904 0.0414751 45.6928L0.12843 81.8204L1.03837 83.6809C2.20982 86.076 4.92172 88.5852 7.30664 89.4811C9.05129 90.1366 9.69743 90.1582 27.5031 90.1582H45.8976L45.8103 98.0546L45.723 105.951L42.3145 107.056C37.4824 108.622 36.2123 110.23 38.2178 112.244C39.2359 113.266 39.6192 113.253 43.0945 112.073C55.1481 107.983 66.8379 108.082 79.2373 112.38C81.7095 113.237 82.2192 113.219 83.1904 112.244C85.2538 110.172 83.7577 108.377 78.8123 106.99L75.5223 106.068V98.1132V90.1582H92.7708C109.418 90.1582 110.082 90.1347 111.822 89.4811C114.207 88.5852 116.919 86.076 118.09 83.6809L119 81.8204V45.0359V8.25142L118.237 6.70941C117.017 4.24665 115.125 2.34039 112.721 1.15185L110.546 0.0770832L60.0596 0.0159403C17.0447 -0.0360484 9.34993 0.0241131 8.06514 0.423021ZM110.532 5.52479C111.9 6.28467 113.177 7.71028 113.772 9.14013C114.216 10.208 114.278 13.8724 114.278 39.3034V68.251H59.5642H4.85073L4.85789 39.2321C4.86473 11.8704 4.89892 10.1384 5.45811 8.90242C6.15799 7.35583 8.0798 5.56239 9.33463 5.28479C9.82412 5.17656 10.3709 5.0376 10.55 4.97612C10.7292 4.91465 33.0787 4.89078 60.2156 4.92315C105.519 4.97678 109.635 5.02615 110.532 5.52479ZM70.7118 14.5457C70.3548 14.8605 64.3298 24.2888 57.3229 35.4981C43.5579 57.5184 43.6527 57.3327 45.4413 58.7449C47.3908 60.2846 48.132 59.6356 52.6309 52.4468C54.7879 49.0001 60.6008 39.7164 65.5488 31.8157C75.2725 16.2901 75.4061 16.0085 73.6871 14.6513C72.6385 13.823 71.5742 13.7851 70.7118 14.5457ZM31.8127 28.5339C23.5419 35.468 22.9837 36.1037 23.8138 37.6401C24.1757 38.3101 37.1978 49.5118 39.3635 51.0159C41.0238 52.1695 43.2804 51.0316 43.2804 49.0407C43.2804 47.9175 42.6613 47.3028 35.7899 41.603C33.0135 39.3001 30.5537 37.2441 30.3238 37.0342C29.9942 36.7334 31.251 35.5288 36.2709 31.3344C43.8364 25.013 44.3662 24.2669 42.5268 22.5316C40.93 21.0256 40.4441 21.298 31.8127 28.5339ZM76.556 22.5774C74.8524 24.3983 75.2989 25.0186 82.8575 31.3344C87.8775 35.5288 89.1343 36.7334 88.8047 37.0342C88.5747 37.2441 86.1149 39.3001 83.3385 41.603C76.4671 47.3028 75.848 47.9175 75.848 49.0407C75.848 50.8237 77.8792 52.0819 79.4203 51.2536C80.7061 50.5631 94.9241 38.4036 95.3146 37.6607C96.1386 36.0942 95.5996 35.4791 87.3157 28.5339C78.6208 21.2447 78.0825 20.9465 76.556 22.5774ZM114.225 76.9976C114.095 81.1544 113.521 82.5845 111.371 84.1092L109.988 85.0901H59.5642H9.14052L7.75738 84.1092C5.6076 82.5845 5.03376 81.1544 4.90349 76.9976L4.79308 73.4826H59.5642H114.335L114.225 76.9976ZM58.3182 77.8359C56.1463 80.1571 59.4535 83.4327 61.6958 81.1812C62.7216 80.1515 62.7409 78.7328 61.7417 77.7901C60.7402 76.8458 59.2258 76.8661 58.3182 77.8359ZM70.6372 97.5534V104.948L69.7416 104.761C65.1235 103.793 54.9787 103.785 51.5037 104.746L50.771 104.948V97.5534V90.1582H60.7041H70.6372V97.5534Z" fill="black"/>
</svg>
