<svg width="89" height="76" viewBox="0 0 89 76" fill="none" xmlns="http://www.w3.org/2000/svg">
<g clip-path="url(#clip0_343_471)">
<path d="M1.80683 53.5445H14.9673C16.7792 60.135 20.76 65.9291 26.2719 69.9984C31.7838 74.0676 38.5077 76.1766 45.3664 75.9873C52.225 75.7979 58.8212 73.3212 64.0983 68.9541C69.3754 64.5869 73.0277 58.5822 74.4702 51.9018C74.5385 51.639 74.5444 51.3639 74.4874 51.0984C74.4303 50.8329 74.3119 50.5843 74.1416 50.3723C73.9713 50.1603 73.7539 49.9907 73.5063 49.877C73.2588 49.7634 72.988 49.7087 72.7155 49.7174H63.626C63.2344 49.7019 62.8489 49.8173 62.5309 50.0454C62.2129 50.2734 61.9807 50.6008 61.8713 50.9755C60.775 54.4246 58.6683 57.4685 55.8217 59.716C52.9751 61.9634 49.5187 63.3119 45.8967 63.5881C42.2747 63.8642 38.6525 63.0556 35.4956 61.2658C32.3386 59.4761 29.7911 56.7871 28.1804 53.5445H41.2883C41.6576 53.5715 42.026 53.4814 42.3408 53.2872C42.6556 53.093 42.9007 52.8046 43.0409 52.4632C43.1811 52.1219 43.2093 51.7452 43.1214 51.3869C43.0336 51.0287 42.8341 50.7073 42.5516 50.4688L22.8109 30.8091C22.4652 30.4821 22.0067 30.2998 21.53 30.2998C21.0533 30.2998 20.5947 30.4821 20.2491 30.8091L0.508344 50.4688C0.224175 50.7081 0.0237803 51.0312 -0.0638934 51.3914C-0.151567 51.7516 -0.121976 52.1303 0.0206088 52.4726C0.163194 52.815 0.411359 53.1034 0.729292 53.2961C1.04722 53.4887 1.41842 53.5757 1.78926 53.5445H1.80683ZM36.9015 49.9446H25.4781C25.1893 49.9393 24.9036 50.0051 24.6465 50.1362C24.3894 50.2673 24.1687 50.4596 24.0041 50.696C23.8354 50.9241 23.7249 51.1895 23.6821 51.4696C23.6393 51.7497 23.6656 52.0359 23.7585 52.3037C25.1686 56.5603 27.8653 60.2787 31.4795 62.9499C35.0937 65.6211 39.4486 67.1144 43.9479 67.2254C48.4473 67.3364 52.8711 66.0596 56.6136 63.5698C60.3561 61.0801 63.2344 57.4991 64.8543 53.3173H70.3466C68.5758 58.9553 64.9915 63.8564 60.1465 67.2645C55.3016 70.6727 49.4652 72.3986 43.5377 72.1759C37.6102 71.9533 31.9209 69.7946 27.3475 66.0327C22.774 62.2708 19.5705 57.1148 18.2311 51.3601C18.1527 50.9562 17.9337 50.5928 17.6127 50.3339C17.2917 50.075 16.8894 49.9371 16.4764 49.9446H6.24624L21.6353 34.6187L36.9015 49.9446Z" fill="#231F20"/>
<path d="M16.283 26.2826H25.3725C25.764 26.2981 26.1495 26.1826 26.4676 25.9546C26.7856 25.7266 27.0178 25.3991 27.1272 25.0244C28.2274 21.5765 30.3367 18.5345 33.1847 16.2887C36.0326 14.0428 39.4894 12.6955 43.1115 12.4195C46.7336 12.1434 50.356 12.9513 53.5139 14.7394C56.6719 16.5276 59.2215 19.2145 60.8356 22.4555H47.7277C47.3569 22.4243 46.9857 22.5113 46.6677 22.704C46.3498 22.8967 46.1017 23.185 45.9591 23.5273C45.8165 23.8697 45.7869 24.2483 45.8746 24.6085C45.9622 24.9687 46.1626 25.2918 46.4468 25.5312L66.1875 45.1908C66.5308 45.5233 66.9896 45.7111 67.4685 45.7151C67.7065 45.7188 67.9429 45.6743 68.1631 45.5842C68.3833 45.4941 68.5827 45.3602 68.7494 45.1908L88.42 25.5312C88.7024 25.2926 88.9019 24.9713 88.9897 24.613C89.0776 24.2548 89.0494 23.878 88.9092 23.5367C88.769 23.1954 88.524 22.907 88.2092 22.7128C87.8944 22.5186 87.5259 22.4285 87.1566 22.4555H73.9786C72.1667 15.865 68.1858 10.0709 62.6739 6.00159C57.162 1.9323 50.4381 -0.176644 43.5795 0.0126995C36.7209 0.202043 30.1245 2.67877 24.8474 7.0459C19.5704 11.413 15.918 17.4178 14.4755 24.0982C14.417 24.36 14.4198 24.6318 14.4837 24.8925C14.5476 25.1531 14.6709 25.3956 14.8441 25.6011C15.0129 25.8197 15.2312 25.9954 15.4813 26.1138C15.7314 26.2323 16.0061 26.2901 16.283 26.2826ZM44.4639 3.56471C50.5814 3.5977 56.5085 5.68635 61.2856 9.49227C66.0626 13.2982 69.4098 18.5985 70.7849 24.535C70.8633 24.9389 71.0822 25.3023 71.4032 25.5612C71.7242 25.8202 72.1267 25.958 72.5397 25.9505H82.7522L67.3632 41.2764L51.9741 25.9505H63.415C63.7076 25.9692 64.0002 25.9147 64.2662 25.7917C64.5321 25.6688 64.7628 25.4814 64.9374 25.2468C65.1119 25.0122 65.2246 24.7377 65.2652 24.4485C65.3058 24.1594 65.273 23.8647 65.1698 23.5914C63.7597 19.3348 61.063 15.6164 57.4488 12.9452C53.8346 10.274 49.4796 8.78067 44.9803 8.6697C40.4809 8.55873 36.0572 9.83554 32.3147 12.3253C28.5722 14.815 25.6939 18.396 24.074 22.5778H18.5816C20.3137 17.0707 23.7678 12.259 28.4397 8.84484C33.1116 5.43073 38.7569 3.59294 44.5517 3.5997L44.4639 3.56471Z" fill="#231F20"/>
</g>
<defs>
<clipPath id="clip0_343_471">
<rect width="89" height="76" fill="white"/>
</clipPath>
</defs>
</svg>
