<svg width="65" height="65" viewBox="0 0 65 65" fill="none" xmlns="http://www.w3.org/2000/svg">
<g clip-path="url(#clip0_343_467)">
<path d="M35.9313 0.242844C35.7658 0.237304 35.601 0.266894 35.4478 0.329671C35.2947 0.392448 35.1566 0.486961 35.043 0.606926C34.8107 0.836332 34.6791 1.14806 34.6772 1.47382L34.5205 25.8683C34.5194 26.1133 34.5916 26.3531 34.7281 26.557C34.8647 26.7608 35.0592 26.9195 35.2869 27.0127C35.4379 27.0664 35.5968 27.0957 35.7572 27.0993C35.9221 27.1007 36.0856 27.0692 36.2382 27.0067C36.3907 26.9441 36.5292 26.8518 36.6453 26.7352L53.9056 8.98119C54.1307 8.73448 54.2549 8.41285 54.2539 8.07958C54.2391 7.74965 54.0953 7.43855 53.8533 7.21268C48.9 2.84491 42.5471 0.374272 35.9313 0.242844ZM37.0111 22.7822L37.1331 2.73951C42.2746 3.08133 47.1895 4.97429 51.2233 8.1663L37.0111 22.7822Z" fill="#231F20"/>
<path d="M60.7151 46.2916L33.179 31.7451V1.24758C33.1813 1.08675 33.1515 0.92709 33.0913 0.777836C33.031 0.628581 32.9416 0.492738 32.8281 0.378197C32.7147 0.263656 32.5795 0.172698 32.4305 0.110625C32.2814 0.0485515 32.1213 0.0165852 31.9597 0.0166016H31.3153C13.7416 0.0166016 -0.0351562 14.2857 -0.0351562 32.5079C-0.0351673 41.1161 3.39644 49.3726 9.50621 55.4644C15.616 61.5562 23.9045 64.9855 32.552 64.9993C44.7438 64.9993 56.7963 57.804 61.255 47.8867C61.3811 47.6017 61.3957 47.2801 61.2958 46.985C61.1959 46.6898 60.9888 46.4425 60.7151 46.2916ZM32.552 62.52C24.5649 62.497 16.9126 59.3236 11.2714 53.695C5.6302 48.0664 2.46003 40.4415 2.45545 32.4906C2.45545 15.8635 14.8215 2.79068 30.7058 2.46126V32.4906C30.7053 32.7155 30.7668 32.9362 30.8835 33.1287C31.0002 33.3213 31.1676 33.4784 31.3676 33.5829L58.5032 47.9214C54.0619 56.4517 43.3679 62.52 32.552 62.52Z" fill="#231F20"/>
<path d="M60.2975 15.1364C59.6268 14.0884 58.8939 13.081 58.103 12.1196C57.9134 12.0846 57.7414 11.9867 57.6149 11.8418C57.4884 11.697 57.4149 11.5138 57.4064 11.3221C57.0232 10.8886 56.6574 10.5072 56.3265 10.1778C56.2528 10.0953 56.1611 10.0305 56.0585 9.98845C55.9559 9.9464 55.845 9.92812 55.7343 9.93501C55.6267 9.93305 55.5199 9.95367 55.4209 9.99549C55.3219 10.0373 55.2328 10.0994 55.1595 10.1778L52.7212 12.6744C52.6317 12.7605 52.5657 12.868 52.5295 12.9865L52.2683 13.8534C52.1176 13.7966 51.9535 13.7843 51.7959 13.8181C51.6383 13.852 51.4939 13.9304 51.3801 14.0441L46.869 18.656C46.7823 18.751 46.717 18.8633 46.6775 18.9854L46.4163 19.8523C46.2688 19.7922 46.1065 19.7783 45.9509 19.8124C45.7953 19.8464 45.6539 19.9269 45.5454 20.0431L41.017 24.6723C40.9275 24.7584 40.8616 24.8658 40.8254 24.9843L40.5641 25.8512C40.4167 25.7912 40.2544 25.7773 40.0988 25.8113C39.9432 25.8454 39.8017 25.9259 39.6933 26.042L36.0357 29.7176C35.9449 29.8087 35.8768 29.9198 35.8373 30.042C35.7977 30.1642 35.7878 30.294 35.8081 30.4207C35.8285 30.5475 35.8787 30.6676 35.9545 30.7714C36.0304 30.8752 36.1299 30.9597 36.2447 31.018L38.3348 32.1449C38.4605 32.1772 38.5922 32.1772 38.7179 32.1449C38.7952 32.2833 38.9099 32.3974 39.0488 32.4744L41.6614 33.8614C41.7783 33.9276 41.9101 33.9633 42.0446 33.9654C42.1101 34.1064 42.2203 34.2221 42.3581 34.2949L44.9881 35.6992C45.1041 35.7676 45.2364 35.8036 45.3712 35.8033C45.4367 35.9442 45.5468 36.0599 45.6847 36.1327L48.3147 37.5371C48.4343 37.5941 48.5653 37.6237 48.6979 37.6237C48.7854 37.7541 48.8979 37.866 49.0288 37.9532L51.6414 39.3402C51.7634 39.4092 51.9015 39.4451 52.0419 39.4442C52.12 39.582 52.2344 39.6959 52.3728 39.7736L54.9854 41.178C55.1034 41.2395 55.2354 41.2695 55.3685 41.2647C55.4458 41.4031 55.5604 41.5172 55.6994 41.5941L58.312 42.9812C58.428 43.0495 58.5604 43.0855 58.6952 43.0852C58.7607 43.2261 58.8708 43.3418 59.0087 43.4146L60.5588 44.2468C60.679 44.3023 60.8095 44.3318 60.9419 44.3335C61.0223 44.3503 61.1054 44.3503 61.1858 44.3335C61.3936 44.2675 61.568 44.1248 61.6734 43.9348C63.6607 39.818 64.6339 35.289 64.5124 30.7232C64.5124 30.2377 64.5124 29.735 64.5124 29.2148C64.5033 29.0423 64.4394 28.8771 64.3299 28.7431C64.2203 28.609 64.0707 28.5132 63.9028 28.4693L64.2512 27.325C64.2865 27.2062 64.2865 27.0797 64.2512 26.9609C63.9826 25.0529 63.5215 23.1767 62.8752 21.3607C62.8326 21.2302 62.7576 21.1125 62.6572 21.0185C62.5567 20.9246 62.434 20.8574 62.3005 20.8232V20.5805C62.3617 20.3947 62.3617 20.1942 62.3005 20.0084C61.7475 18.6762 61.1014 17.3843 60.3672 16.142C60.3161 16.0456 60.2445 15.9614 60.1572 15.8955C60.0699 15.8296 59.9692 15.7835 59.8621 15.7606C59.9811 15.7008 60.0833 15.6124 60.1593 15.5034C60.2354 15.3945 60.2828 15.2683 60.2975 15.1364ZM38.2652 30.2377L38.0213 30.0991L38.4567 29.6483L38.2652 30.2377ZM41.7485 32.0583L40.6164 31.4514L42.3581 25.6606L44.3262 23.6493L41.7485 32.0583ZM45.1448 33.7921L44.0127 33.1852L48.2799 19.6096L50.2479 17.5811L45.1448 33.7921ZM48.6282 35.6125L47.4787 35.0057L54.219 13.6107L55.9607 11.8769L56.1001 12.0329L48.6282 35.6125ZM52.1115 37.433L50.9621 36.8262L58.0508 14.2869C58.3643 14.703 58.6603 15.1364 58.9564 15.5872L52.1115 37.433ZM61.3252 42.357L61.1509 42.253L63.2933 35.4218C62.9115 37.8558 62.1597 40.2176 61.0639 42.4263L61.3252 42.357ZM63.3281 26.9435L58.8868 41.0567L57.7546 40.4498L62.8056 24.3602C62.9465 25.2384 63.0338 26.1242 63.0669 27.0129L63.3281 26.9435ZM60.6633 18.5693C60.942 19.1415 61.2032 19.7136 61.4644 20.3031L55.1944 39.3055L54.0622 38.6987L60.6633 18.5693Z" fill="#231F20"/>
</g>
<defs>
<clipPath id="clip0_343_467">
<rect width="65" height="65" fill="white"/>
</clipPath>
</defs>
</svg>
