<svg width="100" height="100" viewBox="0 0 100 100" fill="none" xmlns="http://www.w3.org/2000/svg">
<path d="M47.0828 99.32H51.8528C64.6786 98.8051 76.8078 93.3479 85.7004 84.0912C94.593 74.8344 99.5593 62.4961 99.5593 49.66C99.5593 36.8239 94.593 24.4856 85.7004 15.2289C76.8078 5.97211 64.6786 0.514888 51.8528 0H47.1229H47.0729C34.3634 0.675193 22.3971 6.19954 13.6394 15.4348C4.88176 24.67 0 36.9126 0 49.64C0 62.3674 4.88176 74.6099 13.6394 83.8452C22.3971 93.0804 34.3634 98.6048 47.0729 99.28L47.0828 99.32ZM17.0828 81.82C20.2577 79.5205 23.6666 77.563 27.2529 75.98C30.6635 83.1254 35.4676 89.5171 41.3829 94.78C32.1339 93.0377 23.642 88.5003 17.0529 81.78L17.0828 81.82ZM47.7928 95.08C40.5773 89.6786 34.7502 82.6381 30.7928 74.54C36.2557 72.5577 41.9875 71.4147 47.7928 71.15V95.08ZM47.7928 67.31C41.4494 67.581 35.1857 68.829 29.2228 71.01C26.9423 65.3404 25.5916 59.34 25.2228 53.24H47.7928V67.31ZM47.7928 49.38H25.1528C25.183 43.1225 26.23 36.9116 28.2529 30.99C34.4894 33.454 41.0934 34.86 47.7928 35.15V49.38ZM57.4229 94.89C63.6085 89.4403 68.5911 82.7618 72.0529 75.28C75.9094 76.8464 79.5788 78.8387 82.9929 81.22C76.181 88.4229 67.215 93.22 57.4429 94.89H57.4229ZM85.5328 78.31C81.7979 75.6673 77.7715 73.4628 73.5328 71.74C75.8293 65.8112 77.1792 59.5582 77.5328 53.21H95.4728C94.787 62.3888 91.3275 71.1424 85.5529 78.31H85.5328ZM86.9628 22.95C92.5282 30.6348 95.5431 39.8717 95.5828 49.36H77.5828C77.5583 42.8571 76.4984 36.3996 74.4429 30.23C78.8983 28.3123 83.1083 25.8683 86.9828 22.95H86.9628ZM84.5928 19.95C81.0493 22.6231 77.2068 24.8749 73.1428 26.66C69.6589 18.1699 64.2783 10.5897 57.4128 4.49997C68.0123 6.2771 77.6446 11.7378 84.6129 19.92L84.5928 19.95ZM51.5928 4.70999C59.5318 10.7741 65.7163 18.8395 69.5128 28.08C63.7567 30.1399 57.7051 31.2543 51.5928 31.38V4.70999ZM51.5928 35.23C58.1601 35.1039 64.6626 33.9048 70.8428 31.68C72.7465 37.3858 73.742 43.3553 73.7928 49.37H51.6628L51.5928 35.23ZM51.5928 53.23H73.5928C73.2462 59.1217 71.9879 64.924 69.8629 70.43C63.9646 68.4601 57.8004 67.4013 51.5828 67.29L51.5928 53.23ZM51.5928 71.11C57.2962 71.2265 62.9509 72.1869 68.3729 73.96C64.5064 82.1053 58.7541 89.2116 51.5928 94.69V71.11ZM47.7928 4.28V31.28C41.5598 30.9945 35.417 29.68 29.6129 27.39C33.5266 18.2169 39.7991 10.2435 47.7928 4.28ZM41.3629 4.59C34.7714 10.4816 29.555 17.7496 26.0828 25.88C22.298 24.0739 18.7233 21.8572 15.4229 19.27C22.1956 11.6168 31.3338 6.44929 41.3829 4.59H41.3629ZM12.9929 22.24C16.6024 25.0912 20.5283 27.5171 24.6929 29.47C22.4599 35.8748 21.3108 42.6071 21.2928 49.39H3.87286C3.90242 39.5896 7.10947 30.063 13.0128 22.24H12.9929ZM3.99286 53.24H21.4128C21.7683 59.8328 23.2041 66.3225 25.6628 72.45C21.7004 74.2077 17.9388 76.387 14.4429 78.95C8.36641 71.6835 4.7189 62.696 4.01282 53.25L3.99286 53.24Z" fill="#272525"/>
</svg>
