<svg width="153" height="130" viewBox="0 0 153 130" fill="none" xmlns="http://www.w3.org/2000/svg">
<path fill-rule="evenodd" clip-rule="evenodd" d="M101.213 0.811071C95.53 2.88384 93.9424 6.19945 93.9213 16.0386L93.9063 23.0228H50.8121H7.71793L5.46908 24.5559C4.23242 25.3988 2.58013 26.9544 1.79718 28.0126C0.400658 29.9 0.370728 30.6148 0.187064 66.5414L0 103.147L1.58358 106.147C2.67128 108.207 4.09433 109.637 6.12891 110.715C9.03623 112.255 9.47906 112.284 30.1507 112.284C50.9121 112.284 51.2053 112.303 50.8523 113.654C50.6557 114.407 49.787 117.965 48.9224 121.559C47.3783 127.973 47.3735 128.112 48.6503 129.047C49.7108 129.824 54.7677 130 76.0549 130C92.7479 130 102.633 129.746 103.474 129.295C104.198 128.906 104.79 128.048 104.79 127.387C104.79 124.91 103.43 124.549 94.1104 124.549C89.1345 124.549 85.0633 124.385 85.0633 124.184C85.0633 123.983 85.7095 121.237 86.4992 118.083L87.9352 112.347L112.518 112.145C137.016 111.944 137.109 111.938 139.322 110.356C143.25 107.55 143.563 106.215 143.563 92.2698V79.6832L145.91 78.9072C148.854 77.9348 152.211 74.1715 152.748 71.245C152.973 70.0192 153.064 55.0649 152.952 38.0132L152.747 7.0103L151.162 4.78558C147.964 0.294582 147.511 0.213497 124.517 0.0370192C108.337 -0.0869926 103.206 0.0833531 101.213 0.811071ZM103.089 39.7167C103.089 58.6421 102.872 74.1266 102.606 74.1266C102.34 74.1266 101.498 73.4554 100.735 72.635C99.3808 71.1789 99.3482 70.4028 99.3482 39.6377V8.13117L101.141 6.71935C102.126 5.94257 102.968 5.30684 103.011 5.30684C103.054 5.30684 103.089 20.7913 103.089 39.7167ZM146.071 6.78817C147.184 7.83613 147.645 9.03264 147.645 10.8765V13.4834H127.578H107.511V11.0679C107.511 9.41149 108.036 8.1264 109.181 6.97963L110.85 5.30684H127.673C144.01 5.30684 144.542 5.34976 146.071 6.78817ZM147.645 39.7167C147.645 51.1469 147.385 60.4989 147.067 60.4989C146.75 60.4989 143.489 57.141 139.821 53.0364C136.153 48.9324 132.733 45.4131 132.22 45.2161C131.708 45.0192 130.042 45.9861 128.519 47.3652L125.748 49.872L120.458 44.2125C114.453 37.7877 114.331 37.7727 109.952 42.8974L107.511 45.7538V32.3441V18.9345H127.578H147.645V39.7167ZM131.333 26.2607C128.434 27.7196 125.877 31.3895 125.877 34.0932C125.877 39.1546 130.031 43.4568 134.924 43.4616C144.614 43.4711 147.872 30.2843 139.198 26.1613C136.241 24.7556 134.273 24.7808 131.333 26.2607ZM11.9381 67.3127V106.833H10.377C9.51783 106.833 8.06417 106.08 7.14586 105.16L5.47588 103.488V67.3127V31.1374L7.14586 29.4653C8.06417 28.5454 9.51783 27.7925 10.377 27.7925H11.9381V67.3127ZM94.0417 50.2298C94.2369 71.6586 94.3097 72.7508 95.6491 74.547C96.4204 75.5813 97.8959 77.0592 98.9285 77.8319C100.703 79.1599 101.845 79.2478 119.803 79.4379L138.802 79.6383V85.0594V90.4798H115.37H91.937L80.22 77.5614C73.7755 70.4559 68.0969 64.4863 67.5996 64.2956C66.182 63.7505 65.2569 64.4407 61.2551 69.0271C59.1974 71.386 57.3587 73.3443 57.1689 73.3804C56.9791 73.4159 52.9997 69.1661 48.3259 63.9365C43.5207 58.5604 39.0944 54.2172 38.14 53.9433C36.6292 53.5093 35.449 54.5068 26.8876 63.452C21.6267 68.948 17.1058 73.4452 16.8412 73.4452C16.5766 73.4452 16.3596 63.9263 16.3596 52.2916V31.1374L18.0296 29.4653L19.6989 27.7925H56.7682H93.8376L94.0417 50.2298ZM67.0371 30.9671C59.398 34.994 56.8104 44.7249 61.5551 51.583C63.8692 54.9279 69.2029 57.7734 73.1592 57.7734C74.7856 57.7734 77.3984 57.0518 79.4112 56.0474C89.6365 50.9432 89.7256 36.3629 79.5629 31.1694C76.3461 29.5259 69.9668 29.4224 67.0371 30.9671ZM138.766 32.7012C139.715 34.4012 139.685 34.6908 138.375 36.4488C136.63 38.7927 135.158 39.1382 132.986 37.7134C131.016 36.4202 130.727 33.2524 132.425 31.5517C134.12 29.8544 137.523 30.471 138.766 32.7012ZM76.8739 35.6148C85.5143 40.0901 82.7355 52.4361 73.0884 52.4361C69.258 52.4361 66.8847 50.9132 65.0964 47.3087C63.5257 44.1423 64.0066 40.935 66.4983 37.9689C69.3648 34.5573 73.1666 33.6946 76.8739 35.6148ZM125.945 57.9437L128.032 60.4989H117.772H107.511L107.521 56.9216C107.529 53.5869 107.769 53.0725 111.058 49.3344L114.587 45.3245L119.222 50.3565C121.771 53.1243 124.796 56.5387 125.945 57.9437ZM137.348 60.3728C135.712 60.55 134.837 60.0103 132.382 57.3066C129.593 54.2356 129.474 53.9467 130.506 52.7897C131.554 51.615 131.801 51.7676 135.471 55.8559L139.334 60.1582L137.348 60.3728ZM49.0047 72.4231C54.75 78.794 60.8401 85.4627 62.538 87.2432L65.6256 90.4798H40.9923H16.3596V85.9288V81.3772L27.0427 70.6004C32.9179 64.673 37.9128 60.0526 38.1421 60.332C38.3713 60.6113 43.2595 66.0522 49.0047 72.4231ZM147.645 68.3348C147.645 70.4927 147.241 71.8051 146.284 72.7638C144.995 74.055 144.017 74.1266 127.628 74.1266H110.331L108.921 72.3311C107.574 70.6168 107.006 66.6838 107.965 65.7231C108.214 65.473 117.244 65.2686 128.032 65.2686H147.645V68.3348ZM76.1039 80.5997L85.1381 90.4798H78.7459H72.3531L66.3888 83.9841L60.4252 77.4885L63.391 74.1736C65.0222 72.3502 66.5174 70.8273 66.7133 70.7891C66.9092 70.751 71.1348 75.1657 76.1039 80.5997ZM138.802 99.5865C138.802 102.253 138.42 103.728 137.392 105.038L135.982 106.833H77.5807H19.1792L17.7698 105.038C16.7412 103.728 16.3596 102.253 16.3596 99.5865V95.9308H77.5807H138.802V99.5865ZM81.3723 118.246L79.8765 124.208L66.8248 124.394C52.5855 124.595 53.2589 124.809 54.4133 120.461C54.7609 119.149 55.3833 116.773 55.7962 115.18L56.5458 112.284H69.707H82.8681L81.3723 118.246Z" fill="black"/>
</svg>
