<svg width="86" height="112" viewBox="0 0 86 112" fill="none" xmlns="http://www.w3.org/2000/svg">
<path d="M13.778 111.201H72.2967C75.929 111.195 79.4107 109.752 81.9791 107.189C84.5476 104.627 85.9934 101.153 86 97.5291V60.1354C85.9931 56.8214 84.7821 53.6222 82.5916 51.131C80.4011 48.6398 77.3798 47.0255 74.0874 46.5873V31.6993C74.0874 23.4731 70.8121 15.584 64.9821 9.76725C59.1521 3.9505 51.2449 0.682617 43.0001 0.682617C34.7552 0.682617 26.8479 3.9505 21.0179 9.76725C15.1879 15.584 11.9128 23.4731 11.9128 31.6993V46.5873C8.62039 47.0255 5.59886 48.6398 3.40837 51.131C1.21789 53.6222 0.00693116 56.8214 0 60.1354V97.5291C0.00325791 99.3299 0.362463 101.112 1.05694 102.774C1.75141 104.437 2.76755 105.946 4.04727 107.216C5.327 108.486 6.84516 109.491 8.51486 110.175C10.1846 110.859 11.9731 111.208 13.778 111.201ZM5.19787 60.1354C5.19787 57.865 6.10188 55.6876 7.71096 54.0821C9.32004 52.4767 11.5024 51.5748 13.778 51.5748H72.2967C74.5723 51.5748 76.7546 52.4767 78.3637 54.0821C79.9728 55.6876 80.8768 57.865 80.8768 60.1354V97.5291C80.8703 99.7975 79.9642 101.971 78.3566 103.575C76.7489 105.179 74.5703 106.083 72.2967 106.09H13.778C11.5044 106.083 9.32576 105.179 7.71809 103.575C6.11043 101.971 5.20443 99.7975 5.19787 97.5291V60.1354ZM43.1244 5.94303C50.0019 5.9496 56.5958 8.67837 61.4589 13.5304C66.3221 18.3825 69.0571 24.9614 69.0636 31.8233V46.4632H64.9602V31.8233C64.9602 28.9623 64.3953 26.1294 63.2979 23.4862C62.2006 20.843 60.5922 18.4413 58.5645 16.4183C56.5369 14.3952 54.1299 12.7905 51.4806 11.6956C48.8314 10.6008 45.9919 10.0373 43.1244 10.0373C40.2569 10.0373 37.4174 10.6008 34.7682 11.6956C32.1189 12.7905 29.7119 14.3952 27.6843 16.4183C25.6566 18.4413 24.0482 20.843 22.9509 23.4862C21.8535 26.1294 21.2886 28.9623 21.2886 31.8233V46.4632H17.1852V31.8233C17.1917 24.9614 19.9267 18.3825 24.7899 13.5304C29.653 8.67837 36.2469 5.9496 43.1244 5.94303ZM59.8369 46.4632H26.3123V31.8233C26.2255 29.5778 26.5938 27.338 27.3952 25.2379C28.1966 23.1378 29.4147 21.2206 30.9764 19.6013C32.538 17.9819 34.411 16.6938 36.4834 15.8138C38.5559 14.9339 40.7851 14.4803 43.0374 14.4803C45.2897 14.4803 47.5188 14.9339 49.5913 15.8138C51.6637 16.6938 53.5367 17.9819 55.0983 19.6013C56.6599 21.2206 57.878 23.1378 58.6794 25.2379C59.4808 27.338 59.8491 29.5778 59.7623 31.8233L59.8369 46.4632Z" fill="#231F20"/>
<path d="M37.9269 92.6891H48.0987C48.3686 92.6891 48.6358 92.6357 48.8848 92.5319C49.1339 92.4281 49.3599 92.2759 49.5495 92.0844C49.7392 91.8928 49.889 91.6656 49.9901 91.4159C50.0911 91.1661 50.1413 90.8988 50.1381 90.6295V67.0072C50.1381 66.4676 49.9232 65.9502 49.5407 65.5686C49.1583 65.187 48.6396 64.9727 48.0987 64.9727H37.8772C37.3364 64.9727 36.8176 65.187 36.4352 65.5686C36.0527 65.9502 35.8379 66.4676 35.8379 67.0072V90.6295C35.8379 90.9021 35.892 91.1719 35.9973 91.4234C36.1026 91.6749 36.257 91.9031 36.4513 92.0947C36.6456 92.2862 36.876 92.4374 37.1293 92.5395C37.3827 92.6415 37.6537 92.6924 37.9269 92.6891ZM39.9911 69.0419H46.1091V88.5948H39.9911V69.0419Z" fill="#231F20"/>
</svg>
