<svg width="68" height="31" viewBox="0 0 68 31" fill="none" xmlns="http://www.w3.org/2000/svg">
<path fill-rule="evenodd" clip-rule="evenodd" d="M0.932099 0.366137C0.839117 0.61084 0.802939 6.03185 0.851966 12.4129L0.941228 24.0143H3.13898H5.33674L5.50579 20.1673L5.67485 16.3207L9.55778 20.2526C11.6933 22.4154 13.6023 24.1849 13.8001 24.1849C14.2965 24.1849 16.6636 21.6942 16.6636 21.1721C16.6636 20.9386 14.9592 19.0254 12.876 16.9203L9.08847 13.0931L12.7915 12.9224L16.4946 12.7518V10.5334V8.31507L11.011 8.22121L5.5271 8.1277L5.43209 4.12576L5.33674 0.124164L3.21912 0.0224601C1.71416 -0.0498929 1.05247 0.0494218 0.932099 0.366137ZM22.5732 8.44168C16.1605 11.3819 16.1149 20.7932 22.4988 23.685C25.1206 24.8726 27.979 24.7566 30.3282 23.3669C31.705 22.5526 32.8932 21.3304 32.8932 20.7287C32.8932 20.397 29.9942 18.7243 29.4197 18.7243C29.1563 18.7243 28.665 19.0315 28.3286 19.4069C27.0668 20.814 22.7497 19.8707 22.7497 18.1875C22.7497 17.7858 23.6985 17.7005 28.1596 17.7005H33.5694V15.7196C33.5694 12.2528 31.5996 9.37818 28.3912 8.16353C26.9336 7.61167 24.0866 7.74785 22.5732 8.44168ZM39.3174 8.16217C36.7798 9.2362 35.26 11.0382 35.26 12.9733C35.26 13.917 38.6963 13.8791 39.9013 12.9224C40.963 12.0795 43.4228 11.9955 44.1961 12.776C45.2912 13.8818 44.8324 14.1521 41.2203 14.5303C37.2458 14.9463 36.2345 15.4313 35.2404 17.3978C34.4265 19.0083 34.4242 19.8724 35.2292 21.6615C36.3508 24.1546 40.2388 25.2876 43.2764 24.0064C44.1166 23.6522 44.619 23.5979 44.8547 23.8358C45.0451 24.0279 46.08 24.1849 47.1553 24.1849C49.5951 24.1849 49.5684 24.2648 49.3939 17.4657C49.2421 11.5512 48.8942 10.5266 46.5213 9.01163C45.2882 8.22428 44.5328 8.01507 42.5792 7.92088C41.2501 7.85706 39.7823 7.96559 39.3174 8.16217ZM57.2375 8.27821C56.4971 8.56591 55.9067 8.62018 55.6599 8.42325C55.4432 8.25022 54.3781 8.155 53.2931 8.212L51.3205 8.31507L51.2312 19.3837C51.1616 28.0118 51.2363 30.5128 51.5694 30.7264C52.0735 31.0493 54.5833 31.1008 55.3502 30.8035C55.7904 30.6329 55.8851 29.9691 55.8851 27.0494C55.8851 25.0986 55.9426 23.5024 56.0129 23.5024C56.0832 23.5024 56.6867 23.7327 57.3545 24.0143C59.2456 24.8119 61.3 24.661 63.3628 23.5734C70.4447 19.839 68.2192 8.31643 60.3391 7.9161C59.2842 7.86252 57.8884 8.02531 57.2375 8.27821ZM28.3384 13.1361C28.7908 13.6289 29.0789 14.1664 28.9785 14.3306C28.7252 14.7442 22.8376 14.7074 22.5823 14.2903C22.4684 14.1043 22.7568 13.5668 23.2234 13.0958C23.9067 12.4061 24.4058 12.2399 25.7934 12.2399C27.2182 12.2399 27.6578 12.3948 28.3384 13.1361ZM60.7763 12.7248C62.7667 13.5644 63.6185 16.4084 62.4283 18.2418C61.1107 20.2714 58.4635 20.5512 56.7682 18.84C56.0436 18.1087 55.8851 17.6315 55.8851 16.1821C55.8851 14.6965 56.0332 14.2746 56.8149 13.5313C57.6213 12.7648 58.2789 12.4416 59.3616 12.2795C59.507 12.2576 60.1436 12.4583 60.7763 12.7248ZM44.7272 18.5008C44.7272 20.1212 42.2079 21.2267 40.2472 20.467C39.5794 20.2079 39.3174 19.8683 39.3174 19.2615C39.3174 18.1052 40.1295 17.723 42.614 17.7107C44.6082 17.7012 44.7272 17.7455 44.7272 18.5008Z" fill="black"/>
</svg>
