<svg id="Layer_1" data-name="Layer 1" xmlns="http://www.w3.org/2000/svg" viewBox="0 0 240 240"><defs><style>.cls-1{fill:none;stroke:#010101;stroke-miterlimit:10;stroke-width:2px;}</style></defs><path class="cls-1" d="M176.81,233.41H66.73A33.73,33.73,0,0,1,33,199.71V92.84A1.86,1.86,0,0,1,34.91,91H206.36a1.87,1.87,0,0,1,1.87,1.86V202A31.46,31.46,0,0,1,176.81,233.41Zm-140-138.7v105a30,30,0,0,0,30,30H176.81A27.72,27.72,0,0,0,204.49,202V94.71Z"/><path class="cls-1" d="M136.66,202H106a1.86,1.86,0,0,1-1.8-2.35l8.58-32.31a19,19,0,1,1,17.15,0l8.57,32.31a1.86,1.86,0,0,1-1.8,2.35Zm-28.27-3.73h25.84l-8.35-31.49a1.86,1.86,0,0,1,1.11-2.22,15.2,15.2,0,1,0-11.34,0,1.87,1.87,0,0,1,1.1,2.22Z"/><path class="cls-1" d="M182.64,94.71h-124a1.87,1.87,0,0,1-1.87-1.87V70.09a63.88,63.88,0,1,1,127.76,0V92.84A1.87,1.87,0,0,1,182.64,94.71ZM60.49,91H180.77V70.09a60.14,60.14,0,1,0-120.28,0Z"/><path class="cls-1" d="M64.29,124H35.78a1.87,1.87,0,1,1,0-3.73H64.29a1.87,1.87,0,0,1,0,3.73Z"/><path class="cls-1" d="M64.29,150.08H35.78a1.87,1.87,0,0,1,0-3.74H64.29a1.87,1.87,0,0,1,0,3.74Z"/><path class="cls-1" d="M64.29,176.15H35.78a1.87,1.87,0,1,1,0-3.73H64.29a1.87,1.87,0,0,1,0,3.73Z"/><path class="cls-1" d="M64.29,202.25H35.78a1.87,1.87,0,1,1,0-3.73H64.29a1.87,1.87,0,0,1,0,3.73Z"/><path class="cls-1" d="M205.2,124H177.5a1.87,1.87,0,1,1,0-3.73h27.7a1.87,1.87,0,1,1,0,3.73Z"/><path class="cls-1" d="M205.2,150.08H177.5a1.87,1.87,0,0,1,0-3.74h27.7a1.87,1.87,0,0,1,0,3.74Z"/><path class="cls-1" d="M205.2,176.15H177.5a1.87,1.87,0,1,1,0-3.73h27.7a1.87,1.87,0,1,1,0,3.73Z"/><path class="cls-1" d="M205.2,202.25H177.5a1.87,1.87,0,1,1,0-3.73h27.7a1.87,1.87,0,1,1,0,3.73Z"/></svg>