<svg width="61" height="69" viewBox="0 0 61 69" fill="none" xmlns="http://www.w3.org/2000/svg">
<path fill-rule="evenodd" clip-rule="evenodd" d="M12.9722 0.312495C9.92408 0.956347 6.70115 3.50434 5.29111 6.38487C3.96122 9.10222 3.82352 11.5386 4.75377 15.8983C4.87238 16.454 4.71155 16.697 3.82541 17.3019C-0.187937 20.0415 -1.2298 26.8242 1.70161 31.1303C3.57664 33.885 6.25632 35.2684 9.94533 35.3862C11.1722 35.4254 12.2098 35.5026 12.2512 35.5574C12.2926 35.6125 12.5486 36.1403 12.8205 36.7306C13.4964 38.1984 16.0362 40.6566 17.656 41.4107C20.6237 42.792 24.6298 42.7473 27.4854 41.301C29.0546 40.5061 31.2457 38.3818 31.8846 37.0355C32.4112 35.9263 32.4599 35.9158 34.5649 36.4639C35.4166 36.6857 36.487 36.8672 36.9434 36.8672C39.5615 36.8672 43.0388 35.0273 44.5556 32.8393L45.3092 31.7524L46.951 31.9137C52.2227 32.4323 57.2879 29.5566 59.5461 24.7636C60.7736 22.1586 61.2281 19.4095 60.8061 17.1449C60.1012 13.36 59.1833 11.565 56.8476 9.40331C53.5499 6.35126 49.1595 5.09932 45.2312 6.0905C44.2697 6.33325 43.2273 6.59348 42.9148 6.66903C42.4813 6.77414 42.2094 6.58434 41.7662 5.86737C40.9147 4.49041 39.1874 3.03173 37.4656 2.23572C36.1226 1.61444 35.621 1.53676 32.9945 1.54186C29.7106 1.54832 28.9535 1.77521 26.8418 3.38659C26.1555 3.91027 25.4762 4.33852 25.3323 4.33852C25.1881 4.33852 24.5147 3.8065 23.8356 3.15593C23.1566 2.50562 21.8334 1.59563 20.8954 1.13404C19.4504 0.422985 18.8057 0.276741 16.6792 0.177273C15.2985 0.112485 13.6303 0.173509 12.9722 0.312495ZM20.4634 14.6576C20.6738 14.9111 20.7488 16.3083 20.698 19.0261C20.6237 23.0094 20.6213 23.0226 19.9815 23.1129C19.6284 23.1629 19.2371 23.042 19.1115 22.8441C18.7436 22.264 18.82 14.9859 19.1981 14.6079C19.6244 14.1818 20.0832 14.1998 20.4634 14.6576ZM36.4907 15.2262C36.4907 15.9061 36.3748 16.0461 35.7511 16.1177C34.8857 16.2174 34.78 16.5951 35.5494 16.8392C35.8453 16.933 36.0873 17.1365 36.0873 17.2914C36.0873 17.4465 36.3853 17.3779 36.7502 17.139C38.028 16.3021 40.0259 16.7309 40.6969 17.986C40.8981 18.3624 41.0559 19.3326 41.0479 20.1423C41.0344 21.451 40.9371 21.7 40.1695 22.3857C39.1906 23.26 38.1073 23.3804 36.8888 22.7508C35.8248 22.2008 35.4771 21.4491 35.4924 19.7332C35.5032 18.5627 35.4255 18.3025 35.0863 18.3694C34.6404 18.4573 33.9727 20.545 33.9417 21.947C33.9175 23.0457 33.026 24.9308 32.3628 25.2856C31.6784 25.6518 30.2565 25.6636 30.0346 25.305C29.749 24.8431 30.1812 23.9632 30.6938 23.9632C31.3766 23.9632 31.7876 23.3761 31.9476 22.1726C32.0231 21.6051 32.2152 20.6238 32.3744 19.9923C32.6221 19.0111 32.5955 18.7681 32.1918 18.3221C31.6367 17.7091 31.8258 16.9828 32.5925 16.7822C32.8875 16.7051 33.129 16.4308 33.129 16.1725C33.129 15.9142 33.4542 15.3778 33.8514 14.9808C34.4135 14.4186 34.7859 14.2767 35.5322 14.3393C36.4001 14.4122 36.4907 14.4961 36.4907 15.2262ZM12.4881 17.0204C12.7538 17.1564 12.9588 17.5659 12.9588 17.9605C12.9588 18.6345 12.9152 18.6538 11.7486 18.4939C10.2455 18.2879 10.1828 18.6549 11.623 19.231C12.2197 19.4695 12.7762 19.8429 12.8598 20.0609C12.9781 20.3692 13.189 20.2797 13.8129 19.656C14.404 19.0651 14.8666 18.8554 15.5793 18.8554C16.1102 18.8554 16.452 18.7646 16.3388 18.6538C16.2255 18.5431 15.5701 18.4522 14.8819 18.4522C13.7898 18.4522 13.6201 18.3756 13.5453 17.8479C13.4404 17.1094 14.3252 16.7048 16.0451 16.7048C17.0202 16.7048 17.3295 16.8419 17.9102 17.532C18.5214 18.2578 18.6064 18.6011 18.6064 20.3394C18.6064 22.0812 18.5344 22.3701 18.0086 22.7382C17.056 23.4054 14.7593 23.2917 13.878 22.5339L13.1537 21.911L12.5306 22.5339C11.531 23.5331 8.69262 23.2659 8.25721 22.1317C7.96004 21.3577 8.73834 20.9295 9.87272 21.2424C10.4329 21.397 10.9953 21.4593 11.1225 21.3806C11.5135 21.1392 11.0792 20.7373 10.4273 20.7373C9.63283 20.7373 8.38684 19.5853 8.38684 18.8506C8.38684 16.9943 10.5515 16.0281 12.4881 17.0204ZM31.0612 17.029C31.3573 17.1809 31.5154 17.5086 31.4646 17.8656C31.3952 18.3517 31.1967 18.4565 30.3052 18.4772C28.6165 18.5167 28.6071 18.5525 30.1035 19.249C30.9826 19.6582 31.5313 20.0883 31.5574 20.3889C31.7158 22.2183 30.9665 23.1409 29.3142 23.1508C27.4733 23.1619 26.454 22.4306 26.855 21.3865C27.0056 20.9943 27.6225 20.9886 29.1353 21.3658C29.2313 21.3897 29.3287 21.2884 29.3513 21.1405C29.3739 20.9927 29.174 20.8273 28.9075 20.773C27.8199 20.552 26.9435 19.649 26.9435 18.7495C26.9435 16.911 29.0861 16.0158 31.0612 17.029ZM25.502 17.0973C26.2241 17.603 26.7399 18.8568 26.628 19.8348C26.5433 20.5744 26.4755 20.6082 24.792 20.7467C22.9269 20.9004 23.0667 21.2085 25.0585 21.3335C26.0054 21.3929 26.2878 21.5217 26.3653 21.9293C26.582 23.0699 24.2452 23.5831 22.6316 22.7489C20.631 21.7147 20.5143 18.4654 22.4299 17.1244C23.184 16.5964 24.7664 16.5825 25.502 17.0973ZM44.895 16.8715C45.2301 16.9338 45.5001 17.1801 45.5001 17.4236C45.5001 17.814 45.5609 17.8083 46.042 17.3731C46.7813 16.7045 49.2918 16.4921 49.7619 17.0583C50.3498 17.7664 49.6062 18.6089 48.4694 18.5226C47.6933 18.464 47.48 18.5713 47.1888 19.1668C46.9392 19.6767 46.915 20.0805 47.1043 20.5781C47.3283 21.1674 47.5352 21.2749 48.4423 21.2749C49.251 21.2749 49.5885 21.4115 49.8122 21.8298C50.2689 22.6828 49.6988 23.1568 48.2164 23.1568C46.0474 23.1568 44.7635 21.6532 45.0636 19.4649C45.2183 18.3366 45.1984 18.2914 44.6234 18.4651C43.6496 18.7592 43.5261 19.0151 43.3661 21.0693C43.2257 22.8721 43.1647 23.0293 42.5722 23.1129C42.2191 23.1629 41.8278 23.042 41.7022 22.8441C41.3684 22.3177 41.4123 17.4037 41.7538 17.0623C42.0451 16.7712 43.7848 16.6655 44.895 16.8715ZM54.4113 17.5062C55.0917 18.1863 55.2007 18.4815 55.1302 19.4552L55.0474 20.6028L53.2993 20.7467C51.4331 20.9004 51.5743 21.2085 53.5682 21.3335C54.613 21.3989 54.7908 21.497 54.8691 22.051C54.985 22.8691 54.5326 23.1476 53.0798 23.1527C51.204 23.1592 49.9553 22.2255 49.6477 20.5859C49.0837 17.5804 52.3639 15.4596 54.4113 17.5062ZM23.5818 18.5866C23.4903 18.7345 23.6719 18.8554 23.9852 18.8554C24.2985 18.8554 24.48 18.7345 24.3886 18.5866C24.2971 18.4388 24.1156 18.3178 23.9852 18.3178C23.8547 18.3178 23.6732 18.4388 23.5818 18.5866ZM52.2235 18.5866C51.8989 18.7963 51.9414 18.8479 52.4411 18.8514C52.7875 18.8536 52.9887 18.7366 52.8959 18.5866C52.6961 18.2635 52.724 18.2635 52.2235 18.5866ZM37.539 18.9643C37.4594 19.1719 37.4328 19.7466 37.4804 20.2413C37.5528 20.9967 37.6848 21.1542 38.306 21.2255C38.7737 21.2795 39.054 21.1806 39.068 20.9566C39.0803 20.762 39.1258 20.3004 39.1688 19.9308C39.2121 19.5611 39.1266 19.1076 38.9792 18.9227C38.6177 18.4699 37.719 18.496 37.539 18.9643ZM15.2356 20.752C15.0075 21.1209 15.6054 21.5741 16.186 21.4725C16.4079 21.4338 16.5894 21.2222 16.5894 21.0023C16.5894 20.5149 15.5061 20.3147 15.2356 20.752ZM36.6252 42.9159C36.6252 43.1377 36.7462 43.3191 36.8941 43.3191C37.042 43.3191 37.1631 43.1377 37.1631 42.9159C37.1631 42.6941 37.042 42.5126 36.8941 42.5126C36.7462 42.5126 36.6252 42.6941 36.6252 42.9159ZM8.87039 45.5456C8.47102 45.7039 7.9993 46.1825 7.82234 46.6096C7.54588 47.2769 7.57573 47.4871 8.03615 48.1081C8.35269 48.5347 9.00782 48.9401 9.6382 49.099C11.8187 49.6488 12.8453 51.012 11.7577 51.9142C11.3403 52.2605 8.89701 52.1903 8.05067 51.808C7.78415 51.6876 7.58003 51.7056 7.58003 51.8497C7.58003 52.2909 8.90051 52.7283 10.2312 52.7283C11.7612 52.7283 12.6898 52.0293 12.6898 50.8776C12.6898 49.9284 12.1089 49.4103 10.4039 48.8388C8.1335 48.0777 7.62414 47.2981 8.72301 46.2671C9.3343 45.6937 10.3108 45.6545 11.8158 46.1427C12.1487 46.2507 12.4209 46.2333 12.4209 46.1042C12.4209 45.8545 10.5098 45.1813 9.93753 45.2295C9.75035 45.2453 9.27003 45.3875 8.87039 45.5456ZM16.0515 45.7031C14.7225 46.4658 13.4732 49.6614 14.3034 50.1743C14.4514 50.2658 14.5724 50.5693 14.5724 50.8486C14.5724 51.1282 14.9771 51.6653 15.4717 52.0425C16.6222 52.9197 18.9074 53.0017 19.9471 52.2029C20.3147 51.9207 20.5272 51.6016 20.4193 51.4938C20.3115 51.386 20.0014 51.4986 19.7298 51.7441C19.396 52.0462 18.7584 52.1906 17.7582 52.1906C16.0626 52.1906 15.2437 51.5801 14.9462 50.0942L14.7741 49.2334H21.0852L20.9007 48.4941C20.5296 47.0054 19.9151 46.09 18.9916 45.6496C17.8254 45.0937 17.0904 45.1071 16.0515 45.7031ZM25.7276 45.5348C25.4347 45.6943 24.8533 46.1077 24.4351 46.4537C23.4562 47.264 23.2389 47.246 23.102 46.3435C23.0404 45.937 22.9718 47.0158 22.9498 48.7409C22.9274 50.4663 22.836 52.0691 22.7462 52.303C22.6397 52.5804 22.7308 52.7283 23.0084 52.7283C23.3368 52.7283 23.3973 52.546 23.2741 51.9298C22.9597 50.358 23.4301 48.1963 24.3031 47.2024C24.7506 46.693 25.2626 46.2763 25.4407 46.2763C25.9344 46.2763 26.7899 45.5727 26.5078 45.3985C26.3714 45.3141 26.0202 45.3757 25.7276 45.5348ZM41.1339 45.6456C39.8153 46.34 39.0456 47.6428 39.0456 49.1802C39.0456 50.4072 39.1567 50.6717 40.0797 51.6416C41.0317 52.642 41.2259 52.7283 42.5259 52.7283C43.8569 52.7283 45.5001 52.1021 45.5001 51.5949C45.5001 51.2798 45.1596 51.3537 44.5747 51.7959C44.27 52.0263 43.4661 52.1906 42.6445 52.1906C41.3458 52.1906 41.1721 52.1126 40.4099 51.1884C39.7728 50.4158 39.5835 49.9233 39.5835 49.0377C39.5835 48.0562 39.74 47.7328 40.6592 46.8139C41.913 45.5607 42.9423 45.4128 44.1966 46.3056C44.9698 46.8559 45.4568 46.8588 45.1182 46.3112C44.8331 45.8499 43.2999 45.1996 42.5676 45.2295C42.1836 45.245 41.5384 45.4324 41.1339 45.6456ZM48.6849 45.7835C47.4114 46.5217 46.9984 47.3333 46.9984 49.099C46.9984 51.6164 48.0824 52.7283 50.5368 52.7283C51.7989 52.7283 53.0303 52.1823 53.0303 51.6225C53.0303 51.4747 52.7614 51.5419 52.4325 51.772C52.0735 52.0236 51.2637 52.1906 50.4034 52.1906C48.6789 52.1906 47.6516 51.3922 47.6516 50.052V49.2334H53.5682L53.5486 48.4941C53.5069 46.9228 51.8718 45.2574 50.341 45.2268C49.9712 45.2192 49.226 45.4698 48.6849 45.7835ZM28.0192 45.5854C28.0192 45.6738 28.1303 45.9561 28.2661 46.2128C28.5654 46.7785 29.5645 49.0178 30.0933 50.3088C31.46 53.6447 31.3887 53.6657 33.2699 49.3679C34.8177 45.8311 34.9339 45.4698 34.5232 45.4698C34.4024 45.4698 34.0267 46.1653 33.6881 47.0156C33.3496 47.8659 32.8431 49.0743 32.5629 49.7009C32.2827 50.3279 32.0533 51.0233 32.0533 51.2467C32.0533 51.4701 31.865 51.6529 31.6348 51.6529C31.2658 51.6529 30.8837 50.9636 29.9203 48.5614C29.497 47.5054 29.0296 46.4045 28.843 46.0236C28.6496 45.6289 28.0192 45.2937 28.0192 45.5854ZM36.6252 49.0832C36.6252 51.3341 36.7282 52.7283 36.8941 52.7283C37.0595 52.7283 37.1631 51.3895 37.1631 49.2493C37.1631 47.2199 37.0509 45.7013 36.8941 45.6042C36.7199 45.4967 36.6252 46.7215 36.6252 49.0832ZM18.9991 46.1596C19.5582 46.5258 20.2201 47.7766 20.2201 48.467C20.2201 48.5928 18.9967 48.6958 17.5016 48.6958H14.783L14.9658 47.9565C15.0664 47.55 15.4653 46.8844 15.852 46.4779C16.6663 45.6222 17.9763 45.4897 18.9991 46.1596ZM51.5743 46.1817C52.23 46.6113 53.0303 47.8382 53.0303 48.4135C53.0303 48.5917 52.0393 48.6958 50.341 48.6958H47.6516V47.9971C47.6516 47.0465 49.0753 45.7386 50.1099 45.7386C50.5432 45.7386 51.2024 45.9381 51.5743 46.1817ZM21.0269 62.8094C21.0269 66.1249 21.1258 68.0517 21.2958 68.0517C21.4658 68.0517 21.5647 66.1249 21.5647 62.8094C21.5647 59.4939 21.4658 57.5672 21.2958 57.5672C21.1258 57.5672 21.0269 59.4939 21.0269 62.8094ZM47.6516 59.5918C47.6516 61.8685 47.3017 62.3151 46.2701 61.3543C45.807 60.9231 45.317 60.7932 44.1517 60.7932C42.5663 60.7932 41.9665 61.1623 41.2307 62.5901C40.7789 63.4673 40.8639 65.5749 41.387 66.4602C42.3562 68.1001 45.0841 68.52 46.4478 67.239C47.1487 66.5812 47.6516 66.7212 47.6516 67.5748C47.6516 67.8863 47.735 68.0581 47.8366 67.9562C48.1403 67.653 48.218 57.5672 47.9168 57.5672C47.7659 57.5672 47.6516 58.4399 47.6516 59.5918ZM15.5709 60.7193C15.1589 60.7806 14.4024 61.2497 13.8901 61.7618C13.0612 62.5903 12.9588 62.8503 12.9588 64.1213C12.9588 64.9069 13.143 65.9185 13.3678 66.3696C13.8342 67.3038 15.1987 68.0517 16.4369 68.0517C17.4721 68.0517 19.1443 67.382 19.1443 66.9677C19.1443 66.8 19.0534 66.7062 18.9426 66.7594C18.8318 66.8124 18.2998 67.0809 17.7609 67.3557C16.555 67.9705 15.724 67.8003 14.4428 66.6758C13.5892 65.9263 13.4966 65.7093 13.4966 64.4517C13.4966 63.3087 13.6365 62.8904 14.2739 62.1272C14.9707 61.293 15.1907 61.1965 16.3971 61.1965C17.3201 61.1965 17.9128 61.35 18.2826 61.6844C18.6575 62.0237 18.8794 62.0796 19.0101 61.8683C19.2503 61.4798 18.3811 60.8128 17.62 60.8018C17.2991 60.797 16.8756 60.7515 16.6787 60.7005C16.4816 60.6494 15.9832 60.658 15.5709 60.7193ZM25.1462 61.151C24.3009 61.5712 23.4473 63.2471 23.4473 64.4864C23.4473 65.9542 24.387 67.2831 25.7432 67.7334C29.7337 69.0584 32.6119 64.8606 29.8606 61.7285C29.0815 60.8413 28.9543 60.7948 27.3861 60.8263C26.4771 60.8443 25.4692 60.9905 25.1462 61.151ZM32.6041 63.2799C32.6202 66.3605 33.0822 67.5024 34.4562 67.8554C35.4836 68.1194 37.1631 67.9 37.1631 67.5019C37.1631 67.1637 36.7021 67.1721 36.4907 67.514C36.2215 67.9495 35.2859 67.8232 34.4673 67.2406C33.4394 66.5088 33.0524 65.1773 33.1731 62.7871C33.2482 61.3021 33.1868 60.7932 32.9324 60.7932C32.6804 60.7932 32.5946 61.4427 32.6041 63.2799ZM38.4636 62.7871C38.5626 64.7472 38.1708 66.7075 37.68 66.7075C37.5436 66.7075 37.432 66.8365 37.432 66.9943C37.432 67.1591 37.6614 67.2086 37.9699 67.1108C38.3456 66.9917 38.5078 67.0624 38.5078 67.3457C38.5078 67.5686 38.6288 67.8258 38.7767 67.9173C38.951 68.0248 39.0456 66.8 39.0456 64.4383C39.0456 61.6717 38.9633 60.7932 38.7043 60.7932C38.4499 60.7932 38.3886 61.3021 38.4636 62.7871ZM29.4166 62.1089C30.4321 63.245 30.6306 64.5593 29.9768 65.8185C29.4271 66.8777 28.2626 67.7304 27.3211 67.7632C25.7126 67.8191 23.9881 66.0352 23.9862 64.3133C23.9852 63.2928 25.0246 61.7161 25.9632 61.315C27.0287 60.8599 28.6292 61.2279 29.4166 62.1089ZM46.4016 61.8234C48.2849 63.5135 47.9429 66.0505 45.6693 67.2562C44.6185 67.8135 44.4085 67.8414 43.6482 67.5266C41.4854 66.6312 40.7136 63.8789 42.1475 62.1755C42.5224 61.7301 43.0972 61.3104 43.425 61.2427C44.3725 61.0467 45.8594 61.3368 46.4016 61.8234Z" fill="black"/>
</svg>
