<svg width="117" height="31" viewBox="0 0 117 31" fill="none" xmlns="http://www.w3.org/2000/svg">
<path fill-rule="evenodd" clip-rule="evenodd" d="M12.9773 0.237198C9.97413 1.20347 5.86463 4.80017 3.25792 8.74413C1.72135 11.0688 0.989266 12.9028 0.984422 14.4398C0.980653 15.6133 1.20445 16.1202 2.06694 16.892L2.76874 17.5199L2.59999 18.5195C2.45142 19.3988 2.45949 19.6209 2.6666 20.3654C2.95513 21.4029 3.52788 22.3177 4.32644 23.0173C4.96917 23.5804 6.13835 24.0912 6.78458 24.0912C7.13219 24.0912 7.2311 24.1958 7.66981 25.0265C9.08379 27.7043 11.7776 29.7345 15.0804 30.6117C16.8215 31.074 19.8199 31.1328 21.5228 30.7379C23.8375 30.2011 25.6136 29.292 27.1309 27.8676C29.0436 26.0719 30.1708 23.7399 30.2408 21.4329C30.2711 20.4393 30.0343 19.8879 29.4889 19.6815C29.29 19.6063 29.1128 19.3335 28.9489 18.8505C28.7237 18.1872 28.7212 18.0929 28.9155 17.6336C29.1994 16.9627 29.1809 16.5202 28.8392 15.8181C28.4758 15.071 27.7101 14.5163 26.5638 14.1698L25.6674 13.8989L25.5827 12.5224C25.4685 10.6644 25.1195 9.57474 24.268 8.41588C24.1454 8.24901 24.2532 8.02897 24.8259 7.27752C26.0742 5.63988 26.6077 4.06719 26.3 2.9307C25.7313 0.828612 22.7057 0.315545 19.0983 1.70957L18.0373 2.11965L17.1327 1.25048C16.6352 0.772497 16.0134 0.292241 15.7509 0.183092C15.1168 -0.0806073 13.8907 -0.0567676 12.9773 0.237198ZM15.5143 1.24659C15.8744 1.43208 17.0849 2.64196 16.9931 2.72486C16.9678 2.74776 16.2205 3.25065 15.3323 3.8426C10.898 6.7978 8.71249 9.12876 6.84003 12.9008C6.36673 13.8542 5.97942 14.7081 5.97942 14.7985C5.97942 14.8888 5.67838 15.0622 5.31059 15.1838C4.92543 15.3112 4.35161 15.6645 3.95798 16.0167L3.27421 16.6284L2.86537 16.2415C2.27876 15.6867 2.07676 15.2265 2.07676 14.4453C2.07676 12.3386 4.35928 8.44883 7.33082 5.49162C10.4667 2.37103 14.0684 0.502639 15.5143 1.24659ZM18.9135 5.66064L18.6123 5.97965L19.4268 6.12241C20.2085 6.25942 21.5557 6.76016 21.4427 6.87172C21.4127 6.90132 21.1157 6.87306 20.7826 6.80905C19.8065 6.62128 17.624 6.66387 16.5126 6.89235C15.204 7.1614 13.9334 7.63577 12.926 8.23133C12.4907 8.48874 12.1117 8.6765 12.0839 8.64878C12.0559 8.62105 12.4424 8.19196 12.9426 7.6955C13.7851 6.859 15.7692 5.39694 15.8937 5.52082C15.9235 5.55055 15.8754 5.73363 15.7865 5.92755C15.6977 6.12147 15.6591 6.31419 15.7008 6.35557C15.7425 6.39709 16.0862 6.27482 16.4648 6.08397C17.1986 5.71394 18.3517 5.36493 18.8883 5.35046L19.2147 5.34163L18.9135 5.66064ZM60.6689 9.28345C58.8278 10.081 59.7213 11.8836 61.8897 11.7462C63.2172 11.6621 63.9431 10.9519 63.6302 10.0437C63.3683 9.28372 61.6731 8.84846 60.6689 9.28345ZM88.4686 9.39287C86.9841 10.138 87.6298 11.6283 89.4883 11.7462C91.6747 11.8847 92.5562 10.0581 90.6792 9.27769C90.0183 9.00274 89.1561 9.04774 88.4686 9.39287ZM64.5193 15.3191V21.4127H66.2015H67.8837V15.3191V9.22546H66.2015H64.5193V15.3191ZM78.1113 15.3145V21.4127H79.7935H81.4757V18.8501C81.4757 16.1944 81.5803 15.4784 82.0394 14.988C82.3464 14.66 82.988 14.6331 83.2424 14.9375C83.3825 15.1052 83.4433 15.9057 83.4943 18.2522L83.5616 21.3457H85.2438H86.926L86.9192 18.3324C86.9124 15.2881 86.7864 14.1642 86.3566 13.3102C86.0584 12.7178 85.6401 12.3073 85.1092 12.086C84.5453 11.8509 83.3149 11.8247 82.7542 12.0357C82.1682 12.2563 81.4254 13.0281 81.0678 13.7878C80.7486 14.466 80.447 14.6849 80.5728 14.1472C81.007 12.2915 81.0778 11.7549 81.043 10.5843L81.0047 9.29242L79.558 9.25439L78.1113 9.21635V15.3145ZM23.5929 9.71174C24.0953 10.0618 24.2972 10.7645 24.4296 12.6237C24.5037 13.6643 24.6273 14.4779 24.736 14.6431C24.8511 14.8179 25.2849 15.0274 25.9126 15.2111C27.5617 15.6939 28.2166 16.3129 27.9974 17.1817C27.7825 18.0339 26.2313 19.1416 24.4332 19.7268C22.8537 20.2408 21.8429 20.367 19.6895 20.3188C17.7485 20.2751 17.7033 20.2806 17.3608 20.6004C16.5621 21.346 16.6493 22.6986 17.5435 23.4365C17.8077 23.6546 18.4399 23.9594 18.9485 24.1139C19.7356 24.3531 20.0959 24.3842 21.3708 24.3229C23.0579 24.2417 24.2324 23.9333 25.6402 23.2016C26.3971 22.8084 27.7312 21.7208 27.6077 21.5977C27.5858 21.576 26.9921 21.8537 26.2885 22.2147C24.7621 22.9979 23.107 23.5 21.6478 23.6223C20.4812 23.7201 18.9655 23.532 18.3447 23.2126C17.9792 23.0246 17.4561 22.4018 17.569 22.2893C17.598 22.2605 18.015 22.3288 18.4957 22.4411C19.5526 22.6878 21.5657 22.6187 22.2629 22.3116C22.7304 22.1056 22.7244 22.1041 21.4337 22.0933C20.0789 22.0819 18.1397 21.7824 17.9043 21.5482C17.8124 21.4567 17.8229 21.3582 17.9364 21.2453C18.0582 21.1242 18.7635 21.0772 20.4865 21.0753C22.5459 21.0732 23.0218 21.0312 24 20.7657C25.3245 20.4063 26.5767 19.8637 27.4299 19.2795L28.0383 18.863L28.29 19.6787C28.4694 20.2606 28.635 20.5412 28.8676 20.6577C29.1623 20.8053 29.1935 20.9044 29.1935 21.6932C29.1935 22.4362 29.1163 22.721 28.6719 23.6156C27.3551 26.2664 24.5278 27.8511 21.119 27.849C18.9665 27.8476 17.476 27.3222 16.2438 26.1304C14.3423 24.2914 14.2088 20.7907 15.9558 18.5809C16.1681 18.3126 16.3417 18.001 16.3417 17.8888C16.3417 17.7765 16.0621 17.3633 15.7205 16.9706C14.7922 15.9035 14.4606 15.1128 14.459 13.9627C14.4569 12.5264 14.9086 11.666 15.9978 11.0308C16.5458 10.7111 16.6746 10.6942 18.4468 10.7106C20.4953 10.7294 20.8329 10.6503 21.8597 9.91008C22.5097 9.44148 23.1073 9.37304 23.5929 9.71174ZM39.7814 11.9404C39.0549 12.0866 38.3053 12.7997 37.8695 13.759C37.5593 14.4421 37.2135 14.7287 37.4011 14.1472C37.4545 13.9814 37.5291 13.4391 37.5666 12.9419L37.6348 12.0379H36.4085H35.1821V16.7253V21.4127H36.797H38.4119L38.4151 18.9685C38.417 17.6242 38.4812 16.2532 38.5579 15.9217C38.7288 15.1834 39.1442 14.7164 39.63 14.7164C40.315 14.7164 40.3577 14.9047 40.4305 18.2522L40.4978 21.3457L42.1324 21.3832L43.7671 21.4207L43.8162 18.7047C43.8593 16.3203 43.8979 15.9244 44.1329 15.4622C44.4548 14.8288 44.7187 14.6492 45.164 14.7605C45.7403 14.9044 45.8135 15.3152 45.8135 18.4056V21.2787H47.4382H49.0628L49.0194 17.6921C48.9768 14.1684 48.97 14.0942 48.639 13.4543C48.4535 13.0962 48.0707 12.6167 47.7879 12.389C47.3381 12.0266 47.1509 11.9689 46.2846 11.9254C45.4459 11.8832 45.2118 11.9223 44.7487 12.1813C44.1881 12.4948 43.7255 13.0617 43.3088 13.9463C43.1786 14.2226 43.0305 14.4485 42.9797 14.4485C42.9289 14.4485 42.8465 14.1952 42.7967 13.8855C42.5635 12.4342 41.3187 11.6312 39.7814 11.9404ZM53.8879 11.8586C53.1156 11.9417 51.4346 12.3225 50.8936 12.5368L50.389 12.7366V14.1283C50.389 14.8937 50.408 15.5199 50.4311 15.5199C50.4543 15.5199 50.7739 15.3756 51.1414 15.1992C52.7667 14.4188 54.7049 14.1902 55.2337 14.7164C55.3817 14.8637 55.5028 15.1273 55.5028 15.3022C55.5028 15.6145 55.4758 15.6212 53.9889 15.6801C51.8148 15.7662 50.7015 16.3156 50.1058 17.5958C49.8282 18.1924 49.7734 19.317 49.9939 19.8973C50.5417 21.3406 52.6011 21.9844 54.2401 21.2249C54.9704 20.8865 55.4916 20.3194 55.8442 19.4794C56.1426 18.769 56.2905 19.0074 56.3376 20.2747L56.3776 21.3457H57.656H58.9345L58.9739 19.1359C59.0428 15.2793 58.594 13.4592 57.3536 12.565C56.5841 12.0103 55.1648 11.721 53.8879 11.8586ZM72.6011 11.9238C69.8481 12.3234 68.3512 14.8199 69.0109 17.9117C69.3756 19.6218 70.2829 20.7304 71.7757 21.2904C72.8641 21.6986 74.6287 21.6135 75.7526 21.0987C77.0397 20.5092 77.0347 20.5179 77.0347 18.8473C77.0347 17.9372 76.9828 17.3949 76.8957 17.3949C76.8191 17.3949 76.4407 17.5602 76.0546 17.7623C75.415 18.0969 75.2228 18.1297 73.8951 18.1306L72.4377 18.1315L72.0447 17.6941C71.2935 16.858 71.6444 15.7495 72.7991 15.3106C73.5673 15.0187 74.639 15.1132 75.895 15.5836C76.3915 15.7696 76.8208 15.9217 76.8489 15.9217C76.8772 15.9217 76.9002 15.2055 76.9002 14.33C76.9002 12.8267 76.8833 12.7275 76.5974 12.5427C75.7377 11.9869 74.0098 11.7194 72.6011 11.9238ZM97.2403 11.9413C96.4978 12.0907 95.63 12.923 95.2892 13.8124C95.0471 14.4443 94.6735 14.7386 94.8644 14.1472C94.9178 13.9814 94.9924 13.4391 95.0299 12.9419L95.0981 12.0379H93.8717H92.6454V16.7294V21.421L94.2939 21.3833L95.9425 21.3457L96.0097 18.5333C96.07 16.0121 96.1056 15.6722 96.3528 15.2521C96.6978 14.6654 97.2964 14.5495 97.6988 14.9916C97.9397 15.2562 97.9647 15.53 98.0057 18.3462L98.0504 21.4127H99.7216H101.393L101.394 18.8346C101.394 17.4167 101.458 16.0266 101.537 15.7456C101.82 14.7309 102.645 14.3798 103.105 15.0784C103.312 15.3911 103.35 15.8369 103.387 18.3596L103.43 21.2787H105.103H106.776L106.771 18.6337C106.764 14.6993 106.437 13.3348 105.279 12.409C104.945 12.1417 104.565 11.989 104.068 11.9223C102.592 11.7238 101.682 12.2073 100.976 13.5657C100.724 14.0508 100.48 14.4477 100.434 14.448C100.388 14.4483 100.313 14.2178 100.268 13.9357C100.04 12.5147 98.718 11.644 97.2403 11.9413ZM111.949 12.1565C111.313 12.4442 110.482 13.3554 110.268 13.9992C110.186 14.2463 110.056 14.4485 109.979 14.4485C109.895 14.4485 109.878 14.3284 109.937 14.1472C109.99 13.9814 110.065 13.4367 110.103 12.9367L110.171 12.0274L108.911 12.0661L107.65 12.1049V17.9976V23.8903H109.333H111.015L111.082 22.1064L111.149 20.3225L111.553 20.7501C113.039 22.3246 115.744 21.4942 116.593 19.2029C116.769 18.7257 116.921 17.9323 116.965 17.2497C117.135 14.6486 116.157 12.6219 114.46 12.0564C113.771 11.827 112.573 11.8748 111.949 12.1565ZM60.0784 16.7151V21.421L61.7269 21.3833L63.3754 21.3457L63.4108 16.7588C63.4388 13.1342 63.4106 12.1719 63.2762 12.1726C63.1827 12.173 62.8795 12.236 62.6026 12.3126C62.1355 12.4417 60.8894 12.319 60.2719 12.0832C60.1058 12.0197 60.0784 12.6778 60.0784 16.7151ZM87.9672 16.6945L88.0026 21.3457H89.6847H91.3669L91.4023 16.7435L91.4378 12.1413L90.9313 12.257C90.2718 12.4077 88.777 12.3671 88.3036 12.1856L87.9318 12.0432L87.9672 16.6945ZM22.6458 12.6327C22.4861 12.9815 22.6804 14.0754 22.9622 14.4133C23.1786 14.6727 23.7131 14.6201 23.8056 14.3303C23.8929 14.0565 23.6826 12.9612 23.465 12.5566C23.2737 12.201 22.8244 12.2427 22.6458 12.6327ZM17.8489 13.6718C17.7601 13.7602 17.6874 13.9309 17.6874 14.0511C17.6874 14.1713 17.4612 14.4155 17.1846 14.5936C16.5633 14.9936 16.394 15.4614 16.946 15.2525C17.5395 15.028 17.8091 15.0871 17.9038 15.4628C17.9529 15.6575 17.9247 15.8731 17.8391 15.9583C17.7556 16.0413 17.6874 16.1462 17.6874 16.1912C17.6874 16.3082 18.7215 16.2768 18.8426 16.1561C18.898 16.1009 19.115 16.0556 19.3248 16.0556C19.7962 16.0556 19.822 15.825 19.3696 15.6539C19.1845 15.5838 19.0331 15.4362 19.0331 15.3258C19.0331 15.1654 19.1029 15.1512 19.3783 15.2554C19.9003 15.453 20.0028 15.4198 19.8348 15.1075C19.7524 14.9544 19.4778 14.7073 19.2245 14.5586C18.9712 14.4098 18.764 14.2071 18.764 14.1081C18.764 13.944 18.2739 13.5111 18.088 13.5111C18.0454 13.5111 17.9377 13.5834 17.8489 13.6718ZM112.959 14.8464C113.345 15.0519 113.639 15.969 113.638 16.9623C113.637 18.5957 113.261 19.2749 112.364 19.2656C111.499 19.2566 111.028 18.4553 111.029 16.9931C111.029 15.9691 111.374 14.9706 111.785 14.8063C112.078 14.6889 112.703 14.7102 112.959 14.8464ZM23.3008 15.5201C22.9258 16.0528 23.4574 16.7598 23.8407 16.2382C24.0762 15.9176 24.0564 15.735 23.7568 15.4653C23.5142 15.2466 23.4912 15.2494 23.3008 15.5201ZM7.87302 16.4239C8.44604 16.7128 8.69621 16.9471 9.03319 17.5098C10.0582 19.2223 9.68668 22.0374 8.35237 22.6675C6.98725 23.3121 4.85828 22.4192 3.99862 20.8413C3.63608 20.1759 3.6716 18.438 4.06281 17.704C4.40463 17.0625 5.02704 16.5445 5.78981 16.2663C6.57653 15.9794 7.06436 16.0164 7.87302 16.4239ZM21.4961 16.2774C21.3681 16.6093 21.9398 17.0313 22.2754 16.8525C22.5687 16.6963 22.6056 16.4502 22.3706 16.2164C22.1352 15.9821 21.5954 16.0199 21.4961 16.2774ZM5.8073 17.6547C5.31113 18.0884 4.95383 18.86 5.08813 19.2084C5.21329 19.5329 5.37707 19.4315 5.62266 18.8775C5.88105 18.2946 6.41867 18.0647 6.91041 18.3265C7.39595 18.5851 7.50563 18.9605 7.26824 19.551C6.98712 20.2502 7.0003 20.5025 7.34078 20.9332C7.5604 21.2111 7.72149 21.2841 8.04608 21.2526C8.59367 21.1994 8.73645 20.743 8.20555 20.743C7.71718 20.743 7.66214 20.4733 7.96991 19.5878C8.16585 19.0242 8.20461 18.7162 8.11768 18.4145C7.94488 17.8149 7.44723 17.3857 6.82899 17.3032C6.36417 17.2412 6.22637 17.2886 5.8073 17.6547ZM55.2899 17.6101C55.5947 17.7265 55.5583 17.8584 55.0676 18.4146C54.3834 19.19 53.4499 19.4844 53.0228 19.0595C52.5629 18.6017 52.9572 17.8528 53.7566 17.6657C54.3435 17.5284 55.0123 17.504 55.2899 17.6101Z" fill="black"/>
</svg>
