<svg width="117" height="31" viewBox="0 0 117 31" fill="none" xmlns="http://www.w3.org/2000/svg">
<path fill-rule="evenodd" clip-rule="evenodd" d="M12.9783 0.237198C9.97511 1.20347 5.86561 4.80017 3.2589 8.74413C1.72233 11.0688 0.990243 12.9028 0.985398 14.4398C0.98163 15.6133 1.20543 16.1202 2.06792 16.892L2.76972 17.5199L2.60096 18.5195C2.45239 19.3988 2.46047 19.6209 2.66758 20.3654C2.95611 21.4029 3.52886 22.3177 4.32742 23.0173C4.97015 23.5804 6.13933 24.0912 6.78556 24.0912C7.13316 24.0912 7.23208 24.1958 7.67079 25.0265C9.08476 27.7043 11.7785 29.7345 15.0814 30.6117C16.8225 31.074 19.8208 31.1328 21.5237 30.7379C23.8384 30.2011 25.6145 29.292 27.1319 27.8676C29.0446 26.0719 30.1718 23.7399 30.2417 21.4329C30.272 20.4393 30.0353 19.8879 29.4899 19.6815C29.291 19.6063 29.1137 19.3335 28.9498 18.8505C28.7247 18.1872 28.7221 18.0929 28.9165 17.6336C29.2004 16.9627 29.1818 16.5202 28.8402 15.8181C28.4768 15.071 27.7111 14.5163 26.5648 14.1698L25.6684 13.8989L25.5837 12.5224C25.4695 10.6644 25.1205 9.57474 24.2689 8.41588C24.1463 8.24901 24.2541 8.02897 24.8269 7.27752C26.0752 5.63988 26.6086 4.06719 26.301 2.9307C25.7323 0.828612 22.7067 0.315545 19.0993 1.70957L18.0383 2.11965L17.1337 1.25048C16.6361 0.772497 16.0144 0.292241 15.7519 0.183092C15.1177 -0.0806073 13.8916 -0.0567676 12.9783 0.237198ZM15.5153 1.24659C15.8754 1.43208 17.0859 2.64196 16.9941 2.72486C16.9688 2.74776 16.2215 3.25065 15.3333 3.8426C10.899 6.7978 8.71347 9.12876 6.841 12.9008C6.3677 13.8542 5.9804 14.7081 5.9804 14.7985C5.9804 14.8888 5.67936 15.0622 5.31156 15.1838C4.92641 15.3112 4.35259 15.6645 3.95896 16.0167L3.27518 16.6284L2.86635 16.2415C2.27974 15.6867 2.07774 15.2265 2.07774 14.4453C2.07774 12.3386 4.36026 8.44883 7.3318 5.49162C10.4676 2.37103 14.0694 0.502639 15.5153 1.24659ZM18.9145 5.66064L18.6133 5.97965L19.4278 6.12241C20.2095 6.25942 21.5567 6.76016 21.4437 6.87172C21.4137 6.90132 21.1167 6.87306 20.7836 6.80905C19.8075 6.62128 17.625 6.66387 16.5135 6.89235C15.2049 7.1614 13.9344 7.63577 12.927 8.23133C12.4916 8.48874 12.1127 8.6765 12.0848 8.64878C12.0568 8.62105 12.4433 8.19196 12.9436 7.6955C13.7861 6.859 15.7702 5.39694 15.8946 5.52082C15.9245 5.55055 15.8763 5.73363 15.7875 5.92755C15.6987 6.12147 15.6601 6.31419 15.7018 6.35557C15.7435 6.39709 16.0872 6.27482 16.4658 6.08397C17.1996 5.71394 18.3526 5.36493 18.8893 5.35046L19.2157 5.34163L18.9145 5.66064ZM60.6698 9.28345C58.8287 10.081 59.7223 11.8836 61.8907 11.7462C63.2181 11.6621 63.944 10.9519 63.6312 10.0437C63.3693 9.28372 61.674 8.84846 60.6698 9.28345ZM88.4696 9.39287C86.9851 10.138 87.6308 11.6283 89.4892 11.7462C91.6757 11.8847 92.5571 10.0581 90.6802 9.27769C90.0193 9.00274 89.1571 9.04774 88.4696 9.39287ZM64.5203 15.3191V21.4127H66.2025H67.8847V15.3191V9.22546H66.2025H64.5203V15.3191ZM78.1123 15.3145V21.4127H79.7945H81.4767V18.8501C81.4767 16.1944 81.5812 15.4784 82.0404 14.988C82.3474 14.66 82.989 14.6331 83.2434 14.9375C83.3835 15.1052 83.4443 15.9057 83.4953 18.2522L83.5626 21.3457H85.2448H86.9269L86.9202 18.3324C86.9133 15.2881 86.7874 14.1642 86.3576 13.3102C86.0593 12.7178 85.6411 12.3073 85.1102 12.086C84.5463 11.8509 83.3159 11.8247 82.7551 12.0357C82.1692 12.2563 81.4263 13.0281 81.0688 13.7878C80.7496 14.466 80.448 14.6849 80.5738 14.1472C81.0079 12.2915 81.0787 11.7549 81.044 10.5843L81.0057 9.29242L79.559 9.25439L78.1123 9.21635V15.3145ZM23.5939 9.71174C24.0963 10.0618 24.2981 10.7645 24.4306 12.6237C24.5047 13.6643 24.6282 14.4779 24.737 14.6431C24.852 14.8179 25.2859 15.0274 25.9136 15.2111C27.5626 15.6939 28.2176 16.3129 27.9984 17.1817C27.7835 18.0339 26.2322 19.1416 24.4342 19.7268C22.8547 20.2408 21.8439 20.367 19.6904 20.3188C17.7495 20.2751 17.7043 20.2806 17.3618 20.6004C16.5631 21.346 16.6503 22.6986 17.5445 23.4365C17.8087 23.6546 18.4409 23.9594 18.9495 24.1139C19.7366 24.3531 20.0969 24.3842 21.3718 24.3229C23.0588 24.2417 24.2334 23.9333 25.6412 23.2016C26.398 22.8084 27.7322 21.7208 27.6087 21.5977C27.5867 21.576 26.9931 21.8537 26.2894 22.2147C24.7631 22.9979 23.108 23.5 21.6488 23.6223C20.4821 23.7201 18.9664 23.532 18.3456 23.2126C17.9801 23.0246 17.457 22.4018 17.57 22.2893C17.599 22.2605 18.0159 22.3288 18.4966 22.4411C19.5536 22.6878 21.5667 22.6187 22.2639 22.3116C22.7314 22.1056 22.7254 22.1041 21.4347 22.0933C20.0799 22.0819 18.1407 21.7824 17.9053 21.5482C17.8134 21.4567 17.8239 21.3582 17.9373 21.2453C18.0591 21.1242 18.7644 21.0772 20.4875 21.0753C22.5469 21.0732 23.0228 21.0312 24.001 20.7657C25.3255 20.4063 26.5777 19.8637 27.4309 19.2795L28.0393 18.863L28.291 19.6787C28.4703 20.2606 28.636 20.5412 28.8686 20.6577C29.1633 20.8053 29.1945 20.9044 29.1945 21.6932C29.1945 22.4362 29.1172 22.721 28.6729 23.6156C27.3561 26.2664 24.5288 27.8511 21.12 27.849C18.9675 27.8476 17.477 27.3222 16.2448 26.1304C14.3433 24.2914 14.2098 20.7907 15.9568 18.5809C16.169 18.3126 16.3426 18.001 16.3426 17.8888C16.3426 17.7765 16.0631 17.3633 15.7214 16.9706C14.7931 15.9035 14.4616 15.1128 14.4599 13.9627C14.4579 12.5264 14.9095 11.666 15.9988 11.0308C16.5468 10.7111 16.6756 10.6942 18.4478 10.7106C20.4963 10.7294 20.8339 10.6503 21.8607 9.91008C22.5107 9.44148 23.1082 9.37304 23.5939 9.71174ZM39.7824 11.9404C39.0558 12.0866 38.3063 12.7997 37.8705 13.759C37.5603 14.4421 37.2145 14.7287 37.4021 14.1472C37.4555 13.9814 37.53 13.4391 37.5676 12.9419L37.6358 12.0379H36.4094H35.1831V16.7253V21.4127H36.7979H38.4128L38.4161 18.9685C38.418 17.6242 38.4821 16.2532 38.5589 15.9217C38.7298 15.1834 39.1452 14.7164 39.631 14.7164C40.316 14.7164 40.3587 14.9047 40.4315 18.2522L40.4987 21.3457L42.1334 21.3832L43.7681 21.4207L43.8172 18.7047C43.8603 16.3203 43.8989 15.9244 44.1339 15.4622C44.4558 14.8288 44.7197 14.6492 45.165 14.7605C45.7412 14.9044 45.8144 15.3152 45.8144 18.4056V21.2787H47.4392H49.0637L49.0204 17.6921C48.9777 14.1684 48.971 14.0942 48.64 13.4543C48.4545 13.0962 48.0717 12.6167 47.7889 12.389C47.339 12.0266 47.1518 11.9689 46.2856 11.9254C45.4469 11.8832 45.2128 11.9223 44.7497 12.1813C44.189 12.4948 43.7265 13.0617 43.3097 13.9463C43.1796 14.2226 43.0314 14.4485 42.9807 14.4485C42.9298 14.4485 42.8475 14.1952 42.7977 13.8855C42.5645 12.4342 41.3196 11.6312 39.7824 11.9404ZM53.8889 11.8586C53.1166 11.9417 51.4356 12.3225 50.8946 12.5368L50.39 12.7366V14.1283C50.39 14.8937 50.4089 15.5199 50.4321 15.5199C50.4552 15.5199 50.7749 15.3756 51.1424 15.1992C52.7676 14.4188 54.7059 14.1902 55.2346 14.7164C55.3827 14.8637 55.5038 15.1273 55.5038 15.3022C55.5038 15.6145 55.4767 15.6212 53.9898 15.6801C51.8158 15.7662 50.7024 16.3156 50.1068 17.5958C49.8292 18.1924 49.7744 19.317 49.9949 19.8973C50.5427 21.3406 52.6021 21.9844 54.2411 21.2249C54.9714 20.8865 55.4926 20.3194 55.8452 19.4794C56.1436 18.769 56.2915 19.0074 56.3386 20.2747L56.3785 21.3457H57.657H58.9354L58.9749 19.1359C59.0438 15.2793 58.595 13.4592 57.3546 12.565C56.5851 12.0103 55.1657 11.721 53.8889 11.8586ZM72.602 11.9238C69.849 12.3234 68.3522 14.8199 69.0118 17.9117C69.3765 19.6218 70.2839 20.7304 71.7767 21.2904C72.8651 21.6986 74.6297 21.6135 75.7536 21.0987C77.0407 20.5092 77.0357 20.5179 77.0357 18.8473C77.0357 17.9372 76.9838 17.3949 76.8967 17.3949C76.8201 17.3949 76.4417 17.5602 76.0556 17.7623C75.416 18.0969 75.2238 18.1297 73.8961 18.1306L72.4387 18.1315L72.0457 17.6941C71.2945 16.858 71.6453 15.7495 72.8001 15.3106C73.5683 15.0187 74.64 15.1132 75.896 15.5836C76.3924 15.7696 76.8217 15.9217 76.8499 15.9217C76.8781 15.9217 76.9011 15.2055 76.9011 14.33C76.9011 12.8267 76.8843 12.7275 76.5984 12.5427C75.7387 11.9869 74.0107 11.7194 72.602 11.9238ZM97.2413 11.9413C96.4988 12.0907 95.6309 12.923 95.2902 13.8124C95.0481 14.4443 94.6745 14.7386 94.8653 14.1472C94.9188 13.9814 94.9933 13.4391 95.0309 12.9419L95.0991 12.0379H93.8727H92.6464V16.7294V21.421L94.2949 21.3833L95.9434 21.3457L96.0107 18.5333C96.071 16.0121 96.1065 15.6722 96.3537 15.2521C96.6988 14.6654 97.2974 14.5495 97.6998 14.9916C97.9407 15.2562 97.9657 15.53 98.0067 18.3462L98.0514 21.4127H99.7225H101.394L101.395 18.8346C101.395 17.4167 101.459 16.0266 101.538 15.7456C101.821 14.7309 102.646 14.3798 103.106 15.0784C103.313 15.3911 103.351 15.8369 103.388 18.3596L103.431 21.2787H105.104H106.777L106.772 18.6337C106.765 14.6993 106.438 13.3348 105.28 12.409C104.946 12.1417 104.566 11.989 104.069 11.9223C102.593 11.7238 101.683 12.2073 100.977 13.5657C100.725 14.0508 100.481 14.4477 100.435 14.448C100.389 14.4483 100.314 14.2178 100.269 13.9357C100.041 12.5147 98.719 11.644 97.2413 11.9413ZM111.95 12.1565C111.314 12.4442 110.483 13.3554 110.269 13.9992C110.187 14.2463 110.057 14.4485 109.98 14.4485C109.896 14.4485 109.879 14.3284 109.938 14.1472C109.991 13.9814 110.066 13.4367 110.103 12.9367L110.172 12.0274L108.912 12.0661L107.651 12.1049V17.9976V23.8903H109.334H111.016L111.083 22.1064L111.15 20.3225L111.554 20.7501C113.04 22.3246 115.745 21.4942 116.594 19.2029C116.77 18.7257 116.922 17.9323 116.966 17.2497C117.136 14.6486 116.158 12.6219 114.461 12.0564C113.772 11.827 112.574 11.8748 111.95 12.1565ZM60.0793 16.7151V21.421L61.7279 21.3833L63.3764 21.3457L63.4118 16.7588C63.4398 13.1342 63.4115 12.1719 63.2772 12.1726C63.1837 12.173 62.8805 12.236 62.6035 12.3126C62.1364 12.4417 60.8904 12.319 60.2728 12.0832C60.1068 12.0197 60.0793 12.6778 60.0793 16.7151ZM87.9681 16.6945L88.0035 21.3457H89.6857H91.3679L91.4033 16.7435L91.4388 12.1413L90.9323 12.257C90.2727 12.4077 88.778 12.3671 88.3046 12.1856L87.9327 12.0432L87.9681 16.6945ZM22.6468 12.6327C22.487 12.9815 22.6814 14.0754 22.9632 14.4133C23.1796 14.6727 23.7141 14.6201 23.8065 14.3303C23.8939 14.0565 23.6835 12.9612 23.4659 12.5566C23.2747 12.201 22.8254 12.2427 22.6468 12.6327ZM17.8499 13.6718C17.761 13.7602 17.6884 13.9309 17.6884 14.0511C17.6884 14.1713 17.4622 14.4155 17.1856 14.5936C16.5643 14.9936 16.395 15.4614 16.947 15.2525C17.5405 15.028 17.81 15.0871 17.9048 15.4628C17.9539 15.6575 17.9256 15.8731 17.84 15.9583C17.7566 16.0413 17.6884 16.1462 17.6884 16.1912C17.6884 16.3082 18.7224 16.2768 18.8436 16.1561C18.899 16.1009 19.1159 16.0556 19.3257 16.0556C19.7972 16.0556 19.823 15.825 19.3706 15.6539C19.1855 15.5838 19.0341 15.4362 19.0341 15.3258C19.0341 15.1654 19.1038 15.1512 19.3793 15.2554C19.9013 15.453 20.0037 15.4198 19.8358 15.1075C19.7534 14.9544 19.4788 14.7073 19.2255 14.5586C18.9722 14.4098 18.765 14.2071 18.765 14.1081C18.765 13.944 18.2749 13.5111 18.089 13.5111C18.0463 13.5111 17.9387 13.5834 17.8499 13.6718ZM112.96 14.8464C113.346 15.0519 113.64 15.969 113.639 16.9623C113.638 18.5957 113.262 19.2749 112.365 19.2656C111.5 19.2566 111.029 18.4553 111.029 16.9931C111.03 15.9691 111.375 14.9706 111.786 14.8063C112.079 14.6889 112.704 14.7102 112.96 14.8464ZM23.3017 15.5201C22.9268 16.0528 23.4584 16.7598 23.8417 16.2382C24.0772 15.9176 24.0574 15.735 23.7578 15.4653C23.5152 15.2466 23.4922 15.2494 23.3017 15.5201ZM7.874 16.4239C8.44701 16.7128 8.69719 16.9471 9.03416 17.5098C10.0592 19.2223 9.68766 22.0374 8.35335 22.6675C6.98823 23.3121 4.85926 22.4192 3.9996 20.8413C3.63705 20.1759 3.67258 18.438 4.06379 17.704C4.40561 17.0625 5.02802 16.5445 5.79078 16.2663C6.57751 15.9794 7.06534 16.0164 7.874 16.4239ZM21.4971 16.2774C21.3691 16.6093 21.9408 17.0313 22.2764 16.8525C22.5697 16.6963 22.6065 16.4502 22.3716 16.2164C22.1362 15.9821 21.5964 16.0199 21.4971 16.2774ZM5.80828 17.6547C5.3121 18.0884 4.95481 18.86 5.08911 19.2084C5.21427 19.5329 5.37804 19.4315 5.62364 18.8775C5.88202 18.2946 6.41965 18.0647 6.91138 18.3265C7.39693 18.5851 7.50661 18.9605 7.26922 19.551C6.98809 20.2502 7.00128 20.5025 7.34175 20.9332C7.56138 21.2111 7.72247 21.2841 8.04706 21.2526C8.59464 21.1994 8.73743 20.743 8.20653 20.743C7.71816 20.743 7.66312 20.4733 7.97089 19.5878C8.16683 19.0242 8.20559 18.7162 8.11865 18.4145C7.94586 17.8149 7.4482 17.3857 6.82997 17.3032C6.36515 17.2412 6.22734 17.2886 5.80828 17.6547ZM55.2909 17.6101C55.5957 17.7265 55.5592 17.8584 55.0686 18.4146C54.3844 19.19 53.4509 19.4844 53.0237 19.0595C52.5639 18.6017 52.9582 17.8528 53.7576 17.6657C54.3444 17.5284 55.0133 17.504 55.2909 17.6101Z" fill="black"/>
</svg>
