<svg width="77" height="58" viewBox="0 0 77 58" fill="none" xmlns="http://www.w3.org/2000/svg">
<path d="M42.1631 34.5049L42.3849 34.953C43.3139 34.4932 44.0261 33.9994 45.5918 32.4184C47.1463 30.8487 49.5761 28.1723 53.9383 23.3245L53.5667 22.9901L53.9384 23.3245C55.4771 21.6144 57.9132 18.9408 59.3511 17.3841C60.7921 15.8245 63.0166 13.3889 64.2958 11.9706C65.5725 10.555 67.6763 8.24387 68.9702 6.83525C69.7936 5.9389 70.3777 5.26078 70.7341 4.77626C70.9094 4.53798 71.0492 4.32063 71.1303 4.13241C71.1703 4.03968 71.2107 3.92145 71.2174 3.79215C71.2246 3.65432 71.1931 3.46403 71.04 3.31052C71.0399 3.31046 71.0399 3.3104 71.0398 3.31034L70.686 3.66363C70.4213 3.39832 8.05177 3.18479 6.72287 3.44469C6.40447 3.50676 6.14419 3.6559 6.14419 3.77593C6.14419 3.89597 8.25624 6.29867 10.8379 9.1153C13.4196 11.9319 18.4829 17.4709 22.09 21.4245C25.6971 25.3778 29.2967 29.3134 30.0891 30.1698L42.1631 34.5049ZM42.1631 34.5049L42.3849 34.953C38.9613 36.6475 34.408 35.8157 31.9836 33.0146C31.5315 32.4924 30.5132 31.3641 29.7221 30.5095L29.7221 30.5094C28.9282 29.6514 25.3271 25.7142 21.7206 21.7615L21.7206 21.7615C18.1137 17.8081 13.0507 12.2694 10.4693 9.45314C9.17684 8.04303 8.00099 6.73554 7.14739 5.76451C6.72098 5.27943 6.37291 4.87596 6.13036 4.58477C6.0097 4.4399 5.91144 4.3184 5.84179 4.22669C5.80772 4.18182 5.77498 4.13689 5.74877 4.09637C5.73618 4.07692 5.71897 4.04914 5.70309 4.01737C5.69518 4.00153 5.6835 3.97663 5.67287 3.94571C5.66451 3.92138 5.64419 3.85837 5.64419 3.77593C5.64419 3.56573 5.75387 3.41743 5.8224 3.34317C5.89785 3.26141 5.98656 3.19998 6.06568 3.15468C6.22623 3.06275 6.42436 2.9935 6.6269 2.95398L42.1631 34.5049ZM50.4743 31.5646C50.5026 31.6068 50.5372 31.6444 50.5502 31.6585L50.5514 31.6598C50.5718 31.6819 50.5964 31.7074 50.6232 31.7347C50.6773 31.7896 50.7501 31.8614 50.838 31.9467C51.0144 32.118 51.2594 32.3515 51.5546 32.6301C52.1454 33.1879 52.9422 33.9315 53.8041 34.7304C55.5274 36.3275 57.5166 38.1507 58.6467 39.1569C59.5019 39.9188 61.3594 41.6082 62.7731 42.91C67.4645 47.2307 70.0428 49.5909 71.4701 50.8125C72.1736 51.4147 72.6318 51.7708 72.938 51.9414C73.0756 52.018 73.2801 52.1157 73.5047 52.0934C73.6389 52.08 73.7656 52.0254 73.8674 51.9308C73.9604 51.8445 74.0094 51.7464 74.0361 51.6786C74.0571 51.6255 74.0655 51.5776 74.068 51.5633L64.1472 15.6496M50.4743 31.5646L50.8896 31.2862M50.4743 31.5646C50.4743 31.5647 50.4744 31.5648 50.4745 31.565L50.8896 31.2862M50.4743 31.5646C50.3563 31.3886 50.3872 31.2097 50.3955 31.1649C50.4082 31.0967 50.4313 31.0394 50.4472 31.0035C50.4807 30.928 50.5274 30.8494 50.5737 30.7775C50.6695 30.6288 50.8091 30.4395 50.9763 30.2269C51.3132 29.7985 51.79 29.24 52.3263 28.6525C53.3862 27.4914 55.5265 25.1285 57.0821 23.4023C58.6395 21.674 61.8185 18.1856 64.1472 15.6496M50.8896 31.2862C51.0341 31.5018 56.727 36.778 58.9792 38.7836M50.8896 31.2862L58.9792 38.7836M64.1472 15.6496L64.5155 15.9878L73.5665 6.66675L73.989 6.3993L73.9888 6.39909C73.9888 6.39904 73.9888 6.39899 73.9887 6.39895C73.9593 6.35248 73.8808 6.22856 73.7389 6.14457C73.5603 6.03888 73.3698 6.04158 73.2133 6.09107C73.0801 6.13318 72.9616 6.2111 72.8626 6.28627C72.7574 6.36622 72.6384 6.47141 72.5021 6.60133C71.9643 7.11411 71.0004 8.16557 69.2006 10.1397C68.7492 10.6347 66.4753 13.1139 64.1472 15.6496ZM58.9792 38.7836C59.8375 39.548 61.6972 41.2396 63.1118 42.5421L58.9792 38.7836ZM4.86032 56.7959L4.86026 56.7958C3.01611 55.9432 1.65189 54.4813 0.957508 52.623C0.729397 52.0122 0.596954 51.6473 0.538868 48.5761C0.480813 45.5064 0.496186 39.7999 0.530532 28.5491L0.599856 5.83578L1.22978 4.64037C1.22978 4.64036 1.22979 4.64036 1.22979 4.64036C2.27188 2.66287 4.11614 1.22642 6.37375 0.648989C6.3786 0.648508 6.3853 0.647891 6.39413 0.647181C6.42704 0.644534 6.47524 0.641595 6.54049 0.638505C6.67032 0.632358 6.85429 0.626224 7.09142 0.620187C7.56492 0.608133 8.23984 0.596725 9.09503 0.586096C10.8048 0.564845 13.2286 0.546789 16.1882 0.532785C22.1071 0.504779 30.1658 0.492995 38.9353 0.504199C54.0401 0.523391 62.0242 0.539691 66.3759 0.606786C70.7708 0.674548 71.3854 0.79837 71.8535 0.980633C73.3468 1.56223 74.9183 2.98023 75.7996 4.57402L76.2372 4.33205L75.7996 4.57403L76.5 5.84044V29.0223V52.2096L75.8704 53.4043C75.1012 54.8641 73.5962 56.286 72.0633 56.9958L70.9745 57.5H38.6787H6.38282L4.86032 56.7959ZM25.9939 29.9841L25.9938 29.984C25.2111 29.0887 19.4441 22.7625 10.1459 12.5998C9.76409 12.1824 9.40589 11.7908 9.06982 11.4233C6.54716 8.66491 5.27091 7.26939 4.61098 6.61988C4.42354 6.4354 4.27087 6.29603 4.14511 6.20012C4.08212 6.15208 4.01344 6.10526 3.94074 6.06871C3.87183 6.03406 3.76549 5.99119 3.6357 5.99004C3.48497 5.9887 3.34568 6.04408 3.23914 6.14134C3.1488 6.22381 3.10325 6.31726 3.08197 6.36592C3.06065 6.41466 3.04478 6.46451 3.03636 6.49095L3.03527 6.4944C3.02457 6.52794 3.01923 6.54467 3.01312 6.56061L3.01303 6.56084C2.98449 6.63538 2.97568 6.71524 2.97311 6.73859C2.97297 6.7399 2.97284 6.74104 2.97273 6.74199C2.96801 6.78343 2.96405 6.83258 2.96055 6.88592C2.95347 6.99364 2.94698 7.13904 2.9409 7.31685C2.9287 7.67356 2.91768 8.17626 2.90775 8.80221C2.88788 10.0549 2.87222 11.811 2.86055 13.9015C2.83722 18.083 2.82981 23.608 2.83668 29.1319C2.84354 34.6559 2.86468 40.1801 2.89842 44.3601C2.9153 46.4498 2.93533 48.205 2.95834 49.4566C2.96984 50.0819 2.98213 50.584 2.99522 50.9401C3.00175 51.1176 3.00862 51.2627 3.01598 51.3701C3.01962 51.4233 3.02371 51.4724 3.02857 51.5138L3.02896 51.5171C3.03153 51.5399 3.0407 51.6212 3.07048 51.6969C3.07267 51.7025 3.07558 51.7114 3.08525 51.7457L3.08676 51.7511C3.09392 51.7768 3.11067 51.8368 3.13604 51.8944C3.16413 51.9582 3.22784 52.08 3.36496 52.168C3.51495 52.2643 3.67355 52.2711 3.79279 52.2508C3.98271 52.2184 4.16475 52.1005 4.31377 51.9944C4.48632 51.8716 4.7111 51.6907 5.00626 51.439C6.03895 50.5583 8.06736 48.6942 12.103 44.9855C12.6734 44.4612 13.2839 43.9002 13.9374 43.2998L13.5991 42.9316L13.9374 43.2998C17.1016 40.3928 19.9447 37.7899 20.2605 37.5107C20.5852 37.2236 22.178 35.7721 23.7976 34.2878L26.7455 31.5863L27.1055 31.2564L26.7842 30.8887L25.9939 29.9841ZM33.6834 37.1571L33.6834 37.1571C32.9726 36.8204 31.6136 35.8371 30.6963 34.9768L28.9903 33.377L28.6522 33.0598L28.3104 33.3731L23.5524 37.735C20.9362 40.1332 18.2723 42.5838 17.6337 43.1799C17.0001 43.7712 14.063 46.4521 11.105 49.1396C8.51943 51.4885 7.15725 52.7322 6.53917 53.406C6.38308 53.5762 6.2578 53.7276 6.16999 53.8631C6.09347 53.9811 5.98938 54.1689 6.00071 54.3909C6.01566 54.6835 6.20894 54.852 6.35659 54.9302C6.48003 54.9955 6.62112 55.0268 6.70536 55.0452L6.70545 55.0452C6.7609 55.0573 6.8259 55.0624 6.86625 55.0654C6.91827 55.0693 6.98314 55.0728 7.05858 55.0761C7.21 55.0827 7.41601 55.089 7.67125 55.095C8.1824 55.107 8.90068 55.1182 9.79524 55.1284C11.5849 55.1489 14.0863 55.166 17.061 55.1797C23.0107 55.2071 30.8571 55.2208 38.696 55.2208C46.535 55.2209 54.3673 55.2072 60.2889 55.1799C63.2495 55.1662 65.7334 55.1492 67.502 55.1287C68.386 55.1184 69.093 55.1073 69.592 55.0952C69.8411 55.0892 70.041 55.0829 70.1863 55.0763C70.2585 55.073 70.3209 55.0694 70.3705 55.0654L70.3741 55.0652C70.4058 55.0627 70.4812 55.0567 70.5467 55.0383C70.6412 55.0118 70.8692 54.9374 70.9949 54.7036C71.1305 54.4513 71.0512 54.2035 70.9897 54.0692C70.9234 53.9243 70.8159 53.7736 70.6888 53.6185C70.5572 53.4578 70.3831 53.267 70.1624 53.0396C69.285 52.1351 67.5617 50.5417 64.4637 47.7095C60.67 44.2413 55.5913 39.592 53.1782 37.3776L52.8401 37.746L53.1781 37.3776L48.79 33.3511L48.447 33.0365L48.1086 33.356L46.3742 34.994C42.6369 38.523 38.1568 39.2766 33.6834 37.1571Z" stroke="black"/>
</svg>
