<svg width="105" height="87" viewBox="0 0 105 87" fill="none" xmlns="http://www.w3.org/2000/svg">
<mask id="path-1-inside-1_437_5" fill="white">
<path fill-rule="evenodd" clip-rule="evenodd" d="M5.22986 0.199621C2.75681 0.886574 0.748468 2.96878 0.173777 5.44195C0.00159298 6.18299 -0.0184877 10.2549 0.0115659 38.3489L0.0459527 70.4102L0.326803 71.1419C1.37841 73.8819 3.34672 75.6101 6.04458 76.1624C6.93844 76.3454 9.18708 76.3695 25.3673 76.3695H43.6784L44.107 76.7586L44.5356 77.1476L41.5828 77.1546C38.3673 77.1624 37.8577 77.2323 36.6322 77.8343C34.3976 78.9321 33.3194 81.2665 33.4691 84.6828C33.5296 86.0647 33.7281 86.4973 34.4363 86.7928C35.0878 87.0644 69.8496 87.0712 70.4922 86.7999C71.3501 86.4375 71.4348 86.2222 71.4823 84.2838C71.5503 81.5092 71.1149 80.1806 69.6942 78.8283C68.1644 77.372 67.3458 77.1553 63.3766 77.1553H60.4213L60.7822 76.7951L61.1431 76.4349L80.0056 76.3685C97.8265 76.3057 98.9081 76.2888 99.59 76.0625C102.168 75.2071 104.138 73.1597 104.772 70.6774C105.083 69.458 105.073 6.16963 104.761 5.11124C104.056 2.71312 102.131 0.827638 99.7679 0.219661C98.6821 -0.059704 6.23422 -0.079352 5.22986 0.199621ZM99.4872 3.24448C100.357 3.64539 101.341 4.60974 101.708 5.41955L102.018 6.10244L102.052 35.7351L102.087 65.3677L100.609 65.3693C99.7958 65.3701 77.5005 65.3848 51.0635 65.402L2.99658 65.4332L3.03044 35.6369L3.06443 5.8405L3.45394 5.13861C4.08926 3.99404 5.13969 3.23898 6.39249 3.02641C6.72741 2.96957 27.6716 2.93119 52.9349 2.94115L98.8682 2.95909L99.4872 3.24448ZM11.1869 10.2835C10.5769 10.5502 9.89917 11.2921 9.71977 11.8899C9.42606 12.868 9.50506 25.3515 9.80914 26.0196C10.0965 26.6512 10.8873 27.3402 11.5293 27.5185C12.1991 27.7045 34.7957 27.6895 35.4802 27.5028C36.2915 27.2812 37.1901 26.2838 37.3736 25.4011C37.4715 24.9299 37.5076 22.6426 37.484 18.4139L37.4488 12.1272L37.0807 11.5022C36.8782 11.1584 36.4691 10.7164 36.1716 10.5199L35.6307 10.1626L23.6128 10.1339C13.7128 10.1102 11.523 10.1367 11.1869 10.2835ZM65.2056 10.5832C64.8488 10.7652 64.6429 11.0317 64.2832 11.7776C63.8775 12.6186 63.7287 12.7937 63.0849 13.1865L62.35 13.6351L61.3697 13.499C59.8715 13.2912 59.688 13.413 58.506 15.4015C57.5598 16.9936 57.5476 17.4206 58.4141 18.627C59.2696 19.8183 59.3027 20.6584 58.5339 21.6763C57.4833 23.0675 57.4777 23.2998 58.452 25.0022C59.5461 26.9139 59.7165 27.0361 61.1889 26.9659C62.8832 26.885 63.6091 27.3038 64.1927 28.6991C64.7535 30.0396 64.9473 30.1351 67.1086 30.1351C69.2207 30.1351 69.4379 30.0346 70.0017 28.7977C70.5554 27.5829 71.6671 26.9858 73.2945 27.0296C74.6061 27.0647 74.6324 27.0449 75.7043 25.2147C76.6807 23.5475 76.7288 23.0961 76.0328 22.1292C75.3422 21.1698 75.3384 19.367 76.0253 18.5048C76.8458 17.4747 76.822 17.2456 75.6908 15.2781C74.7145 13.58 74.5328 13.4505 73.2417 13.5332C72.3111 13.5929 72.2255 13.5741 71.5334 13.1581C71.1327 12.9174 70.7107 12.6905 70.5956 12.654C70.4805 12.6176 70.2802 12.2896 70.1505 11.9252C70.0209 11.5609 69.7461 11.0742 69.5399 10.8437L69.1649 10.4246L67.415 10.3867C65.942 10.3549 65.5922 10.386 65.2056 10.5832ZM34.4959 18.8068V24.6351H23.5376H12.5792L12.5764 21.6227C12.5749 19.9659 12.5735 17.3727 12.5735 15.8599C12.5735 14.3472 12.5749 13.08 12.5764 13.044C12.5779 13.008 17.5104 12.9785 23.5376 12.9785H34.4959V18.8068ZM67.896 14.1908C68.2664 14.9583 68.3339 15.0233 69.0365 15.2884C69.4471 15.4434 70.1406 15.8204 70.5775 16.1262C71.3451 16.6636 71.3981 16.68 72.153 16.6116C73.2718 16.5103 73.4913 16.8289 72.8972 17.6909L72.4892 18.2829L72.5018 20.3179C72.514 22.3059 72.5225 22.3654 72.8731 22.894C73.4185 23.7165 73.2022 24.0354 72.1791 23.9169C71.4667 23.8344 71.3972 23.8535 70.7204 24.318C70.3295 24.5864 69.6434 24.9716 69.1958 25.1742C68.3318 25.5652 67.9389 25.9541 67.6767 26.6779C67.4578 27.2821 66.8372 27.325 66.6364 26.7502C66.3171 25.8361 66.0247 25.486 65.2529 25.0943C64.8262 24.8778 64.2131 24.503 63.89 24.2615C63.3137 23.8306 63.2842 23.8239 62.3175 23.9017C61.0228 24.0061 60.7446 23.7272 61.3682 22.9507C62.0791 22.0652 62.185 21.4349 62.0684 18.7872C62.0615 18.6324 61.8241 18.1979 61.5411 17.8218C60.8454 16.8979 60.9763 16.4538 61.9072 16.5798C62.2316 16.6236 62.5362 16.6838 62.584 16.7132C62.7641 16.8243 63.6377 16.492 64.0283 16.164C64.2515 15.9766 64.7996 15.64 65.2463 15.4159C65.9911 15.0425 66.0907 14.9405 66.4429 14.19C66.9831 13.0396 67.3406 13.0397 67.896 14.1908ZM66.4319 15.9938C62.9886 16.6899 61.6425 20.9278 64.0402 23.5238C66.7801 26.4901 71.7826 24.5117 71.8089 20.4516C71.827 17.655 69.1583 15.4427 66.4319 15.9938ZM68.0618 19.1339C69.3904 19.9424 68.8517 21.9443 67.3054 21.9443C65.7176 21.9443 65.2253 19.8116 66.6492 19.1018C67.241 18.8067 67.535 18.8134 68.0618 19.1339ZM49.2783 25.761C49.0026 25.9134 48.7322 26.3291 48.2627 27.3227C47.8596 28.1753 47.5297 28.7062 47.3718 28.7562C47.2339 28.7998 46.7578 29.0699 46.3138 29.3563L45.5065 29.8769L44.6614 29.7421C42.3297 29.3704 42.1925 29.4422 40.8611 31.7328C39.4511 34.1587 39.4525 34.0774 40.7858 35.9643L41.5261 37.0121L41.5111 38.1332L41.4962 39.2542L40.6208 40.4124C39.4292 41.9892 39.4322 42.0548 40.8118 44.4242C42.1499 46.7229 42.137 46.7147 44.105 46.522C45.5198 46.3836 45.5504 46.3863 45.9583 46.6918C46.1864 46.8625 46.683 47.1571 47.062 47.3465C47.441 47.5359 47.751 47.7494 47.751 47.821C47.751 47.8925 47.8609 48.201 47.9955 48.5064C48.13 48.8117 48.3495 49.3208 48.4834 49.6376C48.8933 50.6068 49.1698 50.6977 51.7108 50.6982C54.3382 50.6989 54.3794 50.6782 55.172 48.9592C55.6306 47.9643 55.7267 47.8441 56.2303 47.6363C56.5349 47.5106 57.1286 47.199 57.5498 46.9439L58.3156 46.4801L59.3926 46.6078C61.2239 46.8248 61.2725 46.7917 62.6793 44.3653C63.9182 42.2285 63.9271 42.0228 62.8454 40.5483L62.365 39.8935L62.3791 38.1183L62.3933 36.3431L63.0073 35.5909C64.0484 34.3155 64.0133 34.1029 62.2891 31.235C61.356 29.6827 61.1365 29.5611 59.5371 29.7114L58.3156 29.826L57.5604 29.3389C57.145 29.0709 56.5515 28.747 56.2415 28.6191C55.7145 28.4015 55.6495 28.3161 55.2398 27.3025C54.5538 25.6056 54.5886 25.6234 51.9075 25.5855C50.0529 25.559 49.5874 25.5902 49.2783 25.761ZM78.2226 26.5338C77.9626 26.7522 77.5618 27.4641 77.0164 28.676C76.2186 30.4491 76.1855 30.498 75.5913 30.783C74.8498 31.1387 73.8378 31.7611 73.1844 32.2633L72.6981 32.637L71.347 32.4406C67.696 31.9101 68.0123 31.7656 66.2707 34.7593C64.1745 38.3629 64.1955 37.9746 65.961 40.4631L67.2015 42.2116L67.2079 44.1418L67.2144 46.0723L66.0231 47.5897C64.2326 49.8703 64.2184 49.9349 65.1521 51.5532C65.4834 52.1278 66.1091 53.2167 66.5423 53.9731C67.8322 56.2254 67.6512 56.139 70.497 55.8609L72.6471 55.6508L73.542 56.2622C74.0341 56.5984 74.829 57.0707 75.3086 57.3117L76.1803 57.7498L76.8737 59.4959C77.3815 60.7744 77.6863 61.356 78.0121 61.6677L78.4569 62.0934L81.51 62.0929C85.3566 62.0923 85.08 62.2244 86.1298 59.8853L86.9039 58.1605L88.3582 57.4546C89.1583 57.0663 90.1297 56.5194 90.517 56.2394L91.2211 55.7303L92.9832 55.9732C95.4438 56.3121 95.3566 56.3633 96.9337 53.6456C97.6025 52.4931 98.2735 51.3189 98.4247 51.0363C98.8642 50.2153 98.7225 49.7382 97.5703 48.1606L96.5753 46.7978L96.7173 45.7032C96.8462 44.7096 96.7944 42.5298 96.626 41.8602C96.5772 41.6662 96.8577 41.2007 97.6368 40.1832C99.1157 38.2515 99.1271 38.3924 97.224 35.1342C95.3845 31.9849 95.5926 32.1234 93.08 32.3767L91.2712 32.559L90.0536 31.7568C89.384 31.3155 88.4357 30.7871 87.9464 30.5823C86.889 30.14 87.0183 30.3044 86.2583 28.4345C85.8778 27.4983 85.502 26.7907 85.2664 26.567L84.8871 26.2068H81.7496H78.612L78.2226 26.5338ZM52.8738 29.4299C53.2452 30.4236 53.6102 30.8443 54.2916 31.0642C55.0569 31.3111 55.7682 31.6964 56.5339 32.2792L57.2458 32.8209H58.4747H59.7037L60.0734 33.4103L60.4431 33.9997L59.8388 34.7855C59.2514 35.5492 59.2357 35.5935 59.2844 36.3572C59.3525 37.4265 59.3544 38.9447 59.2888 39.8935C59.2364 40.6481 59.2571 40.7113 59.8077 41.4835L60.3812 42.2877L60.0061 42.9535C59.6329 43.6163 59.6287 43.6189 59.1046 43.5331C57.7936 43.3182 57.3071 43.3977 56.6095 43.9401C55.978 44.4314 54.2777 45.3289 53.9786 45.3289C53.7135 45.3289 53.2227 45.9727 52.8556 46.8018L52.4929 47.6209L51.7154 47.6594L50.938 47.6979L50.6554 47.0045C50.0609 45.5459 49.9798 45.4495 48.8665 44.8801C48.289 44.5848 47.5241 44.1172 47.1667 43.8411L46.5167 43.3391L45.1325 43.4271L43.7482 43.5151L43.3784 42.8958L43.0085 42.2764L43.3784 41.7875C43.5818 41.5186 43.9216 41.0805 44.1334 40.8138C44.5183 40.3295 44.5186 40.3277 44.5417 38.3432C44.5679 36.0806 44.5255 35.9149 43.623 34.755L43.0091 33.9662L43.4171 33.3045C43.8678 32.5735 43.8709 32.5729 45.3951 32.902C46.1201 33.0585 46.4518 32.9498 47.3927 32.2478C47.7703 31.9662 48.502 31.5251 49.0191 31.2675C49.9753 30.791 50.3996 30.2256 50.8264 28.859C50.9088 28.5948 51.0029 28.5643 51.7343 28.5643H52.5502L52.8738 29.4299ZM83.9727 30.7766C84.6086 32.3431 84.9661 32.79 85.7003 32.9366C86.5506 33.1063 88.3563 34.1205 89.6866 35.1756C90.2372 35.6121 90.4103 35.6289 92.5687 35.4534L93.8811 35.3466L94.6357 36.6525C95.0507 37.3708 95.3904 38.0175 95.3904 38.0896C95.3904 38.1617 95.031 38.6756 94.5918 39.2315C93.483 40.6349 93.4122 40.8425 93.6291 42.0545C93.8566 43.3247 93.8537 44.8673 93.6213 46.1689C93.3974 47.4231 93.4365 47.5443 94.5852 49.1468L95.3934 50.2745L94.5938 51.6653C94.1538 52.4303 93.7546 53.0544 93.7063 53.0521C93.6582 53.0498 93.0281 52.9626 92.3063 52.8582C90.4146 52.5846 90.4146 52.5848 89.4042 53.3303C88.127 54.2726 87.1573 54.8178 86.0491 55.2168C84.6937 55.7048 84.7719 55.6115 83.6599 58.066L83.2002 59.081H81.5721H79.9439L79.3064 57.4766C78.5176 55.4916 78.5841 55.5686 76.9714 54.7732C76.2385 54.4118 75.2847 53.8426 74.8516 53.5082C73.6395 52.5726 73.3478 52.48 72.1691 52.6574C71.6234 52.7396 70.7734 52.8187 70.2801 52.8333L69.3831 52.8598L68.5997 51.5125L67.8162 50.165L68.7091 49.044C70.3919 46.9314 70.2399 47.3965 70.2588 44.3032C70.2781 41.1356 70.3143 41.2701 68.9644 39.4817C68.4128 38.751 67.9616 38.0798 67.9616 37.9903C67.9616 37.9007 68.3011 37.2432 68.7162 36.5292L69.4709 35.2308L70.3239 35.3149C70.7931 35.3612 71.5869 35.4811 72.0881 35.5816C73.202 35.8049 73.736 35.6895 74.4649 35.068C75.1854 34.4536 76.2811 33.7711 77.2837 33.3122C78.4991 32.7557 78.5592 32.6699 79.8581 29.6409L80.0423 29.2114L81.7046 29.248L83.367 29.2847L83.9727 30.7766ZM11.4505 30.0574C10.8228 30.6839 10.7926 31.86 11.3873 32.5241L11.7702 32.9519L23.4066 32.9867L35.0429 33.0216L35.4912 32.5742C35.9045 32.1618 35.9395 32.0638 35.9395 31.3192C35.9395 29.4746 36.9498 29.6121 23.3998 29.6121H11.8967L11.4505 30.0574ZM50.5881 33.0238C46.5182 34.0434 45.072 39.27 48.0409 42.229C52.39 46.5638 59.4776 41.5725 56.8989 35.991C55.8611 33.7446 53.0278 32.4126 50.5881 33.0238ZM80.7914 35.5149C75.6851 36.0922 72.0342 41.2527 73.1996 46.2457C74.8377 53.2641 84.0618 55.4785 88.6311 49.9501C93.7206 43.7921 88.7375 34.6166 80.7914 35.5149ZM11.8427 36.0271C10.8884 36.4119 10.6589 38.0688 11.4505 38.8588L11.8967 39.3041H23.3998C33.5261 39.3041 34.9498 39.2799 35.2956 39.1014C36.2747 38.5961 36.1605 36.4003 35.1365 36.0439C34.6314 35.8683 12.2768 35.852 11.8427 36.0271ZM53.0757 36.1653C54.384 36.7974 54.854 38.6834 53.9772 39.7831C52.4074 41.7517 49.4571 40.8103 49.4571 38.3407C49.4571 36.4824 51.3617 35.3373 53.0757 36.1653ZM83.1763 38.5898C87.6074 39.6321 89.1886 45.1207 85.9932 48.3683C83.1901 51.2173 78.402 50.4605 76.6408 46.8902C74.4496 42.4485 78.3769 37.4608 83.1763 38.5898ZM11.4294 41.9674C10.767 42.2071 10.0826 42.8192 9.81215 43.4136C9.58984 43.9022 9.56622 44.3257 9.56359 47.8543C9.56018 52.5449 9.59391 52.6852 10.9387 53.5644L11.4637 53.9076L23.1852 53.9431C36.305 53.9828 35.6776 54.0242 36.6166 53.0569C37.478 52.1694 37.543 51.7531 37.4912 47.4561C37.4509 44.1311 37.434 43.9261 37.1573 43.4097C36.8035 42.7493 36.0363 42.0942 35.4146 41.9216C34.7091 41.7257 11.9773 41.7691 11.4294 41.9674ZM34.4959 47.8828V50.9607H23.5423H12.5886L12.5511 47.9372C12.5305 46.2742 12.5382 44.8892 12.5683 44.8593C12.5983 44.8294 17.5443 44.805 23.5595 44.805H34.4959V47.8828ZM11.6749 56.9063C10.7972 57.3919 10.788 58.7423 11.6592 59.2559C12.0008 59.4573 13.94 59.4739 37.0325 59.4739H62.0358L62.435 59.1386C63.1651 58.5256 63.0954 57.321 62.3064 56.9138C61.7786 56.6414 12.1672 56.634 11.6749 56.9063ZM102.084 68.7455C102.084 70.2844 100.982 72.0934 99.596 72.8307C98.6086 73.3559 98.686 73.3539 79.4792 73.3555C59.0479 73.3572 60.483 73.3008 59.2529 74.1519C57.5188 75.3519 56.6964 78.5462 57.8302 79.6783L58.2546 80.1022L62.419 80.1677C66.9563 80.239 66.9637 80.2402 67.725 81.0401C68.238 81.5792 68.4866 82.2761 68.4866 83.1759V83.9659H52.4565H36.4264L36.5043 83.0395C36.5998 81.9024 37.0288 81.1018 37.8169 80.5905L38.3674 80.2332L42.5014 80.1677C47.744 80.0846 47.6939 80.1077 47.5935 77.8254C47.5086 75.898 46.8061 74.7222 45.2292 73.8689L44.4044 73.4226L25.4405 73.3571C3.9197 73.2828 5.86636 73.3944 4.50923 72.1566C3.61025 71.3367 3.12309 70.3726 3.03135 69.2321L2.96285 68.3801H52.5232H102.084V68.7455ZM51.8193 69.9671C50.3591 70.544 49.8371 72.5426 50.837 73.7284C52.1982 75.3429 54.7066 74.3292 54.7066 72.1646C54.7066 70.6576 53.1227 69.4521 51.8193 69.9671Z"/>
</mask>
<path fill-rule="evenodd" clip-rule="evenodd" d="M5.22986 0.199621C2.75681 0.886574 0.748468 2.96878 0.173777 5.44195C0.00159298 6.18299 -0.0184877 10.2549 0.0115659 38.3489L0.0459527 70.4102L0.326803 71.1419C1.37841 73.8819 3.34672 75.6101 6.04458 76.1624C6.93844 76.3454 9.18708 76.3695 25.3673 76.3695H43.6784L44.107 76.7586L44.5356 77.1476L41.5828 77.1546C38.3673 77.1624 37.8577 77.2323 36.6322 77.8343C34.3976 78.9321 33.3194 81.2665 33.4691 84.6828C33.5296 86.0647 33.7281 86.4973 34.4363 86.7928C35.0878 87.0644 69.8496 87.0712 70.4922 86.7999C71.3501 86.4375 71.4348 86.2222 71.4823 84.2838C71.5503 81.5092 71.1149 80.1806 69.6942 78.8283C68.1644 77.372 67.3458 77.1553 63.3766 77.1553H60.4213L60.7822 76.7951L61.1431 76.4349L80.0056 76.3685C97.8265 76.3057 98.9081 76.2888 99.59 76.0625C102.168 75.2071 104.138 73.1597 104.772 70.6774C105.083 69.458 105.073 6.16963 104.761 5.11124C104.056 2.71312 102.131 0.827638 99.7679 0.219661C98.6821 -0.059704 6.23422 -0.079352 5.22986 0.199621ZM99.4872 3.24448C100.357 3.64539 101.341 4.60974 101.708 5.41955L102.018 6.10244L102.052 35.7351L102.087 65.3677L100.609 65.3693C99.7958 65.3701 77.5005 65.3848 51.0635 65.402L2.99658 65.4332L3.03044 35.6369L3.06443 5.8405L3.45394 5.13861C4.08926 3.99404 5.13969 3.23898 6.39249 3.02641C6.72741 2.96957 27.6716 2.93119 52.9349 2.94115L98.8682 2.95909L99.4872 3.24448ZM11.1869 10.2835C10.5769 10.5502 9.89917 11.2921 9.71977 11.8899C9.42606 12.868 9.50506 25.3515 9.80914 26.0196C10.0965 26.6512 10.8873 27.3402 11.5293 27.5185C12.1991 27.7045 34.7957 27.6895 35.4802 27.5028C36.2915 27.2812 37.1901 26.2838 37.3736 25.4011C37.4715 24.9299 37.5076 22.6426 37.484 18.4139L37.4488 12.1272L37.0807 11.5022C36.8782 11.1584 36.4691 10.7164 36.1716 10.5199L35.6307 10.1626L23.6128 10.1339C13.7128 10.1102 11.523 10.1367 11.1869 10.2835ZM65.2056 10.5832C64.8488 10.7652 64.6429 11.0317 64.2832 11.7776C63.8775 12.6186 63.7287 12.7937 63.0849 13.1865L62.35 13.6351L61.3697 13.499C59.8715 13.2912 59.688 13.413 58.506 15.4015C57.5598 16.9936 57.5476 17.4206 58.4141 18.627C59.2696 19.8183 59.3027 20.6584 58.5339 21.6763C57.4833 23.0675 57.4777 23.2998 58.452 25.0022C59.5461 26.9139 59.7165 27.0361 61.1889 26.9659C62.8832 26.885 63.6091 27.3038 64.1927 28.6991C64.7535 30.0396 64.9473 30.1351 67.1086 30.1351C69.2207 30.1351 69.4379 30.0346 70.0017 28.7977C70.5554 27.5829 71.6671 26.9858 73.2945 27.0296C74.6061 27.0647 74.6324 27.0449 75.7043 25.2147C76.6807 23.5475 76.7288 23.0961 76.0328 22.1292C75.3422 21.1698 75.3384 19.367 76.0253 18.5048C76.8458 17.4747 76.822 17.2456 75.6908 15.2781C74.7145 13.58 74.5328 13.4505 73.2417 13.5332C72.3111 13.5929 72.2255 13.5741 71.5334 13.1581C71.1327 12.9174 70.7107 12.6905 70.5956 12.654C70.4805 12.6176 70.2802 12.2896 70.1505 11.9252C70.0209 11.5609 69.7461 11.0742 69.5399 10.8437L69.1649 10.4246L67.415 10.3867C65.942 10.3549 65.5922 10.386 65.2056 10.5832ZM34.4959 18.8068V24.6351H23.5376H12.5792L12.5764 21.6227C12.5749 19.9659 12.5735 17.3727 12.5735 15.8599C12.5735 14.3472 12.5749 13.08 12.5764 13.044C12.5779 13.008 17.5104 12.9785 23.5376 12.9785H34.4959V18.8068ZM67.896 14.1908C68.2664 14.9583 68.3339 15.0233 69.0365 15.2884C69.4471 15.4434 70.1406 15.8204 70.5775 16.1262C71.3451 16.6636 71.3981 16.68 72.153 16.6116C73.2718 16.5103 73.4913 16.8289 72.8972 17.6909L72.4892 18.2829L72.5018 20.3179C72.514 22.3059 72.5225 22.3654 72.8731 22.894C73.4185 23.7165 73.2022 24.0354 72.1791 23.9169C71.4667 23.8344 71.3972 23.8535 70.7204 24.318C70.3295 24.5864 69.6434 24.9716 69.1958 25.1742C68.3318 25.5652 67.9389 25.9541 67.6767 26.6779C67.4578 27.2821 66.8372 27.325 66.6364 26.7502C66.3171 25.8361 66.0247 25.486 65.2529 25.0943C64.8262 24.8778 64.2131 24.503 63.89 24.2615C63.3137 23.8306 63.2842 23.8239 62.3175 23.9017C61.0228 24.0061 60.7446 23.7272 61.3682 22.9507C62.0791 22.0652 62.185 21.4349 62.0684 18.7872C62.0615 18.6324 61.8241 18.1979 61.5411 17.8218C60.8454 16.8979 60.9763 16.4538 61.9072 16.5798C62.2316 16.6236 62.5362 16.6838 62.584 16.7132C62.7641 16.8243 63.6377 16.492 64.0283 16.164C64.2515 15.9766 64.7996 15.64 65.2463 15.4159C65.9911 15.0425 66.0907 14.9405 66.4429 14.19C66.9831 13.0396 67.3406 13.0397 67.896 14.1908ZM66.4319 15.9938C62.9886 16.6899 61.6425 20.9278 64.0402 23.5238C66.7801 26.4901 71.7826 24.5117 71.8089 20.4516C71.827 17.655 69.1583 15.4427 66.4319 15.9938ZM68.0618 19.1339C69.3904 19.9424 68.8517 21.9443 67.3054 21.9443C65.7176 21.9443 65.2253 19.8116 66.6492 19.1018C67.241 18.8067 67.535 18.8134 68.0618 19.1339ZM49.2783 25.761C49.0026 25.9134 48.7322 26.3291 48.2627 27.3227C47.8596 28.1753 47.5297 28.7062 47.3718 28.7562C47.2339 28.7998 46.7578 29.0699 46.3138 29.3563L45.5065 29.8769L44.6614 29.7421C42.3297 29.3704 42.1925 29.4422 40.8611 31.7328C39.4511 34.1587 39.4525 34.0774 40.7858 35.9643L41.5261 37.0121L41.5111 38.1332L41.4962 39.2542L40.6208 40.4124C39.4292 41.9892 39.4322 42.0548 40.8118 44.4242C42.1499 46.7229 42.137 46.7147 44.105 46.522C45.5198 46.3836 45.5504 46.3863 45.9583 46.6918C46.1864 46.8625 46.683 47.1571 47.062 47.3465C47.441 47.5359 47.751 47.7494 47.751 47.821C47.751 47.8925 47.8609 48.201 47.9955 48.5064C48.13 48.8117 48.3495 49.3208 48.4834 49.6376C48.8933 50.6068 49.1698 50.6977 51.7108 50.6982C54.3382 50.6989 54.3794 50.6782 55.172 48.9592C55.6306 47.9643 55.7267 47.8441 56.2303 47.6363C56.5349 47.5106 57.1286 47.199 57.5498 46.9439L58.3156 46.4801L59.3926 46.6078C61.2239 46.8248 61.2725 46.7917 62.6793 44.3653C63.9182 42.2285 63.9271 42.0228 62.8454 40.5483L62.365 39.8935L62.3791 38.1183L62.3933 36.3431L63.0073 35.5909C64.0484 34.3155 64.0133 34.1029 62.2891 31.235C61.356 29.6827 61.1365 29.5611 59.5371 29.7114L58.3156 29.826L57.5604 29.3389C57.145 29.0709 56.5515 28.747 56.2415 28.6191C55.7145 28.4015 55.6495 28.3161 55.2398 27.3025C54.5538 25.6056 54.5886 25.6234 51.9075 25.5855C50.0529 25.559 49.5874 25.5902 49.2783 25.761ZM78.2226 26.5338C77.9626 26.7522 77.5618 27.4641 77.0164 28.676C76.2186 30.4491 76.1855 30.498 75.5913 30.783C74.8498 31.1387 73.8378 31.7611 73.1844 32.2633L72.6981 32.637L71.347 32.4406C67.696 31.9101 68.0123 31.7656 66.2707 34.7593C64.1745 38.3629 64.1955 37.9746 65.961 40.4631L67.2015 42.2116L67.2079 44.1418L67.2144 46.0723L66.0231 47.5897C64.2326 49.8703 64.2184 49.9349 65.1521 51.5532C65.4834 52.1278 66.1091 53.2167 66.5423 53.9731C67.8322 56.2254 67.6512 56.139 70.497 55.8609L72.6471 55.6508L73.542 56.2622C74.0341 56.5984 74.829 57.0707 75.3086 57.3117L76.1803 57.7498L76.8737 59.4959C77.3815 60.7744 77.6863 61.356 78.0121 61.6677L78.4569 62.0934L81.51 62.0929C85.3566 62.0923 85.08 62.2244 86.1298 59.8853L86.9039 58.1605L88.3582 57.4546C89.1583 57.0663 90.1297 56.5194 90.517 56.2394L91.2211 55.7303L92.9832 55.9732C95.4438 56.3121 95.3566 56.3633 96.9337 53.6456C97.6025 52.4931 98.2735 51.3189 98.4247 51.0363C98.8642 50.2153 98.7225 49.7382 97.5703 48.1606L96.5753 46.7978L96.7173 45.7032C96.8462 44.7096 96.7944 42.5298 96.626 41.8602C96.5772 41.6662 96.8577 41.2007 97.6368 40.1832C99.1157 38.2515 99.1271 38.3924 97.224 35.1342C95.3845 31.9849 95.5926 32.1234 93.08 32.3767L91.2712 32.559L90.0536 31.7568C89.384 31.3155 88.4357 30.7871 87.9464 30.5823C86.889 30.14 87.0183 30.3044 86.2583 28.4345C85.8778 27.4983 85.502 26.7907 85.2664 26.567L84.8871 26.2068H81.7496H78.612L78.2226 26.5338ZM52.8738 29.4299C53.2452 30.4236 53.6102 30.8443 54.2916 31.0642C55.0569 31.3111 55.7682 31.6964 56.5339 32.2792L57.2458 32.8209H58.4747H59.7037L60.0734 33.4103L60.4431 33.9997L59.8388 34.7855C59.2514 35.5492 59.2357 35.5935 59.2844 36.3572C59.3525 37.4265 59.3544 38.9447 59.2888 39.8935C59.2364 40.6481 59.2571 40.7113 59.8077 41.4835L60.3812 42.2877L60.0061 42.9535C59.6329 43.6163 59.6287 43.6189 59.1046 43.5331C57.7936 43.3182 57.3071 43.3977 56.6095 43.9401C55.978 44.4314 54.2777 45.3289 53.9786 45.3289C53.7135 45.3289 53.2227 45.9727 52.8556 46.8018L52.4929 47.6209L51.7154 47.6594L50.938 47.6979L50.6554 47.0045C50.0609 45.5459 49.9798 45.4495 48.8665 44.8801C48.289 44.5848 47.5241 44.1172 47.1667 43.8411L46.5167 43.3391L45.1325 43.4271L43.7482 43.5151L43.3784 42.8958L43.0085 42.2764L43.3784 41.7875C43.5818 41.5186 43.9216 41.0805 44.1334 40.8138C44.5183 40.3295 44.5186 40.3277 44.5417 38.3432C44.5679 36.0806 44.5255 35.9149 43.623 34.755L43.0091 33.9662L43.4171 33.3045C43.8678 32.5735 43.8709 32.5729 45.3951 32.902C46.1201 33.0585 46.4518 32.9498 47.3927 32.2478C47.7703 31.9662 48.502 31.5251 49.0191 31.2675C49.9753 30.791 50.3996 30.2256 50.8264 28.859C50.9088 28.5948 51.0029 28.5643 51.7343 28.5643H52.5502L52.8738 29.4299ZM83.9727 30.7766C84.6086 32.3431 84.9661 32.79 85.7003 32.9366C86.5506 33.1063 88.3563 34.1205 89.6866 35.1756C90.2372 35.6121 90.4103 35.6289 92.5687 35.4534L93.8811 35.3466L94.6357 36.6525C95.0507 37.3708 95.3904 38.0175 95.3904 38.0896C95.3904 38.1617 95.031 38.6756 94.5918 39.2315C93.483 40.6349 93.4122 40.8425 93.6291 42.0545C93.8566 43.3247 93.8537 44.8673 93.6213 46.1689C93.3974 47.4231 93.4365 47.5443 94.5852 49.1468L95.3934 50.2745L94.5938 51.6653C94.1538 52.4303 93.7546 53.0544 93.7063 53.0521C93.6582 53.0498 93.0281 52.9626 92.3063 52.8582C90.4146 52.5846 90.4146 52.5848 89.4042 53.3303C88.127 54.2726 87.1573 54.8178 86.0491 55.2168C84.6937 55.7048 84.7719 55.6115 83.6599 58.066L83.2002 59.081H81.5721H79.9439L79.3064 57.4766C78.5176 55.4916 78.5841 55.5686 76.9714 54.7732C76.2385 54.4118 75.2847 53.8426 74.8516 53.5082C73.6395 52.5726 73.3478 52.48 72.1691 52.6574C71.6234 52.7396 70.7734 52.8187 70.2801 52.8333L69.3831 52.8598L68.5997 51.5125L67.8162 50.165L68.7091 49.044C70.3919 46.9314 70.2399 47.3965 70.2588 44.3032C70.2781 41.1356 70.3143 41.2701 68.9644 39.4817C68.4128 38.751 67.9616 38.0798 67.9616 37.9903C67.9616 37.9007 68.3011 37.2432 68.7162 36.5292L69.4709 35.2308L70.3239 35.3149C70.7931 35.3612 71.5869 35.4811 72.0881 35.5816C73.202 35.8049 73.736 35.6895 74.4649 35.068C75.1854 34.4536 76.2811 33.7711 77.2837 33.3122C78.4991 32.7557 78.5592 32.6699 79.8581 29.6409L80.0423 29.2114L81.7046 29.248L83.367 29.2847L83.9727 30.7766ZM11.4505 30.0574C10.8228 30.6839 10.7926 31.86 11.3873 32.5241L11.7702 32.9519L23.4066 32.9867L35.0429 33.0216L35.4912 32.5742C35.9045 32.1618 35.9395 32.0638 35.9395 31.3192C35.9395 29.4746 36.9498 29.6121 23.3998 29.6121H11.8967L11.4505 30.0574ZM50.5881 33.0238C46.5182 34.0434 45.072 39.27 48.0409 42.229C52.39 46.5638 59.4776 41.5725 56.8989 35.991C55.8611 33.7446 53.0278 32.4126 50.5881 33.0238ZM80.7914 35.5149C75.6851 36.0922 72.0342 41.2527 73.1996 46.2457C74.8377 53.2641 84.0618 55.4785 88.6311 49.9501C93.7206 43.7921 88.7375 34.6166 80.7914 35.5149ZM11.8427 36.0271C10.8884 36.4119 10.6589 38.0688 11.4505 38.8588L11.8967 39.3041H23.3998C33.5261 39.3041 34.9498 39.2799 35.2956 39.1014C36.2747 38.5961 36.1605 36.4003 35.1365 36.0439C34.6314 35.8683 12.2768 35.852 11.8427 36.0271ZM53.0757 36.1653C54.384 36.7974 54.854 38.6834 53.9772 39.7831C52.4074 41.7517 49.4571 40.8103 49.4571 38.3407C49.4571 36.4824 51.3617 35.3373 53.0757 36.1653ZM83.1763 38.5898C87.6074 39.6321 89.1886 45.1207 85.9932 48.3683C83.1901 51.2173 78.402 50.4605 76.6408 46.8902C74.4496 42.4485 78.3769 37.4608 83.1763 38.5898ZM11.4294 41.9674C10.767 42.2071 10.0826 42.8192 9.81215 43.4136C9.58984 43.9022 9.56622 44.3257 9.56359 47.8543C9.56018 52.5449 9.59391 52.6852 10.9387 53.5644L11.4637 53.9076L23.1852 53.9431C36.305 53.9828 35.6776 54.0242 36.6166 53.0569C37.478 52.1694 37.543 51.7531 37.4912 47.4561C37.4509 44.1311 37.434 43.9261 37.1573 43.4097C36.8035 42.7493 36.0363 42.0942 35.4146 41.9216C34.7091 41.7257 11.9773 41.7691 11.4294 41.9674ZM34.4959 47.8828V50.9607H23.5423H12.5886L12.5511 47.9372C12.5305 46.2742 12.5382 44.8892 12.5683 44.8593C12.5983 44.8294 17.5443 44.805 23.5595 44.805H34.4959V47.8828ZM11.6749 56.9063C10.7972 57.3919 10.788 58.7423 11.6592 59.2559C12.0008 59.4573 13.94 59.4739 37.0325 59.4739H62.0358L62.435 59.1386C63.1651 58.5256 63.0954 57.321 62.3064 56.9138C61.7786 56.6414 12.1672 56.634 11.6749 56.9063ZM102.084 68.7455C102.084 70.2844 100.982 72.0934 99.596 72.8307C98.6086 73.3559 98.686 73.3539 79.4792 73.3555C59.0479 73.3572 60.483 73.3008 59.2529 74.1519C57.5188 75.3519 56.6964 78.5462 57.8302 79.6783L58.2546 80.1022L62.419 80.1677C66.9563 80.239 66.9637 80.2402 67.725 81.0401C68.238 81.5792 68.4866 82.2761 68.4866 83.1759V83.9659H52.4565H36.4264L36.5043 83.0395C36.5998 81.9024 37.0288 81.1018 37.8169 80.5905L38.3674 80.2332L42.5014 80.1677C47.744 80.0846 47.6939 80.1077 47.5935 77.8254C47.5086 75.898 46.8061 74.7222 45.2292 73.8689L44.4044 73.4226L25.4405 73.3571C3.9197 73.2828 5.86636 73.3944 4.50923 72.1566C3.61025 71.3367 3.12309 70.3726 3.03135 69.2321L2.96285 68.3801H52.5232H102.084V68.7455ZM51.8193 69.9671C50.3591 70.544 49.8371 72.5426 50.837 73.7284C52.1982 75.3429 54.7066 74.3292 54.7066 72.1646C54.7066 70.6576 53.1227 69.4521 51.8193 69.9671Z" stroke="black" stroke-width="2" mask="url(#path-1-inside-1_437_5)"/>
</svg>
