<svg width="87" height="72" viewBox="0 0 87 72" fill="none" xmlns="http://www.w3.org/2000/svg">
<mask id="path-1-inside-1_425_52" fill="white">
<path fill-rule="evenodd" clip-rule="evenodd" d="M26.216 0.0525445C21.1196 0.339634 15.9015 2.88529 12.5784 6.70575C5.31569 15.0553 6.69081 27.2919 15.6347 33.9024C16.2572 34.3626 17.8691 35.38 17.9756 35.38C18.2364 35.38 17.9992 35.5734 17.6004 35.6859C10.8049 37.6029 4.39107 42.7689 1.71931 48.477C-0.42225 53.0525 -0.577929 58.4332 1.33512 61.7539C2.40465 63.6103 5.28851 65.5721 7.54433 65.9778L7.95201 66.0512V63.8912V61.7313L7.37299 61.1761C5.4706 59.3518 5.05999 55.8174 6.27955 51.7624C7.81611 46.6536 13.1096 41.8127 19.2311 39.9182L19.8019 39.7415L19.7986 35.8668L19.7954 31.9921L18.9776 31.4708C8.89162 25.0426 9.81167 10.6356 20.641 5.42323C28.5031 1.63904 38.0429 4.78723 41.9203 12.4456C45.3131 19.1464 42.8563 27.5379 36.3352 31.523L35.5676 31.9921L35.5665 35.8665L35.5654 39.7411L36.0818 39.9238C37.5531 40.4446 38.3265 40.758 39.2928 41.2249L40.3566 41.7389H45.2016H50.0466L51.0955 41.1284C53.288 39.8522 55.6152 38.9758 58.178 38.4615C58.6862 38.3594 59.1641 38.2588 59.2399 38.2378C59.3473 38.2082 59.3714 37.6674 59.3486 35.7967L59.3195 33.3936L58.5041 33.0537C54.0063 31.1784 51.1488 26.6683 51.4913 21.9846C52.1936 12.378 64.2131 7.94209 71.4597 14.6151C77.5987 20.2682 75.6798 29.9243 67.772 33.1709L67.2012 33.4052V35.7979V38.1907L67.4459 38.24C67.5803 38.2671 68.0574 38.3632 68.5058 38.4536C76.0289 39.9699 81.7556 44.7946 82.8024 50.4984C82.9308 51.1976 82.9646 52.4064 82.9647 56.301C82.9647 59.0066 83.0041 61.2436 83.052 61.2721C83.2028 61.3614 84.5795 60.2993 85.0867 59.7023C87.2378 57.1702 87.6107 52.5539 86.0241 48.0979C84.1038 42.7044 79.1233 38.0575 72.8376 35.7947L71.8968 35.456L72.7833 34.8274C77.4025 31.5518 79.88 25.66 78.8954 20.2921C76.8879 9.34835 64.1366 4.02301 54.5441 10.1224C53.4974 10.788 51.277 12.7548 50.8574 13.388C50.6955 13.6324 50.6979 13.7263 50.8893 14.639C51.8388 19.1657 51.2941 23.7613 49.3088 27.9712L48.8454 28.9541L49.2314 29.6913C50.3228 31.7754 52.0986 33.6994 54.4157 35.3083C54.603 35.4383 54.5248 35.4865 53.546 35.8447C51.3763 36.6387 48.824 38.03 47.0479 39.3872L46.3063 39.9538L45.5833 39.4535C43.4748 37.9941 40.1927 36.3973 37.9299 35.73C37.5861 35.6285 37.3068 35.5201 37.3093 35.4888C37.3117 35.4577 37.6664 35.2243 38.0975 34.9702C48.3488 28.9288 50.5642 15.6622 42.8115 6.73953C39.546 2.98119 34.2864 0.342657 29.5536 0.0886132C29.0034 0.059112 28.3332 0.0216881 28.0641 0.00542594C27.7951 -0.010732 26.9634 0.0104296 26.216 0.0525445ZM39.3039 46.4985C38.6529 47.0522 37.0684 48.4041 35.7828 49.5029C34.4973 50.6015 33.0419 51.8398 32.5486 52.2546L31.6517 53.0088V54.9316V56.8544H47.4721H63.2924L63.2629 54.9519L63.2332 53.0495L50.4949 52.9974L37.7568 52.9452L40.3667 50.8603C41.8021 49.7136 43.1069 48.6727 43.2662 48.5469L43.5559 48.3185L42.0898 46.9051C41.2835 46.1277 40.593 45.4917 40.5556 45.4917C40.5182 45.4917 39.955 45.9448 39.3039 46.4985ZM31.6517 62.5353V64.4634L44.3307 64.4899L57.0098 64.5164L54.2245 66.8098C52.6925 68.0711 51.4388 69.1272 51.4383 69.1567C51.438 69.1862 52.0937 69.838 52.8953 70.6051L54.353 72L54.6767 71.7503C54.8548 71.613 56.865 69.8606 59.144 67.856L63.2875 64.2111V62.4092V60.6072H47.4696H31.6517V62.5353Z"/>
</mask>
<path fill-rule="evenodd" clip-rule="evenodd" d="M26.216 0.0525445C21.1196 0.339634 15.9015 2.88529 12.5784 6.70575C5.31569 15.0553 6.69081 27.2919 15.6347 33.9024C16.2572 34.3626 17.8691 35.38 17.9756 35.38C18.2364 35.38 17.9992 35.5734 17.6004 35.6859C10.8049 37.6029 4.39107 42.7689 1.71931 48.477C-0.42225 53.0525 -0.577929 58.4332 1.33512 61.7539C2.40465 63.6103 5.28851 65.5721 7.54433 65.9778L7.95201 66.0512V63.8912V61.7313L7.37299 61.1761C5.4706 59.3518 5.05999 55.8174 6.27955 51.7624C7.81611 46.6536 13.1096 41.8127 19.2311 39.9182L19.8019 39.7415L19.7986 35.8668L19.7954 31.9921L18.9776 31.4708C8.89162 25.0426 9.81167 10.6356 20.641 5.42323C28.5031 1.63904 38.0429 4.78723 41.9203 12.4456C45.3131 19.1464 42.8563 27.5379 36.3352 31.523L35.5676 31.9921L35.5665 35.8665L35.5654 39.7411L36.0818 39.9238C37.5531 40.4446 38.3265 40.758 39.2928 41.2249L40.3566 41.7389H45.2016H50.0466L51.0955 41.1284C53.288 39.8522 55.6152 38.9758 58.178 38.4615C58.6862 38.3594 59.1641 38.2588 59.2399 38.2378C59.3473 38.2082 59.3714 37.6674 59.3486 35.7967L59.3195 33.3936L58.5041 33.0537C54.0063 31.1784 51.1488 26.6683 51.4913 21.9846C52.1936 12.378 64.2131 7.94209 71.4597 14.6151C77.5987 20.2682 75.6798 29.9243 67.772 33.1709L67.2012 33.4052V35.7979V38.1907L67.4459 38.24C67.5803 38.2671 68.0574 38.3632 68.5058 38.4536C76.0289 39.9699 81.7556 44.7946 82.8024 50.4984C82.9308 51.1976 82.9646 52.4064 82.9647 56.301C82.9647 59.0066 83.0041 61.2436 83.052 61.2721C83.2028 61.3614 84.5795 60.2993 85.0867 59.7023C87.2378 57.1702 87.6107 52.5539 86.0241 48.0979C84.1038 42.7044 79.1233 38.0575 72.8376 35.7947L71.8968 35.456L72.7833 34.8274C77.4025 31.5518 79.88 25.66 78.8954 20.2921C76.8879 9.34835 64.1366 4.02301 54.5441 10.1224C53.4974 10.788 51.277 12.7548 50.8574 13.388C50.6955 13.6324 50.6979 13.7263 50.8893 14.639C51.8388 19.1657 51.2941 23.7613 49.3088 27.9712L48.8454 28.9541L49.2314 29.6913C50.3228 31.7754 52.0986 33.6994 54.4157 35.3083C54.603 35.4383 54.5248 35.4865 53.546 35.8447C51.3763 36.6387 48.824 38.03 47.0479 39.3872L46.3063 39.9538L45.5833 39.4535C43.4748 37.9941 40.1927 36.3973 37.9299 35.73C37.5861 35.6285 37.3068 35.5201 37.3093 35.4888C37.3117 35.4577 37.6664 35.2243 38.0975 34.9702C48.3488 28.9288 50.5642 15.6622 42.8115 6.73953C39.546 2.98119 34.2864 0.342657 29.5536 0.0886132C29.0034 0.059112 28.3332 0.0216881 28.0641 0.00542594C27.7951 -0.010732 26.9634 0.0104296 26.216 0.0525445ZM39.3039 46.4985C38.6529 47.0522 37.0684 48.4041 35.7828 49.5029C34.4973 50.6015 33.0419 51.8398 32.5486 52.2546L31.6517 53.0088V54.9316V56.8544H47.4721H63.2924L63.2629 54.9519L63.2332 53.0495L50.4949 52.9974L37.7568 52.9452L40.3667 50.8603C41.8021 49.7136 43.1069 48.6727 43.2662 48.5469L43.5559 48.3185L42.0898 46.9051C41.2835 46.1277 40.593 45.4917 40.5556 45.4917C40.5182 45.4917 39.955 45.9448 39.3039 46.4985ZM31.6517 62.5353V64.4634L44.3307 64.4899L57.0098 64.5164L54.2245 66.8098C52.6925 68.0711 51.4388 69.1272 51.4383 69.1567C51.438 69.1862 52.0937 69.838 52.8953 70.6051L54.353 72L54.6767 71.7503C54.8548 71.613 56.865 69.8606 59.144 67.856L63.2875 64.2111V62.4092V60.6072H47.4696H31.6517V62.5353Z" stroke="black" stroke-width="2" mask="url(#path-1-inside-1_425_52)"/>
</svg>
