<svg id="Layer_1" data-name="Layer 1" xmlns="http://www.w3.org/2000/svg" viewBox="0 0 240 240"><defs><style>.cls-1{fill:none;stroke:#000;stroke-miterlimit:10;stroke-width:2px;}</style></defs><path class="cls-1" d="M86.3,81c7.69,0,15.4-.32,23.07.07a36.39,36.39,0,0,1,33.84,32c.86,8,1,16.09-.62,24.07a7.32,7.32,0,0,1-6.69,6.2,7.1,7.1,0,0,1-7.57-5,10,10,0,0,1-.14-4.4,61.82,61.82,0,0,0,.15-20.49A21.39,21.39,0,0,0,108.2,95.77c-14.56-.28-29.13-.32-43.68,0-11.44.25-20.67,10-20.81,21.42-.07,5.29-.26,10.66.53,15.85,1.47,9.58,10.28,17.19,20,17.52,8.73.3,17.48.09,26.21.14,5.24,0,8.8,4.07,7.89,8.84-.59,3.08-3.1,5.8-6.27,5.8-11,0-22,.67-32.86-.7C42.27,162.5,29.41,147.24,29,130.19c-.16-7.06-.28-14.31,1.1-21.16,3.15-15.58,17.23-27.2,33.12-28C70.9,80.63,78.61,81,86.3,81Z"/><path class="cls-1" d="M154.45,165.37c-7.61,0-15.24.3-22.84-.06a36.3,36.3,0,0,1-33.2-27.7c-2.09-8.69-1.59-17.5-.65-26.25.51-4.76,4.28-7.3,8.71-6.58,4,.67,6.28,4.17,5.87,8.85-.62,7.13-1.25,14.31.61,21.35,2.23,8.47,10.52,15.35,19.29,15.55,13.21.3,26.43.16,39.65.13a41.05,41.05,0,0,0,8.23-.61,21.91,21.91,0,0,0,16.93-20.34,100.63,100.63,0,0,0-.49-16.3c-1.39-9.57-10.22-17.3-19.87-17.63-9.1-.32-18.22-.1-27.33-.16-4.47,0-7.21-2-8.15-5.57-1.1-4.22,1.73-9,6-9,11.48-.09,23.09-.73,34.42.66,16.87,2.07,29.8,17.5,30.15,34.48.14,7,.3,14.16-1.07,20.93-3.21,15.85-17.26,27.44-33.41,28.22-7.6.37-15.23.06-22.85.06Z"/></svg>