<svg width="184" height="53" viewBox="0 0 184 53" fill="none" xmlns="http://www.w3.org/2000/svg">
<path fill-rule="evenodd" clip-rule="evenodd" d="M18.0108 0.421704C15.1965 1.54857 11.4198 6.98065 10.6782 10.9684C10.4287 12.3109 10.1917 12.4806 7.38531 13.3262C5.72189 13.8271 4.25182 14.416 4.11806 14.6348C3.84347 15.0834 -0.186621 45.9682 0.00673831 46.137C0.0756062 46.1968 6.78669 47.3875 14.9206 48.7836C23.0545 50.1792 29.9581 51.403 30.2614 51.5025C30.698 51.6463 30.8132 46.9218 30.8132 28.8768C30.8132 6.20202 30.8079 6.07076 29.9201 6.3056C29.2275 6.48865 28.8924 6.21631 28.4284 5.09301C27.8311 3.64693 25.8357 1.72224 24.9042 1.69367C24.6336 1.68519 23.6174 1.29052 22.6462 0.815928C20.6812 -0.14396 19.6433 -0.232359 18.0108 0.421704ZM21.101 2.10754C21.101 2.32675 20.8026 2.6223 20.4375 2.76383C19.5317 3.1152 17.2034 6.91144 16.6741 8.89953C16.2944 10.3237 15.9964 10.5925 14.2438 11.0885C13.1455 11.3997 12.1729 11.5761 12.0833 11.481C11.9933 11.3859 12.3222 10.2224 12.814 8.89596C14.0492 5.56358 17.738 1.70885 19.6915 1.70885C20.4667 1.70885 21.101 1.88832 21.101 2.10754ZM26.6679 5.06935C27.5203 6.38507 27.2025 7.51283 25.9792 7.51283C25.3872 7.51283 25.0146 7.14048 24.8619 6.39668C24.736 5.78279 24.5272 4.76754 24.3979 4.14116C24.1851 3.11029 24.2487 3.04778 25.0601 3.4871C25.5536 3.75408 26.2767 4.46618 26.6679 5.06935ZM23.0302 4.49922C23.1764 5.05194 23.2991 6.14264 23.3022 6.92305C23.3079 8.25752 23.1658 8.38432 20.9227 9.04374C19.6107 9.42948 18.4161 9.74512 18.2682 9.74512C17.8126 9.74512 19.299 6.52883 20.4751 4.96979C21.7725 3.24958 22.6559 3.08707 23.0302 4.49922ZM32.1376 29.1197C32.1376 46.5477 32.255 51.2623 32.6894 51.2498C32.9931 51.2409 35.8238 50.5859 38.9802 49.7939L44.7192 48.3536L44.5792 47.0192C44.3713 45.0413 39.6592 12.4029 39.3749 10.9729C39.1533 9.85763 38.9533 9.74512 37.1945 9.74512C35.6587 9.74512 34.936 9.45894 33.6981 8.35931L32.1376 6.97395V29.1197ZM158.616 10.7372C155.478 11.8622 153.356 14.416 152.409 18.206C151.969 19.9699 151.734 20.2561 150.624 20.3829C148.963 20.5727 148.842 20.7352 148.487 23.2505L148.187 25.3712H149.539C150.368 25.3712 150.89 25.6003 150.89 25.9637C150.89 26.4927 148.561 39.2588 148.005 41.7786C147.792 42.7456 147.898 42.7831 150.851 42.7831H153.918L154.391 40.4392C155.065 37.0993 157.062 26.1052 157.066 25.7061C157.069 25.5217 158.051 25.3712 159.249 25.3712C161.599 25.3712 161.587 25.3851 162.125 22.158L162.4 20.5079L160.215 20.3722L158.032 20.2369L158.625 18.4971C159.456 16.0612 160.32 15.3335 162.314 15.3866C163.998 15.4312 164.013 15.4156 164.524 13.1788C164.932 11.3917 164.922 10.8523 164.476 10.5662C163.694 10.0639 160.209 10.1657 158.616 10.7372ZM75.1835 11.1961C75.0793 11.5033 74.5747 14.0646 74.0622 16.8885C73.5497 19.7123 72.2504 26.6253 71.1755 32.2503C70.1001 37.8752 69.2202 42.5465 69.2202 42.6305C69.2202 42.7144 70.5888 42.7831 72.2615 42.7831H75.3031L76.4902 36.4425C77.6981 29.9921 78.3245 28.1669 79.9438 26.3758C80.9282 25.2873 82.8503 25.0475 83.7002 25.907C84.4882 26.7039 84.3323 28.9018 82.9678 36.2157L81.7357 42.8193L84.8418 42.6894L87.9483 42.5599L89.406 34.9701C90.9979 26.6843 91.0536 23.7809 89.6572 21.8781C87.8918 19.4721 83.667 19.565 80.7181 22.0746C79.052 23.4921 79.0529 23.5086 80.421 16.1072L81.4324 10.638H78.4026C76.3741 10.638 75.3102 10.8224 75.1835 11.1961ZM142.553 11.8658C140.277 13.7767 141.474 17.7814 144.321 17.7814C147.143 17.7814 148.994 13.6548 146.993 11.8234C145.939 10.859 143.727 10.88 142.553 11.8658ZM23.5083 16.4951C23.6284 16.6166 23.3812 18.0104 22.9587 19.5927L22.191 22.4692L19.3021 22.3215C14.3997 22.0705 13.9388 24.2336 18.1843 27.5696C22.0347 30.5948 22.6462 31.6025 22.6462 34.9237C22.6462 37.2069 22.4298 38.0449 21.456 39.5329C19.2641 42.8823 13.8567 43.7792 9.94004 41.442C8.18612 40.3955 8.04838 39.9178 8.7556 37.3417L9.2081 35.6952L11.0711 36.5506C13.349 37.5966 14.6394 37.6466 15.5514 36.7242C16.731 35.5309 16.3474 34.6844 13.3521 31.8703C11.0274 29.6871 10.3736 28.7697 10.0261 27.2048C9.00724 22.6188 11.9831 18.0725 17.1023 16.3956C18.2532 16.0183 23.1115 16.0942 23.5083 16.4951ZM60.3804 20.6986C57.9749 21.4486 55.7729 23.5126 55.0657 25.6797C54.087 28.6786 55.5738 31.2493 60.1266 34.433C61.7013 35.534 61.7212 37.685 60.1632 38.4029C59.1134 38.8869 56.4717 38.561 54.1885 37.6667C53.6724 37.4645 53.333 37.9413 52.805 39.6115L52.1053 41.8246L53.4888 42.4153C54.2596 42.7448 56.4378 43.001 58.4045 42.9943C63.9739 42.9751 66.9489 40.8786 67.6888 36.4519C68.1064 33.9504 66.8399 31.7958 63.6631 29.6037C60.9027 27.6991 60.4626 26.9468 61.3724 25.6882C62.0077 24.8096 63.7978 24.5792 66.1949 25.0667C67.8014 25.3935 67.8067 25.39 68.5113 23.2979C68.8997 22.1451 69.1267 21.1098 69.0159 20.9973C68.6949 20.6731 65.1557 20.0516 63.702 20.0641C62.9736 20.0708 61.4788 20.3561 60.3804 20.6986ZM101.407 20.7075C96.7877 22.1464 93.12 27.3388 92.7174 33.0097C92.3779 37.7891 93.8383 40.8303 97.2181 42.3831C103.157 45.111 110.352 41.0518 112.55 33.7334C115.359 24.381 109.941 18.0484 101.407 20.7075ZM126.891 20.6678C125.954 21.0057 124.596 21.8509 123.875 22.5456L122.563 23.8086L122.87 22.1344L123.177 20.4602H120.487C117.449 20.4602 117.768 20.0034 116.9 25.5944C116.309 29.4019 112.524 49.8417 112.209 50.931C112.008 51.6231 112.339 51.7123 115.103 51.7123C116.819 51.7123 118.222 51.6342 118.222 51.5382C118.222 51.1471 119.608 43.8413 119.819 43.1184C120.008 42.4742 120.21 42.4251 120.974 42.839C121.522 43.1354 122.953 43.2439 124.476 43.1042C131.054 42.501 135.658 36.3952 135.659 28.2732C135.66 25.2779 135.489 24.4229 134.6 22.976C132.922 20.2472 130.265 19.4516 126.891 20.6678ZM140.295 20.5803C140.295 20.6468 139.403 25.4181 138.313 31.1837C137.222 36.9497 136.328 41.9184 136.326 42.2251C136.324 42.6175 137.217 42.7831 139.333 42.7831H142.344L144.26 32.403C145.314 26.6936 146.267 21.671 146.377 21.2415C146.555 20.5517 146.212 20.4602 143.437 20.4602C141.709 20.4602 140.295 20.5142 140.295 20.5803ZM163.698 20.5718C163.701 20.6334 164.579 25.4047 165.65 31.1752L167.596 41.667L166.53 43.2497C165.944 44.1203 164.662 45.3257 163.683 45.9285C160.185 48.0813 160.389 47.7022 161.265 50.4109C161.694 51.7405 162.099 52.8923 162.163 52.97C162.447 53.312 166.972 50.6444 168.542 49.2099C171.239 46.7455 174.32 41.4674 179.357 30.6823C181.911 25.2141 184 20.6767 184 20.5999C184 20.5231 182.535 20.4602 180.744 20.4602H177.488L175.019 27.0454C173.661 30.6671 172.372 34.133 172.153 34.7469C171.779 35.7974 171.741 35.7581 171.491 34.0772C171.345 33.095 170.989 29.6291 170.7 26.3758L170.175 20.4602H166.934C165.151 20.4602 163.695 20.5102 163.698 20.5718ZM106.108 25.5592C108.102 27.0356 106.522 35.8349 103.935 37.6676C102.621 38.5985 100.837 38.4708 99.8598 37.3765C99.2135 36.6524 99.0281 35.8001 99.0581 33.6932C99.1451 27.6178 102.954 23.2233 106.108 25.5592ZM128.856 26.3378C129.591 27.7263 129.112 32.4123 128.013 34.5924C126.302 37.9824 123.463 39.5869 121.618 38.2069C120.922 37.6864 120.919 37.3944 121.581 33.854C122.679 27.9803 124.313 25.3712 126.892 25.3712C127.93 25.3712 128.491 25.6471 128.856 26.3378Z" fill="black"/>
</svg>
