<svg width="145" height="37" viewBox="0 0 145 37" fill="none" xmlns="http://www.w3.org/2000/svg">
<path fill-rule="evenodd" clip-rule="evenodd" d="M55.8355 0.357752C54.5817 0.727025 52.598 2.56127 51.8345 4.05672C51.0532 5.58703 50.693 7.73513 49.5048 17.9544C48.9058 23.1025 48.3166 27.9578 48.1952 28.7437L47.9745 30.1723L49.6226 29.9844C50.5289 29.8808 51.7229 29.4624 52.2759 29.0542L53.2811 28.3127L54.4994 29.2539C56.1004 30.4909 59.0291 30.7754 61.2631 29.9109C63.32 29.1155 65.5769 26.6213 66.9713 23.6032C67.8174 21.7712 68.1098 20.5393 68.2505 18.215C68.4744 14.5098 67.9663 12.4487 66.402 10.7198C64.3317 8.43146 60.5156 8.61463 57.5999 11.1423L56.1674 12.3844L56.8081 7.36916C57.5144 1.84035 57.6162 -0.0489613 57.2056 0.00096025C57.0563 0.0193138 56.4396 0.179723 55.8355 0.357752ZM79.5823 0.940293C76.3666 2.065 74.7007 4.02148 73.7698 7.76633C73.4853 8.91122 73.0936 9.54552 72.5029 9.81788C71.4854 10.2877 70.628 11.5468 70.462 12.8154C70.3519 13.6552 70.4591 13.7331 71.726 13.7331H73.1099L72.8696 15.9355C72.3707 20.5077 70.503 35.0661 70.2866 36.0729C70.0656 37.1 70.0873 37.1169 71.2882 36.8651C73.2635 36.451 74.9888 35.0815 76.0698 33.0692C76.9442 31.4416 77.1942 30.2119 77.965 23.7486C79.2565 12.9141 79.0572 13.7404 80.3915 13.6905C81.7689 13.6391 83.5684 11.7883 83.5684 10.4236C83.5684 9.55396 83.468 9.51175 81.3942 9.51175C80.1983 9.51175 79.221 9.38805 79.2221 9.23645C79.2373 7.12983 81.0622 4.73984 82.6552 4.73984C83.776 4.73984 84.5787 3.70323 84.8657 1.8855L85.1107 0.334994L83.1618 0.352614C82.0899 0.362157 80.4792 0.626815 79.5823 0.940293ZM87.3842 1.52797C87.2726 2.18429 86.458 8.67593 85.5742 15.9546C84.69 23.2328 83.813 29.8816 83.6249 30.7291C83.2944 32.2194 83.3126 32.2701 84.1863 32.2701C86.5138 32.2701 89.2914 29.7124 90.0712 26.8507C90.2633 26.1466 90.9474 21.283 91.5914 16.043C92.5999 7.84011 92.7017 6.28593 92.3256 4.86134C91.8135 2.9221 91.0076 1.72362 89.673 0.916433C88.1992 0.0255537 87.6136 0.181926 87.3842 1.52797ZM36.822 9.48789C31.6785 11.0784 28.4874 15.796 28.4874 21.8093C28.4874 24.8024 29.8456 27.5984 32.0517 29.1478C33.5335 30.1884 33.8223 30.2512 37.125 30.2512C40.3063 30.2512 40.7995 30.1543 42.511 29.1937C43.547 28.6119 44.7562 27.7467 45.1976 27.2702C45.9611 26.4473 45.9698 26.3702 45.3759 25.7054C44.4402 24.6582 43.0889 24.5572 40.6487 25.3523C39.3507 25.7752 37.9947 25.9829 37.333 25.8596C35.9212 25.5971 34.734 24.3322 34.5829 22.9289C34.4673 21.8534 34.4829 21.8438 37.1181 21.389C43.8162 20.2335 46.6062 18.2245 46.6062 14.5579C46.6062 11.6191 43.4129 9.11825 39.7348 9.17624C38.631 9.1935 37.3203 9.33372 36.822 9.48789ZM102.774 9.48789C95.4855 11.7421 91.716 21.6041 95.9044 27.4615C99.3031 32.2136 106.978 31.5382 110.909 26.1408C114.457 21.269 114.482 14.7054 110.965 11.4212C108.772 9.37373 105.58 8.62014 102.774 9.48789ZM1.30783 19.858C2.2558 25.7186 3.15703 30.2633 3.38641 30.3408C4.23292 30.6267 6.80505 29.6246 8.0364 28.5293C9.54352 27.1891 9.98164 26.3915 12.0287 21.258C13.7989 16.8201 13.6039 16.5694 14.7403 24.7452C15.1614 27.7735 15.5782 30.3254 15.6666 30.416C16.0384 30.7967 19.3443 29.5861 20.5152 28.6405C22.2212 27.2625 22.9898 25.773 26.5204 17.004C29.8231 8.80037 29.8238 8.78311 26.7545 10.0818C23.841 11.3148 22.6104 13.2151 20.6076 19.575C19.9027 21.813 19.274 23.4788 19.2102 23.2769C19.1465 23.075 18.7591 20.2669 18.3492 17.0367C17.3132 8.86754 17.4879 9.38694 15.8786 9.6839C12.6712 10.2753 10.9608 12.4707 8.5093 19.1429C7.63852 21.5127 6.82788 23.4538 6.70758 23.456C6.58763 23.4586 6.39811 21.5197 6.28686 19.1473C6.00892 13.2136 5.29468 11.6452 2.21521 10.2055C-0.589932 8.89397 -0.544273 8.40797 1.30783 19.858ZM115.546 10.4639C115.657 11.0505 116.445 15.7971 117.296 21.0117L118.843 30.4927L120.14 30.249C123.6 29.5982 125.411 27.5268 127.611 21.7032C128.353 19.7424 129.074 18.008 129.215 17.8494C129.356 17.6908 129.845 20.2511 130.302 23.539C130.76 26.8268 131.217 29.7377 131.319 30.0071C131.563 30.6554 133.657 30.2674 135.474 29.2374C137.466 28.1079 138.391 26.4987 141.739 18.3427C145.747 8.57535 145.556 9.35905 143.853 9.67142C141.839 10.0411 139.922 11.4466 138.81 13.3682C138.279 14.287 137.234 16.9306 136.489 19.2431C135.198 23.2501 134.663 24.0731 134.663 22.0538C134.663 21.5494 134.314 18.5211 133.886 15.3243C133.01 8.7721 133.065 8.84625 130.089 10.2151C127.865 11.2384 126.729 12.9574 124.442 18.7619C122.961 22.5196 122.364 23.6983 122.34 22.9098C122.192 18.1273 121.644 13.8905 121.038 12.8521C120.202 11.4183 118.188 9.97315 116.57 9.64536C115.373 9.40273 115.349 9.42182 115.546 10.4639ZM40.6012 13.7591C40.9143 14.0766 41.1705 14.5722 41.1705 14.8603C41.1705 15.7086 39.8638 16.7878 38.3813 17.1641C34.517 18.1445 34.4659 18.1173 35.7646 15.7769C37.0351 13.4868 39.3702 12.5125 40.6012 13.7591ZM61.8176 15.002C62.3771 16.0606 62.2626 19.8055 61.6117 21.7403C60.3865 25.3828 57.464 26.9762 54.9962 25.3472C54.3541 24.9232 55.01 20.3833 56.0616 17.9746C57.7528 14.1001 60.5721 12.6443 61.8176 15.002ZM106.539 14.4789C108.396 16.3602 107.225 23.8818 104.827 25.4734C104.303 25.821 103.399 26.0303 102.709 25.9635C100.953 25.7928 100.123 24.036 100.399 21.0745C100.698 17.8725 101.209 16.3224 102.385 15.0468C103.563 13.7698 105.568 13.4956 106.539 14.4789Z" fill="black"/>
</svg>
