<svg width="127" height="34" viewBox="0 0 127 34" fill="none" xmlns="http://www.w3.org/2000/svg">
<path fill-rule="evenodd" clip-rule="evenodd" d="M0.317106 1.31821C0.142261 1.49306 -0.000475658 1.68968 1.19131e-06 1.75532C0.000954889 1.88662 0.299304 2.35663 1.04939 3.40776C1.32103 3.78845 2.13454 5.20851 2.85728 6.56355C5.17699 10.9126 7.00507 13.5866 9.00387 15.5545C9.63108 16.1722 10.4726 16.8516 10.8734 17.0642C11.2745 17.2771 11.6025 17.4988 11.6025 17.557C11.6025 17.6921 7.40753 25.527 5.48678 28.9791C3.78729 32.0335 3.67905 32.3374 4.12951 32.7879C4.432 33.0903 4.65262 33.1082 8.08736 33.1082C13.787 33.1082 13.6841 33.1735 17.3265 27.2397C18.6723 25.0472 19.8247 23.2533 19.8873 23.2533C19.9499 23.2533 21.1106 25.0594 22.4664 27.2667C23.8221 29.4741 25.169 31.505 25.4594 31.7796C25.7498 32.0543 26.3094 32.4477 26.7028 32.6539C27.3889 33.0134 27.5773 33.0307 31.342 33.0784C35.1783 33.1271 35.2736 33.1205 35.6078 32.7864C36.077 32.3172 35.9851 32.0422 34.4163 29.2139C33.2119 27.0428 29.0196 19.2749 28.3959 18.0588L28.1366 17.5533L29.2324 16.8247C31.637 15.2262 34.4641 11.3758 37.4085 5.68933C37.9065 4.72768 38.634 3.51315 39.0252 2.99036C39.8126 1.93812 39.8795 1.65566 39.4361 1.25447C39.1684 1.01223 38.7637 0.987756 35.7336 1.03115L32.3318 1.07979L31.3849 1.63611C30.8642 1.94209 29.7176 2.91454 28.837 3.79703L27.2357 5.40179L26.7307 4.3497C26.0828 3.00022 25.4356 2.22248 24.5054 1.67569L23.7622 1.23874H19.9474C16.2524 1.23874 16.1084 1.25066 15.3653 1.6164C14.4775 2.05367 13.635 3.04854 12.9794 4.4341L12.5281 5.38748L10.8335 3.69912C9.59373 2.46392 8.86526 1.87501 8.11995 1.50546L7.10124 1.00031H3.86804C0.846885 1.00031 0.614183 1.02114 0.317106 1.31821ZM44.2508 1.5169C44.3052 1.8011 46.196 9.0074 48.4526 17.5311L52.5558 33.0287L54.2924 33.0234C55.9212 33.0183 56.0886 32.9872 56.9885 32.5216C58.2694 31.859 59.1169 30.9034 59.73 29.4308C60.0243 28.7237 61.1794 24.4006 62.5232 18.9766C64.0184 12.9414 64.9122 9.62015 65.0956 9.41734C65.4275 9.05064 66.0048 9.01201 66.2757 9.33834C66.3814 9.46581 67.5258 13.7753 68.819 18.9151C70.1121 24.0549 71.3266 28.6706 71.518 29.1722C72.5572 31.8966 74.3697 33.1082 77.4063 33.1082H78.7777L82.9662 17.2529C85.2698 8.53246 87.1866 1.30836 87.2256 1.199C87.3244 0.922427 85.5248 0.937686 84.4549 1.22268C82.6131 1.71304 81.4266 2.61953 80.6889 4.09983C80.4673 4.54457 79.2948 8.76151 78.026 13.6766C76.7792 18.5067 75.7136 22.4585 75.658 22.4585C75.6025 22.4585 74.6824 19.1212 73.6136 15.0422C71.5156 7.03611 71.0575 5.63862 70.1318 4.41773C68.7349 2.57535 65.8182 1.93494 63.2315 2.90278C61.83 3.42716 60.8087 4.61562 60.0513 6.60408C59.8767 7.06265 58.8411 10.8348 57.7501 14.9866C56.6592 19.1385 55.7408 22.5612 55.7095 22.5925C55.6411 22.6609 55.8227 23.3415 53.189 13.1426C51.9532 8.35682 50.8825 4.5317 50.653 4.08251C49.668 2.15397 47.5856 1.00031 45.0899 1.00031H44.1518L44.2508 1.5169ZM97.9122 1.14289C97.9122 1.24192 100.259 4.80891 103.126 9.06939C105.994 13.3299 108.39 16.8988 108.452 17.0002C108.516 17.1064 106.306 20.5387 103.243 25.0904C100.317 29.4386 97.9666 33.0676 98.0205 33.1547C98.1848 33.4206 101.515 33.1643 102.714 32.7934C104.672 32.1878 105.585 31.2314 109.18 26.0152C111.799 22.2164 111.99 21.9817 112.456 21.9817C112.917 21.9817 113.081 22.1831 115.787 26.0756C119.42 31.3004 120.412 32.2897 122.629 32.8994C123.657 33.1821 126.76 33.3674 126.892 33.1539C126.946 33.067 124.598 29.4345 121.675 25.0818C118.751 20.7291 116.408 17.0887 116.468 16.9919C116.527 16.895 118.921 13.3313 121.788 9.07257C124.655 4.81368 127 1.24668 127 1.14591C127 0.857576 123.138 1.05054 122.149 1.38831C120.352 2.00186 119.329 3.12547 115.377 8.82254C114.061 10.7206 112.857 12.3137 112.702 12.3627C112.548 12.4118 112.311 12.4094 112.175 12.3573C112.039 12.3053 110.831 10.6788 109.49 8.74291C104.608 1.69619 103.975 1.18485 99.9388 1.03703C98.491 0.983941 97.9122 1.01414 97.9122 1.14289ZM7.70954 1.85101C8.75686 2.33867 10.2357 3.5834 11.4657 5.01236C12.0118 5.64705 12.5138 6.16618 12.5813 6.16618C12.6487 6.16618 13.0199 5.52243 13.4061 4.73563C13.7924 3.94883 14.3449 3.06745 14.634 2.77705C15.6314 1.77503 15.7265 1.75675 19.8984 1.76216L23.6864 1.76709L24.4124 2.19244C25.2166 2.66372 26.1018 3.89065 26.6985 5.36094C26.896 5.84748 27.1111 6.24565 27.1767 6.24565C27.2422 6.24565 27.7469 5.7003 28.2985 5.0335C29.4594 3.62998 31.3037 2.10438 32.294 1.7283C32.8629 1.51229 33.5131 1.4751 36.0676 1.51197C37.9717 1.53947 39.1746 1.61831 39.2076 1.71781C39.237 1.80635 38.9519 2.29241 38.5739 2.79772C38.1959 3.30302 37.2837 4.8728 36.5467 6.28603C33.5796 11.9752 30.7007 15.6078 27.9817 17.0935L27.4735 17.371L27.9429 18.2061C28.201 18.6653 29.5036 21.0796 30.8377 23.5712C32.1717 26.0627 33.7242 28.9155 34.2874 29.9109C34.8507 30.9061 35.3237 31.903 35.3385 32.126C35.3808 32.7613 34.6642 32.8487 30.7758 32.6826C26.0212 32.4795 26.3078 32.6796 22.9651 27.227C20.3559 22.971 20.0226 22.4585 19.8625 22.4585C19.7953 22.4585 19.6001 22.6911 19.4286 22.9751C17.068 26.8851 14.4984 30.9135 14.0965 31.334C13.076 32.4016 12.6589 32.5132 9.08429 32.6753C5.67864 32.8297 4.48779 32.7561 4.34425 32.3824C4.29657 32.2578 5.33038 30.2064 6.64171 27.8237C9.81006 22.067 12.2383 17.5322 12.2383 17.3717C12.2383 17.3001 11.8985 17.0808 11.4833 16.8843C11.0165 16.6635 10.1176 15.9147 9.12832 14.923C7.22077 13.0104 5.54401 10.5551 3.26228 6.33371C2.41429 4.76488 1.44215 3.09241 1.10184 2.61715C0.761529 2.14205 0.521515 1.69111 0.568405 1.61513C0.615454 1.53931 2.06221 1.4778 3.78364 1.47875C6.72691 1.48018 6.96104 1.50244 7.70954 1.85101ZM15.4173 6.08257C15.4173 6.28078 16.1417 6.65193 16.8081 6.79546C17.2106 6.88209 17.3247 6.85411 17.3247 6.66862C17.3247 6.05698 17.1416 5.92775 16.2745 5.92775C15.8031 5.92775 15.4173 5.99737 15.4173 6.08257ZM22.5171 6.03377C22.4588 6.09195 22.4111 6.30478 22.4111 6.50665C22.4111 6.83456 22.466 6.86317 22.9277 6.77607C23.505 6.66703 24.3185 6.24374 24.3185 6.05237C24.3185 5.90121 22.6667 5.88404 22.5171 6.03377ZM94.2564 7.16168C93.863 7.46766 92.8258 8.05657 91.9516 8.47047C90.3071 9.24901 89.7885 9.66291 89.4985 10.4284C89.3842 10.7298 89.3289 14.5032 89.3289 21.989V33.1021L89.7312 33.203C90.3391 33.3556 92.2786 33.0175 93.0326 32.6278C93.9674 32.1444 94.2537 31.8615 94.6371 31.0418C94.964 30.3431 94.9728 30.1053 95.0166 20.7101C95.0413 15.421 95.0413 10.0838 95.0166 8.84941L94.9716 6.60536L94.2564 7.16168ZM15.9328 7.2348C15.1964 7.59005 15.119 9.48298 15.8172 10.0625C16.1331 10.3246 17.1823 10.1523 17.4435 9.79532C17.8919 9.18209 17.4508 7.53919 16.7523 7.22097C16.5344 7.12162 16.3416 7.04517 16.3238 7.05121C16.306 7.05709 16.1302 7.13974 15.9328 7.2348ZM22.8482 7.21334C22.4377 7.45065 22.0792 8.24174 22.05 8.97514C22.03 9.47758 22.1059 9.68644 22.3943 9.91977C22.7716 10.2254 23.4522 10.3105 23.7919 10.0945C24.074 9.91516 24.3185 9.1646 24.3185 8.47826C24.3185 7.52679 23.5098 6.83106 22.8482 7.21334ZM16.6921 8.6876C16.4759 8.90822 16.2345 8.65803 16.326 8.30818C16.4055 8.00427 16.4214 8.00205 16.6182 8.2686C16.7328 8.42358 16.766 8.6121 16.6921 8.6876ZM23.262 8.71319C23.1714 8.94891 23.1415 8.95241 23.0229 8.74037C22.9484 8.60717 22.9341 8.37701 22.9908 8.22871C23.0814 7.99299 23.1113 7.98949 23.2299 8.20153C23.3044 8.33473 23.3187 8.56489 23.262 8.71319ZM23.6323 9.61348C23.5816 9.74016 23.5439 9.70249 23.5363 9.51731C23.5295 9.34978 23.567 9.256 23.6198 9.30877C23.6725 9.36154 23.6783 9.49872 23.6323 9.61348ZM18.9142 10.5341C18.9142 10.8995 20.1412 10.9634 20.5926 10.6215C20.8715 10.4103 20.8515 10.406 20.3845 10.5769C19.9954 10.7193 19.7503 10.7215 19.3911 10.5859C19.1288 10.4869 18.9142 10.4635 18.9142 10.5341Z" fill="black"/>
<path d="M89.0935 7.67994C88.2185 0.606662 94.6567 1.00405 94.6567 1.00405C94.6567 1.00405 95.9273 6.01097 89.0935 7.67994Z" fill="black" stroke="black"/>
</svg>
