<svg width="64" height="64" viewBox="0 0 64 64" fill="none" xmlns="http://www.w3.org/2000/svg">
<path fill-rule="evenodd" clip-rule="evenodd" d="M26.5039 0.488929C13.5543 3.03956 4.13155 11.8415 0.781149 24.5174C-0.260383 28.4576 -0.260383 35.6615 0.781149 39.6017C3.31215 49.1771 9.24028 56.5118 17.8015 60.6618C22.9405 63.1525 26.5451 64 32.0001 64C37.4551 64 41.0597 63.1525 46.1986 60.6618C54.7599 56.5118 60.688 49.1771 63.219 39.6017C64.2592 35.667 64.2606 28.4599 63.2218 24.5174C62.1573 20.4775 59.3135 14.7724 56.8118 11.6587C49.9777 3.152 37.0923 -1.59683 26.5039 0.488929ZM40.0154 4.21248C43.2169 5.16736 46.4991 6.81247 49.3667 8.89869L51.6188 10.5374L50.2063 10.9026C49.4295 11.1037 48.2391 11.9256 47.5612 12.7297C45.8863 14.7162 46.1386 17.5004 48.327 21.176C52.3063 27.8606 52.3837 29.9345 49.0681 41.0846C47.7417 45.5459 46.5518 49.1968 46.4235 49.1981C46.2953 49.1995 43.8939 42.3197 41.0876 33.909L35.9853 18.6171L38.0061 18.315C40.1574 17.9927 40.6181 17.6549 40.2407 16.6735C40.0548 16.1895 38.2071 16.0706 31.4225 16.1067C23.4535 16.1497 22.8397 16.2123 22.8397 16.9825C22.8397 17.5813 23.3953 17.9502 24.8372 18.3077L26.835 18.8036L29.039 24.8634L31.2434 30.9232L28.3011 39.7192C26.6834 44.5572 25.2324 48.8238 25.0772 49.2009C24.921 49.5803 22.4687 42.955 19.5892 34.3748C16.7257 25.8434 14.4429 18.8032 14.5162 18.73C14.5899 18.6569 15.462 18.4288 16.4545 18.2226C17.8125 17.9411 18.2596 17.627 18.2596 16.9546C18.2596 16.1108 17.9728 16.0706 13.1069 16.2311C9.35112 16.3549 7.95416 16.2544 7.95416 15.8603C7.95416 15.5632 9.55127 13.7339 11.5038 11.7958C16.1966 7.13656 21.7309 4.27236 27.8779 3.32205C30.3947 2.93259 37.4633 3.4514 40.0154 4.21248ZM59.8073 23.8317C61.1428 28.0069 61.2326 35.7054 59.9937 39.8303C58.1689 45.9056 54.071 51.7853 49.1487 55.3914C47.8805 56.3207 46.7767 57.005 46.696 56.9122C46.6154 56.8189 48.6857 50.675 51.2973 43.2586C56.722 27.8524 57.3976 25.4343 57.4297 21.3177C57.4512 18.4951 57.486 18.4037 58.1181 19.4893C58.484 20.1178 59.2439 22.0719 59.8073 23.8317ZM12.5591 39.263C16.2631 49.3796 19.2251 57.7336 19.1408 57.8268C18.702 58.3146 14.1974 55.0536 11.3865 52.2141C7.92943 48.7214 5.40438 44.485 4.00651 39.8303C2.75933 35.6784 2.85826 28.0316 4.21582 23.669C4.79109 21.82 5.38835 20.4332 5.54316 20.5877C5.69797 20.7422 8.85508 29.146 12.5591 39.263ZM37.0103 46.7453C39.4191 53.3025 41.3895 58.8786 41.3895 59.1364C41.3895 59.7316 38.3812 60.4917 34.4326 60.894C31.0163 61.2418 23.9848 60.3546 23.9848 59.5757C23.9848 59.0263 32.3995 34.5914 32.5401 34.7318C32.5905 34.7821 34.6021 40.1882 37.0103 46.7453Z" fill="black"/>
</svg>
