<svg width="60" height="73" viewBox="0 0 60 73" fill="none" xmlns="http://www.w3.org/2000/svg">
<path fill-rule="evenodd" clip-rule="evenodd" d="M26.9838 0.0770864C12.128 1.71939 0.888043 13.6164 0.428705 28.1847C-0.142375 46.2996 15.9697 60.5238 34.1784 57.9798C43.7699 56.6398 52.2377 50.5976 56.5312 42.0301C65.393 24.3463 54.3722 3.47138 34.4897 0.280089C32.9347 0.0305895 28.4919 -0.0896691 26.9838 0.0770864ZM33.0625 1.49821C39.6468 2.20285 45.7416 5.16979 50.3533 9.91524C63.475 23.4171 59.6384 45.4328 42.6882 53.901C24.3784 63.0486 2.63437 50.3804 1.81296 30.0869C1.13341 13.2962 16.0231 -0.325536 33.0625 1.49821ZM28.041 4.15214C27.8666 4.17644 27.2719 4.24703 26.7196 4.30906C19.8778 5.0768 12.987 9.22402 9.05052 14.9433L8.71434 15.4317L11.8233 15.3643C13.5331 15.3272 15.494 15.2486 16.1808 15.1895C17.7916 15.051 18.2622 15.2534 18.2622 16.0849C18.2622 16.9632 17.9659 17.0969 15.5908 17.2905C15.0228 17.3369 14.534 17.3987 14.5048 17.4279C14.4576 17.4751 15.0777 19.3283 17.981 27.8148C18.4185 29.0935 19.7328 32.9454 20.9017 36.3745C23.2822 43.3579 23.6721 44.4759 23.7123 44.4346C23.7389 44.4072 24.6317 41.7776 27.8428 32.2684L29.2651 28.0566L28.1641 25.0825C25.114 16.844 25.349 17.4146 24.985 17.3615C24.8051 17.3354 24.1348 17.2633 23.4952 17.2012C21.9411 17.0505 21.5364 16.7375 21.7673 15.865C21.975 15.0797 21.9951 15.0766 25.5567 15.284C26.6323 15.3466 28.4163 15.3979 29.521 15.3979C30.6258 15.3979 32.4097 15.3466 33.4854 15.284C36.8041 15.0908 36.7403 15.0882 37.0355 15.4303C37.3838 15.8342 37.3865 16.4748 37.0411 16.8201C36.7747 17.0864 36.5219 17.1355 34.6198 17.2905C33.4314 17.3874 33.4408 17.3829 33.5984 17.7874C33.6639 17.9553 35.7133 23.9404 38.1528 31.0876C40.5923 38.2347 42.6095 44.1037 42.6355 44.1296C42.7248 44.2189 42.761 44.1039 46.0738 33.1964C46.9705 30.2441 47.07 29.696 47.07 27.7092C47.07 25.0538 46.5667 23.477 44.7642 20.4859C43.4959 18.3813 43.0576 17.5058 42.7909 16.5436C42.0138 13.7402 43.6179 11.1056 46.3411 10.7132L47.0922 10.605L46.6054 10.1824C43.198 7.22528 38.8084 5.21058 34.014 4.40354C32.7516 4.19102 28.92 4.02976 28.041 4.15214ZM52.3528 19.6007C52.3489 22.8343 52.0142 24.5936 50.7599 27.9734C50.3082 29.1907 49.5074 31.4617 44.5409 45.6096C43.574 48.3639 42.8064 50.641 42.8351 50.6697C42.9212 50.7559 45.2798 49.1399 46.2691 48.3168C51.1608 44.247 54.0639 39.1338 55.1794 32.6231C55.4279 31.1728 55.3605 26.5977 55.0666 24.9616C54.635 22.5593 53.8464 20.1642 52.8048 18.092L52.3558 17.1987L52.3528 19.6007ZM6.38351 19.8908C2.26426 29.727 5.43618 41.7376 13.938 48.4967C15.7935 49.9719 18.9918 51.903 18.8748 51.4775C18.844 51.366 17.4516 47.5893 15.7803 43.0849C12.1737 33.3639 10.2072 28.0597 9.43332 25.9655C9.12188 25.1228 8.57533 23.6486 8.21874 22.6896C7.86216 21.7306 7.42449 20.5417 7.24615 20.0477C6.81166 18.8447 6.82085 18.8463 6.38351 19.8908ZM30.3313 31.578C30.1689 32.0125 25.8721 44.3151 24.1717 49.2141C23.5362 51.0449 22.9677 52.656 22.9083 52.7943C22.7671 53.1224 22.7474 53.1101 23.8872 53.4012C27.7083 54.3766 32.3812 54.3547 36.3398 53.3425C37.7929 52.9709 38.4095 52.7565 38.3779 52.6336C38.365 52.5838 37.1616 49.333 35.7038 45.4098C34.2459 41.4866 32.4795 36.7312 31.7784 34.8422C30.351 30.9961 30.4583 31.238 30.3313 31.578ZM0.0104905 64.3758C0.043474 64.4616 0.283028 65.3295 0.542985 66.3044C0.802942 67.2794 1.25869 68.9806 1.55585 70.0849C1.85292 71.1893 2.14353 72.2712 2.20157 72.4891L2.30718 72.8853H2.92414H3.54111L4.49974 69.4773C5.02695 67.603 5.49961 65.9037 5.54993 65.7012C5.63302 65.3675 5.71347 65.5898 6.41067 68.0789C6.83365 69.5891 7.30863 71.2764 7.46615 71.8286L7.75264 72.8325L8.33641 72.8636L8.92007 72.8947L10.1027 68.6366C10.7532 66.2946 11.2854 64.3429 11.2852 64.2992C11.2849 64.2299 10.13 64.1777 10.1171 64.2464C9.94425 65.1648 8.33017 71.3032 8.2901 71.1945C8.25796 71.1074 8.17603 70.7507 8.10816 70.402C8.01429 69.9205 6.8845 65.8005 6.46353 64.4049C6.41744 64.2521 6.28128 64.22 5.67933 64.22H4.95094L4.74025 64.9333C4.51243 65.7045 3.12088 70.6221 2.98345 71.1417C2.91473 71.401 2.89127 71.4203 2.85416 71.2474C2.8291 71.1311 2.45614 69.5266 2.02534 67.6817C1.59444 65.8367 1.24188 64.3031 1.24188 64.2737C1.24188 64.2441 0.951367 64.22 0.596266 64.22C0.0706432 64.22 -0.0382449 64.2489 0.0104905 64.3758ZM27.0367 65.7178V67.2158L26.7988 66.9983C25.8916 66.169 24.3605 66.2584 23.4742 67.1924C22.3328 68.3951 22.3115 70.8948 23.4318 72.1702C24.3355 73.1992 26.307 73.2908 26.9769 72.3349C27.1398 72.1023 27.1424 72.1048 27.1424 72.4919V72.8853H27.671H28.1996V68.5527V64.22H27.6181H27.0367V65.7178ZM29.9968 68.5458V72.8853H30.5782H31.1596V71.1417V69.3981L32.4547 69.3974C34.7439 69.3964 35.7031 69.1082 36.2412 68.26C37.0932 66.9172 36.7374 65.1906 35.469 64.5134C35.0424 64.2857 34.8838 64.271 32.5075 64.2395L29.9968 64.2061V68.5458ZM34.8396 65.4908C35.2928 65.767 35.5363 66.3406 35.4543 66.9388C35.3061 68.02 34.8471 68.2517 32.7197 68.32L31.1596 68.37V66.8234V65.2767L32.8247 65.2772C34.3082 65.2775 34.5279 65.3007 34.8396 65.4908ZM13.7158 66.5379C12.3865 66.9421 11.6702 68.0327 11.6638 69.6622C11.6555 71.8032 12.5627 72.8738 14.4666 72.9696C15.8321 73.0383 16.7908 72.522 17.33 71.4277C17.7322 70.6114 17.6932 68.7149 17.2579 67.9224C16.597 66.719 15.0757 66.1243 13.7158 66.5379ZM20.3056 66.9166L19.848 67.3939V66.9694V66.5448H19.3723H18.8965V69.7151V72.8853H19.4251H19.9537V71.094C19.9537 68.1528 20.2145 67.5263 21.3932 67.6363L22.0514 67.6977L22.2142 67.2199L22.3771 66.742L22.0145 66.5906C21.297 66.2909 20.8176 66.3823 20.3056 66.9166ZM39.5042 66.8441L39.0992 67.2489L39.0673 66.9234C39.0372 66.615 39.0088 66.596 38.5334 66.5654L38.0312 66.5332V69.7093V72.8853H38.6127H39.1941L39.1947 70.8511C39.1956 67.9396 39.3751 67.5247 40.5877 67.6325L41.1883 67.6859L41.3541 67.2718C41.5643 66.7468 41.5735 66.7894 41.208 66.6004C40.6117 66.2922 39.9636 66.3848 39.5042 66.8441ZM43.4697 66.69C42.3794 67.1975 41.8018 68.2597 41.7958 69.7679C41.7878 71.7932 42.7445 72.8834 44.6081 72.9724C46.061 73.042 46.8668 72.6437 47.3994 71.5929C47.7118 70.9767 47.7069 70.9677 47.0286 70.9025C46.5347 70.8551 46.4983 70.8693 46.343 71.1694C45.933 71.9619 44.999 72.321 44.2078 71.9907C43.4605 71.6786 43.1688 71.2905 42.9545 70.3227L42.8902 70.0321H45.2708H47.6514V69.463C47.6514 67.6771 46.4624 66.4413 44.7442 66.4413C44.1889 66.4413 43.8708 66.5033 43.4697 66.69ZM50.03 66.5667C48.8146 66.9913 48.345 68.2876 49.065 69.2311C49.36 69.6178 49.9481 69.887 51.1542 70.1878C52.5491 70.5356 52.9164 70.8507 52.6383 71.4609C52.4428 71.8899 52.0101 72.0932 51.3033 72.0883C50.4779 72.0826 50.0626 71.8604 49.7775 71.2717L49.5562 70.8147L49.0531 70.8725C48.4625 70.9404 48.4298 71.13 48.8763 71.901C49.3404 72.7025 49.9805 72.9915 51.288 72.99C53.2352 72.9876 54.3653 71.7169 53.6795 70.301C53.4055 69.735 53.0465 69.5378 51.4685 69.0865C50.0508 68.6809 49.6627 68.4097 49.8149 67.9301C50.0102 67.3152 51.6616 67.1555 52.2054 67.6991C52.3754 67.869 52.5144 68.083 52.5144 68.1747C52.5144 68.3535 52.7128 68.3809 53.2412 68.2753C54.0079 68.1219 53.297 66.9025 52.2616 66.5951C51.6624 66.4173 50.5001 66.4025 50.03 66.5667ZM55.9221 66.7108C54.9473 67.1963 54.6063 68.2427 55.1409 69.1075C55.4294 69.5739 55.9279 69.8218 57.3245 70.1932C58.6607 70.5485 58.8574 70.6693 58.8574 71.1347C58.8574 72.4481 56.3549 72.4463 55.8967 71.1326C55.7904 70.8278 55.7669 70.8178 55.2867 70.873C54.6569 70.9454 54.6107 71.1431 55.0471 71.8985C55.5286 72.7318 56.1959 73.024 57.5053 72.975C59.0694 72.9164 59.9067 72.308 59.9909 71.1692C60.0739 70.0467 59.6145 69.6382 57.6592 69.0949C56.2762 68.7106 56.003 68.5523 56.003 68.1352C56.003 67.3601 57.6836 67.0461 58.3369 67.6991C58.5069 67.869 58.6459 68.0892 58.6459 68.1883C58.6459 68.3446 58.7195 68.3587 59.1991 68.2952C59.8695 68.2063 59.8254 68.2516 59.6965 67.7849C59.369 66.5996 57.3175 66.0157 55.9221 66.7108ZM15.5876 67.6198C16.629 68.2473 16.8093 70.5906 15.8909 71.5639C15.073 72.4308 13.6043 72.2209 13.0933 71.1641C12.0172 68.9383 13.7319 66.5016 15.5876 67.6198ZM26.2774 67.6048C27.2498 68.1974 27.4482 70.5983 26.6041 71.5593C25.9811 72.2686 25.095 72.297 24.3956 71.63C23.5085 70.7841 23.507 68.6745 24.3929 67.7889C24.8784 67.3037 25.6584 67.2275 26.2774 67.6048ZM45.7221 67.618C46.0814 67.8399 46.4814 68.5089 46.4862 68.8961C46.4883 69.0649 46.3359 69.081 44.7442 69.081C42.8473 69.081 42.8806 69.0933 43.1124 68.4803C43.488 67.4865 44.805 67.0513 45.7221 67.618Z" fill="black"/>
</svg>
