<svg width="89" height="71" viewBox="0 0 89 71" fill="none" xmlns="http://www.w3.org/2000/svg">
<path fill-rule="evenodd" clip-rule="evenodd" d="M43.5557 0.328472C43.1662 0.499833 40.6166 2.42326 37.8899 4.60254C35.1633 6.78182 30.5704 10.4447 27.6837 12.7424C21.2911 17.8304 21.4828 17.5434 21.4828 22.0346C21.4828 27.2009 21.2996 26.9763 28.683 30.8507C30.2411 31.6681 31.8346 32.5228 32.2241 32.7499C32.6137 32.9768 33.9416 33.6962 35.1751 34.3484C44.7021 39.3851 44.7264 39.3953 46.1417 38.9256C46.9835 38.6462 59.6786 31.9242 60.0563 31.5578C60.4072 31.2177 60.2249 22.0971 59.8531 21.3786C58.5925 18.9425 58.8571 18.9853 45.0387 18.9857C31.7364 18.986 32.26 18.9221 30.8282 20.7233C29.5336 22.3522 29.7439 26.1055 31.1299 26.1055C31.9321 26.1055 32.5783 25.0826 32.5783 23.8123C32.5783 21.4764 31.795 21.6131 45.2306 21.6039C56.1647 21.5965 56.8429 21.6207 57.2114 22.0301C57.5396 22.3947 57.6021 23.0531 57.6021 26.1456V29.8273L55.5365 30.9151C54.4005 31.5134 52.3023 32.6265 50.874 33.3886C49.4458 34.1507 47.5588 35.1469 46.6809 35.6021L45.0843 36.4299L43.7299 35.7108C42.9849 35.3151 40.7818 34.1512 38.8342 33.124C36.8866 32.0965 34.1777 30.6459 32.8143 29.9002C31.451 29.1544 29.167 27.9267 27.7387 27.1717C24.0527 25.2231 24.3156 25.6157 24.3156 22.0626V19.0425L26.3813 17.3927C27.5175 16.4853 30.5716 14.049 33.1684 11.9789C35.7653 9.90857 39.2034 7.16157 40.8087 5.87422C45.4027 2.19019 44.9627 2.27112 47.8225 4.58592C48.8516 5.41876 52.6682 8.47051 56.3037 11.3673C63.6704 17.2372 63.2077 16.8667 64.7434 18.1242L65.8647 19.0425V31.4374C65.8647 43.1444 65.8406 43.8545 65.4329 44.2255C64.7306 44.8644 25.2826 44.8245 24.7064 44.1842C24.3648 43.8046 24.3156 43.0058 24.3156 37.8288C24.3156 31.2611 24.2326 30.8524 22.8992 30.8524C21.5633 30.8524 21.4828 31.2533 21.4828 37.9145C21.4828 44.3365 21.5829 45.003 22.7335 46.2379C23.9105 47.501 23.2781 47.4664 45.1036 47.4664C66.505 47.4664 66.1336 47.4854 67.3692 46.3238C68.7156 45.0585 68.6976 45.2581 68.6976 31.4438C68.6976 16.5124 68.9469 17.86 65.7042 15.2699C45.8095 -0.618763 46.631 -0.0118764 45.0387 0.00711101C44.6126 0.0123325 43.9452 0.156873 43.5557 0.328472ZM24.3156 63.2496V70.7259H25.4729H26.6301L26.7123 67.5021L26.7944 64.2783L27.5654 63.586C28.5152 62.733 29.2529 62.7073 29.9947 63.5012C30.5275 64.0713 30.5681 64.3132 30.6528 67.4174L30.7432 70.7259H31.8967H33.0504V67.2769C33.0504 63.5212 32.8679 62.7315 31.7633 61.7069C30.8674 60.8757 28.4906 60.8473 27.4044 61.6547L26.6764 62.1958V58.9846V55.7734H25.496H24.3156V63.2496ZM86.6393 63.2496V70.7259H87.8196H89V63.2496V55.7734H87.8196H86.6393V63.2496ZM0 57.7848V58.8467L3.67733 58.9122L7.35442 58.9775L5.30341 61.5883C4.17544 63.0242 2.52057 65.1247 1.62608 66.2561C0.0970266 68.1906 0 68.3853 0 69.5195V70.7259H5.31167H10.6233V69.6579V68.5899H6.82349H3.02364L3.81354 67.5418C4.24792 66.9652 5.95781 64.7781 7.6134 62.6814C10.4666 59.0679 10.6233 58.8135 10.6233 57.796V56.7227H5.31167H0V57.7848ZM52.6446 63.7151V70.7259H53.9385H55.2324L55.2959 65.4451L55.3594 60.1642L57.2761 65.3857L59.193 70.6073L60.1347 70.6787L61.0764 70.7499L63.1055 65.3385L65.1343 59.9269L65.1454 65.3264L65.1565 70.7259H66.4549H67.7533V63.7243V56.7227H65.7467C64.643 56.7227 63.7398 56.7495 63.7396 56.7821C63.736 57.284 60.1949 66.4699 60.1029 66.2164C60.0316 66.0206 59.2414 63.8311 58.3467 61.3509L56.7199 56.8414L54.6821 56.7728L52.6446 56.7042V63.7151ZM81.7761 56.9043C80.5122 57.7528 81.1286 59.5585 82.685 59.5673C83.4435 59.5715 84.2785 58.8272 84.2785 58.1468C84.2785 57.1312 82.6458 56.3204 81.7761 56.9043ZM14.5164 61.4226C9.67621 63.7096 11.3873 70.9367 16.774 70.9581C21.7847 70.978 23.9259 64.7114 19.8857 61.8503C18.5956 60.9367 15.9851 60.7288 14.5164 61.4226ZM37.8878 61.4226C33.0495 63.7087 34.7622 70.9633 40.1402 70.9633C44.3432 70.9633 46.8324 66.4445 44.4816 63.0818C43.1367 61.158 40.0774 60.3882 37.8878 61.4226ZM72.0163 61.4712C70.3287 62.2609 70.2755 62.3525 70.9727 63.271L71.5827 64.0754L72.302 63.5603C73.7066 62.5547 76.252 63.0443 76.252 64.3203C76.252 64.6514 75.942 64.7475 74.5253 64.855C71.459 65.0883 69.878 66.1578 69.878 67.9991C69.878 70.4302 72.9196 71.8087 75.3703 70.4881C76.1021 70.0937 76.252 70.0735 76.252 70.3694C76.252 70.6391 76.5398 70.7259 77.4324 70.7259H78.6127L78.6123 67.2251C78.612 63.3645 78.3951 62.5455 77.1252 61.6091C76.1424 60.8843 73.4267 60.811 72.0163 61.4712ZM81.4456 65.9791V70.7259H82.626H83.8064V65.9791V61.2322H82.626H81.4456V65.9791ZM18.5684 63.6401C20.3047 65.2801 19.4476 68.6352 17.2082 68.9634C14.8687 69.3066 13.2789 66.0669 14.7757 64.0058C15.6487 62.8034 17.494 62.6254 18.5684 63.6401ZM41.5732 63.4364C44.4077 65.3542 42.1818 70.177 39.1331 68.7225C37.109 67.757 37.0556 64.2553 39.0498 63.266C40.0585 62.7655 40.6397 62.8049 41.5732 63.4364ZM76.252 66.9152C76.252 68.6262 73.5839 69.7661 72.6105 68.4712C71.7626 67.3431 73.0853 66.3166 75.4847 66.2406C76.1821 66.2186 76.252 66.28 76.252 66.9152Z" fill="black"/>
</svg>
